  0
SECTION
  2
HEADER
  9
$ACADVER
  1
AC1021
  9
$ACADMAINTVER
 70
    25
  9
$DWGCODEPAGE
  3
ANSI_1252
  9
$INSBASE
 10
0.0
 20
0.0
 30
0.0
  9
$EXTMIN
 10
301.7011
 20
-6.4001
 30
0.0
  9
$EXTMAX
 10
692.3503
 20
87.95
 30
0.0
  9
$LIMMIN
 10
0.0
 20
0.0
  9
$LIMMAX
 10
12.0
 20
9.0
  9
$ORTHOMODE
 70
     0
  9
$REGENMODE
 70
     1
  9
$FILLMODE
 70
     1
  9
$QTEXTMODE
 70
     0
  9
$MIRRTEXT
 70
     1
  9
$LTSCALE
 40
1.0
  9
$ATTMODE
 70
     1
  9
$TEXTSIZE
 40
0.2
  9
$TRACEWID
 40
0.05
  9
$TEXTSTYLE
  7
Standard
  9
$CLAYER
  8
0
  9
$CELTYPE
  6
ByLayer
  9
$CECOLOR
 62
   256
  9
$CELTSCALE
 40
1.0
  9
$DISPSILH
 70
     0
  9
$DIMSCALE
 40
1.0
  9
$DIMASZ
 40
0.18
  9
$DIMEXO
 40
0.0625
  9
$DIMDLI
 40
0.38
  9
$DIMRND
 40
0.0
  9
$DIMDLE
 40
0.0
  9
$DIMEXE
 40
0.18
  9
$DIMTP
 40
0.0
  9
$DIMTM
 40
0.0
  9
$DIMTXT
 40
0.18
  9
$DIMCEN
 40
0.09
  9
$DIMTSZ
 40
0.0
  9
$DIMTOL
 70
     0
  9
$DIMLIM
 70
     0
  9
$DIMTIH
 70
     1
  9
$DIMTOH
 70
     1
  9
$DIMSE1
 70
     0
  9
$DIMSE2
 70
     0
  9
$DIMTAD
 70
     0
  9
$DIMZIN
 70
     0
  9
$DIMBLK
  1

  9
$DIMASO
 70
     1
  9
$DIMSHO
 70
     1
  9
$DIMPOST
  1

  9
$DIMAPOST
  1

  9
$DIMALT
 70
     0
  9
$DIMALTD
 70
     2
  9
$DIMALTF
 40
25.4
  9
$DIMLFAC
 40
1.0
  9
$DIMTOFL
 70
     0
  9
$DIMTVP
 40
0.0
  9
$DIMTIX
 70
     0
  9
$DIMSOXD
 70
     0
  9
$DIMSAH
 70
     0
  9
$DIMBLK1
  1

  9
$DIMBLK2
  1

  9
$DIMSTYLE
  2
Standard
  9
$DIMCLRD
 70
     0
  9
$DIMCLRE
 70
     0
  9
$DIMCLRT
 70
     0
  9
$DIMTFAC
 40
1.0
  9
$DIMGAP
 40
0.09
  9
$DIMJUST
 70
     0
  9
$DIMSD1
 70
     0
  9
$DIMSD2
 70
     0
  9
$DIMTOLJ
 70
     1
  9
$DIMTZIN
 70
     0
  9
$DIMALTZ
 70
     0
  9
$DIMALTTZ
 70
     0
  9
$DIMUPT
 70
     0
  9
$DIMDEC
 70
     4
  9
$DIMTDEC
 70
     4
  9
$DIMALTU
 70
     2
  9
$DIMALTTD
 70
     2
  9
$DIMTXSTY
  7
Standard
  9
$DIMAUNIT
 70
     0
  9
$DIMADEC
 70
     0
  9
$DIMALTRND
 40
0.0
  9
$DIMAZIN
 70
     0
  9
$DIMDSEP
 70
    46
  9
$DIMATFIT
 70
     3
  9
$DIMFRAC
 70
     0
  9
$DIMLDRBLK
  1

  9
$DIMLUNIT
 70
     2
  9
$DIMLWD
 70
    -2
  9
$DIMLWE
 70
    -2
  9
$DIMTMOVE
 70
     0
  9
$DIMFXL
 40
1.0
  9
$DIMFXLON
 70
     0
  9
$DIMJOGANG
 40
0.7853981633974483
  9
$DIMTFILL
 70
     0
  9
$DIMTFILLCLR
 70
     0
  9
$DIMARCSYM
 70
     0
  9
$DIMLTYPE
  6

  9
$DIMLTEX1
  6

  9
$DIMLTEX2
  6

  9
$LUNITS
 70
     2
  9
$LUPREC
 70
     4
  9
$SKETCHINC
 40
0.1
  9
$FILLETRAD
 40
0.5
  9
$AUNITS
 70
     0
  9
$AUPREC
 70
     0
  9
$MENU
  1
.
  9
$ELEVATION
 40
0.0
  9
$PELEVATION
 40
0.0
  9
$THICKNESS
 40
0.0
  9
$LIMCHECK
 70
     0
  9
$CHAMFERA
 40
0.5
  9
$CHAMFERB
 40
0.5
  9
$CHAMFERC
 40
1.0
  9
$CHAMFERD
 40
0.0
  9
$SKPOLY
 70
     0
  9
$TDCREATE
 40
2456687.725659063
  9
$TDUCREATE
 40
2456687.288159063
  9
$TDUPDATE
 40
2456687.725664028
  9
$TDUUPDATE
 40
2456687.288164028
  9
$TDINDWG
 40
0.0000000116
  9
$TDUSRTIMER
 40
0.0000000116
  9
$USRTIMER
 70
     1
  9
$ANGBASE
 50
0.0
  9
$ANGDIR
 70
     0
  9
$PDMODE
 70
     0
  9
$PDSIZE
 40
0.0
  9
$PLINEWID
 40
0.0
  9
$SPLFRAME
 70
     0
  9
$SPLINETYPE
 70
     6
  9
$SPLINESEGS
 70
     8
  9
$HANDSEED
  5
7D
  9
$SURFTAB1
 70
     6
  9
$SURFTAB2
 70
     6
  9
$SURFTYPE
 70
     6
  9
$SURFU
 70
     6
  9
$SURFV
 70
     6
  9
$UCSBASE
  2

  9
$UCSNAME
  2

  9
$UCSORG
 10
0.0
 20
0.0
 30
0.0
  9
$UCSXDIR
 10
1.0
 20
0.0
 30
0.0
  9
$UCSYDIR
 10
0.0
 20
1.0
 30
0.0
  9
$UCSORTHOREF
  2

  9
$UCSORTHOVIEW
 70
     0
  9
$UCSORGTOP
 10
0.0
 20
0.0
 30
0.0
  9
$UCSORGBOTTOM
 10
0.0
 20
0.0
 30
0.0
  9
$UCSORGLEFT
 10
0.0
 20
0.0
 30
0.0
  9
$UCSORGRIGHT
 10
0.0
 20
0.0
 30
0.0
  9
$UCSORGFRONT
 10
0.0
 20
0.0
 30
0.0
  9
$UCSORGBACK
 10
0.0
 20
0.0
 30
0.0
  9
$PUCSBASE
  2

  9
$PUCSNAME
  2

  9
$PUCSORG
 10
0.0
 20
0.0
 30
0.0
  9
$PUCSXDIR
 10
1.0
 20
0.0
 30
0.0
  9
$PUCSYDIR
 10
0.0
 20
1.0
 30
0.0
  9
$PUCSORTHOREF
  2

  9
$PUCSORTHOVIEW
 70
     0
  9
$PUCSORGTOP
 10
0.0
 20
0.0
 30
0.0
  9
$PUCSORGBOTTOM
 10
0.0
 20
0.0
 30
0.0
  9
$PUCSORGLEFT
 10
0.0
 20
0.0
 30
0.0
  9
$PUCSORGRIGHT
 10
0.0
 20
0.0
 30
0.0
  9
$PUCSORGFRONT
 10
0.0
 20
0.0
 30
0.0
  9
$PUCSORGBACK
 10
0.0
 20
0.0
 30
0.0
  9
$USERI1
 70
     0
  9
$USERI2
 70
     0
  9
$USERI3
 70
     0
  9
$USERI4
 70
     0
  9
$USERI5
 70
     0
  9
$USERR1
 40
0.0
  9
$USERR2
 40
0.0
  9
$USERR3
 40
0.0
  9
$USERR4
 40
0.0
  9
$USERR5
 40
0.0
  9
$WORLDVIEW
 70
     1
  9
$SHADEDGE
 70
     3
  9
$SHADEDIF
 70
    70
  9
$TILEMODE
 70
     1
  9
$MAXACTVP
 70
    64
  9
$PINSBASE
 10
0.0
 20
0.0
 30
0.0
  9
$PLIMCHECK
 70
     0
  9
$PEXTMIN
 10
1.000000000000000E+20
 20
1.000000000000000E+20
 30
1.000000000000000E+20
  9
$PEXTMAX
 10
-1.000000000000000E+20
 20
-1.000000000000000E+20
 30
-1.000000000000000E+20
  9
$PLIMMIN
 10
0.0
 20
0.0
  9
$PLIMMAX
 10
12.0
 20
9.0
  9
$UNITMODE
 70
     0
  9
$VISRETAIN
 70
     1
  9
$PLINEGEN
 70
     0
  9
$PSLTSCALE
 70
     1
  9
$TREEDEPTH
 70
  3020
  9
$CMLSTYLE
  2
Standard
  9
$CMLJUST
 70
     0
  9
$CMLSCALE
 40
1.0
  9
$PROXYGRAPHICS
 70
     1
  9
$MEASUREMENT
 70
     0
  9
$CELWEIGHT
370
    -1
  9
$ENDCAPS
280
     0
  9
$JOINSTYLE
280
     0
  9
$LWDISPLAY
290
     0
  9
$INSUNITS
 70
     4
  9
$HYPERLINKBASE
  1

  9
$STYLESHEET
  1

  9
$XEDIT
290
     1
  9
$CEPSNTYPE
380
     0
  9
$PSTYLEMODE
290
     1
  9
$FINGERPRINTGUID
  2
{DD4FB5A9-6603-4E46-AF91-D47DC837266B}
  9
$VERSIONGUID
  2
{FAEB1C32-E019-11D5-929B-00C0DF256EC4}
  9
$EXTNAMES
290
     1
  9
$PSVPSCALE
 40
0.0
  9
$OLESTARTUP
290
     0
  9
$SORTENTS
280
   127
  9
$INDEXCTL
280
     0
  9
$HIDETEXT
280
     1
  9
$XCLIPFRAME
290
     0
  9
$HALOGAP
280
     0
  9
$OBSCOLOR
 70
   257
  9
$OBSLTYPE
280
     0
  9
$INTERSECTIONDISPLAY
280
     0
  9
$INTERSECTIONCOLOR
 70
   257
  9
$DIMASSOC
280
     2
  9
$PROJECTNAME
  1

  9
$CAMERADISPLAY
290
     0
  9
$LENSLENGTH
 40
50.0
  9
$CAMERAHEIGHT
 40
0.0
  9
$STEPSPERSEC
 40
2.0
  9
$STEPSIZE
 40
6.0
  9
$3DDWFPREC
 40
2.0
  9
$PSOLWIDTH
 40
0.25
  9
$PSOLHEIGHT
 40
4.0
  9
$LOFTANG1
 40
1.570796326794897
  9
$LOFTANG2
 40
1.570796326794897
  9
$LOFTMAG1
 40
0.0
  9
$LOFTMAG2
 40
0.0
  9
$LOFTPARAM
 70
     7
  9
$LOFTNORMALS
280
     1
  9
$LATITUDE
 40
37.795
  9
$LONGITUDE
 40
-122.394
  9
$NORTHDIRECTION
 40
0.0
  9
$TIMEZONE
 70
 -8000
  9
$LIGHTGLYPHDISPLAY
280
     1
  9
$TILEMODELIGHTSYNCH
280
     1
  9
$SOLIDHIST
280
     1
  9
$SHOWHIST
280
     1
  9
$DWFFRAME
280
     2
  9
$DGNFRAME
280
     2
  9
$REALWORLDSCALE
290
     1
  9
$INTERFERECOLOR
 62
   256
  9
$CSHADOW
280
     0
  9
$SHADOWPLANELOCATION
 40
0.0
  0
ENDSEC
  0
SECTION
  2
CLASSES
  0
CLASS
  1
ACDBDICTIONARYWDFLT
  2
AcDbDictionaryWithDefault
  3
ObjectDBX Classes
 90
        0
 91
        4
280
     0
281
     0
  0
CLASS
  1
VISUALSTYLE
  2
AcDbVisualStyle
  3
ObjectDBX Classes
 90
     4095
 91
        4
280
     0
281
     0
  0
CLASS
  1
MATERIAL
  2
AcDbMaterial
  3
ObjectDBX Classes
 90
     1153
 91
        4
280
     0
281
     0
  0
ENDSEC
  0
SECTION
  2
TABLES
  0
TABLE
  2
VPORT
  5
8
330
0
100
AcDbSymbolTable
 70
     1
  0
VPORT
  5
29
330
8
100
AcDbSymbolTableRecord
100
AcDbViewportTableRecord
  2
*Active
 70
     0
 10
0.0
 20
0.0
 11
1.0
 21
1.0
 12
10.42990654205607
 22
4.5
 13
0.0
 23
0.0
 14
0.5
 24
0.5
 15
0.5
 25
0.5
 16
0.0
 26
0.0
 36
1.0
 17
0.0
 27
0.0
 37
0.0
 40
9.0
 41
1.972972972850329
 42
50.0
 43
0.0
 44
0.0
 50
0.0
 51
0.0
 71
     0
 72
   100
 73
     1
 74
     3
 75
     0
 76
     0
 77
     0
 78
     0
281
     0
 65
     1
110
0.0
120
0.0
130
0.0
111
1.0
121
0.0
131
0.0
112
0.0
122
1.0
132
0.0
 79
     0
146
0.0
 60
     3
 61
     5
292
     1
282
     1
141
0.0
142
0.0
 63
   250
  0
ENDTAB
  0
TABLE
  2
LTYPE
  5
5
330
0
100
AcDbSymbolTable
 70
     1
  0
LTYPE
  5
14
330
5
100
AcDbSymbolTableRecord
100
AcDbLinetypeTableRecord
  2
ByBlock
 70
     0
  3

 72
    65
 73
     0
 40
0.0
  0
LTYPE
  5
15
330
5
100
AcDbSymbolTableRecord
100
AcDbLinetypeTableRecord
  2
ByLayer
 70
     0
  3

 72
    65
 73
     0
 40
0.0
  0
LTYPE
  5
16
330
5
100
AcDbSymbolTableRecord
100
AcDbLinetypeTableRecord
  2
Continuous
 70
     0
  3
Solid line
 72
    65
 73
     0
 40
0.0
  0
ENDTAB
  0
TABLE
  2
LAYER
  5
2
330
0
100
AcDbSymbolTable
 70
     2
  0
LAYER
  5
10
330
2
100
AcDbSymbolTableRecord
100
AcDbLayerTableRecord
  2
0
 70
     0
 62
     7
  6
Continuous
370
    -3
390
F
347
3E
  0
LAYER
  5
40
330
2
100
AcDbSymbolTableRecord
100
AcDbLayerTableRecord
  2
Layer 1
 70
     0
 62
     7
  6
Continuous
370
    -3
390
F
347
3E
  0
ENDTAB
  0
TABLE
  2
STYLE
  5
3
330
0
100
AcDbSymbolTable
 70
     1
  0
STYLE
  5
11
330
3
100
AcDbSymbolTableRecord
100
AcDbTextStyleTableRecord
  2
Standard
 70
     0
 40
0.0
 41
1.0
 50
0.0
 71
     0
 42
0.2
  3
txt
  4

  0
ENDTAB
  0
TABLE
  2
VIEW
  5
6
330
0
100
AcDbSymbolTable
 70
     0
  0
ENDTAB
  0
TABLE
  2
UCS
  5
7
330
0
100
AcDbSymbolTable
 70
     0
  0
ENDTAB
  0
TABLE
  2
APPID
  5
9
330
0
100
AcDbSymbolTable
 70
     2
  0
APPID
  5
12
330
9
100
AcDbSymbolTableRecord
100
AcDbRegAppTableRecord
  2
ACAD
 70
     0
  0
APPID
  5
3F
330
9
100
AcDbSymbolTableRecord
100
AcDbRegAppTableRecord
  2
ODA
 70
     0
  0
ENDTAB
  0
TABLE
  2
DIMSTYLE
  5
A
330
0
100
AcDbSymbolTable
 70
     1
100
AcDbDimStyleTable
  0
DIMSTYLE
105
27
330
A
100
AcDbSymbolTableRecord
100
AcDbDimStyleTableRecord
  2
Standard
 70
     0
178
     0
340
11
  0
ENDTAB
  0
TABLE
  2
BLOCK_RECORD
  5
1
330
0
100
AcDbSymbolTable
 70
     1
  0
BLOCK_RECORD
  5
1F
330
1
100
AcDbSymbolTableRecord
100
AcDbBlockTableRecord
  2
*Model_Space
340
22
 70
     0
280
     1
281
     0
  0
BLOCK_RECORD
  5
1B
330
1
100
AcDbSymbolTableRecord
100
AcDbBlockTableRecord
  2
*Paper_Space
340
1E
 70
     0
280
     1
281
     0
  0
BLOCK_RECORD
  5
23
330
1
100
AcDbSymbolTableRecord
100
AcDbBlockTableRecord
  2
*Paper_Space0
340
26
 70
     0
280
     1
281
     0
  0
ENDTAB
  0
ENDSEC
  0
SECTION
  2
BLOCKS
  0
BLOCK
  5
20
330
1F
100
AcDbEntity
  8
0
100
AcDbBlockBegin
  2
*Model_Space
 70
     0
 10
0.0
 20
0.0
 30
0.0
  3
*Model_Space
  1

  0
ENDBLK
  5
21
330
1F
100
AcDbEntity
  8
0
100
AcDbBlockEnd
  0
BLOCK
  5
1C
330
1B
100
AcDbEntity
 67
     1
  8
0
100
AcDbBlockBegin
  2
*Paper_Space
 70
     0
 10
0.0
 20
0.0
 30
0.0
  3
*Paper_Space
  1

  0
ENDBLK
  5
1D
330
1B
100
AcDbEntity
 67
     1
  8
0
100
AcDbBlockEnd
  0
BLOCK
  5
24
330
23
100
AcDbEntity
  8
0
100
AcDbBlockBegin
  2
*Paper_Space0
 70
     0
 10
0.0
 20
0.0
 30
0.0
  3
*Paper_Space0
  1

  0
ENDBLK
  5
25
330
23
100
AcDbEntity
  8
0
100
AcDbBlockEnd
  0
ENDSEC
  0
SECTION
  2
ENTITIES
  0
SPLINE
  5
41
330
1F
100
AcDbEntity
  8
Layer 1
 62
     1
370
    35
100
AcDbSpline
210
0.0
220
0.0
230
1.0
 70
     8
 71
     3
 72
    32
 73
    28
 74
     0
 42
0.0000000001
 43
0.0000000001
 12
1.0
 22
0.0
 32
0.0
 13
1.0
 23
0.0
 33
0.0
 40
0.0
 40
0.0
 40
0.0
 40
0.0
 40
0.125
 40
0.125
 40
0.125
 40
0.125
 40
0.25
 40
0.25
 40
0.25
 40
0.25
 40
0.375
 40
0.375
 40
0.375
 40
0.375
 40
0.5
 40
0.5
 40
0.5
 40
0.5
 40
0.625
 40
0.625
 40
0.625
 40
0.625
 40
0.75
 40
0.75
 40
0.75
 40
0.75
 40
1.0
 40
1.0
 40
1.0
 40
1.0
 10
623.874
 20
35.6249
 30
0.0
 10
623.874
 20
35.6249
 30
0.0
 10
542.474
 20
35.6249
 30
0.0
 10
542.474
 20
35.6249
 30
0.0
 10
542.474
 20
35.6249
 30
0.0
 10
542.474
 20
35.6249
 30
0.0
 10
542.474
 20
16.625
 30
0.0
 10
542.474
 20
16.625
 30
0.0
 10
542.474
 20
16.625
 30
0.0
 10
542.474
 20
16.625
 30
0.0
 10
532.4763
 20
16.625
 30
0.0
 10
532.4763
 20
16.625
 30
0.0
 10
532.4763
 20
16.625
 30
0.0
 10
532.4763
 20
16.625
 30
0.0
 10
532.4763
 20
21.6249
 30
0.0
 10
532.4763
 20
21.6249
 30
0.0
 10
532.4763
 20
21.6249
 30
0.0
 10
532.4763
 20
21.6249
 30
0.0
 10
497.4737
 20
21.6249
 30
0.0
 10
497.4737
 20
21.6249
 30
0.0
 10
497.4737
 20
21.6249
 30
0.0
 10
497.4737
 20
21.6249
 30
0.0
 10
497.4737
 20
10.7749
 30
0.0
 10
497.4737
 20
10.7749
 30
0.0
 10
497.4737
 20
10.7749
 30
0.0
 10
497.4737
 20
10.7749
 30
0.0
 10
461.4763
 20
10.7749
 30
0.0
 10
461.4763
 20
10.7749
 30
0.0
  0
SPLINE
  5
42
330
1F
100
AcDbEntity
  8
Layer 1
 62
     1
370
    35
100
AcDbSpline
210
0.0
220
0.0
230
1.0
 70
    11
 71
     3
 72
   100
 73
    96
 74
     0
 42
0.0000000001
 43
0.0000000001
 12
1.0
 22
0.0
 32
0.0
 13
1.0
 23
0.0
 33
0.0
 40
0.0
 40
0.0
 40
0.0
 40
0.0
 40
0.04
 40
0.04
 40
0.04
 40
0.04
 40
0.08
 40
0.08
 40
0.08
 40
0.08
 40
0.12
 40
0.12
 40
0.12
 40
0.12
 40
0.16
 40
0.16
 40
0.16
 40
0.16
 40
0.2
 40
0.2
 40
0.2
 40
0.2
 40
0.24
 40
0.24
 40
0.24
 40
0.24
 40
0.28
 40
0.28
 40
0.28
 40
0.28
 40
0.32
 40
0.32
 40
0.32
 40
0.32
 40
0.36
 40
0.36
 40
0.36
 40
0.36
 40
0.4
 40
0.4
 40
0.4
 40
0.4
 40
0.44
 40
0.44
 40
0.44
 40
0.44
 40
0.48
 40
0.48
 40
0.48
 40
0.48
 40
0.52
 40
0.52
 40
0.52
 40
0.52
 40
0.56
 40
0.56
 40
0.56
 40
0.56
 40
0.6
 40
0.6
 40
0.6
 40
0.6
 40
0.64
 40
0.64
 40
0.64
 40
0.64
 40
0.68
 40
0.68
 40
0.68
 40
0.68
 40
0.72
 40
0.72
 40
0.72
 40
0.72
 40
0.76
 40
0.76
 40
0.76
 40
0.76
 40
0.8
 40
0.8
 40
0.8
 40
0.8
 40
0.84
 40
0.84
 40
0.84
 40
0.84
 40
0.88
 40
0.88
 40
0.88
 40
0.88
 40
0.92
 40
0.92
 40
0.92
 40
0.92
 40
1.0
 40
1.0
 40
1.0
 40
1.0
 10
314.2762
 20
73.3749
 30
0.0
 10
314.2762
 20
73.3749
 30
0.0
 10
315.324
 20
73.5002
 30
0.0
 10
315.324
 20
73.5002
 30
0.0
 10
315.324
 20
73.5002
 30
0.0
 10
315.324
 20
73.5002
 30
0.0
 10
316.2765
 20
73.8999
 30
0.0
 10
316.2765
 20
73.8999
 30
0.0
 10
316.2765
 20
73.8999
 30
0.0
 10
316.2765
 20
73.8999
 30
0.0
 10
317.0985
 20
74.525
 30
0.0
 10
317.0985
 20
74.525
 30
0.0
 10
317.0985
 20
74.525
 30
0.0
 10
317.0985
 20
74.525
 30
0.0
 10
317.7511
 20
75.3752
 30
0.0
 10
317.7511
 20
75.3752
 30
0.0
 10
317.7511
 20
75.3752
 30
0.0
 10
317.7511
 20
75.3752
 30
0.0
 10
318.1497
 20
76.3249
 30
0.0
 10
318.1497
 20
76.3249
 30
0.0
 10
318.1497
 20
76.3249
 30
0.0
 10
318.1497
 20
76.3249
 30
0.0
 10
318.2732
 20
77.3751
 30
0.0
 10
318.2732
 20
77.3751
 30
0.0
 10
318.2732
 20
77.3751
 30
0.0
 10
318.2732
 20
77.3751
 30
0.0
 10
318.1497
 20
78.3999
 30
0.0
 10
318.1497
 20
78.3999
 30
0.0
 10
318.1497
 20
78.3999
 30
0.0
 10
318.1497
 20
78.3999
 30
0.0
 10
317.7511
 20
79.375
 30
0.0
 10
317.7511
 20
79.375
 30
0.0
 10
317.7511
 20
79.375
 30
0.0
 10
317.7511
 20
79.375
 30
0.0
 10
317.0985
 20
80.2001
 30
0.0
 10
317.0985
 20
80.2001
 30
0.0
 10
317.0985
 20
80.2001
 30
0.0
 10
317.0985
 20
80.2001
 30
0.0
 10
316.2765
 20
80.8249
 30
0.0
 10
316.2765
 20
80.8249
 30
0.0
 10
316.2765
 20
80.8249
 30
0.0
 10
316.2765
 20
80.8249
 30
0.0
 10
315.324
 20
81.225
 30
0.0
 10
315.324
 20
81.225
 30
0.0
 10
315.324
 20
81.225
 30
0.0
 10
315.324
 20
81.225
 30
0.0
 10
314.2762
 20
81.3749
 30
0.0
 10
314.2762
 20
81.3749
 30
0.0
 10
314.2762
 20
81.3749
 30
0.0
 10
314.2762
 20
81.3749
 30
0.0
 10
313.2497
 20
81.225
 30
0.0
 10
313.2497
 20
81.225
 30
0.0
 10
313.2497
 20
81.225
 30
0.0
 10
313.2497
 20
81.225
 30
0.0
 10
312.276
 20
80.8249
 30
0.0
 10
312.276
 20
80.8249
 30
0.0
 10
312.276
 20
80.8249
 30
0.0
 10
312.276
 20
80.8249
 30
0.0
 10
311.4505
 20
80.2001
 30
0.0
 10
311.4505
 20
80.2001
 30
0.0
 10
311.4505
 20
80.2001
 30
0.0
 10
311.4505
 20
80.2001
 30
0.0
 10
310.8261
 20
79.375
 30
0.0
 10
310.8261
 20
79.375
 30
0.0
 10
310.8261
 20
79.375
 30
0.0
 10
310.8261
 20
79.375
 30
0.0
 10
310.4239
 20
78.3999
 30
0.0
 10
310.4239
 20
78.3999
 30
0.0
 10
310.4239
 20
78.3999
 30
0.0
 10
310.4239
 20
78.3999
 30
0.0
 10
310.2758
 20
77.3751
 30
0.0
 10
310.2758
 20
77.3751
 30
0.0
 10
310.2758
 20
77.3751
 30
0.0
 10
310.2758
 20
77.3751
 30
0.0
 10
310.4239
 20
76.3249
 30
0.0
 10
310.4239
 20
76.3249
 30
0.0
 10
310.4239
 20
76.3249
 30
0.0
 10
310.4239
 20
76.3249
 30
0.0
 10
310.8261
 20
75.3752
 30
0.0
 10
310.8261
 20
75.3752
 30
0.0
 10
310.8261
 20
75.3752
 30
0.0
 10
310.8261
 20
75.3752
 30
0.0
 10
311.4505
 20
74.525
 30
0.0
 10
311.4505
 20
74.525
 30
0.0
 10
311.4505
 20
74.525
 30
0.0
 10
311.4505
 20
74.525
 30
0.0
 10
312.276
 20
73.8999
 30
0.0
 10
312.276
 20
73.8999
 30
0.0
 10
312.276
 20
73.8999
 30
0.0
 10
312.276
 20
73.8999
 30
0.0
 10
313.2497
 20
73.5002
 30
0.0
 10
313.2497
 20
73.5002
 30
0.0
 10
313.2497
 20
73.5002
 30
0.0
 10
313.2497
 20
73.5002
 30
0.0
 10
314.2762
 20
73.3749
 30
0.0
 10
314.2762
 20
73.3749
 30
0.0
  0
SPLINE
  5
43
330
1F
100
AcDbEntity
  8
Layer 1
 62
     1
370
    35
100
AcDbSpline
210
0.0
220
0.0
230
1.0
 70
    11
 71
     3
 72
    20
 73
    16
 74
     0
 42
0.0000000001
 43
0.0000000001
 12
1.0
 22
0.0
 32
0.0
 13
1.0
 23
0.0
 33
0.0
 40
0.0
 40
0.0
 40
0.0
 40
0.0
 40
0.2
 40
0.2
 40
0.2
 40
0.2
 40
0.4
 40
0.4
 40
0.4
 40
0.4
 40
0.6
 40
0.6
 40
0.6
 40
0.6
 40
1.0
 40
1.0
 40
1.0
 40
1.0
 10
542.474
 20
7.6249
 30
0.0
 10
542.474
 20
7.6249
 30
0.0
 10
542.474
 20
13.625
 30
0.0
 10
542.474
 20
13.625
 30
0.0
 10
542.474
 20
13.625
 30
0.0
 10
542.474
 20
13.625
 30
0.0
 10
548.8734
 20
13.625
 30
0.0
 10
548.8734
 20
13.625
 30
0.0
 10
548.8734
 20
13.625
 30
0.0
 10
548.8734
 20
13.625
 30
0.0
 10
548.8734
 20
7.6249
 30
0.0
 10
548.8734
 20
7.6249
 30
0.0
 10
548.8734
 20
7.6249
 30
0.0
 10
548.8734
 20
7.6249
 30
0.0
 10
542.474
 20
7.6249
 30
0.0
 10
542.474
 20
7.6249
 30
0.0
  0
SPLINE
  5
44
330
1F
100
AcDbEntity
  8
Layer 1
 62
     1
370
    35
100
AcDbSpline
210
0.0
220
0.0
230
1.0
 70
    11
 71
     3
 72
   100
 73
    96
 74
     0
 42
0.0000000001
 43
0.0000000001
 12
1.0
 22
0.0
 32
0.0
 13
1.0
 23
0.0
 33
0.0
 40
0.0
 40
0.0
 40
0.0
 40
0.0
 40
0.04
 40
0.04
 40
0.04
 40
0.04
 40
0.08
 40
0.08
 40
0.08
 40
0.08
 40
0.12
 40
0.12
 40
0.12
 40
0.12
 40
0.16
 40
0.16
 40
0.16
 40
0.16
 40
0.2
 40
0.2
 40
0.2
 40
0.2
 40
0.24
 40
0.24
 40
0.24
 40
0.24
 40
0.28
 40
0.28
 40
0.28
 40
0.28
 40
0.32
 40
0.32
 40
0.32
 40
0.32
 40
0.36
 40
0.36
 40
0.36
 40
0.36
 40
0.4
 40
0.4
 40
0.4
 40
0.4
 40
0.44
 40
0.44
 40
0.44
 40
0.44
 40
0.48
 40
0.48
 40
0.48
 40
0.48
 40
0.52
 40
0.52
 40
0.52
 40
0.52
 40
0.56
 40
0.56
 40
0.56
 40
0.56
 40
0.6
 40
0.6
 40
0.6
 40
0.6
 40
0.64
 40
0.64
 40
0.64
 40
0.64
 40
0.68
 40
0.68
 40
0.68
 40
0.68
 40
0.72
 40
0.72
 40
0.72
 40
0.72
 40
0.76
 40
0.76
 40
0.76
 40
0.76
 40
0.8
 40
0.8
 40
0.8
 40
0.8
 40
0.84
 40
0.84
 40
0.84
 40
0.84
 40
0.88
 40
0.88
 40
0.88
 40
0.88
 40
0.92
 40
0.92
 40
0.92
 40
0.92
 40
1.0
 40
1.0
 40
1.0
 40
1.0
 10
628.1249
 20
13.5001
 30
0.0
 10
628.1249
 20
13.5001
 30
0.0
 10
627.6981
 20
13.65
 30
0.0
 10
627.6981
 20
13.65
 30
0.0
 10
627.6981
 20
13.65
 30
0.0
 10
627.6981
 20
13.65
 30
0.0
 10
627.2994
 20
13.9252
 30
0.0
 10
627.2994
 20
13.9252
 30
0.0
 10
627.2994
 20
13.9252
 30
0.0
 10
627.2994
 20
13.9252
 30
0.0
 10
626.9996
 20
14.2752
 30
0.0
 10
626.9996
 20
14.2752
 30
0.0
 10
626.9996
 20
14.2752
 30
0.0
 10
626.9996
 20
14.2752
 30
0.0
 10
626.7738
 20
14.6999
 30
0.0
 10
626.7738
 20
14.6999
 30
0.0
 10
626.7738
 20
14.6999
 30
0.0
 10
626.7738
 20
14.6999
 30
0.0
 10
626.6997
 20
15.15
 30
0.0
 10
626.6997
 20
15.15
 30
0.0
 10
626.6997
 20
15.15
 30
0.0
 10
626.6997
 20
15.15
 30
0.0
 10
626.7244
 20
15.6249
 30
0.0
 10
626.7244
 20
15.6249
 30
0.0
 10
626.7244
 20
15.6249
 30
0.0
 10
626.7244
 20
15.6249
 30
0.0
 10
626.8761
 20
16.075
 30
0.0
 10
626.8761
 20
16.075
 30
0.0
 10
626.8761
 20
16.075
 30
0.0
 10
626.8761
 20
16.075
 30
0.0
 10
627.1513
 20
16.45
 30
0.0
 10
627.1513
 20
16.45
 30
0.0
 10
627.1513
 20
16.45
 30
0.0
 10
627.1513
 20
16.45
 30
0.0
 10
627.5005
 20
16.7749
 30
0.0
 10
627.5005
 20
16.7749
 30
0.0
 10
627.5005
 20
16.7749
 30
0.0
 10
627.5005
 20
16.7749
 30
0.0
 10
627.9238
 20
16.975
 30
0.0
 10
627.9238
 20
16.975
 30
0.0
 10
627.9238
 20
16.975
 30
0.0
 10
627.9238
 20
16.975
 30
0.0
 10
628.3754
 20
17.0501
 30
0.0
 10
628.3754
 20
17.0501
 30
0.0
 10
628.3754
 20
17.0501
 30
0.0
 10
628.3754
 20
17.0501
 30
0.0
 10
628.8481
 20
17.0251
 30
0.0
 10
628.8481
 20
17.0251
 30
0.0
 10
628.8481
 20
17.0251
 30
0.0
 10
628.8481
 20
17.0251
 30
0.0
 10
629.2997
 20
16.8751
 30
0.0
 10
629.2997
 20
16.8751
 30
0.0
 10
629.2997
 20
16.8751
 30
0.0
 10
629.2997
 20
16.8751
 30
0.0
 10
629.6736
 20
16.6
 30
0.0
 10
629.6736
 20
16.6
 30
0.0
 10
629.6736
 20
16.6
 30
0.0
 10
629.6736
 20
16.6
 30
0.0
 10
629.9982
 20
16.25
 30
0.0
 10
629.9982
 20
16.25
 30
0.0
 10
629.9982
 20
16.25
 30
0.0
 10
629.9982
 20
16.25
 30
0.0
 10
630.1993
 20
15.8249
 30
0.0
 10
630.1993
 20
15.8249
 30
0.0
 10
630.1993
 20
15.8249
 30
0.0
 10
630.1993
 20
15.8249
 30
0.0
 10
630.2733
 20
15.3751
 30
0.0
 10
630.2733
 20
15.3751
 30
0.0
 10
630.2733
 20
15.3751
 30
0.0
 10
630.2733
 20
15.3751
 30
0.0
 10
630.2487
 20
14.8999
 30
0.0
 10
630.2487
 20
14.8999
 30
0.0
 10
630.2487
 20
14.8999
 30
0.0
 10
630.2487
 20
14.8999
 30
0.0
 10
630.1005
 20
14.4501
 30
0.0
 10
630.1005
 20
14.4501
 30
0.0
 10
630.1005
 20
14.4501
 30
0.0
 10
630.1005
 20
14.4501
 30
0.0
 10
629.85
 20
14.0751
 30
0.0
 10
629.85
 20
14.0751
 30
0.0
 10
629.85
 20
14.0751
 30
0.0
 10
629.85
 20
14.0751
 30
0.0
 10
629.4761
 20
13.7749
 30
0.0
 10
629.4761
 20
13.7749
 30
0.0
 10
629.4761
 20
13.7749
 30
0.0
 10
629.4761
 20
13.7749
 30
0.0
 10
629.0739
 20
13.5502
 30
0.0
 10
629.0739
 20
13.5502
 30
0.0
 10
629.0739
 20
13.5502
 30
0.0
 10
629.0739
 20
13.5502
 30
0.0
 10
628.6012
 20
13.4751
 30
0.0
 10
628.6012
 20
13.4751
 30
0.0
 10
628.6012
 20
13.4751
 30
0.0
 10
628.6012
 20
13.4751
 30
0.0
 10
628.1249
 20
13.5001
 30
0.0
 10
628.1249
 20
13.5001
 30
0.0
  0
SPLINE
  5
45
330
1F
100
AcDbEntity
  8
Layer 1
 62
     1
370
    35
100
AcDbSpline
210
0.0
220
0.0
230
1.0
 70
    11
 71
     3
 72
   100
 73
    96
 74
     0
 42
0.0000000001
 43
0.0000000001
 12
1.0
 22
0.0
 32
0.0
 13
1.0
 23
0.0
 33
0.0
 40
0.0
 40
0.0
 40
0.0
 40
0.0
 40
0.04
 40
0.04
 40
0.04
 40
0.04
 40
0.08
 40
0.08
 40
0.08
 40
0.08
 40
0.12
 40
0.12
 40
0.12
 40
0.12
 40
0.16
 40
0.16
 40
0.16
 40
0.16
 40
0.2
 40
0.2
 40
0.2
 40
0.2
 40
0.24
 40
0.24
 40
0.24
 40
0.24
 40
0.28
 40
0.28
 40
0.28
 40
0.28
 40
0.32
 40
0.32
 40
0.32
 40
0.32
 40
0.36
 40
0.36
 40
0.36
 40
0.36
 40
0.4
 40
0.4
 40
0.4
 40
0.4
 40
0.44
 40
0.44
 40
0.44
 40
0.44
 40
0.48
 40
0.48
 40
0.48
 40
0.48
 40
0.52
 40
0.52
 40
0.52
 40
0.52
 40
0.56
 40
0.56
 40
0.56
 40
0.56
 40
0.6
 40
0.6
 40
0.6
 40
0.6
 40
0.64
 40
0.64
 40
0.64
 40
0.64
 40
0.68
 40
0.68
 40
0.68
 40
0.68
 40
0.72
 40
0.72
 40
0.72
 40
0.72
 40
0.76
 40
0.76
 40
0.76
 40
0.76
 40
0.8
 40
0.8
 40
0.8
 40
0.8
 40
0.84
 40
0.84
 40
0.84
 40
0.84
 40
0.88
 40
0.88
 40
0.88
 40
0.88
 40
0.92
 40
0.92
 40
0.92
 40
0.92
 40
1.0
 40
1.0
 40
1.0
 40
1.0
 10
654.7738
 20
37.0
 30
0.0
 10
654.7738
 20
37.0
 30
0.0
 10
654.3257
 20
37.1249
 30
0.0
 10
654.3257
 20
37.1249
 30
0.0
 10
654.3257
 20
37.1249
 30
0.0
 10
654.3257
 20
37.1249
 30
0.0
 10
653.9236
 20
37.375
 30
0.0
 10
653.9236
 20
37.375
 30
0.0
 10
653.9236
 20
37.375
 30
0.0
 10
653.9236
 20
37.375
 30
0.0
 10
653.6237
 20
37.725
 30
0.0
 10
653.6237
 20
37.725
 30
0.0
 10
653.6237
 20
37.725
 30
0.0
 10
653.6237
 20
37.725
 30
0.0
 10
653.4015
 20
38.1501
 30
0.0
 10
653.4015
 20
38.1501
 30
0.0
 10
653.4015
 20
38.1501
 30
0.0
 10
653.4015
 20
38.1501
 30
0.0
 10
653.2991
 20
38.5999
 30
0.0
 10
653.2991
 20
38.5999
 30
0.0
 10
653.2991
 20
38.5999
 30
0.0
 10
653.2991
 20
38.5999
 30
0.0
 10
653.3238
 20
39.0751
 30
0.0
 10
653.3238
 20
39.0751
 30
0.0
 10
653.3238
 20
39.0751
 30
0.0
 10
653.3238
 20
39.0751
 30
0.0
 10
653.4508
 20
39.5249
 30
0.0
 10
653.4508
 20
39.5249
 30
0.0
 10
653.4508
 20
39.5249
 30
0.0
 10
653.4508
 20
39.5249
 30
0.0
 10
653.7013
 20
39.9249
 30
0.0
 10
653.7013
 20
39.9249
 30
0.0
 10
653.7013
 20
39.9249
 30
0.0
 10
653.7013
 20
39.9249
 30
0.0
 10
654.0506
 20
40.2502
 30
0.0
 10
654.0506
 20
40.2502
 30
0.0
 10
654.0506
 20
40.2502
 30
0.0
 10
654.0506
 20
40.2502
 30
0.0
 10
654.4739
 20
40.4502
 30
0.0
 10
654.4739
 20
40.4502
 30
0.0
 10
654.4739
 20
40.4502
 30
0.0
 10
654.4739
 20
40.4502
 30
0.0
 10
654.9255
 20
40.55
 30
0.0
 10
654.9255
 20
40.55
 30
0.0
 10
654.9255
 20
40.55
 30
0.0
 10
654.9255
 20
40.55
 30
0.0
 10
655.3982
 20
40.525
 30
0.0
 10
655.3982
 20
40.525
 30
0.0
 10
655.3982
 20
40.525
 30
0.0
 10
655.3982
 20
40.525
 30
0.0
 10
655.8497
 20
40.4001
 30
0.0
 10
655.8497
 20
40.4001
 30
0.0
 10
655.8497
 20
40.4001
 30
0.0
 10
655.8497
 20
40.4001
 30
0.0
 10
656.2484
 20
40.15
 30
0.0
 10
656.2484
 20
40.15
 30
0.0
 10
656.2484
 20
40.15
 30
0.0
 10
656.2484
 20
40.15
 30
0.0
 10
656.5765
 20
39.8
 30
0.0
 10
656.5765
 20
39.8
 30
0.0
 10
656.5765
 20
39.8
 30
0.0
 10
656.5765
 20
39.8
 30
0.0
 10
656.774
 20
39.3749
 30
0.0
 10
656.774
 20
39.3749
 30
0.0
 10
656.774
 20
39.3749
 30
0.0
 10
656.774
 20
39.3749
 30
0.0
 10
656.8763
 20
38.9251
 30
0.0
 10
656.8763
 20
38.9251
 30
0.0
 10
656.8763
 20
38.9251
 30
0.0
 10
656.8763
 20
38.9251
 30
0.0
 10
656.8763
 20
38.4499
 30
0.0
 10
656.8763
 20
38.4499
 30
0.0
 10
656.8763
 20
38.4499
 30
0.0
 10
656.8763
 20
38.4499
 30
0.0
 10
656.7246
 20
38.0002
 30
0.0
 10
656.7246
 20
38.0002
 30
0.0
 10
656.7246
 20
38.0002
 30
0.0
 10
656.7246
 20
38.0002
 30
0.0
 10
656.4741
 20
37.6001
 30
0.0
 10
656.4741
 20
37.6001
 30
0.0
 10
656.4741
 20
37.6001
 30
0.0
 10
656.4741
 20
37.6001
 30
0.0
 10
656.1249
 20
37.2999
 30
0.0
 10
656.1249
 20
37.2999
 30
0.0
 10
656.1249
 20
37.2999
 30
0.0
 10
656.1249
 20
37.2999
 30
0.0
 10
655.698
 20
37.0752
 30
0.0
 10
655.698
 20
37.0752
 30
0.0
 10
655.698
 20
37.0752
 30
0.0
 10
655.698
 20
37.0752
 30
0.0
 10
655.25
 20
36.975
 30
0.0
 10
655.25
 20
36.975
 30
0.0
 10
655.25
 20
36.975
 30
0.0
 10
655.25
 20
36.975
 30
0.0
 10
654.7738
 20
37.0
 30
0.0
 10
654.7738
 20
37.0
 30
0.0
  0
SPLINE
  5
46
330
1F
100
AcDbEntity
  8
Layer 1
 62
     1
370
    35
100
AcDbSpline
210
0.0
220
0.0
230
1.0
 70
    11
 71
     3
 72
   100
 73
    96
 74
     0
 42
0.0000000001
 43
0.0000000001
 12
1.0
 22
0.0
 32
0.0
 13
1.0
 23
0.0
 33
0.0
 40
0.0
 40
0.0
 40
0.0
 40
0.0
 40
0.04
 40
0.04
 40
0.04
 40
0.04
 40
0.08
 40
0.08
 40
0.08
 40
0.08
 40
0.12
 40
0.12
 40
0.12
 40
0.12
 40
0.16
 40
0.16
 40
0.16
 40
0.16
 40
0.2
 40
0.2
 40
0.2
 40
0.2
 40
0.24
 40
0.24
 40
0.24
 40
0.24
 40
0.28
 40
0.28
 40
0.28
 40
0.28
 40
0.32
 40
0.32
 40
0.32
 40
0.32
 40
0.36
 40
0.36
 40
0.36
 40
0.36
 40
0.4
 40
0.4
 40
0.4
 40
0.4
 40
0.44
 40
0.44
 40
0.44
 40
0.44
 40
0.48
 40
0.48
 40
0.48
 40
0.48
 40
0.52
 40
0.52
 40
0.52
 40
0.52
 40
0.56
 40
0.56
 40
0.56
 40
0.56
 40
0.6
 40
0.6
 40
0.6
 40
0.6
 40
0.64
 40
0.64
 40
0.64
 40
0.64
 40
0.68
 40
0.68
 40
0.68
 40
0.68
 40
0.72
 40
0.72
 40
0.72
 40
0.72
 40
0.76
 40
0.76
 40
0.76
 40
0.76
 40
0.8
 40
0.8
 40
0.8
 40
0.8
 40
0.84
 40
0.84
 40
0.84
 40
0.84
 40
0.88
 40
0.88
 40
0.88
 40
0.88
 40
0.92
 40
0.92
 40
0.92
 40
0.92
 40
1.0
 40
1.0
 40
1.0
 40
1.0
 10
332.4761
 20
72.5251
 30
0.0
 10
332.4761
 20
72.5251
 30
0.0
 10
333.6755
 20
73.025
 30
0.0
 10
333.6755
 20
73.025
 30
0.0
 10
333.6755
 20
73.025
 30
0.0
 10
333.6755
 20
73.025
 30
0.0
 10
334.7232
 20
73.8251
 30
0.0
 10
334.7232
 20
73.8251
 30
0.0
 10
334.7232
 20
73.8251
 30
0.0
 10
334.7232
 20
73.8251
 30
0.0
 10
335.4994
 20
74.875
 30
0.0
 10
335.4994
 20
74.875
 30
0.0
 10
335.4994
 20
74.875
 30
0.0
 10
335.4994
 20
74.875
 30
0.0
 10
336.0003
 20
76.0751
 30
0.0
 10
336.0003
 20
76.0751
 30
0.0
 10
336.0003
 20
76.0751
 30
0.0
 10
336.0003
 20
76.0751
 30
0.0
 10
336.1732
 20
77.3751
 30
0.0
 10
336.1732
 20
77.3751
 30
0.0
 10
336.1732
 20
77.3751
 30
0.0
 10
336.1732
 20
77.3751
 30
0.0
 10
336.0003
 20
78.65
 30
0.0
 10
336.0003
 20
78.65
 30
0.0
 10
336.0003
 20
78.65
 30
0.0
 10
336.0003
 20
78.65
 30
0.0
 10
335.4994
 20
79.8749
 30
0.0
 10
335.4994
 20
79.8749
 30
0.0
 10
335.4994
 20
79.8749
 30
0.0
 10
335.4994
 20
79.8749
 30
0.0
 10
334.7232
 20
80.9
 30
0.0
 10
334.7232
 20
80.9
 30
0.0
 10
334.7232
 20
80.9
 30
0.0
 10
334.7232
 20
80.9
 30
0.0
 10
333.6755
 20
81.7001
 30
0.0
 10
333.6755
 20
81.7001
 30
0.0
 10
333.6755
 20
81.7001
 30
0.0
 10
333.6755
 20
81.7001
 30
0.0
 10
332.4761
 20
82.2
 30
0.0
 10
332.4761
 20
82.2
 30
0.0
 10
332.4761
 20
82.2
 30
0.0
 10
332.4761
 20
82.2
 30
0.0
 10
331.1743
 20
82.375
 30
0.0
 10
331.1743
 20
82.375
 30
0.0
 10
331.1743
 20
82.375
 30
0.0
 10
331.1743
 20
82.375
 30
0.0
 10
329.9008
 20
82.2
 30
0.0
 10
329.9008
 20
82.2
 30
0.0
 10
329.9008
 20
82.2
 30
0.0
 10
329.9008
 20
82.2
 30
0.0
 10
328.6731
 20
81.7001
 30
0.0
 10
328.6731
 20
81.7001
 30
0.0
 10
328.6731
 20
81.7001
 30
0.0
 10
328.6731
 20
81.7001
 30
0.0
 10
327.6501
 20
80.9
 30
0.0
 10
327.6501
 20
80.9
 30
0.0
 10
327.6501
 20
80.9
 30
0.0
 10
327.6501
 20
80.9
 30
0.0
 10
326.8492
 20
79.8749
 30
0.0
 10
326.8492
 20
79.8749
 30
0.0
 10
326.8492
 20
79.8749
 30
0.0
 10
326.8492
 20
79.8749
 30
0.0
 10
326.3483
 20
78.65
 30
0.0
 10
326.3483
 20
78.65
 30
0.0
 10
326.3483
 20
78.65
 30
0.0
 10
326.3483
 20
78.65
 30
0.0
 10
326.1754
 20
77.3751
 30
0.0
 10
326.1754
 20
77.3751
 30
0.0
 10
326.1754
 20
77.3751
 30
0.0
 10
326.1754
 20
77.3751
 30
0.0
 10
326.3483
 20
76.0751
 30
0.0
 10
326.3483
 20
76.0751
 30
0.0
 10
326.3483
 20
76.0751
 30
0.0
 10
326.3483
 20
76.0751
 30
0.0
 10
326.8492
 20
74.875
 30
0.0
 10
326.8492
 20
74.875
 30
0.0
 10
326.8492
 20
74.875
 30
0.0
 10
326.8492
 20
74.875
 30
0.0
 10
327.6501
 20
73.8251
 30
0.0
 10
327.6501
 20
73.8251
 30
0.0
 10
327.6501
 20
73.8251
 30
0.0
 10
327.6501
 20
73.8251
 30
0.0
 10
328.6731
 20
73.025
 30
0.0
 10
328.6731
 20
73.025
 30
0.0
 10
328.6731
 20
73.025
 30
0.0
 10
328.6731
 20
73.025
 30
0.0
 10
329.9008
 20
72.5251
 30
0.0
 10
329.9008
 20
72.5251
 30
0.0
 10
329.9008
 20
72.5251
 30
0.0
 10
329.9008
 20
72.5251
 30
0.0
 10
331.1743
 20
72.3752
 30
0.0
 10
331.1743
 20
72.3752
 30
0.0
 10
331.1743
 20
72.3752
 30
0.0
 10
331.1743
 20
72.3752
 30
0.0
 10
332.4761
 20
72.5251
 30
0.0
 10
332.4761
 20
72.5251
 30
0.0
  0
SPLINE
  5
47
330
1F
100
AcDbEntity
  8
Layer 1
 62
     1
370
    35
100
AcDbSpline
210
0.0
220
0.0
230
1.0
 70
    11
 71
     3
 72
   100
 73
    96
 74
     0
 42
0.0000000001
 43
0.0000000001
 12
1.0
 22
0.0
 32
0.0
 13
1.0
 23
0.0
 33
0.0
 40
0.0
 40
0.0
 40
0.0
 40
0.0
 40
0.04
 40
0.04
 40
0.04
 40
0.04
 40
0.08
 40
0.08
 40
0.08
 40
0.08
 40
0.12
 40
0.12
 40
0.12
 40
0.12
 40
0.16
 40
0.16
 40
0.16
 40
0.16
 40
0.2
 40
0.2
 40
0.2
 40
0.2
 40
0.24
 40
0.24
 40
0.24
 40
0.24
 40
0.28
 40
0.28
 40
0.28
 40
0.28
 40
0.32
 40
0.32
 40
0.32
 40
0.32
 40
0.36
 40
0.36
 40
0.36
 40
0.36
 40
0.4
 40
0.4
 40
0.4
 40
0.4
 40
0.44
 40
0.44
 40
0.44
 40
0.44
 40
0.48
 40
0.48
 40
0.48
 40
0.48
 40
0.52
 40
0.52
 40
0.52
 40
0.52
 40
0.56
 40
0.56
 40
0.56
 40
0.56
 40
0.6
 40
0.6
 40
0.6
 40
0.6
 40
0.64
 40
0.64
 40
0.64
 40
0.64
 40
0.68
 40
0.68
 40
0.68
 40
0.68
 40
0.72
 40
0.72
 40
0.72
 40
0.72
 40
0.76
 40
0.76
 40
0.76
 40
0.76
 40
0.8
 40
0.8
 40
0.8
 40
0.8
 40
0.84
 40
0.84
 40
0.84
 40
0.84
 40
0.88
 40
0.88
 40
0.88
 40
0.88
 40
0.92
 40
0.92
 40
0.92
 40
0.92
 40
1.0
 40
1.0
 40
1.0
 40
1.0
 10
675.7252
 20
82.0
 30
0.0
 10
675.7252
 20
82.0
 30
0.0
 10
675.2737
 20
82.1249
 30
0.0
 10
675.2737
 20
82.1249
 30
0.0
 10
675.2737
 20
82.1249
 30
0.0
 10
675.2737
 20
82.1249
 30
0.0
 10
674.875
 20
82.375
 30
0.0
 10
674.875
 20
82.375
 30
0.0
 10
674.875
 20
82.375
 30
0.0
 10
674.875
 20
82.375
 30
0.0
 10
674.5752
 20
82.725
 30
0.0
 10
674.5752
 20
82.725
 30
0.0
 10
674.5752
 20
82.725
 30
0.0
 10
674.5752
 20
82.725
 30
0.0
 10
674.3494
 20
83.1501
 30
0.0
 10
674.3494
 20
83.1501
 30
0.0
 10
674.3494
 20
83.1501
 30
0.0
 10
674.3494
 20
83.1501
 30
0.0
 10
674.2506
 20
83.5999
 30
0.0
 10
674.2506
 20
83.5999
 30
0.0
 10
674.2506
 20
83.5999
 30
0.0
 10
674.2506
 20
83.5999
 30
0.0
 10
674.2753
 20
84.075
 30
0.0
 10
674.2753
 20
84.075
 30
0.0
 10
674.2753
 20
84.075
 30
0.0
 10
674.2753
 20
84.075
 30
0.0
 10
674.3988
 20
84.5252
 30
0.0
 10
674.3988
 20
84.5252
 30
0.0
 10
674.3988
 20
84.5252
 30
0.0
 10
674.3988
 20
84.5252
 30
0.0
 10
674.6493
 20
84.9249
 30
0.0
 10
674.6493
 20
84.9249
 30
0.0
 10
674.6493
 20
84.9249
 30
0.0
 10
674.6493
 20
84.9249
 30
0.0
 10
674.9985
 20
85.2501
 30
0.0
 10
674.9985
 20
85.2501
 30
0.0
 10
674.9985
 20
85.2501
 30
0.0
 10
674.9985
 20
85.2501
 30
0.0
 10
675.4254
 20
85.4502
 30
0.0
 10
675.4254
 20
85.4502
 30
0.0
 10
675.4254
 20
85.4502
 30
0.0
 10
675.4254
 20
85.4502
 30
0.0
 10
675.8734
 20
85.55
 30
0.0
 10
675.8734
 20
85.55
 30
0.0
 10
675.8734
 20
85.55
 30
0.0
 10
675.8734
 20
85.55
 30
0.0
 10
676.3496
 20
85.525
 30
0.0
 10
676.3496
 20
85.525
 30
0.0
 10
676.3496
 20
85.525
 30
0.0
 10
676.3496
 20
85.525
 30
0.0
 10
676.8012
 20
85.4001
 30
0.0
 10
676.8012
 20
85.4001
 30
0.0
 10
676.8012
 20
85.4001
 30
0.0
 10
676.8012
 20
85.4001
 30
0.0
 10
677.1998
 20
85.15
 30
0.0
 10
677.1998
 20
85.15
 30
0.0
 10
677.1998
 20
85.15
 30
0.0
 10
677.1998
 20
85.15
 30
0.0
 10
677.5244
 20
84.8
 30
0.0
 10
677.5244
 20
84.8
 30
0.0
 10
677.5244
 20
84.8
 30
0.0
 10
677.5244
 20
84.8
 30
0.0
 10
677.7255
 20
84.3749
 30
0.0
 10
677.7255
 20
84.3749
 30
0.0
 10
677.7255
 20
84.3749
 30
0.0
 10
677.7255
 20
84.3749
 30
0.0
 10
677.8243
 20
83.9251
 30
0.0
 10
677.8243
 20
83.9251
 30
0.0
 10
677.8243
 20
83.9251
 30
0.0
 10
677.8243
 20
83.9251
 30
0.0
 10
677.8243
 20
83.4499
 30
0.0
 10
677.8243
 20
83.4499
 30
0.0
 10
677.8243
 20
83.4499
 30
0.0
 10
677.8243
 20
83.4499
 30
0.0
 10
677.6761
 20
83.0001
 30
0.0
 10
677.6761
 20
83.0001
 30
0.0
 10
677.6761
 20
83.0001
 30
0.0
 10
677.6761
 20
83.0001
 30
0.0
 10
677.4256
 20
82.6001
 30
0.0
 10
677.4256
 20
82.6001
 30
0.0
 10
677.4256
 20
82.6001
 30
0.0
 10
677.4256
 20
82.6001
 30
0.0
 10
677.0764
 20
82.2999
 30
0.0
 10
677.0764
 20
82.2999
 30
0.0
 10
677.0764
 20
82.2999
 30
0.0
 10
677.0764
 20
82.2999
 30
0.0
 10
676.6495
 20
82.0751
 30
0.0
 10
676.6495
 20
82.0751
 30
0.0
 10
676.6495
 20
82.0751
 30
0.0
 10
676.6495
 20
82.0751
 30
0.0
 10
676.2015
 20
81.975
 30
0.0
 10
676.2015
 20
81.975
 30
0.0
 10
676.2015
 20
81.975
 30
0.0
 10
676.2015
 20
81.975
 30
0.0
 10
675.7252
 20
82.0
 30
0.0
 10
675.7252
 20
82.0
 30
0.0
  0
SPLINE
  5
48
330
1F
100
AcDbEntity
  8
Layer 1
 62
     1
370
    35
100
AcDbSpline
210
0.0
220
0.0
230
1.0
 70
    11
 71
     3
 72
   104
 73
   100
 74
     0
 42
0.0000000001
 43
0.0000000001
 12
1.0
 22
0.0
 32
0.0
 13
1.0
 23
0.0
 33
0.0
 40
0.0
 40
0.0
 40
0.0
 40
0.0
 40
0.0384615384615385
 40
0.0384615384615385
 40
0.0384615384615385
 40
0.0384615384615385
 40
0.0769230769230769
 40
0.0769230769230769
 40
0.0769230769230769
 40
0.0769230769230769
 40
0.1153846153846154
 40
0.1153846153846154
 40
0.1153846153846154
 40
0.1153846153846154
 40
0.1538461538461539
 40
0.1538461538461539
 40
0.1538461538461539
 40
0.1538461538461539
 40
0.1923076923076923
 40
0.1923076923076923
 40
0.1923076923076923
 40
0.1923076923076923
 40
0.2307692307692308
 40
0.2307692307692308
 40
0.2307692307692308
 40
0.2307692307692308
 40
0.2692307692307692
 40
0.2692307692307692
 40
0.2692307692307692
 40
0.2692307692307692
 40
0.3076923076923077
 40
0.3076923076923077
 40
0.3076923076923077
 40
0.3076923076923077
 40
0.3461538461538461
 40
0.3461538461538461
 40
0.3461538461538461
 40
0.3461538461538461
 40
0.3846153846153846
 40
0.3846153846153846
 40
0.3846153846153846
 40
0.3846153846153846
 40
0.4230769230769231
 40
0.4230769230769231
 40
0.4230769230769231
 40
0.4230769230769231
 40
0.4615384615384616
 40
0.4615384615384616
 40
0.4615384615384616
 40
0.4615384615384616
 40
0.5
 40
0.5
 40
0.5
 40
0.5
 40
0.5384615384615384
 40
0.5384615384615384
 40
0.5384615384615384
 40
0.5384615384615384
 40
0.5769230769230769
 40
0.5769230769230769
 40
0.5769230769230769
 40
0.5769230769230769
 40
0.6153846153846154
 40
0.6153846153846154
 40
0.6153846153846154
 40
0.6153846153846154
 40
0.6538461538461539
 40
0.6538461538461539
 40
0.6538461538461539
 40
0.6538461538461539
 40
0.6923076923076923
 40
0.6923076923076923
 40
0.6923076923076923
 40
0.6923076923076923
 40
0.7307692307692307
 40
0.7307692307692307
 40
0.7307692307692307
 40
0.7307692307692307
 40
0.7692307692307693
 40
0.7692307692307693
 40
0.7692307692307693
 40
0.7692307692307693
 40
0.8076923076923077
 40
0.8076923076923077
 40
0.8076923076923077
 40
0.8076923076923077
 40
0.8461538461538461
 40
0.8461538461538461
 40
0.8461538461538461
 40
0.8461538461538461
 40
0.8846153846153846
 40
0.8846153846153846
 40
0.8846153846153846
 40
0.8846153846153846
 40
0.9230769230769231
 40
0.9230769230769231
 40
0.9230769230769231
 40
0.9230769230769231
 40
1.0
 40
1.0
 40
1.0
 40
1.0
 10
339.6762
 20
36.975
 30
0.0
 10
339.6762
 20
36.975
 30
0.0
 10
340.0008
 20
37.0
 30
0.0
 10
340.0008
 20
37.0
 30
0.0
 10
340.0008
 20
37.0
 30
0.0
 10
340.0008
 20
37.0
 30
0.0
 10
340.4488
 20
37.1249
 30
0.0
 10
340.4488
 20
37.1249
 30
0.0
 10
340.4488
 20
37.1249
 30
0.0
 10
340.4488
 20
37.1249
 30
0.0
 10
340.851
 20
37.375
 30
0.0
 10
340.851
 20
37.375
 30
0.0
 10
340.851
 20
37.375
 30
0.0
 10
340.851
 20
37.375
 30
0.0
 10
341.1509
 20
37.725
 30
0.0
 10
341.1509
 20
37.725
 30
0.0
 10
341.1509
 20
37.725
 30
0.0
 10
341.1509
 20
37.725
 30
0.0
 10
341.3731
 20
38.1501
 30
0.0
 10
341.3731
 20
38.1501
 30
0.0
 10
341.3731
 20
38.1501
 30
0.0
 10
341.3731
 20
38.1501
 30
0.0
 10
341.4754
 20
38.5999
 30
0.0
 10
341.4754
 20
38.5999
 30
0.0
 10
341.4754
 20
38.5999
 30
0.0
 10
341.4754
 20
38.5999
 30
0.0
 10
341.4507
 20
39.0751
 30
0.0
 10
341.4507
 20
39.0751
 30
0.0
 10
341.4507
 20
39.0751
 30
0.0
 10
341.4507
 20
39.0751
 30
0.0
 10
341.3237
 20
39.5249
 30
0.0
 10
341.3237
 20
39.5249
 30
0.0
 10
341.3237
 20
39.5249
 30
0.0
 10
341.3237
 20
39.5249
 30
0.0
 10
341.0485
 20
39.9249
 30
0.0
 10
341.0485
 20
39.9249
 30
0.0
 10
341.0485
 20
39.9249
 30
0.0
 10
341.0485
 20
39.9249
 30
0.0
 10
340.724
 20
40.2502
 30
0.0
 10
340.724
 20
40.2502
 30
0.0
 10
340.724
 20
40.2502
 30
0.0
 10
340.724
 20
40.2502
 30
0.0
 10
340.3007
 20
40.4502
 30
0.0
 10
340.3007
 20
40.4502
 30
0.0
 10
340.3007
 20
40.4502
 30
0.0
 10
340.3007
 20
40.4502
 30
0.0
 10
339.8491
 20
40.55
 30
0.0
 10
339.8491
 20
40.55
 30
0.0
 10
339.8491
 20
40.55
 30
0.0
 10
339.8491
 20
40.55
 30
0.0
 10
339.3764
 20
40.525
 30
0.0
 10
339.3764
 20
40.525
 30
0.0
 10
339.3764
 20
40.525
 30
0.0
 10
339.3764
 20
40.525
 30
0.0
 10
338.9248
 20
40.4001
 30
0.0
 10
338.9248
 20
40.4001
 30
0.0
 10
338.9248
 20
40.4001
 30
0.0
 10
338.9248
 20
40.4001
 30
0.0
 10
338.5262
 20
40.15
 30
0.0
 10
338.5262
 20
40.15
 30
0.0
 10
338.5262
 20
40.15
 30
0.0
 10
338.5262
 20
40.15
 30
0.0
 10
338.1981
 20
39.8
 30
0.0
 10
338.1981
 20
39.8
 30
0.0
 10
338.1981
 20
39.8
 30
0.0
 10
338.1981
 20
39.8
 30
0.0
 10
338.0005
 20
39.3749
 30
0.0
 10
338.0005
 20
39.3749
 30
0.0
 10
338.0005
 20
39.3749
 30
0.0
 10
338.0005
 20
39.3749
 30
0.0
 10
337.8982
 20
38.9251
 30
0.0
 10
337.8982
 20
38.9251
 30
0.0
 10
337.8982
 20
38.9251
 30
0.0
 10
337.8982
 20
38.9251
 30
0.0
 10
337.8982
 20
38.4499
 30
0.0
 10
337.8982
 20
38.4499
 30
0.0
 10
337.8982
 20
38.4499
 30
0.0
 10
337.8982
 20
38.4499
 30
0.0
 10
338.0499
 20
38.0002
 30
0.0
 10
338.0499
 20
38.0002
 30
0.0
 10
338.0499
 20
38.0002
 30
0.0
 10
338.0499
 20
38.0002
 30
0.0
 10
338.3004
 20
37.6001
 30
0.0
 10
338.3004
 20
37.6001
 30
0.0
 10
338.3004
 20
37.6001
 30
0.0
 10
338.3004
 20
37.6001
 30
0.0
 10
338.6497
 20
37.2999
 30
0.0
 10
338.6497
 20
37.2999
 30
0.0
 10
338.6497
 20
37.2999
 30
0.0
 10
338.6497
 20
37.2999
 30
0.0
 10
339.0765
 20
37.0752
 30
0.0
 10
339.0765
 20
37.0752
 30
0.0
 10
339.0765
 20
37.0752
 30
0.0
 10
339.0765
 20
37.0752
 30
0.0
 10
339.5245
 20
36.975
 30
0.0
 10
339.5245
 20
36.975
 30
0.0
 10
339.5245
 20
36.975
 30
0.0
 10
339.5245
 20
36.975
 30
0.0
 10
339.6762
 20
36.975
 30
0.0
 10
339.6762
 20
36.975
 30
0.0
  0
SPLINE
  5
49
330
1F
100
AcDbEntity
  8
Layer 1
 62
     1
370
    35
100
AcDbSpline
210
0.0
220
0.0
230
1.0
 70
    11
 71
     3
 72
   116
 73
   112
 74
     0
 42
0.0000000001
 43
0.0000000001
 12
1.0
 22
0.0
 32
0.0
 13
1.0
 23
0.0
 33
0.0
 40
0.0
 40
0.0
 40
0.0
 40
0.0
 40
0.0344827586206897
 40
0.0344827586206897
 40
0.0344827586206897
 40
0.0344827586206897
 40
0.0689655172413793
 40
0.0689655172413793
 40
0.0689655172413793
 40
0.0689655172413793
 40
0.103448275862069
 40
0.103448275862069
 40
0.103448275862069
 40
0.103448275862069
 40
0.1379310344827586
 40
0.1379310344827586
 40
0.1379310344827586
 40
0.1379310344827586
 40
0.1724137931034483
 40
0.1724137931034483
 40
0.1724137931034483
 40
0.1724137931034483
 40
0.2068965517241379
 40
0.2068965517241379
 40
0.2068965517241379
 40
0.2068965517241379
 40
0.2413793103448276
 40
0.2413793103448276
 40
0.2413793103448276
 40
0.2413793103448276
 40
0.2758620689655172
 40
0.2758620689655172
 40
0.2758620689655172
 40
0.2758620689655172
 40
0.3103448275862069
 40
0.3103448275862069
 40
0.3103448275862069
 40
0.3103448275862069
 40
0.3448275862068966
 40
0.3448275862068966
 40
0.3448275862068966
 40
0.3448275862068966
 40
0.3793103448275862
 40
0.3793103448275862
 40
0.3793103448275862
 40
0.3793103448275862
 40
0.4137931034482759
 40
0.4137931034482759
 40
0.4137931034482759
 40
0.4137931034482759
 40
0.4482758620689655
 40
0.4482758620689655
 40
0.4482758620689655
 40
0.4482758620689655
 40
0.4827586206896552
 40
0.4827586206896552
 40
0.4827586206896552
 40
0.4827586206896552
 40
0.5172413793103449
 40
0.5172413793103449
 40
0.5172413793103449
 40
0.5172413793103449
 40
0.5517241379310345
 40
0.5517241379310345
 40
0.5517241379310345
 40
0.5517241379310345
 40
0.5862068965517241
 40
0.5862068965517241
 40
0.5862068965517241
 40
0.5862068965517241
 40
0.6206896551724138
 40
0.6206896551724138
 40
0.6206896551724138
 40
0.6206896551724138
 40
0.6551724137931034
 40
0.6551724137931034
 40
0.6551724137931034
 40
0.6551724137931034
 40
0.6896551724137931
 40
0.6896551724137931
 40
0.6896551724137931
 40
0.6896551724137931
 40
0.7241379310344828
 40
0.7241379310344828
 40
0.7241379310344828
 40
0.7241379310344828
 40
0.7586206896551724
 40
0.7586206896551724
 40
0.7586206896551724
 40
0.7586206896551724
 40
0.7931034482758621
 40
0.7931034482758621
 40
0.7931034482758621
 40
0.7931034482758621
 40
0.8275862068965517
 40
0.8275862068965517
 40
0.8275862068965517
 40
0.8275862068965517
 40
0.8620689655172413
 40
0.8620689655172413
 40
0.8620689655172413
 40
0.8620689655172413
 40
0.896551724137931
 40
0.896551724137931
 40
0.896551724137931
 40
0.896551724137931
 40
0.9310344827586207
 40
0.9310344827586207
 40
0.9310344827586207
 40
0.9310344827586207
 40
1.0
 40
1.0
 40
1.0
 40
1.0
 10
545.6737
 20
0.4251
 30
0.0
 10
545.6737
 20
0.4251
 30
0.0
 10
546.15
 20
0.4752
 30
0.0
 10
546.15
 20
0.4752
 30
0.0
 10
546.15
 20
0.4752
 30
0.0
 10
546.15
 20
0.4752
 30
0.0
 10
546.5733
 20
0.6502
 30
0.0
 10
546.5733
 20
0.6502
 30
0.0
 10
546.5733
 20
0.6502
 30
0.0
 10
546.5733
 20
0.6502
 30
0.0
 10
546.9508
 20
0.95
 30
0.0
 10
546.9508
 20
0.95
 30
0.0
 10
546.9508
 20
0.95
 30
0.0
 10
546.9508
 20
0.95
 30
0.0
 10
547.2506
 20
1.325
 30
0.0
 10
547.2506
 20
1.325
 30
0.0
 10
547.2506
 20
1.325
 30
0.0
 10
547.2506
 20
1.325
 30
0.0
 10
547.4235
 20
1.7501
 30
0.0
 10
547.4235
 20
1.7501
 30
0.0
 10
547.4235
 20
1.7501
 30
0.0
 10
547.4235
 20
1.7501
 30
0.0
 10
547.4764
 20
2.225
 30
0.0
 10
547.4764
 20
2.225
 30
0.0
 10
547.4764
 20
2.225
 30
0.0
 10
547.4764
 20
2.225
 30
0.0
 10
547.4235
 20
2.6751
 30
0.0
 10
547.4235
 20
2.6751
 30
0.0
 10
547.4235
 20
2.6751
 30
0.0
 10
547.4235
 20
2.6751
 30
0.0
 10
547.3988
 20
2.775
 30
0.0
 10
547.3988
 20
2.775
 30
0.0
 10
547.3988
 20
2.775
 30
0.0
 10
547.3988
 20
2.775
 30
0.0
 10
547.4235
 20
2.6751
 30
0.0
 10
547.4235
 20
2.6751
 30
0.0
 10
547.4235
 20
2.6751
 30
0.0
 10
547.4235
 20
2.6751
 30
0.0
 10
547.3988
 20
2.775
 30
0.0
 10
547.3988
 20
2.775
 30
0.0
 10
547.3988
 20
2.775
 30
0.0
 10
547.3988
 20
2.775
 30
0.0
 10
547.2506
 20
3.1249
 30
0.0
 10
547.2506
 20
3.1249
 30
0.0
 10
547.2506
 20
3.1249
 30
0.0
 10
547.2506
 20
3.1249
 30
0.0
 10
546.9508
 20
3.4752
 30
0.0
 10
546.9508
 20
3.4752
 30
0.0
 10
546.9508
 20
3.4752
 30
0.0
 10
546.9508
 20
3.4752
 30
0.0
 10
546.5733
 20
3.7751
 30
0.0
 10
546.5733
 20
3.7751
 30
0.0
 10
546.5733
 20
3.7751
 30
0.0
 10
546.5733
 20
3.7751
 30
0.0
 10
546.15
 20
3.9501
 30
0.0
 10
546.15
 20
3.9501
 30
0.0
 10
546.15
 20
3.9501
 30
0.0
 10
546.15
 20
3.9501
 30
0.0
 10
545.6737
 20
4.0252
 30
0.0
 10
545.6737
 20
4.0252
 30
0.0
 10
545.6737
 20
4.0252
 30
0.0
 10
545.6737
 20
4.0252
 30
0.0
 10
545.2257
 20
3.9501
 30
0.0
 10
545.2257
 20
3.9501
 30
0.0
 10
545.2257
 20
3.9501
 30
0.0
 10
545.2257
 20
3.9501
 30
0.0
 10
544.7741
 20
3.7751
 30
0.0
 10
544.7741
 20
3.7751
 30
0.0
 10
544.7741
 20
3.7751
 30
0.0
 10
544.7741
 20
3.7751
 30
0.0
 10
544.4249
 20
3.4752
 30
0.0
 10
544.4249
 20
3.4752
 30
0.0
 10
544.4249
 20
3.4752
 30
0.0
 10
544.4249
 20
3.4752
 30
0.0
 10
544.125
 20
3.1249
 30
0.0
 10
544.125
 20
3.1249
 30
0.0
 10
544.125
 20
3.1249
 30
0.0
 10
544.125
 20
3.1249
 30
0.0
 10
543.9733
 20
2.775
 30
0.0
 10
543.9733
 20
2.775
 30
0.0
 10
543.9733
 20
2.775
 30
0.0
 10
543.9733
 20
2.775
 30
0.0
 10
543.9486
 20
2.6751
 30
0.0
 10
543.9486
 20
2.6751
 30
0.0
 10
543.9486
 20
2.6751
 30
0.0
 10
543.9486
 20
2.6751
 30
0.0
 10
543.8746
 20
2.225
 30
0.0
 10
543.8746
 20
2.225
 30
0.0
 10
543.8746
 20
2.225
 30
0.0
 10
543.8746
 20
2.225
 30
0.0
 10
543.9486
 20
1.7501
 30
0.0
 10
543.9486
 20
1.7501
 30
0.0
 10
543.9486
 20
1.7501
 30
0.0
 10
543.9486
 20
1.7501
 30
0.0
 10
544.125
 20
1.325
 30
0.0
 10
544.125
 20
1.325
 30
0.0
 10
544.125
 20
1.325
 30
0.0
 10
544.125
 20
1.325
 30
0.0
 10
544.4249
 20
0.95
 30
0.0
 10
544.4249
 20
0.95
 30
0.0
 10
544.4249
 20
0.95
 30
0.0
 10
544.4249
 20
0.95
 30
0.0
 10
544.7741
 20
0.6502
 30
0.0
 10
544.7741
 20
0.6502
 30
0.0
 10
544.7741
 20
0.6502
 30
0.0
 10
544.7741
 20
0.6502
 30
0.0
 10
545.2257
 20
0.4752
 30
0.0
 10
545.2257
 20
0.4752
 30
0.0
 10
545.2257
 20
0.4752
 30
0.0
 10
545.2257
 20
0.4752
 30
0.0
 10
545.6737
 20
0.4251
 30
0.0
 10
545.6737
 20
0.4251
 30
0.0
  0
SPLINE
  5
4A
330
1F
100
AcDbEntity
  8
Layer 1
 62
     1
370
    35
100
AcDbSpline
210
0.0
220
0.0
230
1.0
 70
    11
 71
     3
 72
   104
 73
   100
 74
     0
 42
0.0000000001
 43
0.0000000001
 12
1.0
 22
0.0
 32
0.0
 13
1.0
 23
0.0
 33
0.0
 40
0.0
 40
0.0
 40
0.0
 40
0.0
 40
0.0384615384615385
 40
0.0384615384615385
 40
0.0384615384615385
 40
0.0384615384615385
 40
0.0769230769230769
 40
0.0769230769230769
 40
0.0769230769230769
 40
0.0769230769230769
 40
0.1153846153846154
 40
0.1153846153846154
 40
0.1153846153846154
 40
0.1153846153846154
 40
0.1538461538461539
 40
0.1538461538461539
 40
0.1538461538461539
 40
0.1538461538461539
 40
0.1923076923076923
 40
0.1923076923076923
 40
0.1923076923076923
 40
0.1923076923076923
 40
0.2307692307692308
 40
0.2307692307692308
 40
0.2307692307692308
 40
0.2307692307692308
 40
0.2692307692307692
 40
0.2692307692307692
 40
0.2692307692307692
 40
0.2692307692307692
 40
0.3076923076923077
 40
0.3076923076923077
 40
0.3076923076923077
 40
0.3076923076923077
 40
0.3461538461538461
 40
0.3461538461538461
 40
0.3461538461538461
 40
0.3461538461538461
 40
0.3846153846153846
 40
0.3846153846153846
 40
0.3846153846153846
 40
0.3846153846153846
 40
0.4230769230769231
 40
0.4230769230769231
 40
0.4230769230769231
 40
0.4230769230769231
 40
0.4615384615384616
 40
0.4615384615384616
 40
0.4615384615384616
 40
0.4615384615384616
 40
0.5
 40
0.5
 40
0.5
 40
0.5
 40
0.5384615384615384
 40
0.5384615384615384
 40
0.5384615384615384
 40
0.5384615384615384
 40
0.5769230769230769
 40
0.5769230769230769
 40
0.5769230769230769
 40
0.5769230769230769
 40
0.6153846153846154
 40
0.6153846153846154
 40
0.6153846153846154
 40
0.6153846153846154
 40
0.6538461538461539
 40
0.6538461538461539
 40
0.6538461538461539
 40
0.6538461538461539
 40
0.6923076923076923
 40
0.6923076923076923
 40
0.6923076923076923
 40
0.6923076923076923
 40
0.7307692307692307
 40
0.7307692307692307
 40
0.7307692307692307
 40
0.7307692307692307
 40
0.7692307692307693
 40
0.7692307692307693
 40
0.7692307692307693
 40
0.7692307692307693
 40
0.8076923076923077
 40
0.8076923076923077
 40
0.8076923076923077
 40
0.8076923076923077
 40
0.8461538461538461
 40
0.8461538461538461
 40
0.8461538461538461
 40
0.8461538461538461
 40
0.8846153846153846
 40
0.8846153846153846
 40
0.8846153846153846
 40
0.8846153846153846
 40
0.9230769230769231
 40
0.9230769230769231
 40
0.9230769230769231
 40
0.9230769230769231
 40
1.0
 40
1.0
 40
1.0
 40
1.0
 10
365.8488
 20
14.1002
 30
0.0
 10
365.8488
 20
14.1002
 30
0.0
 10
366.2757
 20
14.2501
 30
0.0
 10
366.2757
 20
14.2501
 30
0.0
 10
366.2757
 20
14.2501
 30
0.0
 10
366.2757
 20
14.2501
 30
0.0
 10
366.6743
 20
14.5249
 30
0.0
 10
366.6743
 20
14.5249
 30
0.0
 10
366.6743
 20
14.5249
 30
0.0
 10
366.6743
 20
14.5249
 30
0.0
 10
366.9742
 20
14.8749
 30
0.0
 10
366.9742
 20
14.8749
 30
0.0
 10
366.9742
 20
14.8749
 30
0.0
 10
366.9742
 20
14.8749
 30
0.0
 10
367.2
 20
15.3
 30
0.0
 10
367.2
 20
15.3
 30
0.0
 10
367.2
 20
15.3
 30
0.0
 10
367.2
 20
15.3
 30
0.0
 10
367.274
 20
15.7501
 30
0.0
 10
367.274
 20
15.7501
 30
0.0
 10
367.274
 20
15.7501
 30
0.0
 10
367.274
 20
15.7501
 30
0.0
 10
367.274
 20
15.875
 30
0.0
 10
367.274
 20
15.875
 30
0.0
 10
367.274
 20
15.875
 30
0.0
 10
367.274
 20
15.875
 30
0.0
 10
367.2493
 20
16.225
 30
0.0
 10
367.2493
 20
16.225
 30
0.0
 10
367.2493
 20
16.225
 30
0.0
 10
367.2493
 20
16.225
 30
0.0
 10
367.1012
 20
16.6751
 30
0.0
 10
367.1012
 20
16.6751
 30
0.0
 10
367.1012
 20
16.6751
 30
0.0
 10
367.1012
 20
16.6751
 30
0.0
 10
366.826
 20
17.0501
 30
0.0
 10
366.826
 20
17.0501
 30
0.0
 10
366.826
 20
17.0501
 30
0.0
 10
366.826
 20
17.0501
 30
0.0
 10
366.4732
 20
17.375
 30
0.0
 10
366.4732
 20
17.375
 30
0.0
 10
366.4732
 20
17.375
 30
0.0
 10
366.4732
 20
17.375
 30
0.0
 10
366.0499
 20
17.575
 30
0.0
 10
366.0499
 20
17.575
 30
0.0
 10
366.0499
 20
17.575
 30
0.0
 10
366.0499
 20
17.575
 30
0.0
 10
365.5983
 20
17.6502
 30
0.0
 10
365.5983
 20
17.6502
 30
0.0
 10
365.5983
 20
17.6502
 30
0.0
 10
365.5983
 20
17.6502
 30
0.0
 10
365.1256
 20
17.6251
 30
0.0
 10
365.1256
 20
17.6251
 30
0.0
 10
365.1256
 20
17.6251
 30
0.0
 10
365.1256
 20
17.6251
 30
0.0
 10
364.6741
 20
17.4752
 30
0.0
 10
364.6741
 20
17.4752
 30
0.0
 10
364.6741
 20
17.4752
 30
0.0
 10
364.6741
 20
17.4752
 30
0.0
 10
364.3001
 20
17.2
 30
0.0
 10
364.3001
 20
17.2
 30
0.0
 10
364.3001
 20
17.2
 30
0.0
 10
364.3001
 20
17.2
 30
0.0
 10
363.9756
 20
16.8501
 30
0.0
 10
363.9756
 20
16.8501
 30
0.0
 10
363.9756
 20
16.8501
 30
0.0
 10
363.9756
 20
16.8501
 30
0.0
 10
363.7745
 20
16.425
 30
0.0
 10
363.7745
 20
16.425
 30
0.0
 10
363.7745
 20
16.425
 30
0.0
 10
363.7745
 20
16.425
 30
0.0
 10
363.6757
 20
15.9752
 30
0.0
 10
363.6757
 20
15.9752
 30
0.0
 10
363.6757
 20
15.9752
 30
0.0
 10
363.6757
 20
15.9752
 30
0.0
 10
363.7251
 20
15.5
 30
0.0
 10
363.7251
 20
15.5
 30
0.0
 10
363.7251
 20
15.5
 30
0.0
 10
363.7251
 20
15.5
 30
0.0
 10
363.8733
 20
15.0502
 30
0.0
 10
363.8733
 20
15.0502
 30
0.0
 10
363.8733
 20
15.0502
 30
0.0
 10
363.8733
 20
15.0502
 30
0.0
 10
364.1237
 20
14.6752
 30
0.0
 10
364.1237
 20
14.6752
 30
0.0
 10
364.1237
 20
14.6752
 30
0.0
 10
364.1237
 20
14.6752
 30
0.0
 10
364.4765
 20
14.375
 30
0.0
 10
364.4765
 20
14.375
 30
0.0
 10
364.4765
 20
14.375
 30
0.0
 10
364.4765
 20
14.375
 30
0.0
 10
364.8998
 20
14.1499
 30
0.0
 10
364.8998
 20
14.1499
 30
0.0
 10
364.8998
 20
14.1499
 30
0.0
 10
364.8998
 20
14.1499
 30
0.0
 10
365.3761
 20
14.0751
 30
0.0
 10
365.3761
 20
14.0751
 30
0.0
 10
365.3761
 20
14.0751
 30
0.0
 10
365.3761
 20
14.0751
 30
0.0
 10
365.8488
 20
14.1002
 30
0.0
 10
365.8488
 20
14.1002
 30
0.0
  0
SPLINE
  5
4B
330
1F
100
AcDbEntity
  8
Layer 1
 62
     1
370
    35
100
AcDbSpline
210
0.0
220
0.0
230
1.0
 70
    11
 71
     3
 72
    20
 73
    16
 74
     0
 42
0.0000000001
 43
0.0000000001
 12
1.0
 22
0.0
 32
0.0
 13
1.0
 23
0.0
 33
0.0
 40
0.0
 40
0.0
 40
0.0
 40
0.0
 40
0.2
 40
0.2
 40
0.2
 40
0.2
 40
0.4
 40
0.4
 40
0.4
 40
0.4
 40
0.6
 40
0.6
 40
0.6
 40
0.6
 40
1.0
 40
1.0
 40
1.0
 40
1.0
 10
542.474
 20
-6.2251
 30
0.0
 10
542.474
 20
-6.2251
 30
0.0
 10
542.474
 20
-3.2251
 30
0.0
 10
542.474
 20
-3.2251
 30
0.0
 10
542.474
 20
-3.2251
 30
0.0
 10
542.474
 20
-3.2251
 30
0.0
 10
548.8734
 20
-3.2251
 30
0.0
 10
548.8734
 20
-3.2251
 30
0.0
 10
548.8734
 20
-3.2251
 30
0.0
 10
548.8734
 20
-3.2251
 30
0.0
 10
548.8734
 20
-6.2251
 30
0.0
 10
548.8734
 20
-6.2251
 30
0.0
 10
548.8734
 20
-6.2251
 30
0.0
 10
548.8734
 20
-6.2251
 30
0.0
 10
542.474
 20
-6.2251
 30
0.0
 10
542.474
 20
-6.2251
 30
0.0
  0
SPLINE
  5
4C
330
1F
100
AcDbEntity
  8
Layer 1
 62
     1
370
    35
100
AcDbSpline
210
0.0
220
0.0
230
1.0
 70
    11
 71
     3
 72
    20
 73
    16
 74
     0
 42
0.0000000001
 43
0.0000000001
 12
1.0
 22
0.0
 32
0.0
 13
1.0
 23
0.0
 33
0.0
 40
0.0
 40
0.0
 40
0.0
 40
0.0
 40
0.2
 40
0.2
 40
0.2
 40
0.2
 40
0.4
 40
0.4
 40
0.4
 40
0.4
 40
0.6
 40
0.6
 40
0.6
 40
0.6
 40
1.0
 40
1.0
 40
1.0
 40
1.0
 10
385.0752
 20
-0.2251
 30
0.0
 10
385.0752
 20
-0.2251
 30
0.0
 10
385.0752
 20
5.775
 30
0.0
 10
385.0752
 20
5.775
 30
0.0
 10
385.0752
 20
5.775
 30
0.0
 10
385.0752
 20
5.775
 30
0.0
 10
391.4746
 20
5.775
 30
0.0
 10
391.4746
 20
5.775
 30
0.0
 10
391.4746
 20
5.775
 30
0.0
 10
391.4746
 20
5.775
 30
0.0
 10
391.4746
 20
-0.2251
 30
0.0
 10
391.4746
 20
-0.2251
 30
0.0
 10
391.4746
 20
-0.2251
 30
0.0
 10
391.4746
 20
-0.2251
 30
0.0
 10
385.0752
 20
-0.2251
 30
0.0
 10
385.0752
 20
-0.2251
 30
0.0
  0
SPLINE
  5
4D
330
1F
100
AcDbEntity
  8
Layer 1
 62
     1
370
    35
100
AcDbSpline
210
0.0
220
0.0
230
1.0
 70
     8
 71
     3
 72
   144
 73
   140
 74
     0
 42
0.0000000001
 43
0.0000000001
 12
1.0
 22
0.0
 32
0.0
 13
1.0
 23
0.0
 33
0.0
 40
0.0
 40
0.0
 40
0.0
 40
0.0
 40
0.0277777777777778
 40
0.0277777777777778
 40
0.0277777777777778
 40
0.0277777777777778
 40
0.0555555555555556
 40
0.0555555555555556
 40
0.0555555555555556
 40
0.0555555555555556
 40
0.0833333333333333
 40
0.0833333333333333
 40
0.0833333333333333
 40
0.0833333333333333
 40
0.1111111111111111
 40
0.1111111111111111
 40
0.1111111111111111
 40
0.1111111111111111
 40
0.1388888888888889
 40
0.1388888888888889
 40
0.1388888888888889
 40
0.1388888888888889
 40
0.1666666666666667
 40
0.1666666666666667
 40
0.1666666666666667
 40
0.1666666666666667
 40
0.1944444444444444
 40
0.1944444444444444
 40
0.1944444444444444
 40
0.1944444444444444
 40
0.2222222222222222
 40
0.2222222222222222
 40
0.2222222222222222
 40
0.2222222222222222
 40
0.25
 40
0.25
 40
0.25
 40
0.25
 40
0.2777777777777778
 40
0.2777777777777778
 40
0.2777777777777778
 40
0.2777777777777778
 40
0.3055555555555556
 40
0.3055555555555556
 40
0.3055555555555556
 40
0.3055555555555556
 40
0.3333333333333333
 40
0.3333333333333333
 40
0.3333333333333333
 40
0.3333333333333333
 40
0.3611111111111111
 40
0.3611111111111111
 40
0.3611111111111111
 40
0.3611111111111111
 40
0.3888888888888889
 40
0.3888888888888889
 40
0.3888888888888889
 40
0.3888888888888889
 40
0.4166666666666667
 40
0.4166666666666667
 40
0.4166666666666667
 40
0.4166666666666667
 40
0.4444444444444444
 40
0.4444444444444444
 40
0.4444444444444444
 40
0.4444444444444444
 40
0.4722222222222222
 40
0.4722222222222222
 40
0.4722222222222222
 40
0.4722222222222222
 40
0.5
 40
0.5
 40
0.5
 40
0.5
 40
0.5277777777777778
 40
0.5277777777777778
 40
0.5277777777777778
 40
0.5277777777777778
 40
0.5555555555555556
 40
0.5555555555555556
 40
0.5555555555555556
 40
0.5555555555555556
 40
0.5833333333333334
 40
0.5833333333333334
 40
0.5833333333333334
 40
0.5833333333333334
 40
0.6111111111111112
 40
0.6111111111111112
 40
0.6111111111111112
 40
0.6111111111111112
 40
0.6388888888888888
 40
0.6388888888888888
 40
0.6388888888888888
 40
0.6388888888888888
 40
0.6666666666666666
 40
0.6666666666666666
 40
0.6666666666666666
 40
0.6666666666666666
 40
0.6944444444444444
 40
0.6944444444444444
 40
0.6944444444444444
 40
0.6944444444444444
 40
0.7222222222222222
 40
0.7222222222222222
 40
0.7222222222222222
 40
0.7222222222222222
 40
0.75
 40
0.75
 40
0.75
 40
0.75
 40
0.7777777777777778
 40
0.7777777777777778
 40
0.7777777777777778
 40
0.7777777777777778
 40
0.8055555555555556
 40
0.8055555555555556
 40
0.8055555555555556
 40
0.8055555555555556
 40
0.8333333333333334
 40
0.8333333333333334
 40
0.8333333333333334
 40
0.8333333333333334
 40
0.8611111111111112
 40
0.8611111111111112
 40
0.8611111111111112
 40
0.8611111111111112
 40
0.8888888888888888
 40
0.8888888888888888
 40
0.8888888888888888
 40
0.8888888888888888
 40
0.9166666666666666
 40
0.9166666666666666
 40
0.9166666666666666
 40
0.9166666666666666
 40
0.9444444444444444
 40
0.9444444444444444
 40
0.9444444444444444
 40
0.9444444444444444
 40
1.0
 40
1.0
 40
1.0
 40
1.0
 10
301.8761
 20
35.6249
 30
0.0
 10
301.8761
 20
35.6249
 30
0.0
 10
311.8738
 20
35.6249
 30
0.0
 10
311.8738
 20
35.6249
 30
0.0
 10
311.8738
 20
35.6249
 30
0.0
 10
311.8738
 20
35.6249
 30
0.0
 10
311.8738
 20
42.1252
 30
0.0
 10
311.8738
 20
42.1252
 30
0.0
 10
311.8738
 20
42.1252
 30
0.0
 10
311.8738
 20
42.1252
 30
0.0
 10
301.8761
 20
42.1252
 30
0.0
 10
301.8761
 20
42.1252
 30
0.0
 10
301.8761
 20
42.1252
 30
0.0
 10
301.8761
 20
42.1252
 30
0.0
 10
301.8761
 20
67.7749
 30
0.0
 10
301.8761
 20
67.7749
 30
0.0
 10
301.8761
 20
67.7749
 30
0.0
 10
301.8761
 20
67.7749
 30
0.0
 10
302.049
 20
70.3749
 30
0.0
 10
302.049
 20
70.3749
 30
0.0
 10
302.049
 20
70.3749
 30
0.0
 10
302.049
 20
70.3749
 30
0.0
 10
302.5746
 20
72.9502
 30
0.0
 10
302.5746
 20
72.9502
 30
0.0
 10
302.5746
 20
72.9502
 30
0.0
 10
302.5746
 20
72.9502
 30
0.0
 10
303.4001
 20
75.4249
 30
0.0
 10
303.4001
 20
75.4249
 30
0.0
 10
303.4001
 20
75.4249
 30
0.0
 10
303.4001
 20
75.4249
 30
0.0
 10
304.5502
 20
77.7751
 30
0.0
 10
304.5502
 20
77.7751
 30
0.0
 10
304.5502
 20
77.7751
 30
0.0
 10
304.5502
 20
77.7751
 30
0.0
 10
306.0248
 20
79.95
 30
0.0
 10
306.0248
 20
79.95
 30
0.0
 10
306.0248
 20
79.95
 30
0.0
 10
306.0248
 20
79.95
 30
0.0
 10
307.7499
 20
81.9002
 30
0.0
 10
307.7499
 20
81.9002
 30
0.0
 10
307.7499
 20
81.9002
 30
0.0
 10
307.7499
 20
81.9002
 30
0.0
 10
309.7007
 20
83.6249
 30
0.0
 10
309.7007
 20
83.6249
 30
0.0
 10
309.7007
 20
83.6249
 30
0.0
 10
309.7007
 20
83.6249
 30
0.0
 10
311.8738
 20
85.0752
 30
0.0
 10
311.8738
 20
85.0752
 30
0.0
 10
311.8738
 20
85.0752
 30
0.0
 10
311.8738
 20
85.0752
 30
0.0
 10
314.2233
 20
86.2499
 30
0.0
 10
314.2233
 20
86.2499
 30
0.0
 10
314.2233
 20
86.2499
 30
0.0
 10
314.2233
 20
86.2499
 30
0.0
 10
316.6998
 20
87.0751
 30
0.0
 10
316.6998
 20
87.0751
 30
0.0
 10
316.6998
 20
87.0751
 30
0.0
 10
316.6998
 20
87.0751
 30
0.0
 10
319.2751
 20
87.6
 30
0.0
 10
319.2751
 20
87.6
 30
0.0
 10
319.2751
 20
87.6
 30
0.0
 10
319.2751
 20
87.6
 30
0.0
 10
321.8751
 20
87.775
 30
0.0
 10
321.8751
 20
87.775
 30
0.0
 10
321.8751
 20
87.775
 30
0.0
 10
321.8751
 20
87.775
 30
0.0
 10
325.8756
 20
87.775
 30
0.0
 10
325.8756
 20
87.775
 30
0.0
 10
325.8756
 20
87.775
 30
0.0
 10
325.8756
 20
87.775
 30
0.0
 10
326.8739
 20
87.775
 30
0.0
 10
326.8739
 20
87.775
 30
0.0
 10
326.8739
 20
87.775
 30
0.0
 10
326.8739
 20
87.775
 30
0.0
 10
329.4986
 20
87.6
 30
0.0
 10
329.4986
 20
87.6
 30
0.0
 10
329.4986
 20
87.6
 30
0.0
 10
329.4986
 20
87.6
 30
0.0
 10
332.0492
 20
87.0751
 30
0.0
 10
332.0492
 20
87.0751
 30
0.0
 10
332.0492
 20
87.0751
 30
0.0
 10
332.0492
 20
87.0751
 30
0.0
 10
334.5257
 20
86.2499
 30
0.0
 10
334.5257
 20
86.2499
 30
0.0
 10
334.5257
 20
86.2499
 30
0.0
 10
334.5257
 20
86.2499
 30
0.0
 10
336.8752
 20
85.0752
 30
0.0
 10
336.8752
 20
85.0752
 30
0.0
 10
336.8752
 20
85.0752
 30
0.0
 10
336.8752
 20
85.0752
 30
0.0
 10
339.0483
 20
83.6249
 30
0.0
 10
339.0483
 20
83.6249
 30
0.0
 10
339.0483
 20
83.6249
 30
0.0
 10
339.0483
 20
83.6249
 30
0.0
 10
341.0239
 20
81.9002
 30
0.0
 10
341.0239
 20
81.9002
 30
0.0
 10
341.0239
 20
81.9002
 30
0.0
 10
341.0239
 20
81.9002
 30
0.0
 10
342.7489
 20
79.95
 30
0.0
 10
342.7489
 20
79.95
 30
0.0
 10
342.7489
 20
79.95
 30
0.0
 10
342.7489
 20
79.95
 30
0.0
 10
343.1511
 20
79.3249
 30
0.0
 10
343.1511
 20
79.3249
 30
0.0
 10
343.1511
 20
79.3249
 30
0.0
 10
343.1511
 20
79.3249
 30
0.0
 10
343.1511
 20
75.1752
 30
0.0
 10
343.1511
 20
75.1752
 30
0.0
 10
343.1511
 20
75.1752
 30
0.0
 10
343.1511
 20
75.1752
 30
0.0
 10
346.8764
 20
67.7749
 30
0.0
 10
346.8764
 20
67.7749
 30
0.0
 10
346.8764
 20
67.7749
 30
0.0
 10
346.8764
 20
67.7749
 30
0.0
 10
353.8755
 20
41.9749
 30
0.0
 10
353.8755
 20
41.9749
 30
0.0
 10
353.8755
 20
41.9749
 30
0.0
 10
353.8755
 20
41.9749
 30
0.0
 10
353.8755
 20
35.6249
 30
0.0
 10
353.8755
 20
35.6249
 30
0.0
 10
353.8755
 20
35.6249
 30
0.0
 10
353.8755
 20
35.6249
 30
0.0
 10
362.2258
 20
35.6249
 30
0.0
 10
362.2258
 20
35.6249
 30
0.0
 10
362.2258
 20
35.6249
 30
0.0
 10
362.2258
 20
35.6249
 30
0.0
 10
362.2258
 20
24.9252
 30
0.0
 10
362.2258
 20
24.9252
 30
0.0
 10
362.2258
 20
24.9252
 30
0.0
 10
362.2258
 20
24.9252
 30
0.0
 10
368.724
 20
24.9252
 30
0.0
 10
368.724
 20
24.9252
 30
0.0
 10
368.724
 20
24.9252
 30
0.0
 10
368.724
 20
24.9252
 30
0.0
 10
368.724
 20
35.6249
 30
0.0
 10
368.724
 20
35.6249
 30
0.0
 10
368.724
 20
35.6249
 30
0.0
 10
368.724
 20
35.6249
 30
0.0
 10
369.5988
 20
35.6249
 30
0.0
 10
369.5988
 20
35.6249
 30
0.0
  0
SPLINE
  5
4E
330
1F
100
AcDbEntity
  8
Layer 1
 62
     1
370
    35
100
AcDbSpline
210
0.0
220
0.0
230
1.0
 70
    11
 71
     3
 72
   100
 73
    96
 74
     0
 42
0.0000000001
 43
0.0000000001
 12
1.0
 22
0.0
 32
0.0
 13
1.0
 23
0.0
 33
0.0
 40
0.0
 40
0.0
 40
0.0
 40
0.0
 40
0.04
 40
0.04
 40
0.04
 40
0.04
 40
0.08
 40
0.08
 40
0.08
 40
0.08
 40
0.12
 40
0.12
 40
0.12
 40
0.12
 40
0.16
 40
0.16
 40
0.16
 40
0.16
 40
0.2
 40
0.2
 40
0.2
 40
0.2
 40
0.24
 40
0.24
 40
0.24
 40
0.24
 40
0.28
 40
0.28
 40
0.28
 40
0.28
 40
0.32
 40
0.32
 40
0.32
 40
0.32
 40
0.36
 40
0.36
 40
0.36
 40
0.36
 40
0.4
 40
0.4
 40
0.4
 40
0.4
 40
0.44
 40
0.44
 40
0.44
 40
0.44
 40
0.48
 40
0.48
 40
0.48
 40
0.48
 40
0.52
 40
0.52
 40
0.52
 40
0.52
 40
0.56
 40
0.56
 40
0.56
 40
0.56
 40
0.6
 40
0.6
 40
0.6
 40
0.6
 40
0.64
 40
0.64
 40
0.64
 40
0.64
 40
0.68
 40
0.68
 40
0.68
 40
0.68
 40
0.72
 40
0.72
 40
0.72
 40
0.72
 40
0.76
 40
0.76
 40
0.76
 40
0.76
 40
0.8
 40
0.8
 40
0.8
 40
0.8
 40
0.84
 40
0.84
 40
0.84
 40
0.84
 40
0.88
 40
0.88
 40
0.88
 40
0.88
 40
0.92
 40
0.92
 40
0.92
 40
0.92
 40
1.0
 40
1.0
 40
1.0
 40
1.0
 10
338.6744
 20
17.2752
 30
0.0
 10
338.6744
 20
17.2752
 30
0.0
 10
339.1506
 20
17.375
 30
0.0
 10
339.1506
 20
17.375
 30
0.0
 10
339.1506
 20
17.375
 30
0.0
 10
339.1506
 20
17.375
 30
0.0
 10
339.5739
 20
17.575
 30
0.0
 10
339.5739
 20
17.575
 30
0.0
 10
339.5739
 20
17.575
 30
0.0
 10
339.5739
 20
17.575
 30
0.0
 10
339.9232
 20
17.8749
 30
0.0
 10
339.9232
 20
17.8749
 30
0.0
 10
339.9232
 20
17.8749
 30
0.0
 10
339.9232
 20
17.8749
 30
0.0
 10
340.1737
 20
18.2749
 30
0.0
 10
340.1737
 20
18.2749
 30
0.0
 10
340.1737
 20
18.2749
 30
0.0
 10
340.1737
 20
18.2749
 30
0.0
 10
340.3254
 20
18.7251
 30
0.0
 10
340.3254
 20
18.7251
 30
0.0
 10
340.3254
 20
18.7251
 30
0.0
 10
340.3254
 20
18.7251
 30
0.0
 10
340.3747
 20
19.1749
 30
0.0
 10
340.3747
 20
19.1749
 30
0.0
 10
340.3747
 20
19.1749
 30
0.0
 10
340.3747
 20
19.1749
 30
0.0
 10
340.276
 20
19.6501
 30
0.0
 10
340.276
 20
19.6501
 30
0.0
 10
340.276
 20
19.6501
 30
0.0
 10
340.276
 20
19.6501
 30
0.0
 10
340.0749
 20
20.0752
 30
0.0
 10
340.0749
 20
20.0752
 30
0.0
 10
340.0749
 20
20.0752
 30
0.0
 10
340.0749
 20
20.0752
 30
0.0
 10
339.7503
 20
20.4251
 30
0.0
 10
339.7503
 20
20.4251
 30
0.0
 10
339.7503
 20
20.4251
 30
0.0
 10
339.7503
 20
20.4251
 30
0.0
 10
339.3764
 20
20.6749
 30
0.0
 10
339.3764
 20
20.6749
 30
0.0
 10
339.3764
 20
20.6749
 30
0.0
 10
339.3764
 20
20.6749
 30
0.0
 10
338.9248
 20
20.8499
 30
0.0
 10
338.9248
 20
20.8499
 30
0.0
 10
338.9248
 20
20.8499
 30
0.0
 10
338.9248
 20
20.8499
 30
0.0
 10
338.4486
 20
20.8749
 30
0.0
 10
338.4486
 20
20.8749
 30
0.0
 10
338.4486
 20
20.8749
 30
0.0
 10
338.4486
 20
20.8749
 30
0.0
 10
338.0005
 20
20.7751
 30
0.0
 10
338.0005
 20
20.7751
 30
0.0
 10
338.0005
 20
20.7751
 30
0.0
 10
338.0005
 20
20.7751
 30
0.0
 10
337.5737
 20
20.5751
 30
0.0
 10
337.5737
 20
20.5751
 30
0.0
 10
337.5737
 20
20.5751
 30
0.0
 10
337.5737
 20
20.5751
 30
0.0
 10
337.2244
 20
20.2752
 30
0.0
 10
337.2244
 20
20.2752
 30
0.0
 10
337.2244
 20
20.2752
 30
0.0
 10
337.2244
 20
20.2752
 30
0.0
 10
336.9493
 20
19.8751
 30
0.0
 10
336.9493
 20
19.8751
 30
0.0
 10
336.9493
 20
19.8751
 30
0.0
 10
336.9493
 20
19.8751
 30
0.0
 10
336.8011
 20
19.425
 30
0.0
 10
336.8011
 20
19.425
 30
0.0
 10
336.8011
 20
19.425
 30
0.0
 10
336.8011
 20
19.425
 30
0.0
 10
336.7764
 20
18.9502
 30
0.0
 10
336.7764
 20
18.9502
 30
0.0
 10
336.7764
 20
18.9502
 30
0.0
 10
336.7764
 20
18.9502
 30
0.0
 10
336.8752
 20
18.5
 30
0.0
 10
336.8752
 20
18.5
 30
0.0
 10
336.8752
 20
18.5
 30
0.0
 10
336.8752
 20
18.5
 30
0.0
 10
337.0763
 20
18.0749
 30
0.0
 10
337.0763
 20
18.0749
 30
0.0
 10
337.0763
 20
18.0749
 30
0.0
 10
337.0763
 20
18.0749
 30
0.0
 10
337.3761
 20
17.725
 30
0.0
 10
337.3761
 20
17.725
 30
0.0
 10
337.3761
 20
17.725
 30
0.0
 10
337.3761
 20
17.725
 30
0.0
 10
337.7748
 20
17.4502
 30
0.0
 10
337.7748
 20
17.4502
 30
0.0
 10
337.7748
 20
17.4502
 30
0.0
 10
337.7748
 20
17.4502
 30
0.0
 10
338.2263
 20
17.2999
 30
0.0
 10
338.2263
 20
17.2999
 30
0.0
 10
338.2263
 20
17.2999
 30
0.0
 10
338.2263
 20
17.2999
 30
0.0
 10
338.6744
 20
17.2752
 30
0.0
 10
338.6744
 20
17.2752
 30
0.0
  0
SPLINE
  5
4F
330
1F
100
AcDbEntity
  8
Layer 1
 62
     1
370
    35
100
AcDbSpline
210
0.0
220
0.0
230
1.0
 70
    11
 71
     3
 72
   100
 73
    96
 74
     0
 42
0.0000000001
 43
0.0000000001
 12
1.0
 22
0.0
 32
0.0
 13
1.0
 23
0.0
 33
0.0
 40
0.0
 40
0.0
 40
0.0
 40
0.0
 40
0.04
 40
0.04
 40
0.04
 40
0.04
 40
0.08
 40
0.08
 40
0.08
 40
0.08
 40
0.12
 40
0.12
 40
0.12
 40
0.12
 40
0.16
 40
0.16
 40
0.16
 40
0.16
 40
0.2
 40
0.2
 40
0.2
 40
0.2
 40
0.24
 40
0.24
 40
0.24
 40
0.24
 40
0.28
 40
0.28
 40
0.28
 40
0.28
 40
0.32
 40
0.32
 40
0.32
 40
0.32
 40
0.36
 40
0.36
 40
0.36
 40
0.36
 40
0.4
 40
0.4
 40
0.4
 40
0.4
 40
0.44
 40
0.44
 40
0.44
 40
0.44
 40
0.48
 40
0.48
 40
0.48
 40
0.48
 40
0.52
 40
0.52
 40
0.52
 40
0.52
 40
0.56
 40
0.56
 40
0.56
 40
0.56
 40
0.6
 40
0.6
 40
0.6
 40
0.6
 40
0.64
 40
0.64
 40
0.64
 40
0.64
 40
0.68
 40
0.68
 40
0.68
 40
0.68
 40
0.72
 40
0.72
 40
0.72
 40
0.72
 40
0.76
 40
0.76
 40
0.76
 40
0.76
 40
0.8
 40
0.8
 40
0.8
 40
0.8
 40
0.84
 40
0.84
 40
0.84
 40
0.84
 40
0.88
 40
0.88
 40
0.88
 40
0.88
 40
0.92
 40
0.92
 40
0.92
 40
0.92
 40
1.0
 40
1.0
 40
1.0
 40
1.0
 10
678.6498
 20
73.5002
 30
0.0
 10
678.6498
 20
73.5002
 30
0.0
 10
677.7008
 20
73.8999
 30
0.0
 10
677.7008
 20
73.8999
 30
0.0
 10
677.7008
 20
73.8999
 30
0.0
 10
677.7008
 20
73.8999
 30
0.0
 10
676.8506
 20
74.525
 30
0.0
 10
676.8506
 20
74.525
 30
0.0
 10
676.8506
 20
74.525
 30
0.0
 10
676.8506
 20
74.525
 30
0.0
 10
676.2262
 20
75.3752
 30
0.0
 10
676.2262
 20
75.3752
 30
0.0
 10
676.2262
 20
75.3752
 30
0.0
 10
676.2262
 20
75.3752
 30
0.0
 10
675.824
 20
76.3249
 30
0.0
 10
675.824
 20
76.3249
 30
0.0
 10
675.824
 20
76.3249
 30
0.0
 10
675.824
 20
76.3249
 30
0.0
 10
675.7005
 20
77.3751
 30
0.0
 10
675.7005
 20
77.3751
 30
0.0
 10
675.7005
 20
77.3751
 30
0.0
 10
675.7005
 20
77.3751
 30
0.0
 10
675.824
 20
78.3999
 30
0.0
 10
675.824
 20
78.3999
 30
0.0
 10
675.824
 20
78.3999
 30
0.0
 10
675.824
 20
78.3999
 30
0.0
 10
676.2262
 20
79.375
 30
0.0
 10
676.2262
 20
79.375
 30
0.0
 10
676.2262
 20
79.375
 30
0.0
 10
676.2262
 20
79.375
 30
0.0
 10
676.8506
 20
80.2001
 30
0.0
 10
676.8506
 20
80.2001
 30
0.0
 10
676.8506
 20
80.2001
 30
0.0
 10
676.8506
 20
80.2001
 30
0.0
 10
677.7008
 20
80.8249
 30
0.0
 10
677.7008
 20
80.8249
 30
0.0
 10
677.7008
 20
80.8249
 30
0.0
 10
677.7008
 20
80.8249
 30
0.0
 10
678.6498
 20
81.225
 30
0.0
 10
678.6498
 20
81.225
 30
0.0
 10
678.6498
 20
81.225
 30
0.0
 10
678.6498
 20
81.225
 30
0.0
 10
679.701
 20
81.3749
 30
0.0
 10
679.701
 20
81.3749
 30
0.0
 10
679.701
 20
81.3749
 30
0.0
 10
679.701
 20
81.3749
 30
0.0
 10
680.7241
 20
81.225
 30
0.0
 10
680.7241
 20
81.225
 30
0.0
 10
680.7241
 20
81.225
 30
0.0
 10
680.7241
 20
81.225
 30
0.0
 10
681.7013
 20
80.8249
 30
0.0
 10
681.7013
 20
80.8249
 30
0.0
 10
681.7013
 20
80.8249
 30
0.0
 10
681.7013
 20
80.8249
 30
0.0
 10
682.5233
 20
80.2001
 30
0.0
 10
682.5233
 20
80.2001
 30
0.0
 10
682.5233
 20
80.2001
 30
0.0
 10
682.5233
 20
80.2001
 30
0.0
 10
683.1512
 20
79.375
 30
0.0
 10
683.1512
 20
79.375
 30
0.0
 10
683.1512
 20
79.375
 30
0.0
 10
683.1512
 20
79.375
 30
0.0
 10
683.5498
 20
78.3999
 30
0.0
 10
683.5498
 20
78.3999
 30
0.0
 10
683.5498
 20
78.3999
 30
0.0
 10
683.5498
 20
78.3999
 30
0.0
 10
683.7015
 20
77.3751
 30
0.0
 10
683.7015
 20
77.3751
 30
0.0
 10
683.7015
 20
77.3751
 30
0.0
 10
683.7015
 20
77.3751
 30
0.0
 10
683.5498
 20
76.3249
 30
0.0
 10
683.5498
 20
76.3249
 30
0.0
 10
683.5498
 20
76.3249
 30
0.0
 10
683.5498
 20
76.3249
 30
0.0
 10
683.1512
 20
75.3752
 30
0.0
 10
683.1512
 20
75.3752
 30
0.0
 10
683.1512
 20
75.3752
 30
0.0
 10
683.1512
 20
75.3752
 30
0.0
 10
682.5233
 20
74.525
 30
0.0
 10
682.5233
 20
74.525
 30
0.0
 10
682.5233
 20
74.525
 30
0.0
 10
682.5233
 20
74.525
 30
0.0
 10
681.7013
 20
73.8999
 30
0.0
 10
681.7013
 20
73.8999
 30
0.0
 10
681.7013
 20
73.8999
 30
0.0
 10
681.7013
 20
73.8999
 30
0.0
 10
680.7241
 20
73.5002
 30
0.0
 10
680.7241
 20
73.5002
 30
0.0
 10
680.7241
 20
73.5002
 30
0.0
 10
680.7241
 20
73.5002
 30
0.0
 10
679.701
 20
73.3749
 30
0.0
 10
679.701
 20
73.3749
 30
0.0
 10
679.701
 20
73.3749
 30
0.0
 10
679.701
 20
73.3749
 30
0.0
 10
678.6498
 20
73.5002
 30
0.0
 10
678.6498
 20
73.5002
 30
0.0
  0
SPLINE
  5
50
330
1F
100
AcDbEntity
  8
Layer 1
 62
     1
370
    35
100
AcDbSpline
210
0.0
220
0.0
230
1.0
 70
    24
 71
     3
 72
    12
 73
     8
 74
     0
 42
0.0000000001
 43
0.0000000001
 12
1.0
 22
0.0
 32
0.0
 13
1.0
 23
0.0
 33
0.0
 40
0.0
 40
0.0
 40
0.0
 40
0.0
 40
0.3333333333333333
 40
0.3333333333333333
 40
0.3333333333333333
 40
0.3333333333333333
 40
1.0
 40
1.0
 40
1.0
 40
1.0
 10
548.8734
 20
-6.2251
 30
0.0
 10
548.8734
 20
-6.2251
 30
0.0
 10
614.2008
 20
-6.2251
 30
0.0
 10
614.2008
 20
-6.2251
 30
0.0
 10
614.2008
 20
-6.2251
 30
0.0
 10
614.2008
 20
-6.2251
 30
0.0
 10
614.9734
 20
-6.2251
 30
0.0
 10
614.9734
 20
-6.2251
 30
0.0
  0
SPLINE
  5
51
330
1F
100
AcDbEntity
  8
Layer 1
 62
     1
370
    35
100
AcDbSpline
210
0.0
220
0.0
230
1.0
 70
     8
 71
     3
 72
    68
 73
    64
 74
     0
 42
0.0000000001
 43
0.0000000001
 12
1.0
 22
0.0
 32
0.0
 13
1.0
 23
0.0
 33
0.0
 40
0.0
 40
0.0
 40
0.0
 40
0.0
 40
0.0588235294117647
 40
0.0588235294117647
 40
0.0588235294117647
 40
0.0588235294117647
 40
0.1176470588235294
 40
0.1176470588235294
 40
0.1176470588235294
 40
0.1176470588235294
 40
0.1764705882352941
 40
0.1764705882352941
 40
0.1764705882352941
 40
0.1764705882352941
 40
0.2352941176470588
 40
0.2352941176470588
 40
0.2352941176470588
 40
0.2352941176470588
 40
0.2941176470588235
 40
0.2941176470588235
 40
0.2941176470588235
 40
0.2941176470588235
 40
0.3529411764705883
 40
0.3529411764705883
 40
0.3529411764705883
 40
0.3529411764705883
 40
0.4117647058823529
 40
0.4117647058823529
 40
0.4117647058823529
 40
0.4117647058823529
 40
0.4705882352941176
 40
0.4705882352941176
 40
0.4705882352941176
 40
0.4705882352941176
 40
0.5294117647058824
 40
0.5294117647058824
 40
0.5294117647058824
 40
0.5294117647058824
 40
0.5882352941176471
 40
0.5882352941176471
 40
0.5882352941176471
 40
0.5882352941176471
 40
0.6470588235294118
 40
0.6470588235294118
 40
0.6470588235294118
 40
0.6470588235294118
 40
0.7058823529411765
 40
0.7058823529411765
 40
0.7058823529411765
 40
0.7058823529411765
 40
0.7647058823529411
 40
0.7647058823529411
 40
0.7647058823529411
 40
0.7647058823529411
 40
0.8235294117647058
 40
0.8235294117647058
 40
0.8235294117647058
 40
0.8235294117647058
 40
0.8823529411764706
 40
0.8823529411764706
 40
0.8823529411764706
 40
0.8823529411764706
 40
1.0
 40
1.0
 40
1.0
 40
1.0
 10
301.8761
 20
42.1252
 30
0.0
 10
301.8761
 20
42.1252
 30
0.0
 10
301.8761
 20
35.6249
 30
0.0
 10
301.8761
 20
35.6249
 30
0.0
 10
301.8761
 20
35.6249
 30
0.0
 10
301.8761
 20
35.6249
 30
0.0
 10
301.8761
 20
32.9001
 30
0.0
 10
301.8761
 20
32.9001
 30
0.0
 10
301.8761
 20
32.9001
 30
0.0
 10
301.8761
 20
32.9001
 30
0.0
 10
302.0737
 20
31.775
 30
0.0
 10
302.0737
 20
31.775
 30
0.0
 10
302.0737
 20
31.775
 30
0.0
 10
302.0737
 20
31.775
 30
0.0
 10
302.4511
 20
30.4751
 30
0.0
 10
302.4511
 20
30.4751
 30
0.0
 10
302.4511
 20
30.4751
 30
0.0
 10
302.4511
 20
30.4751
 30
0.0
 10
302.9733
 20
29.2502
 30
0.0
 10
302.9733
 20
29.2502
 30
0.0
 10
302.9733
 20
29.2502
 30
0.0
 10
302.9733
 20
29.2502
 30
0.0
 10
303.6259
 20
28.1002
 30
0.0
 10
303.6259
 20
28.1002
 30
0.0
 10
303.6259
 20
28.1002
 30
0.0
 10
303.6259
 20
28.1002
 30
0.0
 10
304.4232
 20
27.0249
 30
0.0
 10
304.4232
 20
27.0249
 30
0.0
 10
304.4232
 20
27.0249
 30
0.0
 10
304.4232
 20
27.0249
 30
0.0
 10
305.351
 20
26.0502
 30
0.0
 10
305.351
 20
26.0502
 30
0.0
 10
305.351
 20
26.0502
 30
0.0
 10
305.351
 20
26.0502
 30
0.0
 10
306.374
 20
25.1749
 30
0.0
 10
306.374
 20
25.1749
 30
0.0
 10
306.374
 20
25.1749
 30
0.0
 10
306.374
 20
25.1749
 30
0.0
 10
307.4994
 20
24.45
 30
0.0
 10
307.4994
 20
24.45
 30
0.0
 10
307.4994
 20
24.45
 30
0.0
 10
307.4994
 20
24.45
 30
0.0
 10
308.6988
 20
23.8499
 30
0.0
 10
308.6988
 20
23.8499
 30
0.0
 10
308.6988
 20
23.8499
 30
0.0
 10
308.6988
 20
23.8499
 30
0.0
 10
309.9512
 20
23.4001
 30
0.0
 10
309.9512
 20
23.4001
 30
0.0
 10
309.9512
 20
23.4001
 30
0.0
 10
309.9512
 20
23.4001
 30
0.0
 10
339.5986
 20
6.6001
 30
0.0
 10
339.5986
 20
6.6001
 30
0.0
 10
339.5986
 20
6.6001
 30
0.0
 10
339.5986
 20
6.6001
 30
0.0
 10
339.5492
 20
6.525
 30
0.0
 10
339.5492
 20
6.525
 30
0.0
 10
339.5492
 20
6.525
 30
0.0
 10
339.5492
 20
6.525
 30
0.0
 10
339.5986
 20
6.6001
 30
0.0
 10
339.5986
 20
6.6001
 30
0.0
 10
339.5986
 20
6.6001
 30
0.0
 10
339.5986
 20
6.6001
 30
0.0
 10
362.2258
 20
-6.2251
 30
0.0
 10
362.2258
 20
-6.2251
 30
0.0
  0
SPLINE
  5
52
330
1F
100
AcDbEntity
  8
Layer 1
 62
     1
370
    35
100
AcDbSpline
210
0.0
220
0.0
230
1.0
 70
     8
 71
     3
 72
   224
 73
   220
 74
     0
 42
0.0000000001
 43
0.0000000001
 12
1.0
 22
0.0
 32
0.0
 13
1.0
 23
0.0
 33
0.0
 40
0.0
 40
0.0
 40
0.0
 40
0.0
 40
0.0178571428571429
 40
0.0178571428571429
 40
0.0178571428571429
 40
0.0178571428571429
 40
0.0357142857142857
 40
0.0357142857142857
 40
0.0357142857142857
 40
0.0357142857142857
 40
0.0535714285714286
 40
0.0535714285714286
 40
0.0535714285714286
 40
0.0535714285714286
 40
0.0714285714285714
 40
0.0714285714285714
 40
0.0714285714285714
 40
0.0714285714285714
 40
0.0892857142857143
 40
0.0892857142857143
 40
0.0892857142857143
 40
0.0892857142857143
 40
0.1071428571428571
 40
0.1071428571428571
 40
0.1071428571428571
 40
0.1071428571428571
 40
0.125
 40
0.125
 40
0.125
 40
0.125
 40
0.1428571428571428
 40
0.1428571428571428
 40
0.1428571428571428
 40
0.1428571428571428
 40
0.1607142857142857
 40
0.1607142857142857
 40
0.1607142857142857
 40
0.1607142857142857
 40
0.1785714285714286
 40
0.1785714285714286
 40
0.1785714285714286
 40
0.1785714285714286
 40
0.1964285714285714
 40
0.1964285714285714
 40
0.1964285714285714
 40
0.1964285714285714
 40
0.2142857142857143
 40
0.2142857142857143
 40
0.2142857142857143
 40
0.2142857142857143
 40
0.2321428571428572
 40
0.2321428571428572
 40
0.2321428571428572
 40
0.2321428571428572
 40
0.25
 40
0.25
 40
0.25
 40
0.25
 40
0.2678571428571428
 40
0.2678571428571428
 40
0.2678571428571428
 40
0.2678571428571428
 40
0.2857142857142857
 40
0.2857142857142857
 40
0.2857142857142857
 40
0.2857142857142857
 40
0.3035714285714285
 40
0.3035714285714285
 40
0.3035714285714285
 40
0.3035714285714285
 40
0.3214285714285715
 40
0.3214285714285715
 40
0.3214285714285715
 40
0.3214285714285715
 40
0.3392857142857143
 40
0.3392857142857143
 40
0.3392857142857143
 40
0.3392857142857143
 40
0.3571428571428572
 40
0.3571428571428572
 40
0.3571428571428572
 40
0.3571428571428572
 40
0.375
 40
0.375
 40
0.375
 40
0.375
 40
0.3928571428571428
 40
0.3928571428571428
 40
0.3928571428571428
 40
0.3928571428571428
 40
0.4107142857142857
 40
0.4107142857142857
 40
0.4107142857142857
 40
0.4107142857142857
 40
0.4285714285714285
 40
0.4285714285714285
 40
0.4285714285714285
 40
0.4285714285714285
 40
0.4464285714285715
 40
0.4464285714285715
 40
0.4464285714285715
 40
0.4464285714285715
 40
0.4642857142857143
 40
0.4642857142857143
 40
0.4642857142857143
 40
0.4642857142857143
 40
0.4821428571428572
 40
0.4821428571428572
 40
0.4821428571428572
 40
0.4821428571428572
 40
0.5
 40
0.5
 40
0.5
 40
0.5
 40
0.5178571428571429
 40
0.5178571428571429
 40
0.5178571428571429
 40
0.5178571428571429
 40
0.5357142857142857
 40
0.5357142857142857
 40
0.5357142857142857
 40
0.5357142857142857
 40
0.5535714285714286
 40
0.5535714285714286
 40
0.5535714285714286
 40
0.5535714285714286
 40
0.5714285714285714
 40
0.5714285714285714
 40
0.5714285714285714
 40
0.5714285714285714
 40
0.5892857142857143
 40
0.5892857142857143
 40
0.5892857142857143
 40
0.5892857142857143
 40
0.6071428571428571
 40
0.6071428571428571
 40
0.6071428571428571
 40
0.6071428571428571
 40
0.625
 40
0.625
 40
0.625
 40
0.625
 40
0.6428571428571429
 40
0.6428571428571429
 40
0.6428571428571429
 40
0.6428571428571429
 40
0.6607142857142857
 40
0.6607142857142857
 40
0.6607142857142857
 40
0.6607142857142857
 40
0.6785714285714286
 40
0.6785714285714286
 40
0.6785714285714286
 40
0.6785714285714286
 40
0.6964285714285714
 40
0.6964285714285714
 40
0.6964285714285714
 40
0.6964285714285714
 40
0.7142857142857143
 40
0.7142857142857143
 40
0.7142857142857143
 40
0.7142857142857143
 40
0.7321428571428571
 40
0.7321428571428571
 40
0.7321428571428571
 40
0.7321428571428571
 40
0.75
 40
0.75
 40
0.75
 40
0.75
 40
0.7678571428571429
 40
0.7678571428571429
 40
0.7678571428571429
 40
0.7678571428571429
 40
0.7857142857142857
 40
0.7857142857142857
 40
0.7857142857142857
 40
0.7857142857142857
 40
0.8035714285714286
 40
0.8035714285714286
 40
0.8035714285714286
 40
0.8035714285714286
 40
0.8214285714285714
 40
0.8214285714285714
 40
0.8214285714285714
 40
0.8214285714285714
 40
0.8392857142857143
 40
0.8392857142857143
 40
0.8392857142857143
 40
0.8392857142857143
 40
0.8571428571428571
 40
0.8571428571428571
 40
0.8571428571428571
 40
0.8571428571428571
 40
0.875
 40
0.875
 40
0.875
 40
0.875
 40
0.8928571428571429
 40
0.8928571428571429
 40
0.8928571428571429
 40
0.8928571428571429
 40
0.9107142857142857
 40
0.9107142857142857
 40
0.9107142857142857
 40
0.9107142857142857
 40
0.9285714285714286
 40
0.9285714285714286
 40
0.9285714285714286
 40
0.9285714285714286
 40
0.9464285714285714
 40
0.9464285714285714
 40
0.9464285714285714
 40
0.9464285714285714
 40
0.9642857142857143
 40
0.9642857142857143
 40
0.9642857142857143
 40
0.9642857142857143
 40
1.0
 40
1.0
 40
1.0
 40
1.0
 10
624.3749
 20
35.6249
 30
0.0
 10
624.3749
 20
35.6249
 30
0.0
 10
625.2498
 20
35.6249
 30
0.0
 10
625.2498
 20
35.6249
 30
0.0
 10
625.2498
 20
35.6249
 30
0.0
 10
625.2498
 20
35.6249
 30
0.0
 10
625.2498
 20
24.9252
 30
0.0
 10
625.2498
 20
24.9252
 30
0.0
 10
625.2498
 20
24.9252
 30
0.0
 10
625.2498
 20
24.9252
 30
0.0
 10
631.7515
 20
24.9252
 30
0.0
 10
631.7515
 20
24.9252
 30
0.0
 10
631.7515
 20
24.9252
 30
0.0
 10
631.7515
 20
24.9252
 30
0.0
 10
631.7515
 20
35.6249
 30
0.0
 10
631.7515
 20
35.6249
 30
0.0
 10
631.7515
 20
35.6249
 30
0.0
 10
631.7515
 20
35.6249
 30
0.0
 10
640.0982
 20
35.6249
 30
0.0
 10
640.0982
 20
35.6249
 30
0.0
 10
640.0982
 20
35.6249
 30
0.0
 10
640.0982
 20
35.6249
 30
0.0
 10
640.0982
 20
41.9749
 30
0.0
 10
640.0982
 20
41.9749
 30
0.0
 10
640.0982
 20
41.9749
 30
0.0
 10
640.0982
 20
41.9749
 30
0.0
 10
647.1008
 20
67.7749
 30
0.0
 10
647.1008
 20
67.7749
 30
0.0
 10
647.1008
 20
67.7749
 30
0.0
 10
647.1008
 20
67.7749
 30
0.0
 10
650.6992
 20
74.9751
 30
0.0
 10
650.6992
 20
74.9751
 30
0.0
 10
650.6992
 20
74.9751
 30
0.0
 10
650.6992
 20
74.9751
 30
0.0
 10
650.6992
 20
79.1499
 30
0.0
 10
650.6992
 20
79.1499
 30
0.0
 10
650.6992
 20
79.1499
 30
0.0
 10
650.6992
 20
79.1499
 30
0.0
 10
651.2248
 20
79.95
 30
0.0
 10
651.2248
 20
79.95
 30
0.0
 10
651.2248
 20
79.95
 30
0.0
 10
651.2248
 20
79.95
 30
0.0
 10
652.9499
 20
81.9002
 30
0.0
 10
652.9499
 20
81.9002
 30
0.0
 10
652.9499
 20
81.9002
 30
0.0
 10
652.9499
 20
81.9002
 30
0.0
 10
654.9255
 20
83.6249
 30
0.0
 10
654.9255
 20
83.6249
 30
0.0
 10
654.9255
 20
83.6249
 30
0.0
 10
654.9255
 20
83.6249
 30
0.0
 10
657.0986
 20
85.0752
 30
0.0
 10
657.0986
 20
85.0752
 30
0.0
 10
657.0986
 20
85.0752
 30
0.0
 10
657.0986
 20
85.0752
 30
0.0
 10
659.4234
 20
86.2499
 30
0.0
 10
659.4234
 20
86.2499
 30
0.0
 10
659.4234
 20
86.2499
 30
0.0
 10
659.4234
 20
86.2499
 30
0.0
 10
661.0003
 20
86.7749
 30
0.0
 10
661.0003
 20
86.7749
 30
0.0
 10
661.0003
 20
86.7749
 30
0.0
 10
661.0003
 20
86.7749
 30
0.0
 10
661.9246
 20
87.0751
 30
0.0
 10
661.9246
 20
87.0751
 30
0.0
 10
661.9246
 20
87.0751
 30
0.0
 10
661.9246
 20
87.0751
 30
0.0
 10
664.4751
 20
87.6
 30
0.0
 10
664.4751
 20
87.6
 30
0.0
 10
664.4751
 20
87.6
 30
0.0
 10
664.4751
 20
87.6
 30
0.0
 10
667.0998
 20
87.775
 30
0.0
 10
667.0998
 20
87.775
 30
0.0
 10
667.0998
 20
87.775
 30
0.0
 10
667.0998
 20
87.775
 30
0.0
 10
672.0987
 20
87.775
 30
0.0
 10
672.0987
 20
87.775
 30
0.0
 10
672.0987
 20
87.775
 30
0.0
 10
672.0987
 20
87.775
 30
0.0
 10
674.6986
 20
87.6
 30
0.0
 10
674.6986
 20
87.6
 30
0.0
 10
674.6986
 20
87.6
 30
0.0
 10
674.6986
 20
87.6
 30
0.0
 10
677.2739
 20
87.0751
 30
0.0
 10
677.2739
 20
87.0751
 30
0.0
 10
677.2739
 20
87.0751
 30
0.0
 10
677.2739
 20
87.0751
 30
0.0
 10
678.1982
 20
86.7749
 30
0.0
 10
678.1982
 20
86.7749
 30
0.0
 10
678.1982
 20
86.7749
 30
0.0
 10
678.1982
 20
86.7749
 30
0.0
 10
679.7504
 20
86.2499
 30
0.0
 10
679.7504
 20
86.2499
 30
0.0
 10
679.7504
 20
86.2499
 30
0.0
 10
679.7504
 20
86.2499
 30
0.0
 10
682.0999
 20
85.0752
 30
0.0
 10
682.0999
 20
85.0752
 30
0.0
 10
682.0999
 20
85.0752
 30
0.0
 10
682.0999
 20
85.0752
 30
0.0
 10
684.273
 20
83.6249
 30
0.0
 10
684.273
 20
83.6249
 30
0.0
 10
684.273
 20
83.6249
 30
0.0
 10
684.273
 20
83.6249
 30
0.0
 10
686.2239
 20
81.9002
 30
0.0
 10
686.2239
 20
81.9002
 30
0.0
 10
686.2239
 20
81.9002
 30
0.0
 10
686.2239
 20
81.9002
 30
0.0
 10
687.949
 20
79.95
 30
0.0
 10
687.949
 20
79.95
 30
0.0
 10
687.949
 20
79.95
 30
0.0
 10
687.949
 20
79.95
 30
0.0
 10
689.3989
 20
77.7751
 30
0.0
 10
689.3989
 20
77.7751
 30
0.0
 10
689.3989
 20
77.7751
 30
0.0
 10
689.3989
 20
77.7751
 30
0.0
 10
690.5736
 20
75.4249
 30
0.0
 10
690.5736
 20
75.4249
 30
0.0
 10
690.5736
 20
75.4249
 30
0.0
 10
690.5736
 20
75.4249
 30
0.0
 10
691.3991
 20
72.9502
 30
0.0
 10
691.3991
 20
72.9502
 30
0.0
 10
691.3991
 20
72.9502
 30
0.0
 10
691.3991
 20
72.9502
 30
0.0
 10
691.9248
 20
70.3749
 30
0.0
 10
691.9248
 20
70.3749
 30
0.0
 10
691.9248
 20
70.3749
 30
0.0
 10
691.9248
 20
70.3749
 30
0.0
 10
692.1012
 20
67.7749
 30
0.0
 10
692.1012
 20
67.7749
 30
0.0
 10
692.1012
 20
67.7749
 30
0.0
 10
692.1012
 20
67.7749
 30
0.0
 10
692.1012
 20
48.2501
 30
0.0
 10
692.1012
 20
48.2501
 30
0.0
 10
692.1012
 20
48.2501
 30
0.0
 10
692.1012
 20
48.2501
 30
0.0
 10
692.1012
 20
46.15
 30
0.0
 10
692.1012
 20
46.15
 30
0.0
 10
692.1012
 20
46.15
 30
0.0
 10
692.1012
 20
46.15
 30
0.0
 10
692.1012
 20
42.1252
 30
0.0
 10
692.1012
 20
42.1252
 30
0.0
 10
692.1012
 20
42.1252
 30
0.0
 10
692.1012
 20
42.1252
 30
0.0
 10
682.0999
 20
42.1252
 30
0.0
 10
682.0999
 20
42.1252
 30
0.0
 10
682.0999
 20
42.1252
 30
0.0
 10
682.0999
 20
42.1252
 30
0.0
 10
682.0999
 20
35.6249
 30
0.0
 10
682.0999
 20
35.6249
 30
0.0
 10
682.0999
 20
35.6249
 30
0.0
 10
682.0999
 20
35.6249
 30
0.0
 10
692.1012
 20
35.6249
 30
0.0
 10
692.1012
 20
35.6249
 30
0.0
 10
692.1012
 20
35.6249
 30
0.0
 10
692.1012
 20
35.6249
 30
0.0
 10
692.1753
 20
34.4251
 30
0.0
 10
692.1753
 20
34.4251
 30
0.0
 10
692.1753
 20
34.4251
 30
0.0
 10
692.1753
 20
34.4251
 30
0.0
 10
692.1259
 20
33.1001
 30
0.0
 10
692.1259
 20
33.1001
 30
0.0
 10
692.1259
 20
33.1001
 30
0.0
 10
692.1259
 20
33.1001
 30
0.0
 10
691.9001
 20
31.775
 30
0.0
 10
691.9001
 20
31.775
 30
0.0
 10
691.9001
 20
31.775
 30
0.0
 10
691.9001
 20
31.775
 30
0.0
 10
691.5261
 20
30.4751
 30
0.0
 10
691.5261
 20
30.4751
 30
0.0
 10
691.5261
 20
30.4751
 30
0.0
 10
691.5261
 20
30.4751
 30
0.0
 10
691.0005
 20
29.2502
 30
0.0
 10
691.0005
 20
29.2502
 30
0.0
 10
691.0005
 20
29.2502
 30
0.0
 10
691.0005
 20
29.2502
 30
0.0
 10
690.3514
 20
28.1002
 30
0.0
 10
690.3514
 20
28.1002
 30
0.0
 10
690.3514
 20
28.1002
 30
0.0
 10
690.3514
 20
28.1002
 30
0.0
 10
689.5506
 20
27.0249
 30
0.0
 10
689.5506
 20
27.0249
 30
0.0
 10
689.5506
 20
27.0249
 30
0.0
 10
689.5506
 20
27.0249
 30
0.0
 10
688.6263
 20
26.0502
 30
0.0
 10
688.6263
 20
26.0502
 30
0.0
 10
688.6263
 20
26.0502
 30
0.0
 10
688.6263
 20
26.0502
 30
0.0
 10
687.5997
 20
25.1749
 30
0.0
 10
687.5997
 20
25.1749
 30
0.0
 10
687.5997
 20
25.1749
 30
0.0
 10
687.5997
 20
25.1749
 30
0.0
 10
686.4744
 20
24.45
 30
0.0
 10
686.4744
 20
24.45
 30
0.0
 10
686.4744
 20
24.45
 30
0.0
 10
686.4744
 20
24.45
 30
0.0
 10
685.6242
 20
24.0499
 30
0.0
 10
685.6242
 20
24.0499
 30
0.0
 10
685.6242
 20
24.0499
 30
0.0
 10
685.6242
 20
24.0499
 30
0.0
 10
685.6242
 20
24.0249
 30
0.0
 10
685.6242
 20
24.0249
 30
0.0
 10
685.6242
 20
24.0249
 30
0.0
 10
685.6242
 20
24.0249
 30
0.0
 10
685.6242
 20
24.0499
 30
0.0
 10
685.6242
 20
24.0499
 30
0.0
 10
685.6242
 20
24.0499
 30
0.0
 10
685.6242
 20
24.0499
 30
0.0
 10
685.2749
 20
23.8499
 30
0.0
 10
685.2749
 20
23.8499
 30
0.0
 10
685.2749
 20
23.8499
 30
0.0
 10
685.2749
 20
23.8499
 30
0.0
 10
684.0261
 20
23.4001
 30
0.0
 10
684.0261
 20
23.4001
 30
0.0
 10
684.0261
 20
23.4001
 30
0.0
 10
684.0261
 20
23.4001
 30
0.0
 10
631.7515
 20
-6.2251
 30
0.0
 10
631.7515
 20
-6.2251
 30
0.0
 10
631.7515
 20
-6.2251
 30
0.0
 10
631.7515
 20
-6.2251
 30
0.0
 10
615.4743
 20
-6.2251
 30
0.0
 10
615.4743
 20
-6.2251
 30
0.0
  0
SPLINE
  5
53
330
1F
100
AcDbEntity
  8
Layer 1
 62
     1
370
    35
100
AcDbSpline
210
0.0
220
0.0
230
1.0
 70
    11
 71
     3
 72
   100
 73
    96
 74
     0
 42
0.0000000001
 43
0.0000000001
 12
1.0
 22
0.0
 32
0.0
 13
1.0
 23
0.0
 33
0.0
 40
0.0
 40
0.0
 40
0.0
 40
0.0
 40
0.04
 40
0.04
 40
0.04
 40
0.04
 40
0.08
 40
0.08
 40
0.08
 40
0.08
 40
0.12
 40
0.12
 40
0.12
 40
0.12
 40
0.16
 40
0.16
 40
0.16
 40
0.16
 40
0.2
 40
0.2
 40
0.2
 40
0.2
 40
0.24
 40
0.24
 40
0.24
 40
0.24
 40
0.28
 40
0.28
 40
0.28
 40
0.28
 40
0.32
 40
0.32
 40
0.32
 40
0.32
 40
0.36
 40
0.36
 40
0.36
 40
0.36
 40
0.4
 40
0.4
 40
0.4
 40
0.4
 40
0.44
 40
0.44
 40
0.44
 40
0.44
 40
0.48
 40
0.48
 40
0.48
 40
0.48
 40
0.52
 40
0.52
 40
0.52
 40
0.52
 40
0.56
 40
0.56
 40
0.56
 40
0.56
 40
0.6
 40
0.6
 40
0.6
 40
0.6
 40
0.64
 40
0.64
 40
0.64
 40
0.64
 40
0.68
 40
0.68
 40
0.68
 40
0.68
 40
0.72
 40
0.72
 40
0.72
 40
0.72
 40
0.76
 40
0.76
 40
0.76
 40
0.76
 40
0.8
 40
0.8
 40
0.8
 40
0.8
 40
0.84
 40
0.84
 40
0.84
 40
0.84
 40
0.88
 40
0.88
 40
0.88
 40
0.88
 40
0.92
 40
0.92
 40
0.92
 40
0.92
 40
1.0
 40
1.0
 40
1.0
 40
1.0
 10
662.7995
 20
72.3752
 30
0.0
 10
662.7995
 20
72.3752
 30
0.0
 10
661.5012
 20
72.5251
 30
0.0
 10
661.5012
 20
72.5251
 30
0.0
 10
661.5012
 20
72.5251
 30
0.0
 10
661.5012
 20
72.5251
 30
0.0
 10
660.2983
 20
73.025
 30
0.0
 10
660.2983
 20
73.025
 30
0.0
 10
660.2983
 20
73.025
 30
0.0
 10
660.2983
 20
73.025
 30
0.0
 10
659.2505
 20
73.8251
 30
0.0
 10
659.2505
 20
73.8251
 30
0.0
 10
659.2505
 20
73.8251
 30
0.0
 10
659.2505
 20
73.8251
 30
0.0
 10
658.4497
 20
74.875
 30
0.0
 10
658.4497
 20
74.875
 30
0.0
 10
658.4497
 20
74.875
 30
0.0
 10
658.4497
 20
74.875
 30
0.0
 10
657.9488
 20
76.0751
 30
0.0
 10
657.9488
 20
76.0751
 30
0.0
 10
657.9488
 20
76.0751
 30
0.0
 10
657.9488
 20
76.0751
 30
0.0
 10
657.8006
 20
77.3751
 30
0.0
 10
657.8006
 20
77.3751
 30
0.0
 10
657.8006
 20
77.3751
 30
0.0
 10
657.8006
 20
77.3751
 30
0.0
 10
657.9488
 20
78.65
 30
0.0
 10
657.9488
 20
78.65
 30
0.0
 10
657.9488
 20
78.65
 30
0.0
 10
657.9488
 20
78.65
 30
0.0
 10
658.4497
 20
79.8749
 30
0.0
 10
658.4497
 20
79.8749
 30
0.0
 10
658.4497
 20
79.8749
 30
0.0
 10
658.4497
 20
79.8749
 30
0.0
 10
659.2505
 20
80.9
 30
0.0
 10
659.2505
 20
80.9
 30
0.0
 10
659.2505
 20
80.9
 30
0.0
 10
659.2505
 20
80.9
 30
0.0
 10
660.2983
 20
81.7001
 30
0.0
 10
660.2983
 20
81.7001
 30
0.0
 10
660.2983
 20
81.7001
 30
0.0
 10
660.2983
 20
81.7001
 30
0.0
 10
661.5012
 20
82.2
 30
0.0
 10
661.5012
 20
82.2
 30
0.0
 10
661.5012
 20
82.2
 30
0.0
 10
661.5012
 20
82.2
 30
0.0
 10
662.7995
 20
82.375
 30
0.0
 10
662.7995
 20
82.375
 30
0.0
 10
662.7995
 20
82.375
 30
0.0
 10
662.7995
 20
82.375
 30
0.0
 10
664.0765
 20
82.2
 30
0.0
 10
664.0765
 20
82.2
 30
0.0
 10
664.0765
 20
82.2
 30
0.0
 10
664.0765
 20
82.2
 30
0.0
 10
665.3006
 20
81.7001
 30
0.0
 10
665.3006
 20
81.7001
 30
0.0
 10
665.3006
 20
81.7001
 30
0.0
 10
665.3006
 20
81.7001
 30
0.0
 10
666.3237
 20
80.9
 30
0.0
 10
666.3237
 20
80.9
 30
0.0
 10
666.3237
 20
80.9
 30
0.0
 10
666.3237
 20
80.9
 30
0.0
 10
667.1245
 20
79.8749
 30
0.0
 10
667.1245
 20
79.8749
 30
0.0
 10
667.1245
 20
79.8749
 30
0.0
 10
667.1245
 20
79.8749
 30
0.0
 10
667.6255
 20
78.65
 30
0.0
 10
667.6255
 20
78.65
 30
0.0
 10
667.6255
 20
78.65
 30
0.0
 10
667.6255
 20
78.65
 30
0.0
 10
667.7983
 20
77.3751
 30
0.0
 10
667.7983
 20
77.3751
 30
0.0
 10
667.7983
 20
77.3751
 30
0.0
 10
667.7983
 20
77.3751
 30
0.0
 10
667.6255
 20
76.0751
 30
0.0
 10
667.6255
 20
76.0751
 30
0.0
 10
667.6255
 20
76.0751
 30
0.0
 10
667.6255
 20
76.0751
 30
0.0
 10
667.1245
 20
74.875
 30
0.0
 10
667.1245
 20
74.875
 30
0.0
 10
667.1245
 20
74.875
 30
0.0
 10
667.1245
 20
74.875
 30
0.0
 10
666.3237
 20
73.8251
 30
0.0
 10
666.3237
 20
73.8251
 30
0.0
 10
666.3237
 20
73.8251
 30
0.0
 10
666.3237
 20
73.8251
 30
0.0
 10
665.3006
 20
73.025
 30
0.0
 10
665.3006
 20
73.025
 30
0.0
 10
665.3006
 20
73.025
 30
0.0
 10
665.3006
 20
73.025
 30
0.0
 10
664.0765
 20
72.5251
 30
0.0
 10
664.0765
 20
72.5251
 30
0.0
 10
664.0765
 20
72.5251
 30
0.0
 10
664.0765
 20
72.5251
 30
0.0
 10
662.7995
 20
72.3752
 30
0.0
 10
662.7995
 20
72.3752
 30
0.0
  0
SPLINE
  5
54
330
1F
100
AcDbEntity
  8
Layer 1
 62
     1
370
    35
100
AcDbSpline
210
0.0
220
0.0
230
1.0
 70
    11
 71
     3
 72
   100
 73
    96
 74
     0
 42
0.0000000001
 43
0.0000000001
 12
1.0
 22
0.0
 32
0.0
 13
1.0
 23
0.0
 33
0.0
 40
0.0
 40
0.0
 40
0.0
 40
0.0
 40
0.04
 40
0.04
 40
0.04
 40
0.04
 40
0.08
 40
0.08
 40
0.08
 40
0.08
 40
0.12
 40
0.12
 40
0.12
 40
0.12
 40
0.16
 40
0.16
 40
0.16
 40
0.16
 40
0.2
 40
0.2
 40
0.2
 40
0.2
 40
0.24
 40
0.24
 40
0.24
 40
0.24
 40
0.28
 40
0.28
 40
0.28
 40
0.28
 40
0.32
 40
0.32
 40
0.32
 40
0.32
 40
0.36
 40
0.36
 40
0.36
 40
0.36
 40
0.4
 40
0.4
 40
0.4
 40
0.4
 40
0.44
 40
0.44
 40
0.44
 40
0.44
 40
0.48
 40
0.48
 40
0.48
 40
0.48
 40
0.52
 40
0.52
 40
0.52
 40
0.52
 40
0.56
 40
0.56
 40
0.56
 40
0.56
 40
0.6
 40
0.6
 40
0.6
 40
0.6
 40
0.64
 40
0.64
 40
0.64
 40
0.64
 40
0.68
 40
0.68
 40
0.68
 40
0.68
 40
0.72
 40
0.72
 40
0.72
 40
0.72
 40
0.76
 40
0.76
 40
0.76
 40
0.76
 40
0.8
 40
0.8
 40
0.8
 40
0.8
 40
0.84
 40
0.84
 40
0.84
 40
0.84
 40
0.88
 40
0.88
 40
0.88
 40
0.88
 40
0.92
 40
0.92
 40
0.92
 40
0.92
 40
1.0
 40
1.0
 40
1.0
 40
1.0
 10
684.774
 20
68.0999
 30
0.0
 10
684.774
 20
68.0999
 30
0.0
 10
684.3259
 20
68.2251
 30
0.0
 10
684.3259
 20
68.2251
 30
0.0
 10
684.3259
 20
68.2251
 30
0.0
 10
684.3259
 20
68.2251
 30
0.0
 10
683.9238
 20
68.4749
 30
0.0
 10
683.9238
 20
68.4749
 30
0.0
 10
683.9238
 20
68.4749
 30
0.0
 10
683.9238
 20
68.4749
 30
0.0
 10
683.6239
 20
68.8252
 30
0.0
 10
683.6239
 20
68.8252
 30
0.0
 10
683.6239
 20
68.8252
 30
0.0
 10
683.6239
 20
68.8252
 30
0.0
 10
683.3981
 20
69.2499
 30
0.0
 10
683.3981
 20
69.2499
 30
0.0
 10
683.3981
 20
69.2499
 30
0.0
 10
683.3981
 20
69.2499
 30
0.0
 10
683.2994
 20
69.7001
 30
0.0
 10
683.2994
 20
69.7001
 30
0.0
 10
683.2994
 20
69.7001
 30
0.0
 10
683.2994
 20
69.7001
 30
0.0
 10
683.3241
 20
70.1749
 30
0.0
 10
683.3241
 20
70.1749
 30
0.0
 10
683.3241
 20
70.1749
 30
0.0
 10
683.3241
 20
70.1749
 30
0.0
 10
683.4511
 20
70.625
 30
0.0
 10
683.4511
 20
70.625
 30
0.0
 10
683.4511
 20
70.625
 30
0.0
 10
683.4511
 20
70.625
 30
0.0
 10
683.7015
 20
71.0251
 30
0.0
 10
683.7015
 20
71.0251
 30
0.0
 10
683.7015
 20
71.0251
 30
0.0
 10
683.7015
 20
71.0251
 30
0.0
 10
684.0508
 20
71.35
 30
0.0
 10
684.0508
 20
71.35
 30
0.0
 10
684.0508
 20
71.35
 30
0.0
 10
684.0508
 20
71.35
 30
0.0
 10
684.4741
 20
71.55
 30
0.0
 10
684.4741
 20
71.55
 30
0.0
 10
684.4741
 20
71.55
 30
0.0
 10
684.4741
 20
71.55
 30
0.0
 10
684.9257
 20
71.6499
 30
0.0
 10
684.9257
 20
71.6499
 30
0.0
 10
684.9257
 20
71.6499
 30
0.0
 10
684.9257
 20
71.6499
 30
0.0
 10
685.3984
 20
71.6252
 30
0.0
 10
685.3984
 20
71.6252
 30
0.0
 10
685.3984
 20
71.6252
 30
0.0
 10
685.3984
 20
71.6252
 30
0.0
 10
685.8499
 20
71.4999
 30
0.0
 10
685.8499
 20
71.4999
 30
0.0
 10
685.8499
 20
71.4999
 30
0.0
 10
685.8499
 20
71.4999
 30
0.0
 10
686.2486
 20
71.2502
 30
0.0
 10
686.2486
 20
71.2502
 30
0.0
 10
686.2486
 20
71.2502
 30
0.0
 10
686.2486
 20
71.2502
 30
0.0
 10
686.5731
 20
70.8999
 30
0.0
 10
686.5731
 20
70.8999
 30
0.0
 10
686.5731
 20
70.8999
 30
0.0
 10
686.5731
 20
70.8999
 30
0.0
 10
686.7742
 20
70.4751
 30
0.0
 10
686.7742
 20
70.4751
 30
0.0
 10
686.7742
 20
70.4751
 30
0.0
 10
686.7742
 20
70.4751
 30
0.0
 10
686.8765
 20
70.025
 30
0.0
 10
686.8765
 20
70.025
 30
0.0
 10
686.8765
 20
70.025
 30
0.0
 10
686.8765
 20
70.025
 30
0.0
 10
686.8765
 20
69.5501
 30
0.0
 10
686.8765
 20
69.5501
 30
0.0
 10
686.8765
 20
69.5501
 30
0.0
 10
686.8765
 20
69.5501
 30
0.0
 10
686.7248
 20
69.1
 30
0.0
 10
686.7248
 20
69.1
 30
0.0
 10
686.7248
 20
69.1
 30
0.0
 10
686.7248
 20
69.1
 30
0.0
 10
686.4744
 20
68.6999
 30
0.0
 10
686.4744
 20
68.6999
 30
0.0
 10
686.4744
 20
68.6999
 30
0.0
 10
686.4744
 20
68.6999
 30
0.0
 10
686.1251
 20
68.4001
 30
0.0
 10
686.1251
 20
68.4001
 30
0.0
 10
686.1251
 20
68.4001
 30
0.0
 10
686.1251
 20
68.4001
 30
0.0
 10
685.6983
 20
68.175
 30
0.0
 10
685.6983
 20
68.175
 30
0.0
 10
685.6983
 20
68.175
 30
0.0
 10
685.6983
 20
68.175
 30
0.0
 10
685.2502
 20
68.0752
 30
0.0
 10
685.2502
 20
68.0752
 30
0.0
 10
685.2502
 20
68.0752
 30
0.0
 10
685.2502
 20
68.0752
 30
0.0
 10
684.774
 20
68.0999
 30
0.0
 10
684.774
 20
68.0999
 30
0.0
  0
SPLINE
  5
55
330
1F
100
AcDbEntity
  8
Layer 1
 62
     1
370
    35
100
AcDbSpline
210
0.0
220
0.0
230
1.0
 70
    11
 71
     3
 72
   100
 73
    96
 74
     0
 42
0.0000000001
 43
0.0000000001
 12
1.0
 22
0.0
 32
0.0
 13
1.0
 23
0.0
 33
0.0
 40
0.0
 40
0.0
 40
0.0
 40
0.0
 40
0.04
 40
0.04
 40
0.04
 40
0.04
 40
0.08
 40
0.08
 40
0.08
 40
0.08
 40
0.12
 40
0.12
 40
0.12
 40
0.12
 40
0.16
 40
0.16
 40
0.16
 40
0.16
 40
0.2
 40
0.2
 40
0.2
 40
0.2
 40
0.24
 40
0.24
 40
0.24
 40
0.24
 40
0.28
 40
0.28
 40
0.28
 40
0.28
 40
0.32
 40
0.32
 40
0.32
 40
0.32
 40
0.36
 40
0.36
 40
0.36
 40
0.36
 40
0.4
 40
0.4
 40
0.4
 40
0.4
 40
0.44
 40
0.44
 40
0.44
 40
0.44
 40
0.48
 40
0.48
 40
0.48
 40
0.48
 40
0.52
 40
0.52
 40
0.52
 40
0.52
 40
0.56
 40
0.56
 40
0.56
 40
0.56
 40
0.6
 40
0.6
 40
0.6
 40
0.6
 40
0.64
 40
0.64
 40
0.64
 40
0.64
 40
0.68
 40
0.68
 40
0.68
 40
0.68
 40
0.72
 40
0.72
 40
0.72
 40
0.72
 40
0.76
 40
0.76
 40
0.76
 40
0.76
 40
0.8
 40
0.8
 40
0.8
 40
0.8
 40
0.84
 40
0.84
 40
0.84
 40
0.84
 40
0.88
 40
0.88
 40
0.88
 40
0.88
 40
0.92
 40
0.92
 40
0.92
 40
0.92
 40
1.0
 40
1.0
 40
1.0
 40
1.0
 10
345.3242
 20
14.4251
 30
0.0
 10
345.3242
 20
14.4251
 30
0.0
 10
345.8005
 20
14.4999
 30
0.0
 10
345.8005
 20
14.4999
 30
0.0
 10
345.8005
 20
14.4999
 30
0.0
 10
345.8005
 20
14.4999
 30
0.0
 10
346.2238
 20
14.6752
 30
0.0
 10
346.2238
 20
14.6752
 30
0.0
 10
346.2238
 20
14.6752
 30
0.0
 10
346.2238
 20
14.6752
 30
0.0
 10
346.6013
 20
14.9751
 30
0.0
 10
346.6013
 20
14.9751
 30
0.0
 10
346.6013
 20
14.9751
 30
0.0
 10
346.6013
 20
14.9751
 30
0.0
 10
346.9011
 20
15.325
 30
0.0
 10
346.9011
 20
15.325
 30
0.0
 10
346.9011
 20
15.325
 30
0.0
 10
346.9011
 20
15.325
 30
0.0
 10
347.074
 20
15.7752
 30
0.0
 10
347.074
 20
15.7752
 30
0.0
 10
347.074
 20
15.7752
 30
0.0
 10
347.074
 20
15.7752
 30
0.0
 10
347.1234
 20
16.225
 30
0.0
 10
347.1234
 20
16.225
 30
0.0
 10
347.1234
 20
16.225
 30
0.0
 10
347.1234
 20
16.225
 30
0.0
 10
347.074
 20
16.7001
 30
0.0
 10
347.074
 20
16.7001
 30
0.0
 10
347.074
 20
16.7001
 30
0.0
 10
347.074
 20
16.7001
 30
0.0
 10
346.9011
 20
17.1249
 30
0.0
 10
346.9011
 20
17.1249
 30
0.0
 10
346.9011
 20
17.1249
 30
0.0
 10
346.9011
 20
17.1249
 30
0.0
 10
346.6013
 20
17.4999
 30
0.0
 10
346.6013
 20
17.4999
 30
0.0
 10
346.6013
 20
17.4999
 30
0.0
 10
346.6013
 20
17.4999
 30
0.0
 10
346.2238
 20
17.8001
 30
0.0
 10
346.2238
 20
17.8001
 30
0.0
 10
346.2238
 20
17.8001
 30
0.0
 10
346.2238
 20
17.8001
 30
0.0
 10
345.8005
 20
17.9751
 30
0.0
 10
345.8005
 20
17.9751
 30
0.0
 10
345.8005
 20
17.9751
 30
0.0
 10
345.8005
 20
17.9751
 30
0.0
 10
345.3242
 20
18.0252
 30
0.0
 10
345.3242
 20
18.0252
 30
0.0
 10
345.3242
 20
18.0252
 30
0.0
 10
345.3242
 20
18.0252
 30
0.0
 10
344.8762
 20
17.9751
 30
0.0
 10
344.8762
 20
17.9751
 30
0.0
 10
344.8762
 20
17.9751
 30
0.0
 10
344.8762
 20
17.9751
 30
0.0
 10
344.4246
 20
17.8001
 30
0.0
 10
344.4246
 20
17.8001
 30
0.0
 10
344.4246
 20
17.8001
 30
0.0
 10
344.4246
 20
17.8001
 30
0.0
 10
344.0507
 20
17.4999
 30
0.0
 10
344.0507
 20
17.4999
 30
0.0
 10
344.0507
 20
17.4999
 30
0.0
 10
344.0507
 20
17.4999
 30
0.0
 10
343.7755
 20
17.1249
 30
0.0
 10
343.7755
 20
17.1249
 30
0.0
 10
343.7755
 20
17.1249
 30
0.0
 10
343.7755
 20
17.1249
 30
0.0
 10
343.5991
 20
16.7001
 30
0.0
 10
343.5991
 20
16.7001
 30
0.0
 10
343.5991
 20
16.7001
 30
0.0
 10
343.5991
 20
16.7001
 30
0.0
 10
343.525
 20
16.225
 30
0.0
 10
343.525
 20
16.225
 30
0.0
 10
343.525
 20
16.225
 30
0.0
 10
343.525
 20
16.225
 30
0.0
 10
343.5991
 20
15.7752
 30
0.0
 10
343.5991
 20
15.7752
 30
0.0
 10
343.5991
 20
15.7752
 30
0.0
 10
343.5991
 20
15.7752
 30
0.0
 10
343.7755
 20
15.325
 30
0.0
 10
343.7755
 20
15.325
 30
0.0
 10
343.7755
 20
15.325
 30
0.0
 10
343.7755
 20
15.325
 30
0.0
 10
344.0507
 20
14.9751
 30
0.0
 10
344.0507
 20
14.9751
 30
0.0
 10
344.0507
 20
14.9751
 30
0.0
 10
344.0507
 20
14.9751
 30
0.0
 10
344.4246
 20
14.6752
 30
0.0
 10
344.4246
 20
14.6752
 30
0.0
 10
344.4246
 20
14.6752
 30
0.0
 10
344.4246
 20
14.6752
 30
0.0
 10
344.8762
 20
14.4999
 30
0.0
 10
344.8762
 20
14.4999
 30
0.0
 10
344.8762
 20
14.4999
 30
0.0
 10
344.8762
 20
14.4999
 30
0.0
 10
345.3242
 20
14.4251
 30
0.0
 10
345.3242
 20
14.4251
 30
0.0
  0
SPLINE
  5
56
330
1F
100
AcDbEntity
  8
Layer 1
 62
     1
370
    35
100
AcDbSpline
210
0.0
220
0.0
230
1.0
 70
    11
 71
     3
 72
   100
 73
    96
 74
     0
 42
0.0000000001
 43
0.0000000001
 12
1.0
 22
0.0
 32
0.0
 13
1.0
 23
0.0
 33
0.0
 40
0.0
 40
0.0
 40
0.0
 40
0.0
 40
0.04
 40
0.04
 40
0.04
 40
0.04
 40
0.08
 40
0.08
 40
0.08
 40
0.08
 40
0.12
 40
0.12
 40
0.12
 40
0.12
 40
0.16
 40
0.16
 40
0.16
 40
0.16
 40
0.2
 40
0.2
 40
0.2
 40
0.2
 40
0.24
 40
0.24
 40
0.24
 40
0.24
 40
0.28
 40
0.28
 40
0.28
 40
0.28
 40
0.32
 40
0.32
 40
0.32
 40
0.32
 40
0.36
 40
0.36
 40
0.36
 40
0.36
 40
0.4
 40
0.4
 40
0.4
 40
0.4
 40
0.44
 40
0.44
 40
0.44
 40
0.44
 40
0.48
 40
0.48
 40
0.48
 40
0.48
 40
0.52
 40
0.52
 40
0.52
 40
0.52
 40
0.56
 40
0.56
 40
0.56
 40
0.56
 40
0.6
 40
0.6
 40
0.6
 40
0.6
 40
0.64
 40
0.64
 40
0.64
 40
0.64
 40
0.68
 40
0.68
 40
0.68
 40
0.68
 40
0.72
 40
0.72
 40
0.72
 40
0.72
 40
0.76
 40
0.76
 40
0.76
 40
0.76
 40
0.8
 40
0.8
 40
0.8
 40
0.8
 40
0.84
 40
0.84
 40
0.84
 40
0.84
 40
0.88
 40
0.88
 40
0.88
 40
0.88
 40
0.92
 40
0.92
 40
0.92
 40
0.92
 40
1.0
 40
1.0
 40
1.0
 40
1.0
 10
318.2485
 20
82.0
 30
0.0
 10
318.2485
 20
82.0
 30
0.0
 10
318.7001
 20
82.1249
 30
0.0
 10
318.7001
 20
82.1249
 30
0.0
 10
318.7001
 20
82.1249
 30
0.0
 10
318.7001
 20
82.1249
 30
0.0
 10
319.0987
 20
82.375
 30
0.0
 10
319.0987
 20
82.375
 30
0.0
 10
319.0987
 20
82.375
 30
0.0
 10
319.0987
 20
82.375
 30
0.0
 10
319.3986
 20
82.725
 30
0.0
 10
319.3986
 20
82.725
 30
0.0
 10
319.3986
 20
82.725
 30
0.0
 10
319.3986
 20
82.725
 30
0.0
 10
319.6244
 20
83.1501
 30
0.0
 10
319.6244
 20
83.1501
 30
0.0
 10
319.6244
 20
83.1501
 30
0.0
 10
319.6244
 20
83.1501
 30
0.0
 10
319.7231
 20
83.5999
 30
0.0
 10
319.7231
 20
83.5999
 30
0.0
 10
319.7231
 20
83.5999
 30
0.0
 10
319.7231
 20
83.5999
 30
0.0
 10
319.6984
 20
84.075
 30
0.0
 10
319.6984
 20
84.075
 30
0.0
 10
319.6984
 20
84.075
 30
0.0
 10
319.6984
 20
84.075
 30
0.0
 10
319.575
 20
84.5252
 30
0.0
 10
319.575
 20
84.5252
 30
0.0
 10
319.575
 20
84.5252
 30
0.0
 10
319.575
 20
84.5252
 30
0.0
 10
319.2998
 20
84.9249
 30
0.0
 10
319.2998
 20
84.9249
 30
0.0
 10
319.2998
 20
84.9249
 30
0.0
 10
319.2998
 20
84.9249
 30
0.0
 10
318.9752
 20
85.2501
 30
0.0
 10
318.9752
 20
85.2501
 30
0.0
 10
318.9752
 20
85.2501
 30
0.0
 10
318.9752
 20
85.2501
 30
0.0
 10
318.5484
 20
85.4502
 30
0.0
 10
318.5484
 20
85.4502
 30
0.0
 10
318.5484
 20
85.4502
 30
0.0
 10
318.5484
 20
85.4502
 30
0.0
 10
318.1004
 20
85.55
 30
0.0
 10
318.1004
 20
85.55
 30
0.0
 10
318.1004
 20
85.55
 30
0.0
 10
318.1004
 20
85.55
 30
0.0
 10
317.6241
 20
85.525
 30
0.0
 10
317.6241
 20
85.525
 30
0.0
 10
317.6241
 20
85.525
 30
0.0
 10
317.6241
 20
85.525
 30
0.0
 10
317.1761
 20
85.4001
 30
0.0
 10
317.1761
 20
85.4001
 30
0.0
 10
317.1761
 20
85.4001
 30
0.0
 10
317.1761
 20
85.4001
 30
0.0
 10
316.7739
 20
85.15
 30
0.0
 10
316.7739
 20
85.15
 30
0.0
 10
316.7739
 20
85.15
 30
0.0
 10
316.7739
 20
85.15
 30
0.0
 10
316.4494
 20
84.8
 30
0.0
 10
316.4494
 20
84.8
 30
0.0
 10
316.4494
 20
84.8
 30
0.0
 10
316.4494
 20
84.8
 30
0.0
 10
316.2483
 20
84.3749
 30
0.0
 10
316.2483
 20
84.3749
 30
0.0
 10
316.2483
 20
84.3749
 30
0.0
 10
316.2483
 20
84.3749
 30
0.0
 10
316.1495
 20
83.9251
 30
0.0
 10
316.1495
 20
83.9251
 30
0.0
 10
316.1495
 20
83.9251
 30
0.0
 10
316.1495
 20
83.9251
 30
0.0
 10
316.1495
 20
83.4499
 30
0.0
 10
316.1495
 20
83.4499
 30
0.0
 10
316.1495
 20
83.4499
 30
0.0
 10
316.1495
 20
83.4499
 30
0.0
 10
316.3012
 20
83.0001
 30
0.0
 10
316.3012
 20
83.0001
 30
0.0
 10
316.3012
 20
83.0001
 30
0.0
 10
316.3012
 20
83.0001
 30
0.0
 10
316.5481
 20
82.6001
 30
0.0
 10
316.5481
 20
82.6001
 30
0.0
 10
316.5481
 20
82.6001
 30
0.0
 10
316.5481
 20
82.6001
 30
0.0
 10
316.9009
 20
82.2999
 30
0.0
 10
316.9009
 20
82.2999
 30
0.0
 10
316.9009
 20
82.2999
 30
0.0
 10
316.9009
 20
82.2999
 30
0.0
 10
317.3242
 20
82.0751
 30
0.0
 10
317.3242
 20
82.0751
 30
0.0
 10
317.3242
 20
82.0751
 30
0.0
 10
317.3242
 20
82.0751
 30
0.0
 10
317.7758
 20
81.975
 30
0.0
 10
317.7758
 20
81.975
 30
0.0
 10
317.7758
 20
81.975
 30
0.0
 10
317.7758
 20
81.975
 30
0.0
 10
318.2485
 20
82.0
 30
0.0
 10
318.2485
 20
82.0
 30
0.0
  0
SPLINE
  5
57
330
1F
100
AcDbEntity
  8
Layer 1
 62
     1
370
    35
100
AcDbSpline
210
0.0
220
0.0
230
1.0
 70
    11
 71
     3
 72
   100
 73
    96
 74
     0
 42
0.0000000001
 43
0.0000000001
 12
1.0
 22
0.0
 32
0.0
 13
1.0
 23
0.0
 33
0.0
 40
0.0
 40
0.0
 40
0.0
 40
0.0
 40
0.04
 40
0.04
 40
0.04
 40
0.04
 40
0.08
 40
0.08
 40
0.08
 40
0.08
 40
0.12
 40
0.12
 40
0.12
 40
0.12
 40
0.16
 40
0.16
 40
0.16
 40
0.16
 40
0.2
 40
0.2
 40
0.2
 40
0.2
 40
0.24
 40
0.24
 40
0.24
 40
0.24
 40
0.28
 40
0.28
 40
0.28
 40
0.28
 40
0.32
 40
0.32
 40
0.32
 40
0.32
 40
0.36
 40
0.36
 40
0.36
 40
0.36
 40
0.4
 40
0.4
 40
0.4
 40
0.4
 40
0.44
 40
0.44
 40
0.44
 40
0.44
 40
0.48
 40
0.48
 40
0.48
 40
0.48
 40
0.52
 40
0.52
 40
0.52
 40
0.52
 40
0.56
 40
0.56
 40
0.56
 40
0.56
 40
0.6
 40
0.6
 40
0.6
 40
0.6
 40
0.64
 40
0.64
 40
0.64
 40
0.64
 40
0.68
 40
0.68
 40
0.68
 40
0.68
 40
0.72
 40
0.72
 40
0.72
 40
0.72
 40
0.76
 40
0.76
 40
0.76
 40
0.76
 40
0.8
 40
0.8
 40
0.8
 40
0.8
 40
0.84
 40
0.84
 40
0.84
 40
0.84
 40
0.88
 40
0.88
 40
0.88
 40
0.88
 40
0.92
 40
0.92
 40
0.92
 40
0.92
 40
1.0
 40
1.0
 40
1.0
 40
1.0
 10
388.2749
 20
9.4252
 30
0.0
 10
388.2749
 20
9.4252
 30
0.0
 10
388.7512
 20
9.4749
 30
0.0
 10
388.7512
 20
9.4749
 30
0.0
 10
388.7512
 20
9.4749
 30
0.0
 10
388.7512
 20
9.4749
 30
0.0
 10
389.1745
 20
9.6499
 30
0.0
 10
389.1745
 20
9.6499
 30
0.0
 10
389.1745
 20
9.6499
 30
0.0
 10
389.1745
 20
9.6499
 30
0.0
 10
389.5484
 20
9.9501
 30
0.0
 10
389.5484
 20
9.9501
 30
0.0
 10
389.5484
 20
9.9501
 30
0.0
 10
389.5484
 20
9.9501
 30
0.0
 10
389.8483
 20
10.3251
 30
0.0
 10
389.8483
 20
10.3251
 30
0.0
 10
389.8483
 20
10.3251
 30
0.0
 10
389.8483
 20
10.3251
 30
0.0
 10
390.0247
 20
10.7502
 30
0.0
 10
390.0247
 20
10.7502
 30
0.0
 10
390.0247
 20
10.7502
 30
0.0
 10
390.0247
 20
10.7502
 30
0.0
 10
390.0741
 20
11.225
 30
0.0
 10
390.0741
 20
11.225
 30
0.0
 10
390.0741
 20
11.225
 30
0.0
 10
390.0741
 20
11.225
 30
0.0
 10
390.0247
 20
11.6752
 30
0.0
 10
390.0247
 20
11.6752
 30
0.0
 10
390.0247
 20
11.6752
 30
0.0
 10
390.0247
 20
11.6752
 30
0.0
 10
389.8483
 20
12.125
 30
0.0
 10
389.8483
 20
12.125
 30
0.0
 10
389.8483
 20
12.125
 30
0.0
 10
389.8483
 20
12.125
 30
0.0
 10
389.5484
 20
12.4749
 30
0.0
 10
389.5484
 20
12.4749
 30
0.0
 10
389.5484
 20
12.4749
 30
0.0
 10
389.5484
 20
12.4749
 30
0.0
 10
389.1745
 20
12.7751
 30
0.0
 10
389.1745
 20
12.7751
 30
0.0
 10
389.1745
 20
12.7751
 30
0.0
 10
389.1745
 20
12.7751
 30
0.0
 10
388.7512
 20
12.9501
 30
0.0
 10
388.7512
 20
12.9501
 30
0.0
 10
388.7512
 20
12.9501
 30
0.0
 10
388.7512
 20
12.9501
 30
0.0
 10
388.2749
 20
13.0249
 30
0.0
 10
388.2749
 20
13.0249
 30
0.0
 10
388.2749
 20
13.0249
 30
0.0
 10
388.2749
 20
13.0249
 30
0.0
 10
387.8233
 20
12.9501
 30
0.0
 10
387.8233
 20
12.9501
 30
0.0
 10
387.8233
 20
12.9501
 30
0.0
 10
387.8233
 20
12.9501
 30
0.0
 10
387.3753
 20
12.7751
 30
0.0
 10
387.3753
 20
12.7751
 30
0.0
 10
387.3753
 20
12.7751
 30
0.0
 10
387.3753
 20
12.7751
 30
0.0
 10
387.0261
 20
12.4749
 30
0.0
 10
387.0261
 20
12.4749
 30
0.0
 10
387.0261
 20
12.4749
 30
0.0
 10
387.0261
 20
12.4749
 30
0.0
 10
386.7262
 20
12.125
 30
0.0
 10
386.7262
 20
12.125
 30
0.0
 10
386.7262
 20
12.125
 30
0.0
 10
386.7262
 20
12.125
 30
0.0
 10
386.5498
 20
11.6752
 30
0.0
 10
386.5498
 20
11.6752
 30
0.0
 10
386.5498
 20
11.6752
 30
0.0
 10
386.5498
 20
11.6752
 30
0.0
 10
386.4757
 20
11.225
 30
0.0
 10
386.4757
 20
11.225
 30
0.0
 10
386.4757
 20
11.225
 30
0.0
 10
386.4757
 20
11.225
 30
0.0
 10
386.5498
 20
10.7502
 30
0.0
 10
386.5498
 20
10.7502
 30
0.0
 10
386.5498
 20
10.7502
 30
0.0
 10
386.5498
 20
10.7502
 30
0.0
 10
386.7262
 20
10.3251
 30
0.0
 10
386.7262
 20
10.3251
 30
0.0
 10
386.7262
 20
10.3251
 30
0.0
 10
386.7262
 20
10.3251
 30
0.0
 10
387.0261
 20
9.9501
 30
0.0
 10
387.0261
 20
9.9501
 30
0.0
 10
387.0261
 20
9.9501
 30
0.0
 10
387.0261
 20
9.9501
 30
0.0
 10
387.3753
 20
9.6499
 30
0.0
 10
387.3753
 20
9.6499
 30
0.0
 10
387.3753
 20
9.6499
 30
0.0
 10
387.3753
 20
9.6499
 30
0.0
 10
387.8233
 20
9.4749
 30
0.0
 10
387.8233
 20
9.4749
 30
0.0
 10
387.8233
 20
9.4749
 30
0.0
 10
387.8233
 20
9.4749
 30
0.0
 10
388.2749
 20
9.4252
 30
0.0
 10
388.2749
 20
9.4252
 30
0.0
  0
SPLINE
  5
58
330
1F
100
AcDbEntity
  8
Layer 1
 62
     1
370
    35
100
AcDbSpline
210
0.0
220
0.0
230
1.0
 70
    11
 71
     3
 72
   100
 73
    96
 74
     0
 42
0.0000000001
 43
0.0000000001
 12
1.0
 22
0.0
 32
0.0
 13
1.0
 23
0.0
 33
0.0
 40
0.0
 40
0.0
 40
0.0
 40
0.0
 40
0.04
 40
0.04
 40
0.04
 40
0.04
 40
0.08
 40
0.08
 40
0.08
 40
0.08
 40
0.12
 40
0.12
 40
0.12
 40
0.12
 40
0.16
 40
0.16
 40
0.16
 40
0.16
 40
0.2
 40
0.2
 40
0.2
 40
0.2
 40
0.24
 40
0.24
 40
0.24
 40
0.24
 40
0.28
 40
0.28
 40
0.28
 40
0.28
 40
0.32
 40
0.32
 40
0.32
 40
0.32
 40
0.36
 40
0.36
 40
0.36
 40
0.36
 40
0.4
 40
0.4
 40
0.4
 40
0.4
 40
0.44
 40
0.44
 40
0.44
 40
0.44
 40
0.48
 40
0.48
 40
0.48
 40
0.48
 40
0.52
 40
0.52
 40
0.52
 40
0.52
 40
0.56
 40
0.56
 40
0.56
 40
0.56
 40
0.6
 40
0.6
 40
0.6
 40
0.6
 40
0.64
 40
0.64
 40
0.64
 40
0.64
 40
0.68
 40
0.68
 40
0.68
 40
0.68
 40
0.72
 40
0.72
 40
0.72
 40
0.72
 40
0.76
 40
0.76
 40
0.76
 40
0.76
 40
0.8
 40
0.8
 40
0.8
 40
0.8
 40
0.84
 40
0.84
 40
0.84
 40
0.84
 40
0.88
 40
0.88
 40
0.88
 40
0.88
 40
0.92
 40
0.92
 40
0.92
 40
0.92
 40
1.0
 40
1.0
 40
1.0
 40
1.0
 10
309.1998
 20
68.0999
 30
0.0
 10
309.1998
 20
68.0999
 30
0.0
 10
309.6513
 20
68.2251
 30
0.0
 10
309.6513
 20
68.2251
 30
0.0
 10
309.6513
 20
68.2251
 30
0.0
 10
309.6513
 20
68.2251
 30
0.0
 10
310.05
 20
68.4749
 30
0.0
 10
310.05
 20
68.4749
 30
0.0
 10
310.05
 20
68.4749
 30
0.0
 10
310.05
 20
68.4749
 30
0.0
 10
310.3498
 20
68.8252
 30
0.0
 10
310.3498
 20
68.8252
 30
0.0
 10
310.3498
 20
68.8252
 30
0.0
 10
310.3498
 20
68.8252
 30
0.0
 10
310.5756
 20
69.2499
 30
0.0
 10
310.5756
 20
69.2499
 30
0.0
 10
310.5756
 20
69.2499
 30
0.0
 10
310.5756
 20
69.2499
 30
0.0
 10
310.6744
 20
69.7001
 30
0.0
 10
310.6744
 20
69.7001
 30
0.0
 10
310.6744
 20
69.7001
 30
0.0
 10
310.6744
 20
69.7001
 30
0.0
 10
310.6497
 20
70.1749
 30
0.0
 10
310.6497
 20
70.1749
 30
0.0
 10
310.6497
 20
70.1749
 30
0.0
 10
310.6497
 20
70.1749
 30
0.0
 10
310.5262
 20
70.625
 30
0.0
 10
310.5262
 20
70.625
 30
0.0
 10
310.5262
 20
70.625
 30
0.0
 10
310.5262
 20
70.625
 30
0.0
 10
310.2511
 20
71.0251
 30
0.0
 10
310.2511
 20
71.0251
 30
0.0
 10
310.2511
 20
71.0251
 30
0.0
 10
310.2511
 20
71.0251
 30
0.0
 10
309.9265
 20
71.35
 30
0.0
 10
309.9265
 20
71.35
 30
0.0
 10
309.9265
 20
71.35
 30
0.0
 10
309.9265
 20
71.35
 30
0.0
 10
309.4996
 20
71.55
 30
0.0
 10
309.4996
 20
71.55
 30
0.0
 10
309.4996
 20
71.55
 30
0.0
 10
309.4996
 20
71.55
 30
0.0
 10
309.0516
 20
71.6499
 30
0.0
 10
309.0516
 20
71.6499
 30
0.0
 10
309.0516
 20
71.6499
 30
0.0
 10
309.0516
 20
71.6499
 30
0.0
 10
308.5754
 20
71.6252
 30
0.0
 10
308.5754
 20
71.6252
 30
0.0
 10
308.5754
 20
71.6252
 30
0.0
 10
308.5754
 20
71.6252
 30
0.0
 10
308.1238
 20
71.4999
 30
0.0
 10
308.1238
 20
71.4999
 30
0.0
 10
308.1238
 20
71.4999
 30
0.0
 10
308.1238
 20
71.4999
 30
0.0
 10
307.7252
 20
71.2502
 30
0.0
 10
307.7252
 20
71.2502
 30
0.0
 10
307.7252
 20
71.2502
 30
0.0
 10
307.7252
 20
71.2502
 30
0.0
 10
307.4006
 20
70.8999
 30
0.0
 10
307.4006
 20
70.8999
 30
0.0
 10
307.4006
 20
70.8999
 30
0.0
 10
307.4006
 20
70.8999
 30
0.0
 10
307.1995
 20
70.4751
 30
0.0
 10
307.1995
 20
70.4751
 30
0.0
 10
307.1995
 20
70.4751
 30
0.0
 10
307.1995
 20
70.4751
 30
0.0
 10
307.1008
 20
70.025
 30
0.0
 10
307.1008
 20
70.025
 30
0.0
 10
307.1008
 20
70.025
 30
0.0
 10
307.1008
 20
70.025
 30
0.0
 10
307.1008
 20
69.5501
 30
0.0
 10
307.1008
 20
69.5501
 30
0.0
 10
307.1008
 20
69.5501
 30
0.0
 10
307.1008
 20
69.5501
 30
0.0
 10
307.2489
 20
69.1
 30
0.0
 10
307.2489
 20
69.1
 30
0.0
 10
307.2489
 20
69.1
 30
0.0
 10
307.2489
 20
69.1
 30
0.0
 10
307.4994
 20
68.6999
 30
0.0
 10
307.4994
 20
68.6999
 30
0.0
 10
307.4994
 20
68.6999
 30
0.0
 10
307.4994
 20
68.6999
 30
0.0
 10
307.8486
 20
68.4001
 30
0.0
 10
307.8486
 20
68.4001
 30
0.0
 10
307.8486
 20
68.4001
 30
0.0
 10
307.8486
 20
68.4001
 30
0.0
 10
308.2755
 20
68.175
 30
0.0
 10
308.2755
 20
68.175
 30
0.0
 10
308.2755
 20
68.175
 30
0.0
 10
308.2755
 20
68.175
 30
0.0
 10
308.7235
 20
68.0752
 30
0.0
 10
308.7235
 20
68.0752
 30
0.0
 10
308.7235
 20
68.0752
 30
0.0
 10
308.7235
 20
68.0752
 30
0.0
 10
309.1998
 20
68.0999
 30
0.0
 10
309.1998
 20
68.0999
 30
0.0
  0
SPLINE
  5
59
330
1F
100
AcDbEntity
  8
Layer 1
 62
     1
370
    35
100
AcDbSpline
210
0.0
220
0.0
230
1.0
 70
    24
 71
     3
 72
     8
 73
     4
 74
     0
 42
0.0000000001
 43
0.0000000001
 12
1.0
 22
0.0
 32
0.0
 13
1.0
 23
0.0
 33
0.0
 40
0.0
 40
0.0
 40
0.0
 40
0.0
 40
1.0
 40
1.0
 40
1.0
 40
1.0
 10
542.474
 20
-6.2251
 30
0.0
 10
542.474
 20
-6.2251
 30
0.0
 10
362.7232
 20
-6.2251
 30
0.0
 10
362.7232
 20
-6.2251
 30
0.0
  0
SPLINE
  5
5A
330
1F
100
AcDbEntity
  8
Layer 1
 62
     1
370
    35
100
AcDbSpline
210
0.0
220
0.0
230
1.0
 70
     8
 71
     3
 72
    44
 73
    40
 74
     0
 42
0.0000000001
 43
0.0000000001
 12
1.0
 22
0.0
 32
0.0
 13
1.0
 23
0.0
 33
0.0
 40
0.0
 40
0.0
 40
0.0
 40
0.0
 40
0.0909090909090909
 40
0.0909090909090909
 40
0.0909090909090909
 40
0.0909090909090909
 40
0.1818181818181818
 40
0.1818181818181818
 40
0.1818181818181818
 40
0.1818181818181818
 40
0.2727272727272727
 40
0.2727272727272727
 40
0.2727272727272727
 40
0.2727272727272727
 40
0.3636363636363636
 40
0.3636363636363636
 40
0.3636363636363636
 40
0.3636363636363636
 40
0.4545454545454545
 40
0.4545454545454545
 40
0.4545454545454545
 40
0.4545454545454545
 40
0.5454545454545454
 40
0.5454545454545454
 40
0.5454545454545454
 40
0.5454545454545454
 40
0.6363636363636364
 40
0.6363636363636364
 40
0.6363636363636364
 40
0.6363636363636364
 40
0.7272727272727273
 40
0.7272727272727273
 40
0.7272727272727273
 40
0.7272727272727273
 40
0.8181818181818182
 40
0.8181818181818182
 40
0.8181818181818182
 40
0.8181818181818182
 40
1.0
 40
1.0
 40
1.0
 40
1.0
 10
370.0998
 20
35.6249
 30
0.0
 10
370.0998
 20
35.6249
 30
0.0
 10
391.4746
 20
35.6249
 30
0.0
 10
391.4746
 20
35.6249
 30
0.0
 10
391.4746
 20
35.6249
 30
0.0
 10
391.4746
 20
35.6249
 30
0.0
 10
391.4746
 20
35.125
 30
0.0
 10
391.4746
 20
35.125
 30
0.0
 10
391.4746
 20
35.125
 30
0.0
 10
391.4746
 20
35.125
 30
0.0
 10
391.4746
 20
22.625
 30
0.0
 10
391.4746
 20
22.625
 30
0.0
 10
391.4746
 20
22.625
 30
0.0
 10
391.4746
 20
22.625
 30
0.0
 10
385.0752
 20
22.625
 30
0.0
 10
385.0752
 20
22.625
 30
0.0
 10
385.0752
 20
22.625
 30
0.0
 10
385.0752
 20
22.625
 30
0.0
 10
385.0752
 20
16.625
 30
0.0
 10
385.0752
 20
16.625
 30
0.0
 10
385.0752
 20
16.625
 30
0.0
 10
385.0752
 20
16.625
 30
0.0
 10
401.4758
 20
16.625
 30
0.0
 10
401.4758
 20
16.625
 30
0.0
 10
401.4758
 20
16.625
 30
0.0
 10
401.4758
 20
16.625
 30
0.0
 10
401.4758
 20
21.6249
 30
0.0
 10
401.4758
 20
21.6249
 30
0.0
 10
401.4758
 20
21.6249
 30
0.0
 10
401.4758
 20
21.6249
 30
0.0
 10
452.4734
 20
21.6249
 30
0.0
 10
452.4734
 20
21.6249
 30
0.0
 10
452.4734
 20
21.6249
 30
0.0
 10
452.4734
 20
21.6249
 30
0.0
 10
452.4734
 20
10.7749
 30
0.0
 10
452.4734
 20
10.7749
 30
0.0
 10
452.4734
 20
10.7749
 30
0.0
 10
452.4734
 20
10.7749
 30
0.0
 10
460.9753
 20
10.7749
 30
0.0
 10
460.9753
 20
10.7749
 30
0.0
  0
ENDSEC
  0
SECTION
  2
OBJECTS
  0
DICTIONARY
  5
C
330
0
100
AcDbDictionary
281
     1
  3
ACAD_GROUP
350
D
  3
ACAD_LAYOUT
350
1A
  3
ACAD_MATERIAL
350
3B
  3
ACAD_MLEADERSTYLE
350
7C
  3
ACAD_MLINESTYLE
350
17
  3
ACAD_PLOTSETTINGS
350
19
  3
ACAD_PLOTSTYLENAME
350
E
  3
ACAD_TABLESTYLE
350
7B
  3
ACAD_VISUALSTYLE
350
2A
  0
DICTIONARY
  5
D
102
{ACAD_REACTORS
330
C
102
}
330
C
100
AcDbDictionary
281
     1
  0
DICTIONARY
  5
1A
102
{ACAD_REACTORS
330
C
102
}
330
C
100
AcDbDictionary
281
     1
  3
Layout1
350
1E
  3
Layout2
350
26
  3
Model
350
22
  0
DICTIONARY
  5
3B
102
{ACAD_REACTORS
330
C
102
}
330
C
100
AcDbDictionary
281
     1
  3
ByBlock
350
3D
  3
ByLayer
350
3C
  3
Global
350
3E
  0
DICTIONARY
  5
7C
102
{ACAD_REACTORS
330
C
102
}
330
C
100
AcDbDictionary
281
     1
  0
DICTIONARY
  5
17
102
{ACAD_REACTORS
330
C
102
}
330
C
100
AcDbDictionary
281
     1
  3
Standard
350
18
  0
DICTIONARY
  5
19
102
{ACAD_REACTORS
330
C
102
}
330
C
100
AcDbDictionary
281
     1
  0
ACDBDICTIONARYWDFLT
  5
E
102
{ACAD_REACTORS
330
C
102
}
330
C
100
AcDbDictionary
281
     1
  3
Normal
350
F
100
AcDbDictionaryWithDefault
340
F
  0
DICTIONARY
  5
7B
102
{ACAD_REACTORS
330
C
102
}
330
C
100
AcDbDictionary
281
     1
  0
DICTIONARY
  5
2A
102
{ACAD_REACTORS
330
C
102
}
330
C
100
AcDbDictionary
281
     1
  3
2dWireframe
350
2F
  3
3D Hidden
350
31
  3
3dWireframe
350
30
  3
Basic
350
32
  3
Brighten
350
36
  3
ColorChange
350
3A
  3
Conceptual
350
34
  3
Dim
350
35
  3
Facepattern
350
39
  3
Flat
350
2B
  3
FlatWithEdges
350
2C
  3
Gouraud
350
2D
  3
GouraudWithEdges
350
2E
  3
Linepattern
350
38
  3
Realistic
350
33
  3
Thicken
350
37
  0
LAYOUT
  5
1E
102
{ACAD_REACTORS
330
1A
102
}
330
1A
100
AcDbPlotSettings
  1

  2
none_device
  4

  6

 40
0.0
 41
0.0
 42
0.0
 43
0.0
 44
0.0
 45
0.0
 46
0.0
 47
0.0
 48
0.0
 49
0.0
140
0.0
141
0.0
142
1.0
143
1.0
 70
   688
 72
     0
 73
     0
 74
     5
  7

 75
    16
 76
     0
 77
     2
 78
   300
147
1.0
148
0.0
149
0.0
100
AcDbLayout
  1
Layout1
 70
     1
 71
     1
 10
0.0
 20
0.0
 11
12.0
 21
9.0
 12
0.0
 22
0.0
 32
0.0
 14
1.000000000000000E+20
 24
1.000000000000000E+20
 34
1.000000000000000E+20
 15
-1.000000000000000E+20
 25
-1.000000000000000E+20
 35
-1.000000000000000E+20
146
0.0
 13
0.0
 23
0.0
 33
0.0
 16
1.0
 26
0.0
 36
0.0
 17
0.0
 27
1.0
 37
0.0
 76
     0
330
1B
  0
LAYOUT
  5
26
102
{ACAD_REACTORS
330
1A
102
}
330
1A
100
AcDbPlotSettings
  1

  2
none_device
  4

  6

 40
0.0
 41
0.0
 42
0.0
 43
0.0
 44
0.0
 45
0.0
 46
0.0
 47
0.0
 48
0.0
 49
0.0
140
0.0
141
0.0
142
1.0
143
1.0
 70
   688
 72
     0
 73
     0
 74
     5
  7

 75
    16
 76
     0
 77
     2
 78
   300
147
1.0
148
0.0
149
0.0
100
AcDbLayout
  1
Layout2
 70
     1
 71
     2
 10
0.0
 20
0.0
 11
0.0
 21
0.0
 12
0.0
 22
0.0
 32
0.0
 14
0.0
 24
0.0
 34
0.0
 15
0.0
 25
0.0
 35
0.0
146
0.0
 13
0.0
 23
0.0
 33
0.0
 16
1.0
 26
0.0
 36
0.0
 17
0.0
 27
1.0
 37
0.0
 76
     0
330
23
  0
LAYOUT
  5
22
102
{ACAD_REACTORS
330
1A
102
}
330
1A
100
AcDbPlotSettings
  1

  2
none_device
  4

  6

 40
0.0
 41
0.0
 42
0.0
 43
0.0
 44
0.0
 45
0.0
 46
0.0
 47
0.0
 48
0.0
 49
0.0
140
0.0
141
0.0
142
1.0
143
1.0
 70
  1712
 72
     0
 73
     0
 74
     0
  7

 75
     0
 76
     0
 77
     2
 78
   300
147
1.0
148
0.0
149
0.0
100
AcDbLayout
  1
Model
 70
     1
 71
     0
 10
0.0
 20
0.0
 11
12.0
 21
9.0
 12
0.0
 22
0.0
 32
0.0
 14
301.7011
 24
-6.4001
 34
0.0
 15
692.3503
 25
87.95
 35
0.0
146
0.0
 13
0.0
 23
0.0
 33
0.0
 16
1.0
 26
0.0
 36
0.0
 17
0.0
 27
1.0
 37
0.0
 76
     0
330
1F
331
29
  0
MATERIAL
  5
3D
102
{ACAD_REACTORS
330
3B
102
}
330
3B
100
AcDbMaterial
  1
ByBlock
 72
     1
 94
      127
  0
MATERIAL
  5
3C
102
{ACAD_REACTORS
330
3B
102
}
330
3B
100
AcDbMaterial
  1
ByLayer
 72
     1
 94
      127
  0
MATERIAL
  5
3E
102
{ACAD_REACTORS
330
3B
102
}
330
3B
100
AcDbMaterial
  1
Global
 72
     1
 94
      127
  0
MLINESTYLE
  5
18
102
{ACAD_REACTORS
330
17
102
}
330
17
100
AcDbMlineStyle
  2
Standard
 70
     0
  3

 62
   256
 51
90.0
 52
90.0
 71
     2
 49
0.5
 62
   256
  6
BYLAYER
 49
-0.5
 62
   256
  6
BYLAYER
  0
ACDBPLACEHOLDER
  5
F
102
{ACAD_REACTORS
330
E
102
}
330
E
  0
VISUALSTYLE
  5
2F
102
{ACAD_REACTORS
330
2A
102
}
102
{ACAD_XDICTIONARY
360
63
102
}
330
2A
100
AcDbVisualStyle
  2
2dWireframe
 70
     4
 71
     0
 72
     2
 73
     0
 90
        0
 40
-0.6
 41
-30.0
 62
     5
 63
     7
421
 16777215
 74
     1
 91
        4
 64
     7
 65
   257
 75
     1
175
     1
 42
1.0
 92
        0
 66
   257
 43
1.0
 76
     1
 77
     6
 78
     2
 67
     7
 79
     5
170
     0
171
     0
290
     0
174
     0
 93
        1
 44
0.0
173
     0
291
     0
 45
0.0
  0
VISUALSTYLE
  5
31
102
{ACAD_REACTORS
330
2A
102
}
102
{ACAD_XDICTIONARY
360
67
102
}
330
2A
100
AcDbVisualStyle
  2
3D Hidden
 70
     6
 71
     1
 72
     2
 73
     2
 90
        0
 40
-0.6
 41
-30.0
 62
     5
 63
     7
421
 16777215
 74
     2
 91
        2
 64
     7
 65
   257
 75
     2
175
     1
 42
40.0
 92
        0
 66
   257
 43
1.0
 76
     1
 77
     6
 78
     2
 67
     7
 79
     3
170
     0
171
     0
290
     0
174
     0
 93
        1
 44
0.0
173
     0
291
     0
 45
0.0
  0
VISUALSTYLE
  5
30
102
{ACAD_REACTORS
330
2A
102
}
102
{ACAD_XDICTIONARY
360
65
102
}
330
2A
100
AcDbVisualStyle
  2
3dWireframe
 70
     5
 71
     0
 72
     2
 73
     0
 90
        0
 40
-0.6
 41
-30.0
 62
     5
 63
     7
421
 16777215
 74
     1
 91
        4
 64
     7
 65
   257
 75
     1
175
     1
 42
1.0
 92
        0
 66
   257
 43
1.0
 76
     1
 77
     6
 78
     2
 67
     7
 79
     5
170
     0
171
     0
290
     0
174
     0
 93
        1
 44
0.0
173
     0
291
     0
 45
0.0
  0
VISUALSTYLE
  5
32
102
{ACAD_REACTORS
330
2A
102
}
102
{ACAD_XDICTIONARY
360
69
102
}
330
2A
100
AcDbVisualStyle
  2
Basic
 70
     7
 71
     1
 72
     0
 73
     1
 90
        0
 40
-0.6
 41
-30.0
 62
     5
 63
     7
421
 16777215
 74
     0
 91
        4
 64
     7
 65
   257
 75
     1
175
     1
 42
1.0
 92
        8
 66
     7
 43
1.0
 76
     1
 77
     6
 78
     2
 67
     7
 79
     5
170
     0
171
     0
290
     0
174
     0
 93
        1
 44
0.0
173
     0
291
     1
 45
0.0
  0
VISUALSTYLE
  5
36
102
{ACAD_REACTORS
330
2A
102
}
102
{ACAD_XDICTIONARY
360
71
102
}
330
2A
100
AcDbVisualStyle
  2
Brighten
 70
    12
 71
     2
 72
     2
 73
     0
 90
        0
 40
-0.6
 41
-30.0
 62
     5
 63
     7
421
 16777215
 74
     1
 91
        4
 64
     7
 65
   257
 75
     1
175
     1
 42
1.0
 92
        8
 66
     7
 43
1.0
 76
     1
 77
     6
 78
     2
 67
     7
 79
     5
170
     0
171
     0
290
     0
174
     0
 93
        1
 44
50.0
173
     0
291
     1
 45
0.0
  0
VISUALSTYLE
  5
3A
102
{ACAD_REACTORS
330
2A
102
}
102
{ACAD_XDICTIONARY
360
79
102
}
330
2A
100
AcDbVisualStyle
  2
ColorChange
 70
    16
 71
     2
 72
     2
 73
     3
 90
        0
 40
-0.6
 41
-30.0
 62
     5
 63
     8
421
  8421504
 74
     1
 91
        4
 64
     7
 65
   257
 75
     1
175
     1
 42
1.0
 92
        8
 66
     8
424
  8421504
 43
1.0
 76
     1
 77
     6
 78
     2
 67
     7
 79
     5
170
     0
171
     0
290
     0
174
     0
 93
        1
 44
0.0
173
     0
291
     1
 45
0.0
  0
VISUALSTYLE
  5
34
102
{ACAD_REACTORS
330
2A
102
}
102
{ACAD_XDICTIONARY
360
6D
102
}
330
2A
100
AcDbVisualStyle
  2
Conceptual
 70
     9
 71
     3
 72
     2
 73
     0
 90
        0
 40
-0.6
 41
-30.0
 62
     5
 63
     7
421
 16777215
 74
     2
 91
        2
 64
     7
 65
   257
 75
     1
175
     1
 42
40.0
 92
        8
 66
     7
 43
1.0
 76
     1
 77
     6
 78
     2
 67
     7
 79
     3
170
     0
171
     0
290
     0
174
     0
 93
        1
 44
0.0
173
     0
291
     0
 45
0.0
  0
VISUALSTYLE
  5
35
102
{ACAD_REACTORS
330
2A
102
}
102
{ACAD_XDICTIONARY
360
6F
102
}
330
2A
100
AcDbVisualStyle
  2
Dim
 70
    11
 71
     2
 72
     2
 73
     0
 90
        0
 40
-0.6
 41
-30.0
 62
     5
 63
     7
421
 16777215
 74
     1
 91
        4
 64
     7
 65
   257
 75
     1
175
     1
 42
1.0
 92
        8
 66
     7
 43
1.0
 76
     1
 77
     6
 78
     2
 67
     7
 79
     5
170
     0
171
     0
290
     0
174
     0
 93
        1
 44
-50.0
173
     0
291
     1
 45
0.0
  0
VISUALSTYLE
  5
39
102
{ACAD_REACTORS
330
2A
102
}
102
{ACAD_XDICTIONARY
360
77
102
}
330
2A
100
AcDbVisualStyle
  2
Facepattern
 70
    15
 71
     2
 72
     2
 73
     0
 90
        0
 40
-0.6
 41
-30.0
 62
     5
 63
     7
421
 16777215
 74
     1
 91
        4
 64
     7
 65
   257
 75
     1
175
     1
 42
1.0
 92
        8
 66
     7
 43
1.0
 76
     1
 77
     6
 78
     2
 67
     7
 79
     5
170
     0
171
     0
290
     0
174
     0
 93
        1
 44
0.0
173
     0
291
     1
 45
0.0
  0
VISUALSTYLE
  5
2B
102
{ACAD_REACTORS
330
2A
102
}
102
{ACAD_XDICTIONARY
360
5B
102
}
330
2A
100
AcDbVisualStyle
  2
Flat
 70
     0
 71
     2
 72
     1
 73
     1
 90
        2
 40
-0.6
 41
30.0
 62
     5
 63
     7
421
 16777215
 74
     0
 91
        4
 64
     7
 65
   257
 75
     1
175
     1
 42
1.0
 92
        8
 66
     7
 43
1.0
 76
     1
 77
     6
 78
     2
 67
     7
 79
     5
170
     0
171
     0
290
     0
174
     0
 93
       13
 44
0.0
173
     0
291
     1
 45
0.0
  0
VISUALSTYLE
  5
2C
102
{ACAD_REACTORS
330
2A
102
}
102
{ACAD_XDICTIONARY
360
5D
102
}
330
2A
100
AcDbVisualStyle
  2
FlatWithEdges
 70
     1
 71
     2
 72
     1
 73
     1
 90
        2
 40
-0.6
 41
30.0
 62
     5
 63
     7
421
 16777215
 74
     1
 91
        4
 64
     7
 65
   257
 75
     1
175
     1
 42
1.0
 92
        0
 66
   257
 43
1.0
 76
     1
 77
     6
 78
     2
 67
     7
 79
     5
170
     0
171
     0
290
     0
174
     0
 93
       13
 44
0.0
173
     0
291
     1
 45
0.0
  0
VISUALSTYLE
  5
2D
102
{ACAD_REACTORS
330
2A
102
}
102
{ACAD_XDICTIONARY
360
5F
102
}
330
2A
100
AcDbVisualStyle
  2
Gouraud
 70
     2
 71
     2
 72
     2
 73
     1
 90
        2
 40
-0.6
 41
30.0
 62
     5
 63
     7
421
 16777215
 74
     0
 91
        4
 64
     7
 65
   257
 75
     1
175
     1
 42
1.0
 92
        0
 66
     7
 43
1.0
 76
     1
 77
     6
 78
     2
 67
     7
 79
     5
170
     0
171
     0
290
     0
174
     0
 93
       13
 44
0.0
173
     0
291
     1
 45
0.0
  0
VISUALSTYLE
  5
2E
102
{ACAD_REACTORS
330
2A
102
}
102
{ACAD_XDICTIONARY
360
61
102
}
330
2A
100
AcDbVisualStyle
  2
GouraudWithEdges
 70
     3
 71
     2
 72
     2
 73
     1
 90
        2
 40
-0.6
 41
30.0
 62
     5
 63
     7
421
 16777215
 74
     1
 91
        4
 64
     7
 65
   257
 75
     1
175
     1
 42
1.0
 92
        0
 66
   257
 43
1.0
 76
     1
 77
     6
 78
     2
 67
     7
 79
     5
170
     0
171
     0
290
     0
174
     0
 93
       13
 44
0.0
173
     0
291
     1
 45
0.0
  0
VISUALSTYLE
  5
38
102
{ACAD_REACTORS
330
2A
102
}
102
{ACAD_XDICTIONARY
360
75
102
}
330
2A
100
AcDbVisualStyle
  2
Linepattern
 70
    14
 71
     2
 72
     2
 73
     0
 90
        0
 40
-0.6
 41
-30.0
 62
     5
 63
     7
421
 16777215
 74
     1
 91
        4
 64
     7
 65
   257
 75
     7
175
     7
 42
1.0
 92
        8
 66
     7
 43
1.0
 76
     1
 77
     6
 78
     2
 67
     7
 79
     5
170
     0
171
     0
290
     0
174
     0
 93
        1
 44
0.0
173
     0
291
     1
 45
0.0
  0
VISUALSTYLE
  5
33
102
{ACAD_REACTORS
330
2A
102
}
102
{ACAD_XDICTIONARY
360
6B
102
}
330
2A
100
AcDbVisualStyle
  2
Realistic
 70
     8
 71
     2
 72
     2
 73
     0
 90
        0
 40
-0.6
 41
-30.0
 62
     5
 63
     7
421
 16777215
 74
     1
 91
        0
 64
     7
 65
   257
 75
     1
175
     1
 42
1.0
 92
        8
 66
     8
424
  7895160
 43
1.0
 76
     1
 77
     6
 78
     2
 67
     7
 79
     5
170
     0
171
     0
290
     0
174
     0
 93
       13
 44
0.0
173
     0
291
     0
 45
0.0
  0
VISUALSTYLE
  5
37
102
{ACAD_REACTORS
330
2A
102
}
102
{ACAD_XDICTIONARY
360
73
102
}
330
2A
100
AcDbVisualStyle
  2
Thicken
 70
    13
 71
     2
 72
     2
 73
     0
 90
        0
 40
-0.6
 41
-30.0
 62
     5
 63
     7
421
 16777215
 74
     1
 91
        4
 64
     7
 65
   257
 75
     1
175
     1
 42
1.0
 92
       12
 66
     7
 43
1.0
 76
     1
 77
     6
 78
     2
 67
     7
 79
     5
170
     0
171
     0
290
     0
174
     0
 93
        1
 44
0.0
173
     0
291
     1
 45
0.0
  0
DICTIONARY
  5
63
330
2F
100
AcDbDictionary
280
     1
281
     1
  3
ACAD_XREC_ROUNDTRIP
360
64
  0
DICTIONARY
  5
67
330
31
100
AcDbDictionary
280
     1
281
     1
  3
ACAD_XREC_ROUNDTRIP
360
68
  0
DICTIONARY
  5
65
330
30
100
AcDbDictionary
280
     1
281
     1
  3
ACAD_XREC_ROUNDTRIP
360
66
  0
DICTIONARY
  5
69
330
32
100
AcDbDictionary
280
     1
281
     1
  3
ACAD_XREC_ROUNDTRIP
360
6A
  0
DICTIONARY
  5
71
330
36
100
AcDbDictionary
280
     1
281
     1
  3
ACAD_XREC_ROUNDTRIP
360
72
  0
DICTIONARY
  5
79
330
3A
100
AcDbDictionary
280
     1
281
     1
  3
ACAD_XREC_ROUNDTRIP
360
7A
  0
DICTIONARY
  5
6D
330
34
100
AcDbDictionary
280
     1
281
     1
  3
ACAD_XREC_ROUNDTRIP
360
6E
  0
DICTIONARY
  5
6F
330
35
100
AcDbDictionary
280
     1
281
     1
  3
ACAD_XREC_ROUNDTRIP
360
70
  0
DICTIONARY
  5
77
330
39
100
AcDbDictionary
280
     1
281
     1
  3
ACAD_XREC_ROUNDTRIP
360
78
  0
DICTIONARY
  5
5B
330
2B
100
AcDbDictionary
280
     1
281
     1
  3
ACAD_XREC_ROUNDTRIP
360
5C
  0
DICTIONARY
  5
5D
330
2C
100
AcDbDictionary
280
     1
281
     1
  3
ACAD_XREC_ROUNDTRIP
360
5E
  0
DICTIONARY
  5
5F
330
2D
100
AcDbDictionary
280
     1
281
     1
  3
ACAD_XREC_ROUNDTRIP
360
60
  0
DICTIONARY
  5
61
330
2E
100
AcDbDictionary
280
     1
281
     1
  3
ACAD_XREC_ROUNDTRIP
360
62
  0
DICTIONARY
  5
75
330
38
100
AcDbDictionary
280
     1
281
     1
  3
ACAD_XREC_ROUNDTRIP
360
76
  0
DICTIONARY
  5
6B
330
33
100
AcDbDictionary
280
     1
281
     1
  3
ACAD_XREC_ROUNDTRIP
360
6C
  0
DICTIONARY
  5
73
330
37
100
AcDbDictionary
280
     1
281
     1
  3
ACAD_XREC_ROUNDTRIP
360
74
  0
XRECORD
  5
64
102
{ACAD_REACTORS
330
63
102
}
330
63
100
AcDbXrecord
280
     1
102
RTVSPropertyOp0
 70
     1
102
RTVSPropertyOp1
 70
     1
102
RTVSPropertyOp2
 70
     1
102
RTVSPropertyOp3
 70
     1
102
RTVSPropertyOp4
 70
     1
102
RTVSPropertyOp5
 70
     1
102
RTVSPropertyOp6
 70
     1
102
RTVSPropertyOp7
 70
     1
102
RTVSPropertyOp8
 70
     1
102
RTVSPropertyOp9
 70
     1
102
RTVSPropertyOp10
 70
     1
102
RTVSPropertyOp11
 70
     1
102
RTVSPropertyOp12
 70
     1
102
RTVSPropertyOp13
 70
     1
102
RTVSPropertyOp14
 70
     1
102
RTVSPropertyOp15
 70
     1
102
RTVSPropertyOp16
 70
     1
102
RTVSPropertyOp17
 70
     1
102
RTVSPropertyOp18
 70
     1
102
RTVSPropertyOp19
 70
     1
102
RTVSPropertyOp20
 70
     1
102
RTVSPropertyOp21
 70
     1
102
RTVSPropertyOp22
 70
     1
102
RTVSPropertyOp23
 70
     1
102
RTVSPropertyOp24
 70
     1
102
RTVSPropertyOp25
 70
     1
102
RTVSPropertyOp26
 70
     1
102
RTVSPropertyOp27
 70
     1
102
RTVSPropertyOp28
 70
     1
102
RTVSPropertyOp29
 70
     1
102
RTVSPropertyOp30
 70
     1
102
RTVSPropertyOp31
 70
     1
102
RTVSPropertyOp32
 70
     1
  0
XRECORD
  5
68
102
{ACAD_REACTORS
330
67
102
}
330
67
100
AcDbXrecord
280
     1
102
RTVSPropertyOp0
 70
     1
102
RTVSPropertyOp1
 70
     1
102
RTVSPropertyOp2
 70
     1
102
RTVSPropertyOp3
 70
     1
102
RTVSPropertyOp4
 70
     1
102
RTVSPropertyOp5
 70
     1
102
RTVSPropertyOp6
 70
     1
102
RTVSPropertyOp7
 70
     1
102
RTVSPropertyOp8
 70
     1
102
RTVSPropertyOp9
 70
     1
102
RTVSPropertyOp10
 70
     1
102
RTVSPropertyOp11
 70
     1
102
RTVSPropertyOp12
 70
     1
102
RTVSPropertyOp13
 70
     1
102
RTVSPropertyOp14
 70
     1
102
RTVSPropertyOp15
 70
     1
102
RTVSPropertyOp16
 70
     1
102
RTVSPropertyOp17
 70
     1
102
RTVSPropertyOp18
 70
     1
102
RTVSPropertyOp19
 70
     1
102
RTVSPropertyOp20
 70
     1
102
RTVSPropertyOp21
 70
     1
102
RTVSPropertyOp22
 70
     1
102
RTVSPropertyOp23
 70
     1
102
RTVSPropertyOp24
 70
     1
102
RTVSPropertyOp25
 70
     1
102
RTVSPropertyOp26
 70
     1
102
RTVSPropertyOp27
 70
     1
102
RTVSPropertyOp28
 70
     1
102
RTVSPropertyOp29
 70
     1
102
RTVSPropertyOp30
 70
     1
102
RTVSPropertyOp31
 70
     1
102
RTVSPropertyOp32
 70
     1
  0
XRECORD
  5
66
102
{ACAD_REACTORS
330
65
102
}
330
65
100
AcDbXrecord
280
     1
102
RTVSPropertyOp0
 70
     1
102
RTVSPropertyOp1
 70
     1
102
RTVSPropertyOp2
 70
     1
102
RTVSPropertyOp3
 70
     1
102
RTVSPropertyOp4
 70
     1
102
RTVSPropertyOp5
 70
     1
102
RTVSPropertyOp6
 70
     1
102
RTVSPropertyOp7
 70
     1
102
RTVSPropertyOp8
 70
     1
102
RTVSPropertyOp9
 70
     1
102
RTVSPropertyOp10
 70
     1
102
RTVSPropertyOp11
 70
     1
102
RTVSPropertyOp12
 70
     1
102
RTVSPropertyOp13
 70
     1
102
RTVSPropertyOp14
 70
     1
102
RTVSPropertyOp15
 70
     1
102
RTVSPropertyOp16
 70
     1
102
RTVSPropertyOp17
 70
     1
102
RTVSPropertyOp18
 70
     1
102
RTVSPropertyOp19
 70
     1
102
RTVSPropertyOp20
 70
     1
102
RTVSPropertyOp21
 70
     1
102
RTVSPropertyOp22
 70
     1
102
RTVSPropertyOp23
 70
     1
102
RTVSPropertyOp24
 70
     1
102
RTVSPropertyOp25
 70
     1
102
RTVSPropertyOp26
 70
     1
102
RTVSPropertyOp27
 70
     1
102
RTVSPropertyOp28
 70
     1
102
RTVSPropertyOp29
 70
     1
102
RTVSPropertyOp30
 70
     1
102
RTVSPropertyOp31
 70
     1
102
RTVSPropertyOp32
 70
     1
  0
XRECORD
  5
6A
102
{ACAD_REACTORS
330
69
102
}
330
69
100
AcDbXrecord
280
     1
102
RTVSPropertyOp0
 70
     1
102
RTVSPropertyOp1
 70
     1
102
RTVSPropertyOp2
 70
     1
102
RTVSPropertyOp3
 70
     1
102
RTVSPropertyOp4
 70
     1
102
RTVSPropertyOp5
 70
     1
102
RTVSPropertyOp6
 70
     1
102
RTVSPropertyOp7
 70
     1
102
RTVSPropertyOp8
 70
     1
102
RTVSPropertyOp9
 70
     1
102
RTVSPropertyOp10
 70
     1
102
RTVSPropertyOp11
 70
     1
102
RTVSPropertyOp12
 70
     1
102
RTVSPropertyOp13
 70
     1
102
RTVSPropertyOp14
 70
     1
102
RTVSPropertyOp15
 70
     1
102
RTVSPropertyOp16
 70
     1
102
RTVSPropertyOp17
 70
     1
102
RTVSPropertyOp18
 70
     1
102
RTVSPropertyOp19
 70
     1
102
RTVSPropertyOp20
 70
     1
102
RTVSPropertyOp21
 70
     1
102
RTVSPropertyOp22
 70
     1
102
RTVSPropertyOp23
 70
     1
102
RTVSPropertyOp24
 70
     1
102
RTVSPropertyOp25
 70
     1
102
RTVSPropertyOp26
 70
     1
102
RTVSPropertyOp27
 70
     1
102
RTVSPropertyOp28
 70
     1
102
RTVSPropertyOp29
 70
     1
102
RTVSPropertyOp30
 70
     1
102
RTVSPropertyOp31
 70
     1
102
RTVSPropertyOp32
 70
     1
  0
XRECORD
  5
72
102
{ACAD_REACTORS
330
71
102
}
330
71
100
AcDbXrecord
280
     1
102
RTVSPropertyOp0
 70
     1
102
RTVSPropertyOp1
 70
     1
102
RTVSPropertyOp2
 70
     1
102
RTVSPropertyOp3
 70
     1
102
RTVSPropertyOp4
 70
     1
102
RTVSPropertyOp5
 70
     1
102
RTVSPropertyOp6
 70
     1
102
RTVSPropertyOp7
 70
     1
102
RTVSPropertyOp8
 70
     1
102
RTVSPropertyOp9
 70
     1
102
RTVSPropertyOp10
 70
     1
102
RTVSPropertyOp11
 70
     1
102
RTVSPropertyOp12
 70
     1
102
RTVSPropertyOp13
 70
     1
102
RTVSPropertyOp14
 70
     1
102
RTVSPropertyOp15
 70
     1
102
RTVSPropertyOp16
 70
     1
102
RTVSPropertyOp17
 70
     1
102
RTVSPropertyOp18
 70
     1
102
RTVSPropertyOp19
 70
     1
102
RTVSPropertyOp20
 70
     1
102
RTVSPropertyOp21
 70
     1
102
RTVSPropertyOp22
 70
     1
102
RTVSPropertyOp23
 70
     1
102
RTVSPropertyOp24
 70
     1
102
RTVSPropertyOp25
 70
     1
102
RTVSPropertyOp26
 70
     1
102
RTVSPropertyOp27
 70
     1
102
RTVSPropertyOp28
 70
     1
102
RTVSPropertyOp29
 70
     1
102
RTVSPropertyOp30
 70
     1
102
RTVSPropertyOp31
 70
     1
102
RTVSPropertyOp32
 70
     1
  0
XRECORD
  5
7A
102
{ACAD_REACTORS
330
79
102
}
330
79
100
AcDbXrecord
280
     1
102
RTVSPropertyOp0
 70
     1
102
RTVSPropertyOp1
 70
     1
102
RTVSPropertyOp2
 70
     1
102
RTVSPropertyOp3
 70
     1
102
RTVSPropertyOp4
 70
     1
102
RTVSPropertyOp5
 70
     1
102
RTVSPropertyOp6
 70
     1
102
RTVSPropertyOp7
 70
     1
102
RTVSPropertyOp8
 70
     1
102
RTVSPropertyOp9
 70
     1
102
RTVSPropertyOp10
 70
     1
102
RTVSPropertyOp11
 70
     1
102
RTVSPropertyOp12
 70
     1
102
RTVSPropertyOp13
 70
     1
102
RTVSPropertyOp14
 70
     1
102
RTVSPropertyOp15
 70
     1
102
RTVSPropertyOp16
 70
     1
102
RTVSPropertyOp17
 70
     1
102
RTVSPropertyOp18
 70
     1
102
RTVSPropertyOp19
 70
     1
102
RTVSPropertyOp20
 70
     1
102
RTVSPropertyOp21
 70
     1
102
RTVSPropertyOp22
 70
     1
102
RTVSPropertyOp23
 70
     1
102
RTVSPropertyOp24
 70
     1
102
RTVSPropertyOp25
 70
     1
102
RTVSPropertyOp26
 70
     1
102
RTVSPropertyOp27
 70
     1
102
RTVSPropertyOp28
 70
     1
102
RTVSPropertyOp29
 70
     1
102
RTVSPropertyOp30
 70
     1
102
RTVSPropertyOp31
 70
     1
102
RTVSPropertyOp32
 70
     1
  0
XRECORD
  5
6E
102
{ACAD_REACTORS
330
6D
102
}
330
6D
100
AcDbXrecord
280
     1
102
RTVSPropertyOp0
 70
     1
102
RTVSPropertyOp1
 70
     1
102
RTVSPropertyOp2
 70
     1
102
RTVSPropertyOp3
 70
     1
102
RTVSPropertyOp4
 70
     1
102
RTVSPropertyOp5
 70
     1
102
RTVSPropertyOp6
 70
     1
102
RTVSPropertyOp7
 70
     1
102
RTVSPropertyOp8
 70
     1
102
RTVSPropertyOp9
 70
     1
102
RTVSPropertyOp10
 70
     1
102
RTVSPropertyOp11
 70
     1
102
RTVSPropertyOp12
 70
     1
102
RTVSPropertyOp13
 70
     1
102
RTVSPropertyOp14
 70
     1
102
RTVSPropertyOp15
 70
     1
102
RTVSPropertyOp16
 70
     1
102
RTVSPropertyOp17
 70
     1
102
RTVSPropertyOp18
 70
     1
102
RTVSPropertyOp19
 70
     1
102
RTVSPropertyOp20
 70
     1
102
RTVSPropertyOp21
 70
     1
102
RTVSPropertyOp22
 70
     1
102
RTVSPropertyOp23
 70
     1
102
RTVSPropertyOp24
 70
     1
102
RTVSPropertyOp25
 70
     1
102
RTVSPropertyOp26
 70
     1
102
RTVSPropertyOp27
 70
     1
102
RTVSPropertyOp28
 70
     1
102
RTVSPropertyOp29
 70
     1
102
RTVSPropertyOp30
 70
     1
102
RTVSPropertyOp31
 70
     1
102
RTVSPropertyOp32
 70
     1
  0
XRECORD
  5
70
102
{ACAD_REACTORS
330
6F
102
}
330
6F
100
AcDbXrecord
280
     1
102
RTVSPropertyOp0
 70
     1
102
RTVSPropertyOp1
 70
     1
102
RTVSPropertyOp2
 70
     1
102
RTVSPropertyOp3
 70
     1
102
RTVSPropertyOp4
 70
     1
102
RTVSPropertyOp5
 70
     1
102
RTVSPropertyOp6
 70
     1
102
RTVSPropertyOp7
 70
     1
102
RTVSPropertyOp8
 70
     1
102
RTVSPropertyOp9
 70
     1
102
RTVSPropertyOp10
 70
     1
102
RTVSPropertyOp11
 70
     1
102
RTVSPropertyOp12
 70
     1
102
RTVSPropertyOp13
 70
     1
102
RTVSPropertyOp14
 70
     1
102
RTVSPropertyOp15
 70
     1
102
RTVSPropertyOp16
 70
     1
102
RTVSPropertyOp17
 70
     1
102
RTVSPropertyOp18
 70
     1
102
RTVSPropertyOp19
 70
     1
102
RTVSPropertyOp20
 70
     1
102
RTVSPropertyOp21
 70
     1
102
RTVSPropertyOp22
 70
     1
102
RTVSPropertyOp23
 70
     1
102
RTVSPropertyOp24
 70
     1
102
RTVSPropertyOp25
 70
     1
102
RTVSPropertyOp26
 70
     1
102
RTVSPropertyOp27
 70
     1
102
RTVSPropertyOp28
 70
     1
102
RTVSPropertyOp29
 70
     1
102
RTVSPropertyOp30
 70
     1
102
RTVSPropertyOp31
 70
     1
102
RTVSPropertyOp32
 70
     1
  0
XRECORD
  5
78
102
{ACAD_REACTORS
330
77
102
}
330
77
100
AcDbXrecord
280
     1
102
RTVSPropertyOp0
 70
     1
102
RTVSPropertyOp1
 70
     1
102
RTVSPropertyOp2
 70
     1
102
RTVSPropertyOp3
 70
     1
102
RTVSPropertyOp4
 70
     1
102
RTVSPropertyOp5
 70
     1
102
RTVSPropertyOp6
 70
     1
102
RTVSPropertyOp7
 70
     1
102
RTVSPropertyOp8
 70
     1
102
RTVSPropertyOp9
 70
     1
102
RTVSPropertyOp10
 70
     1
102
RTVSPropertyOp11
 70
     1
102
RTVSPropertyOp12
 70
     1
102
RTVSPropertyOp13
 70
     1
102
RTVSPropertyOp14
 70
     1
102
RTVSPropertyOp15
 70
     1
102
RTVSPropertyOp16
 70
     1
102
RTVSPropertyOp17
 70
     1
102
RTVSPropertyOp18
 70
     1
102
RTVSPropertyOp19
 70
     1
102
RTVSPropertyOp20
 70
     1
102
RTVSPropertyOp21
 70
     1
102
RTVSPropertyOp22
 70
     1
102
RTVSPropertyOp23
 70
     1
102
RTVSPropertyOp24
 70
     1
102
RTVSPropertyOp25
 70
     1
102
RTVSPropertyOp26
 70
     1
102
RTVSPropertyOp27
 70
     1
102
RTVSPropertyOp28
 70
     1
102
RTVSPropertyOp29
 70
     1
102
RTVSPropertyOp30
 70
     1
102
RTVSPropertyOp31
 70
     1
102
RTVSPropertyOp32
 70
     1
  0
XRECORD
  5
5C
102
{ACAD_REACTORS
330
5B
102
}
330
5B
100
AcDbXrecord
280
     1
102
RTVSPropertyOp0
 70
     1
102
RTVSPropertyOp1
 70
     1
102
RTVSPropertyOp2
 70
     1
102
RTVSPropertyOp3
 70
     1
102
RTVSPropertyOp4
 70
     1
102
RTVSPropertyOp5
 70
     1
102
RTVSPropertyOp6
 70
     1
102
RTVSPropertyOp7
 70
     1
102
RTVSPropertyOp8
 70
     1
102
RTVSPropertyOp9
 70
     1
102
RTVSPropertyOp10
 70
     1
102
RTVSPropertyOp11
 70
     1
102
RTVSPropertyOp12
 70
     1
102
RTVSPropertyOp13
 70
     1
102
RTVSPropertyOp14
 70
     1
102
RTVSPropertyOp15
 70
     1
102
RTVSPropertyOp16
 70
     1
102
RTVSPropertyOp17
 70
     1
102
RTVSPropertyOp18
 70
     1
102
RTVSPropertyOp19
 70
     1
102
RTVSPropertyOp20
 70
     1
102
RTVSPropertyOp21
 70
     1
102
RTVSPropertyOp22
 70
     1
102
RTVSPropertyOp23
 70
     1
102
RTVSPropertyOp24
 70
     1
102
RTVSPropertyOp25
 70
     1
102
RTVSPropertyOp26
 70
     1
102
RTVSPropertyOp27
 70
     1
102
RTVSPropertyOp28
 70
     1
102
RTVSPropertyOp29
 70
     1
102
RTVSPropertyOp30
 70
     1
102
RTVSPropertyOp31
 70
     1
102
RTVSPropertyOp32
 70
     1
  0
XRECORD
  5
5E
102
{ACAD_REACTORS
330
5D
102
}
330
5D
100
AcDbXrecord
280
     1
102
RTVSPropertyOp0
 70
     1
102
RTVSPropertyOp1
 70
     1
102
RTVSPropertyOp2
 70
     1
102
RTVSPropertyOp3
 70
     1
102
RTVSPropertyOp4
 70
     1
102
RTVSPropertyOp5
 70
     1
102
RTVSPropertyOp6
 70
     1
102
RTVSPropertyOp7
 70
     1
102
RTVSPropertyOp8
 70
     1
102
RTVSPropertyOp9
 70
     1
102
RTVSPropertyOp10
 70
     1
102
RTVSPropertyOp11
 70
     1
102
RTVSPropertyOp12
 70
     1
102
RTVSPropertyOp13
 70
     1
102
RTVSPropertyOp14
 70
     1
102
RTVSPropertyOp15
 70
     1
102
RTVSPropertyOp16
 70
     1
102
RTVSPropertyOp17
 70
     1
102
RTVSPropertyOp18
 70
     1
102
RTVSPropertyOp19
 70
     1
102
RTVSPropertyOp20
 70
     1
102
RTVSPropertyOp21
 70
     1
102
RTVSPropertyOp22
 70
     1
102
RTVSPropertyOp23
 70
     1
102
RTVSPropertyOp24
 70
     1
102
RTVSPropertyOp25
 70
     1
102
RTVSPropertyOp26
 70
     1
102
RTVSPropertyOp27
 70
     1
102
RTVSPropertyOp28
 70
     1
102
RTVSPropertyOp29
 70
     1
102
RTVSPropertyOp30
 70
     1
102
RTVSPropertyOp31
 70
     1
102
RTVSPropertyOp32
 70
     1
  0
XRECORD
  5
60
102
{ACAD_REACTORS
330
5F
102
}
330
5F
100
AcDbXrecord
280
     1
102
RTVSPropertyOp0
 70
     1
102
RTVSPropertyOp1
 70
     1
102
RTVSPropertyOp2
 70
     1
102
RTVSPropertyOp3
 70
     1
102
RTVSPropertyOp4
 70
     1
102
RTVSPropertyOp5
 70
     1
102
RTVSPropertyOp6
 70
     1
102
RTVSPropertyOp7
 70
     1
102
RTVSPropertyOp8
 70
     1
102
RTVSPropertyOp9
 70
     1
102
RTVSPropertyOp10
 70
     1
102
RTVSPropertyOp11
 70
     1
102
RTVSPropertyOp12
 70
     1
102
RTVSPropertyOp13
 70
     1
102
RTVSPropertyOp14
 70
     1
102
RTVSPropertyOp15
 70
     1
102
RTVSPropertyOp16
 70
     1
102
RTVSPropertyOp17
 70
     1
102
RTVSPropertyOp18
 70
     1
102
RTVSPropertyOp19
 70
     1
102
RTVSPropertyOp20
 70
     1
102
RTVSPropertyOp21
 70
     1
102
RTVSPropertyOp22
 70
     1
102
RTVSPropertyOp23
 70
     1
102
RTVSPropertyOp24
 70
     1
102
RTVSPropertyOp25
 70
     1
102
RTVSPropertyOp26
 70
     1
102
RTVSPropertyOp27
 70
     1
102
RTVSPropertyOp28
 70
     1
102
RTVSPropertyOp29
 70
     1
102
RTVSPropertyOp30
 70
     1
102
RTVSPropertyOp31
 70
     1
102
RTVSPropertyOp32
 70
     1
  0
XRECORD
  5
62
102
{ACAD_REACTORS
330
61
102
}
330
61
100
AcDbXrecord
280
     1
102
RTVSPropertyOp0
 70
     1
102
RTVSPropertyOp1
 70
     1
102
RTVSPropertyOp2
 70
     1
102
RTVSPropertyOp3
 70
     1
102
RTVSPropertyOp4
 70
     1
102
RTVSPropertyOp5
 70
     1
102
RTVSPropertyOp6
 70
     1
102
RTVSPropertyOp7
 70
     1
102
RTVSPropertyOp8
 70
     1
102
RTVSPropertyOp9
 70
     1
102
RTVSPropertyOp10
 70
     1
102
RTVSPropertyOp11
 70
     1
102
RTVSPropertyOp12
 70
     1
102
RTVSPropertyOp13
 70
     1
102
RTVSPropertyOp14
 70
     1
102
RTVSPropertyOp15
 70
     1
102
RTVSPropertyOp16
 70
     1
102
RTVSPropertyOp17
 70
     1
102
RTVSPropertyOp18
 70
     1
102
RTVSPropertyOp19
 70
     1
102
RTVSPropertyOp20
 70
     1
102
RTVSPropertyOp21
 70
     1
102
RTVSPropertyOp22
 70
     1
102
RTVSPropertyOp23
 70
     1
102
RTVSPropertyOp24
 70
     1
102
RTVSPropertyOp25
 70
     1
102
RTVSPropertyOp26
 70
     1
102
RTVSPropertyOp27
 70
     1
102
RTVSPropertyOp28
 70
     1
102
RTVSPropertyOp29
 70
     1
102
RTVSPropertyOp30
 70
     1
102
RTVSPropertyOp31
 70
     1
102
RTVSPropertyOp32
 70
     1
  0
XRECORD
  5
76
102
{ACAD_REACTORS
330
75
102
}
330
75
100
AcDbXrecord
280
     1
102
RTVSPropertyOp0
 70
     1
102
RTVSPropertyOp1
 70
     1
102
RTVSPropertyOp2
 70
     1
102
RTVSPropertyOp3
 70
     1
102
RTVSPropertyOp4
 70
     1
102
RTVSPropertyOp5
 70
     1
102
RTVSPropertyOp6
 70
     1
102
RTVSPropertyOp7
 70
     1
102
RTVSPropertyOp8
 70
     1
102
RTVSPropertyOp9
 70
     1
102
RTVSPropertyOp10
 70
     1
102
RTVSPropertyOp11
 70
     1
102
RTVSPropertyOp12
 70
     1
102
RTVSPropertyOp13
 70
     1
102
RTVSPropertyOp14
 70
     1
102
RTVSPropertyOp15
 70
     1
102
RTVSPropertyOp16
 70
     1
102
RTVSPropertyOp17
 70
     1
102
RTVSPropertyOp18
 70
     1
102
RTVSPropertyOp19
 70
     1
102
RTVSPropertyOp20
 70
     1
102
RTVSPropertyOp21
 70
     1
102
RTVSPropertyOp22
 70
     1
102
RTVSPropertyOp23
 70
     1
102
RTVSPropertyOp24
 70
     1
102
RTVSPropertyOp25
 70
     1
102
RTVSPropertyOp26
 70
     1
102
RTVSPropertyOp27
 70
     1
102
RTVSPropertyOp28
 70
     1
102
RTVSPropertyOp29
 70
     1
102
RTVSPropertyOp30
 70
     1
102
RTVSPropertyOp31
 70
     1
102
RTVSPropertyOp32
 70
     1
  0
XRECORD
  5
6C
102
{ACAD_REACTORS
330
6B
102
}
330
6B
100
AcDbXrecord
280
     1
102
RTVSPropertyOp0
 70
     1
102
RTVSPropertyOp1
 70
     1
102
RTVSPropertyOp2
 70
     1
102
RTVSPropertyOp3
 70
     1
102
RTVSPropertyOp4
 70
     1
102
RTVSPropertyOp5
 70
     1
102
RTVSPropertyOp6
 70
     1
102
RTVSPropertyOp7
 70
     1
102
RTVSPropertyOp8
 70
     1
102
RTVSPropertyOp9
 70
     1
102
RTVSPropertyOp10
 70
     1
102
RTVSPropertyOp11
 70
     1
102
RTVSPropertyOp12
 70
     1
102
RTVSPropertyOp13
 70
     1
102
RTVSPropertyOp14
 70
     1
102
RTVSPropertyOp15
 70
     1
102
RTVSPropertyOp16
 70
     1
102
RTVSPropertyOp17
 70
     1
102
RTVSPropertyOp18
 70
     1
102
RTVSPropertyOp19
 70
     1
102
RTVSPropertyOp20
 70
     1
102
RTVSPropertyOp21
 70
     1
102
RTVSPropertyOp22
 70
     1
102
RTVSPropertyOp23
 70
     1
102
RTVSPropertyOp24
 70
     1
102
RTVSPropertyOp25
 70
     1
102
RTVSPropertyOp26
 70
     1
102
RTVSPropertyOp27
 70
     1
102
RTVSPropertyOp28
 70
     1
102
RTVSPropertyOp29
 70
     1
102
RTVSPropertyOp30
 70
     1
102
RTVSPropertyOp31
 70
     1
102
RTVSPropertyOp32
 70
     1
  0
XRECORD
  5
74
102
{ACAD_REACTORS
330
73
102
}
330
73
100
AcDbXrecord
280
     1
102
RTVSPropertyOp0
 70
     1
102
RTVSPropertyOp1
 70
     1
102
RTVSPropertyOp2
 70
     1
102
RTVSPropertyOp3
 70
     1
102
RTVSPropertyOp4
 70
     1
102
RTVSPropertyOp5
 70
     1
102
RTVSPropertyOp6
 70
     1
102
RTVSPropertyOp7
 70
     1
102
RTVSPropertyOp8
 70
     1
102
RTVSPropertyOp9
 70
     1
102
RTVSPropertyOp10
 70
     1
102
RTVSPropertyOp11
 70
     1
102
RTVSPropertyOp12
 70
     1
102
RTVSPropertyOp13
 70
     1
102
RTVSPropertyOp14
 70
     1
102
RTVSPropertyOp15
 70
     1
102
RTVSPropertyOp16
 70
     1
102
RTVSPropertyOp17
 70
     1
102
RTVSPropertyOp18
 70
     1
102
RTVSPropertyOp19
 70
     1
102
RTVSPropertyOp20
 70
     1
102
RTVSPropertyOp21
 70
     1
102
RTVSPropertyOp22
 70
     1
102
RTVSPropertyOp23
 70
     1
102
RTVSPropertyOp24
 70
     1
102
RTVSPropertyOp25
 70
     1
102
RTVSPropertyOp26
 70
     1
102
RTVSPropertyOp27
 70
     1
102
RTVSPropertyOp28
 70
     1
102
RTVSPropertyOp29
 70
     1
102
RTVSPropertyOp30
 70
     1
102
RTVSPropertyOp31
 70
     1
102
RTVSPropertyOp32
 70
     1
  0
ENDSEC
  0
EOF
