  0
SECTION
  2
HEADER
  9
$ACADVER
  1
AC1015
  9
$ACADMAINTVER
 70
     6
  9
$DWGCODEPAGE
  3
ANSI_1251
  9
$INSBASE
 10
0.0
 20
0.0
 30
0.0
  9
$EXTMIN
 10
0.0
 20
0.0
 30
0.0
  9
$EXTMAX
 10
1220.0
 20
610.0
 30
0.0
  9
$LIMMIN
 10
0.0
 20
0.0
  9
$LIMMAX
 10
1220.0
 20
610.0
  9
$ORTHOMODE
 70
     0
  9
$REGENMODE
 70
     1
  9
$FILLMODE
 70
     1
  9
$QTEXTMODE
 70
     0
  9
$MIRRTEXT
 70
     1
  9
$LTSCALE
 40
1.0
  9
$ATTMODE
 70
     1
  9
$TEXTSIZE
 40
3.175
  9
$TRACEWID
 40
1.0
  9
$TEXTSTYLE
  7
Standard
  9
$CLAYER
  8
0
  9
$CELTYPE
  6
ByLayer
  9
$CECOLOR
 62
   256
  9
$CELTSCALE
 40
1.0
  9
$DISPSILH
 70
     0
  9
$DIMSCALE
 40
1.0
  9
$DIMASZ
 40
3.302
  9
$DIMEXO
 40
1.27
  9
$DIMDLI
 40
3.75
  9
$DIMRND
 40
0.0
  9
$DIMDLE
 40
0.0
  9
$DIMEXE
 40
3.175
  9
$DIMTP
 40
0.0
  9
$DIMTM
 40
0.0
  9
$DIMTXT
 40
3.175
  9
$DIMCEN
 40
2.5
  9
$DIMTSZ
 40
0.0
  9
$DIMTOL
 70
     0
  9
$DIMLIM
 70
     0
  9
$DIMTIH
 70
     1
  9
$DIMTOH
 70
     1
  9
$DIMSE1
 70
     0
  9
$DIMSE2
 70
     0
  9
$DIMTAD
 70
     0
  9
$DIMZIN
 70
     0
  9
$DIMBLK
  1

  9
$DIMASO
 70
     1
  9
$DIMSHO
 70
     1
  9
$DIMPOST
  1

  9
$DIMAPOST
  1

  9
$DIMALT
 70
     0
  9
$DIMALTD
 70
     3
  9
$DIMALTF
 40
0.0393700787
  9
$DIMLFAC
 40
2.0
  9
$DIMTOFL
 70
     1
  9
$DIMTVP
 40
0.0
  9
$DIMTIX
 70
     0
  9
$DIMSOXD
 70
     0
  9
$DIMSAH
 70
     0
  9
$DIMBLK1
  1

  9
$DIMBLK2
  1

  9
$DIMSTYLE
  2
ISO-25
  9
$DIMCLRD
 70
     0
  9
$DIMCLRE
 70
     0
  9
$DIMCLRT
 70
     0
  9
$DIMTFAC
 40
1.0
  9
$DIMGAP
 40
1.524
  9
$DIMJUST
 70
     0
  9
$DIMSD1
 70
     0
  9
$DIMSD2
 70
     0
  9
$DIMTOLJ
 70
     0
  9
$DIMTZIN
 70
     0
  9
$DIMALTZ
 70
     0
  9
$DIMALTTZ
 70
     0
  9
$DIMUPT
 70
     0
  9
$DIMDEC
 70
     2
  9
$DIMTDEC
 70
     2
  9
$DIMALTU
 70
     2
  9
$DIMALTTD
 70
     3
  9
$DIMTXSTY
  7
Standard
  9
$DIMAUNIT
 70
     0
  9
$DIMADEC
 70
     2
  9
$DIMALTRND
 40
0.0
  9
$DIMAZIN
 70
     0
  9
$DIMDSEP
 70
    44
  9
$DIMATFIT
 70
     3
  9
$DIMFRAC
 70
     0
  9
$DIMLDRBLK
  1

  9
$DIMLUNIT
 70
     2
  9
$DIMLWD
 70
    -2
  9
$DIMLWE
 70
    -2
  9
$DIMTMOVE
 70
     0
  9
$LUNITS
 70
     2
  9
$LUPREC
 70
     2
  9
$SKETCHINC
 40
1.0
  9
$FILLETRAD
 40
10.0
  9
$AUNITS
 70
     0
  9
$AUPREC
 70
     2
  9
$MENU
  1
.
  9
$ELEVATION
 40
0.0
  9
$PELEVATION
 40
0.0
  9
$THICKNESS
 40
0.0
  9
$LIMCHECK
 70
     0
  9
$CHAMFERA
 40
10.0
  9
$CHAMFERB
 40
10.0
  9
$CHAMFERC
 40
20.0
  9
$CHAMFERD
 40
0.0
  9
$SKPOLY
 70
     0
  9
$TDCREATE
 40
2456259.464779688
  9
$TDUCREATE
 40
2456259.673113021
  9
$TDUPDATE
 40
2456259.464780405
  9
$TDUUPDATE
 40
2456259.673113739
  9
$TDINDWG
 40
0.0000000116
  9
$TDUSRTIMER
 40
0.0000000116
  9
$USRTIMER
 70
     1
  9
$ANGBASE
 50
0.0
  9
$ANGDIR
 70
     0
  9
$PDMODE
 70
     0
  9
$PDSIZE
 40
-1.0
  9
$PLINEWID
 40
0.0
  9
$SPLFRAME
 70
     0
  9
$SPLINETYPE
 70
     6
  9
$SPLINESEGS
 70
     8
  9
$HANDSEED
  5
383
  9
$SURFTAB1
 70
     6
  9
$SURFTAB2
 70
     6
  9
$SURFTYPE
 70
     6
  9
$SURFU
 70
     6
  9
$SURFV
 70
     6
  9
$UCSBASE
  2

  9
$UCSNAME
  2

  9
$UCSORG
 10
0.0
 20
0.0
 30
0.0
  9
$UCSXDIR
 10
1.0
 20
0.0
 30
0.0
  9
$UCSYDIR
 10
0.0
 20
1.0
 30
0.0
  9
$UCSORTHOREF
  2

  9
$UCSORTHOVIEW
 70
     0
  9
$UCSORGTOP
 10
0.0
 20
0.0
 30
0.0
  9
$UCSORGBOTTOM
 10
0.0
 20
0.0
 30
0.0
  9
$UCSORGLEFT
 10
0.0
 20
0.0
 30
0.0
  9
$UCSORGRIGHT
 10
0.0
 20
0.0
 30
0.0
  9
$UCSORGFRONT
 10
0.0
 20
0.0
 30
0.0
  9
$UCSORGBACK
 10
0.0
 20
0.0
 30
0.0
  9
$PUCSBASE
  2

  9
$PUCSNAME
  2

  9
$PUCSORG
 10
0.0
 20
0.0
 30
0.0
  9
$PUCSXDIR
 10
1.0
 20
0.0
 30
0.0
  9
$PUCSYDIR
 10
0.0
 20
1.0
 30
0.0
  9
$PUCSORTHOREF
  2

  9
$PUCSORTHOVIEW
 70
     0
  9
$PUCSORGTOP
 10
0.0
 20
0.0
 30
0.0
  9
$PUCSORGBOTTOM
 10
0.0
 20
0.0
 30
0.0
  9
$PUCSORGLEFT
 10
0.0
 20
0.0
 30
0.0
  9
$PUCSORGRIGHT
 10
0.0
 20
0.0
 30
0.0
  9
$PUCSORGFRONT
 10
0.0
 20
0.0
 30
0.0
  9
$PUCSORGBACK
 10
0.0
 20
0.0
 30
0.0
  9
$USERI1
 70
     0
  9
$USERI2
 70
     0
  9
$USERI3
 70
     0
  9
$USERI4
 70
     0
  9
$USERI5
 70
     0
  9
$USERR1
 40
0.0
  9
$USERR2
 40
0.0
  9
$USERR3
 40
0.0
  9
$USERR4
 40
0.0
  9
$USERR5
 40
0.0
  9
$WORLDVIEW
 70
     1
  9
$SHADEDGE
 70
     3
  9
$SHADEDIF
 70
    70
  9
$TILEMODE
 70
     1
  9
$MAXACTVP
 70
    64
  9
$PINSBASE
 10
0.0
 20
0.0
 30
0.0
  9
$PLIMCHECK
 70
     0
  9
$PEXTMIN
 10
1.0000000000E+20
 20
1.0000000000E+20
 30
1.0000000000E+20
  9
$PEXTMAX
 10
-1.0000000000E+20
 20
-1.0000000000E+20
 30
-1.0000000000E+20
  9
$PLIMMIN
 10
0.0
 20
0.0
  9
$PLIMMAX
 10
420.0
 20
297.0
  9
$UNITMODE
 70
     0
  9
$VISRETAIN
 70
     1
  9
$PLINEGEN
 70
     0
  9
$PSLTSCALE
 70
     1
  9
$TREEDEPTH
 70
  3020
  9
$CMLSTYLE
  2
Standard
  9
$CMLJUST
 70
     0
  9
$CMLSCALE
 40
20.0
  9
$PROXYGRAPHICS
 70
     1
  9
$MEASUREMENT
 70
     1
  9
$CELWEIGHT
370
    -1
  9
$ENDCAPS
280
     0
  9
$JOINSTYLE
280
     0
  9
$LWDISPLAY
290
     1
  9
$INSUNITS
 70
     4
  9
$HYPERLINKBASE
  1

  9
$STYLESHEET
  1

  9
$XEDIT
290
     1
  9
$CEPSNTYPE
380
     0
  9
$PSTYLEMODE
290
     1
  9
$FINGERPRINTGUID
  2
{14880A8D-4139-4F87-BF72-DB8CFBA83BF3}
  9
$VERSIONGUID
  2
{FAEB1C32-E019-11D5-929B-00C0DF256EC4}
  9
$EXTNAMES
290
     1
  9
$PSVPSCALE
 40
0.0
  9
$OLESTARTUP
290
     0
  0
ENDSEC
  0
SECTION
  2
CLASSES
  0
CLASS
  1
ACDBDICTIONARYWDFLT
  2
AcDbDictionaryWithDefault
  3
ObjectDBX Classes
 90
        0
280
     0
281
     0
  0
CLASS
  1
VISUALSTYLE
  2
AcDbVisualStyle
  3
ObjectDBX Classes
 90
     4095
280
     0
281
     0
  0
CLASS
  1
MATERIAL
  2
AcDbMaterial
  3
ObjectDBX Classes
 90
     1153
280
     0
281
     0
  0
CLASS
  1
ACDBPLACEHOLDER
  2
AcDbPlaceHolder
  3
ObjectDBX Classes
 90
        0
280
     0
281
     0
  0
CLASS
  1
LAYOUT
  2
AcDbLayout
  3
ObjectDBX Classes
 90
        0
280
     0
281
     0
  0
ENDSEC
  0
SECTION
  2
TABLES
  0
TABLE
  2
VPORT
  5
8
330
0
100
AcDbSymbolTable
 70
     1
  0
VPORT
  5
29
330
8
100
AcDbSymbolTableRecord
100
AcDbViewportTableRecord
  2
*Active
 70
     0
 10
0.0
 20
0.0
 11
1.0
 21
1.0
 12
610.0
 22
305.0
 13
0.0
 23
0.0
 14
10.0
 24
10.0
 15
10.0
 25
10.0
 16
0.0
 26
0.0
 36
1.0
 17
0.0
 27
0.0
 37
0.0
 40
610.0
 41
2.0
 42
50.0
 43
0.0
 44
0.0
 50
0.0
 51
0.0
 71
     0
 72
  2000
 73
     1
 74
     3
 75
     0
 76
     0
 77
     0
 78
     0
281
     0
 65
     1
110
0.0
120
0.0
130
0.0
111
1.0
121
0.0
131
0.0
112
0.0
122
1.0
132
0.0
 79
     0
146
0.0
  0
ENDTAB
  0
TABLE
  2
LTYPE
  5
5
330
0
100
AcDbSymbolTable
 70
     6
  0
LTYPE
  5
14
330
5
100
AcDbSymbolTableRecord
100
AcDbLinetypeTableRecord
  2
ByBlock
 70
     0
  3

 72
    65
 73
     0
 40
0.0
  0
LTYPE
  5
15
330
5
100
AcDbSymbolTableRecord
100
AcDbLinetypeTableRecord
  2
ByLayer
 70
     0
  3

 72
    65
 73
     0
 40
0.0
  0
LTYPE
  5
16
330
5
100
AcDbSymbolTableRecord
100
AcDbLinetypeTableRecord
  2
Continuous
 70
     0
  3
Solid line
 72
    65
 73
     0
 40
0.0
  0
LTYPE
  5
3F
330
5
100
AcDbSymbolTableRecord
100
AcDbLinetypeTableRecord
  2
HIDDEN
 70
     0
  3
Hidden __ __ __ __ __ __ __ __ __ __ __ __ __ __
 72
    65
 73
     2
 40
1.905
 49
1.27
 74
     0
 49
-0.635
 74
     0
  0
LTYPE
  5
40
330
5
100
AcDbSymbolTableRecord
100
AcDbLinetypeTableRecord
  2
PHANTOM
 70
     0
  3
Phantom ______  __  __  ______  __  __  ______
 72
    65
 73
     6
 40
12.7
 49
6.35
 74
     0
 49
-1.27
 74
     0
 49
1.27
 74
     0
 49
-1.27
 74
     0
 49
1.27
 74
     0
 49
-1.27
 74
     0
  0
LTYPE
  5
41
330
5
100
AcDbSymbolTableRecord
100
AcDbLinetypeTableRecord
  2
CENTER
 70
     0
  3
Center ____ _ ____ _ ____ _ ____ _ ____ _ ____
 72
    65
 73
     4
 40
10.16
 49
6.35
 74
     0
 49
-1.27
 74
     0
 49
1.27
 74
     0
 49
-1.27
 74
     0
  0
LTYPE
  5
42
330
5
100
AcDbSymbolTableRecord
100
AcDbLinetypeTableRecord
  2
CENTERX2
 70
     0
  3
Center (2x) ________  __  ________  __  _____
 72
    65
 73
     4
 40
20.32
 49
12.7
 74
     0
 49
-2.54
 74
     0
 49
2.54
 74
     0
 49
-2.54
 74
     0
  0
LTYPE
  5
43
330
5
100
AcDbSymbolTableRecord
100
AcDbLinetypeTableRecord
  2
DOT2
 70
     0
  3
Dot (.5x) ........................................
 72
    65
 73
     2
 40
0.635
 49
0.0
 74
     0
 49
-0.635
 74
     0
  0
ENDTAB
  0
TABLE
  2
LAYER
  5
2
330
0
100
AcDbSymbolTable
 70
     1
  0
LAYER
  5
10
330
2
100
AcDbSymbolTableRecord
100
AcDbLayerTableRecord
  2
0
 70
     0
 62
     7
  6
Continuous
370
    -3
390
F
  0
ENDTAB
  0
TABLE
  2
STYLE
  5
3
330
0
100
AcDbSymbolTable
 70
     1
  0
STYLE
  5
11
330
3
100
AcDbSymbolTableRecord
100
AcDbTextStyleTableRecord
  2
Standard
 70
     0
 40
0.0
 41
1.0
 50
0.0
 71
     0
 42
3.175
  3
txt
  4

  0
ENDTAB
  0
TABLE
  2
VIEW
  5
6
330
0
100
AcDbSymbolTable
 70
     0
  0
ENDTAB
  0
TABLE
  2
UCS
  5
7
330
0
100
AcDbSymbolTable
 70
     0
  0
ENDTAB
  0
TABLE
  2
APPID
  5
9
330
0
100
AcDbSymbolTable
 70
     1
  0
APPID
  5
12
330
9
100
AcDbSymbolTableRecord
100
AcDbRegAppTableRecord
  2
ACAD
 70
     0
  0
ENDTAB
  0
TABLE
  2
DIMSTYLE
  5
A
330
0
100
AcDbSymbolTable
 70
     1
100
AcDbDimStyleTable
  0
DIMSTYLE
105
27
330
A
100
AcDbSymbolTableRecord
100
AcDbDimStyleTableRecord
  2
ISO-25
 70
     0
 41
2.5
 42
0.625
 43
3.75
 44
1.25
 73
     0
 74
     0
 77
     1
 78
     8
140
2.5
141
2.5
143
0.0393700787
147
0.625
171
     3
172
     1
178
     0
271
     2
272
     2
274
     3
278
    44
283
     0
284
     8
340
11
  0
ENDTAB
  0
TABLE
  2
BLOCK_RECORD
  5
1
330
0
100
AcDbSymbolTable
 70
     1
  0
BLOCK_RECORD
  5
1F
330
1
100
AcDbSymbolTableRecord
100
AcDbBlockTableRecord
  2
*Model_Space
340
22
  0
BLOCK_RECORD
  5
1B
330
1
100
AcDbSymbolTableRecord
100
AcDbBlockTableRecord
  2
*Paper_Space
340
1E
  0
BLOCK_RECORD
  5
23
330
1
100
AcDbSymbolTableRecord
100
AcDbBlockTableRecord
  2
*Paper_Space0
340
26
  0
ENDTAB
  0
ENDSEC
  0
SECTION
  2
BLOCKS
  0
BLOCK
  5
20
330
1F
100
AcDbEntity
  8
0
100
AcDbBlockBegin
  2
*Model_Space
 70
     0
 10
0.0
 20
0.0
 30
0.0
  3
*Model_Space
  1

  0
ENDBLK
  5
21
330
1F
100
AcDbEntity
  8
0
100
AcDbBlockEnd
  0
BLOCK
  5
1C
330
1B
100
AcDbEntity
 67
     1
  8
0
100
AcDbBlockBegin
  2
*Paper_Space
 70
     0
 10
0.0
 20
0.0
 30
0.0
  3
*Paper_Space
  1

  0
ENDBLK
  5
1D
330
1B
100
AcDbEntity
 67
     1
  8
0
100
AcDbBlockEnd
  0
BLOCK
  5
24
330
23
100
AcDbEntity
  8
0
100
AcDbBlockBegin
  2
*Paper_Space0
 70
     0
 10
0.0
 20
0.0
 30
0.0
  3
*Paper_Space0
  1

  0
ENDBLK
  5
25
330
23
100
AcDbEntity
  8
0
100
AcDbBlockEnd
  0
ENDSEC
  0
SECTION
  2
ENTITIES
  0
CIRCLE
  5
44
330
1F
100
AcDbEntity
  8
0
  6
Continuous
 62
     7
370
    15
100
AcDbCircle
 10
59.9604488789
 20
274.2120447855
 30
0.0
 40
1.599999999999987
  0
LINE
  5
45
330
1F
100
AcDbEntity
  8
0
  6
Continuous
 62
     7
370
    15
100
AcDbLine
 10
81.2804524361
 20
253.5370451283
 30
0.0
 11
87.6804415642
 21
253.5370451283
 31
0.0
  0
LINE
  5
46
330
1F
100
AcDbEntity
  8
0
  6
Continuous
 62
     7
370
    15
100
AcDbLine
 10
87.6804415642
 20
253.5370451283
 30
0.0
 11
87.6804415642
 21
259.7370439094
 31
0.0
  0
LINE
  5
47
330
1F
100
AcDbEntity
  8
0
  6
Continuous
 62
     7
370
    15
100
AcDbLine
 10
87.6804415642
 20
259.7370439094
 30
0.0
 11
81.2804524361
 21
259.7370439094
 31
0.0
  0
LINE
  5
48
330
1F
100
AcDbEntity
  8
0
  6
Continuous
 62
     7
370
    15
100
AcDbLine
 10
81.2804524361
 20
259.7370439094
 30
0.0
 11
81.2804524361
 21
253.5370451283
 31
0.0
  0
LINE
  5
49
330
1F
100
AcDbEntity
  8
0
  6
Continuous
 62
     7
370
    15
100
AcDbLine
 10
87.6804415642
 20
238.5370445322
 30
0.0
 11
81.2804524361
 21
238.5370445322
 31
0.0
  0
LINE
  5
4A
330
1F
100
AcDbEntity
  8
0
  6
Continuous
 62
     7
370
    15
100
AcDbLine
 10
81.2804524361
 20
238.5370445322
 30
0.0
 11
81.2804524361
 21
232.3370448198
 31
0.0
  0
LINE
  5
4B
330
1F
100
AcDbEntity
  8
0
  6
Continuous
 62
     7
370
    15
100
AcDbLine
 10
81.2804524361
 20
232.3370448198
 30
0.0
 11
87.6804415642
 21
232.3370448198
 31
0.0
  0
LINE
  5
4C
330
1F
100
AcDbEntity
  8
0
  6
Continuous
 62
     7
370
    15
100
AcDbLine
 10
87.6804415642
 20
232.3370448198
 30
0.0
 11
87.6804415642
 21
238.5370445322
 31
0.0
  0
LINE
  5
4D
330
1F
100
AcDbEntity
  8
0
  6
Continuous
 62
     7
370
    15
100
AcDbLine
 10
38.6404518544
 20
232.3370448198
 30
0.0
 11
38.6404518544
 21
238.5370445322
 31
0.0
  0
LINE
  5
4E
330
1F
100
AcDbEntity
  8
0
  6
Continuous
 62
     7
370
    15
100
AcDbLine
 10
38.6404518544
 20
238.5370445322
 30
0.0
 11
32.2404478251
 21
238.5370445322
 31
0.0
  0
LINE
  5
4F
330
1F
100
AcDbEntity
  8
0
  6
Continuous
 62
     7
370
    15
100
AcDbLine
 10
32.2404478251
 20
238.5370445322
 30
0.0
 11
32.2404478251
 21
232.3370448198
 31
0.0
  0
LINE
  5
50
330
1F
100
AcDbEntity
  8
0
  6
Continuous
 62
     7
370
    15
100
AcDbLine
 10
32.2404478251
 20
232.3370448198
 30
0.0
 11
38.6404518544
 21
232.3370448198
 31
0.0
  0
LINE
  5
51
330
1F
100
AcDbEntity
  8
0
  6
Continuous
 62
     7
370
    15
100
AcDbLine
 10
38.6404518544
 20
253.5370451283
 30
0.0
 11
38.6404518544
 21
259.7370439094
 31
0.0
  0
LINE
  5
52
330
1F
100
AcDbEntity
  8
0
  6
Continuous
 62
     7
370
    15
100
AcDbLine
 10
38.6404518544
 20
259.7370439094
 30
0.0
 11
32.2404478251
 21
259.7370439094
 31
0.0
  0
LINE
  5
53
330
1F
100
AcDbEntity
  8
0
  6
Continuous
 62
     7
370
    15
100
AcDbLine
 10
32.2404478251
 20
259.7370439094
 30
0.0
 11
32.2404478251
 21
253.5370451283
 31
0.0
  0
LINE
  5
54
330
1F
100
AcDbEntity
  8
0
  6
Continuous
 62
     7
370
    15
100
AcDbLine
 10
32.2404478251
 20
253.5370451283
 30
0.0
 11
38.6404518544
 21
253.5370451283
 31
0.0
  0
LINE
  5
55
330
1F
100
AcDbEntity
  8
0
  6
Continuous
 62
     7
370
    15
100
AcDbLine
 10
67.4604449927
 20
277.4120450836
 30
0.0
 11
67.4604449927
 21
271.0120447796
 31
0.0
  0
LINE
  5
56
330
1F
100
AcDbEntity
  8
0
  6
Continuous
 62
     7
370
    15
100
AcDbLine
 10
67.4604449927
 20
271.0120447796
 30
0.0
 11
73.6604456364
 21
271.0120447796
 31
0.0
  0
LINE
  5
57
330
1F
100
AcDbEntity
  8
0
  6
Continuous
 62
     7
370
    15
100
AcDbLine
 10
73.6604456364
 20
271.0120447796
 30
0.0
 11
73.6604456364
 21
277.4120450836
 31
0.0
  0
LINE
  5
58
330
1F
100
AcDbEntity
  8
0
  6
Continuous
 62
     7
370
    15
100
AcDbLine
 10
73.6604456364
 20
277.4120450836
 30
0.0
 11
67.4604449927
 21
277.4120450836
 31
0.0
  0
LINE
  5
59
330
1F
100
AcDbEntity
  8
0
  6
Continuous
 62
     7
370
    15
100
AcDbLine
 10
46.2604437529
 20
277.4120450836
 30
0.0
 11
46.2604437529
 21
271.0120447796
 31
0.0
  0
LINE
  5
5A
330
1F
100
AcDbEntity
  8
0
  6
Continuous
 62
     7
370
    15
100
AcDbLine
 10
46.2604437529
 20
271.0120447796
 30
0.0
 11
52.4604443966
 21
271.0120447796
 31
0.0
  0
LINE
  5
5B
330
1F
100
AcDbEntity
  8
0
  6
Continuous
 62
     7
370
    15
100
AcDbLine
 10
52.4604443966
 20
271.0120447796
 30
0.0
 11
52.4604443966
 21
277.4120450836
 31
0.0
  0
LINE
  5
5C
330
1F
100
AcDbEntity
  8
0
  6
Continuous
 62
     7
370
    15
100
AcDbLine
 10
52.4604443966
 20
277.4120450836
 30
0.0
 11
46.2604437529
 21
277.4120450836
 31
0.0
  0
CIRCLE
  5
5D
330
1F
100
AcDbEntity
  8
0
  6
Continuous
 62
     7
370
    15
100
AcDbCircle
 10
105.0854488789
 20
566.0370447855
 30
0.0
 40
1.599999999999994
  0
CIRCLE
  5
5E
330
1F
100
AcDbEntity
  8
0
  6
Continuous
 62
     7
370
    15
100
AcDbCircle
 10
105.0854488789
 20
406.0370447855
 30
0.0
 40
1.599999999999994
  0
LINE
  5
5F
330
1F
100
AcDbEntity
  8
0
  6
Continuous
 62
     7
370
    15
100
AcDbLine
 10
386.2604473292
 20
229.0370448377
 30
0.0
 11
394.2604486405
 21
229.0370448377
 31
0.0
  0
ARC
  5
60
330
1F
100
AcDbEntity
  8
0
  6
Continuous
 62
     7
370
    15
100
AcDbCircle
 10
394.2604488789
 20
233.0370447855
 30
0.0
 40
4.000000000000028
100
AcDbArc
 50
270.0
 51
90.0
  0
LINE
  5
61
330
1F
100
AcDbEntity
  8
0
  6
Continuous
 62
     7
370
    15
100
AcDbLine
 10
394.2604486405
 20
237.0370452177
 30
0.0
 11
386.2604473292
 21
237.0370452177
 31
0.0
  0
ARC
  5
62
330
1F
100
AcDbEntity
  8
0
  6
Continuous
 62
     7
370
    15
100
AcDbCircle
 10
386.2604488789
 20
233.0370447855
 30
0.0
 40
4.000000000000028
100
AcDbArc
 50
90.0
 51
270.0
  0
LINE
  5
63
330
1F
100
AcDbEntity
  8
0
  6
Continuous
 62
     7
370
    15
100
AcDbLine
 10
144.2604486405
 20
241.0370440107
 30
0.0
 11
144.2604486405
 21
254.0370442789
 31
0.0
  0
ARC
  5
64
330
1F
100
AcDbEntity
  8
0
  6
Continuous
 62
     7
370
    15
100
AcDbCircle
 10
140.2604488789
 20
265.3507532845
 30
0.0
 40
12.00000000000009
100
AcDbArc
 50
289.4712206345
 51
338.93199903
  0
LINE
  5
65
330
1F
100
AcDbEntity
  8
0
  6
Continuous
 62
     7
370
    15
100
AcDbLine
 10
151.4583055436
 20
261.0370435637
 30
0.0
 11
195.2604495495
 21
261.0370435637
 31
0.0
  0
LINE
  5
66
330
1F
100
AcDbEntity
  8
0
  6
Continuous
 62
     7
370
    15
100
AcDbLine
 10
195.2604495495
 20
261.0370435637
 30
0.0
 11
217.2604484989
 21
239.0370455455
 31
0.0
  0
LINE
  5
67
330
1F
100
AcDbEntity
  8
0
  6
Continuous
 62
     7
370
    15
100
AcDbLine
 10
217.2604484989
 20
239.0370455455
 30
0.0
 11
233.2604492589
 21
239.0370455455
 31
0.0
  0
LINE
  5
68
330
1F
100
AcDbEntity
  8
0
  6
Continuous
 62
     7
370
    15
100
AcDbLine
 10
233.2604492589
 20
239.0370455455
 30
0.0
 11
255.2604482084
 21
261.0370435637
 31
0.0
  0
LINE
  5
69
330
1F
100
AcDbEntity
  8
0
  6
Continuous
 62
     7
370
    15
100
AcDbLine
 10
255.2604482084
 20
261.0370435637
 30
0.0
 11
299.0625922143
 21
261.0370435637
 31
0.0
  0
ARC
  5
6A
330
1F
100
AcDbEntity
  8
0
  6
Continuous
 62
     7
370
    15
100
AcDbCircle
 10
310.2604488789
 20
265.3507532845
 30
0.0
 40
12.00000000000002
100
AcDbArc
 50
201.06800097
 51
250.5287793655
  0
LINE
  5
6B
330
1F
100
AcDbEntity
  8
0
  6
Continuous
 62
     7
370
    15
100
AcDbLine
 10
306.2604491173
 20
254.0370442789
 30
0.0
 11
306.2604491173
 21
241.0370440107
 31
0.0
  0
ARC
  5
6C
330
1F
100
AcDbEntity
  8
0
  6
Continuous
 62
     7
370
    15
100
AcDbCircle
 10
310.2604488789
 20
241.0370447855
 30
0.0
 40
4.0
100
AcDbArc
 50
180.0
 51
0.0
  0
LINE
  5
6D
330
1F
100
AcDbEntity
  8
0
  6
Continuous
 62
     7
370
    15
100
AcDbLine
 10
314.2604504286
 20
241.0370440107
 30
0.0
 11
314.2604504286
 21
254.0370442789
 31
0.0
  0
ARC
  5
6E
330
1F
100
AcDbEntity
  8
0
  6
Continuous
 62
     7
370
    15
100
AcDbCircle
 10
310.2604488789
 20
265.3507532845
 30
0.0
 40
12.00000000000007
100
AcDbArc
 50
289.4712206345
 51
0.0
  0
LINE
  5
6F
330
1F
100
AcDbEntity
  8
0
  6
Continuous
 62
     7
370
    15
100
AcDbLine
 10
322.2604517399
 20
265.3507546406
 30
0.0
 11
322.2604517399
 21
268.0370465737
 31
0.0
  0
LINE
  5
70
330
1F
100
AcDbEntity
  8
0
  6
Continuous
 62
     7
370
    15
100
AcDbLine
 10
322.2604517399
 20
268.0370465737
 30
0.0
 11
332.2604496538
 21
268.0370465737
 31
0.0
  0
ARC
  5
71
330
1F
100
AcDbEntity
  8
0
  6
Continuous
 62
     7
370
    15
100
AcDbCircle
 10
332.2604488789
 20
276.0370447855
 30
0.0
 40
8.0
100
AcDbArc
 50
270.0
 51
0.0
  0
LINE
  5
72
330
1F
100
AcDbEntity
  8
0
  6
Continuous
 62
     7
370
    15
100
AcDbLine
 10
340.2604509651
 20
276.0370441597
 30
0.0
 11
340.2604509651
 21
533.0370471697
 31
0.0
  0
ARC
  5
73
330
1F
100
AcDbEntity
  8
0
  6
Continuous
 62
     7
370
    15
100
AcDbCircle
 10
332.2604488789
 20
533.0370447855
 30
0.0
 40
8.0
100
AcDbArc
 50
0.0
 51
90.0
  0
LINE
  5
74
330
1F
100
AcDbEntity
  8
0
  6
Continuous
 62
     7
370
    15
100
AcDbLine
 10
332.2604496538
 20
541.0370335799
 30
0.0
 11
118.2604481041
 21
541.0370335799
 31
0.0
  0
ARC
  5
75
330
1F
100
AcDbEntity
  8
0
  6
Continuous
 62
     7
370
    15
100
AcDbCircle
 10
118.2604488789
 20
533.0370447855
 30
0.0
 40
8.0
100
AcDbArc
 50
90.0
 51
180.0
  0
LINE
  5
76
330
1F
100
AcDbEntity
  8
0
  6
Continuous
 62
     7
370
    15
100
AcDbLine
 10
110.2604467928
 20
533.0370471697
 30
0.0
 11
110.2604467928
 21
276.0370441597
 31
0.0
  0
ARC
  5
77
330
1F
100
AcDbEntity
  8
0
  6
Continuous
 62
     7
370
    15
100
AcDbCircle
 10
118.2604488789
 20
276.0370447855
 30
0.0
 40
8.0
100
AcDbArc
 50
180.0
 51
270.0
  0
LINE
  5
78
330
1F
100
AcDbEntity
  8
0
  6
Continuous
 62
     7
370
    15
100
AcDbLine
 10
118.2604481041
 20
268.0370465737
 30
0.0
 11
128.2604460179
 21
268.0370465737
 31
0.0
  0
LINE
  5
79
330
1F
100
AcDbEntity
  8
0
  6
Continuous
 62
     7
370
    15
100
AcDbLine
 10
128.2604460179
 20
268.0370465737
 30
0.0
 11
128.2604460179
 21
265.3507546406
 31
0.0
  0
ARC
  5
7A
330
1F
100
AcDbEntity
  8
0
  6
Continuous
 62
     7
370
    15
100
AcDbCircle
 10
140.2604488789
 20
265.3507532845
 30
0.0
 40
12.00000000000003
100
AcDbArc
 50
180.0
 51
250.5287793655
  0
LINE
  5
7B
330
1F
100
AcDbEntity
  8
0
  6
Continuous
 62
     7
370
    15
100
AcDbLine
 10
136.2604473292
 20
254.0370442789
 30
0.0
 11
136.2604473292
 21
241.0370440107
 31
0.0
  0
ARC
  5
7C
330
1F
100
AcDbEntity
  8
0
  6
Continuous
 62
     7
370
    15
100
AcDbCircle
 10
140.2604488789
 20
241.0370447855
 30
0.0
 40
4.000000000000028
100
AcDbArc
 50
180.0
 51
0.0
  0
LINE
  5
7D
330
1F
100
AcDbEntity
  8
0
  6
Continuous
 62
     7
370
    15
100
AcDbLine
 10
56.2604491173
 20
229.0370448377
 30
0.0
 11
64.2604504286
 21
229.0370448377
 31
0.0
  0
ARC
  5
7E
330
1F
100
AcDbEntity
  8
0
  6
Continuous
 62
     7
370
    15
100
AcDbCircle
 10
64.2604488789
 20
233.0370447855
 30
0.0
 40
4.000000000000028
100
AcDbArc
 50
270.0
 51
90.0
  0
LINE
  5
7F
330
1F
100
AcDbEntity
  8
0
  6
Continuous
 62
     7
370
    15
100
AcDbLine
 10
64.2604504286
 20
237.0370452177
 30
0.0
 11
56.2604491173
 21
237.0370452177
 31
0.0
  0
ARC
  5
80
330
1F
100
AcDbEntity
  8
0
  6
Continuous
 62
     7
370
    15
100
AcDbCircle
 10
56.2604488789
 20
233.0370447855
 30
0.0
 40
4.000000000000028
100
AcDbArc
 50
90.0
 51
270.0
  0
LINE
  5
81
330
1F
100
AcDbEntity
  8
0
  6
Continuous
 62
     7
370
    15
100
AcDbLine
 10
108.2854468881
 20
573.5370323878
 30
0.0
 11
108.2854468881
 21
579.7370479327
 31
0.0
  0
LINE
  5
82
330
1F
100
AcDbEntity
  8
0
  6
Continuous
 62
     7
370
    15
100
AcDbLine
 10
108.2854468881
 20
579.7370479327
 30
0.0
 11
101.8854503094
 21
579.7370479327
 31
0.0
  0
LINE
  5
83
330
1F
100
AcDbEntity
  8
0
  6
Continuous
 62
     7
370
    15
100
AcDbLine
 10
101.8854503094
 20
579.7370479327
 30
0.0
 11
101.8854503094
 21
573.5370323878
 31
0.0
  0
LINE
  5
84
330
1F
100
AcDbEntity
  8
0
  6
Continuous
 62
     7
370
    15
100
AcDbLine
 10
101.8854503094
 20
573.5370323878
 30
0.0
 11
108.2854468881
 21
573.5370323878
 31
0.0
  0
LINE
  5
85
330
1F
100
AcDbEntity
  8
0
  6
Continuous
 62
     7
370
    15
100
AcDbLine
 10
101.8854503094
 20
552.337031148
 30
0.0
 11
108.2854468881
 21
552.337031148
 31
0.0
  0
LINE
  5
86
330
1F
100
AcDbEntity
  8
0
  6
Continuous
 62
     7
370
    15
100
AcDbLine
 10
108.2854468881
 20
552.337031148
 30
0.0
 11
108.2854468881
 21
558.5370466929
 31
0.0
  0
LINE
  5
87
330
1F
100
AcDbEntity
  8
0
  6
Continuous
 62
     7
370
    15
100
AcDbLine
 10
108.2854468881
 20
558.5370466929
 30
0.0
 11
101.8854503094
 21
558.5370466929
 31
0.0
  0
LINE
  5
88
330
1F
100
AcDbEntity
  8
0
  6
Continuous
 62
     7
370
    15
100
AcDbLine
 10
101.8854503094
 20
558.5370466929
 30
0.0
 11
101.8854503094
 21
552.337031148
 31
0.0
  0
LINE
  5
89
330
1F
100
AcDbEntity
  8
0
  6
Continuous
 62
     7
370
    15
100
AcDbLine
 10
108.2854468881
 20
253.5370451283
 30
0.0
 11
108.2854468881
 21
259.7370439094
 31
0.0
  0
LINE
  5
8A
330
1F
100
AcDbEntity
  8
0
  6
Continuous
 62
     7
370
    15
100
AcDbLine
 10
108.2854468881
 20
259.7370439094
 30
0.0
 11
101.8854503094
 21
259.7370439094
 31
0.0
  0
LINE
  5
8B
330
1F
100
AcDbEntity
  8
0
  6
Continuous
 62
     7
370
    15
100
AcDbLine
 10
101.8854503094
 20
259.7370439094
 30
0.0
 11
101.8854503094
 21
253.5370451283
 31
0.0
  0
LINE
  5
8C
330
1F
100
AcDbEntity
  8
0
  6
Continuous
 62
     7
370
    15
100
AcDbLine
 10
101.8854503094
 20
253.5370451283
 30
0.0
 11
108.2854468881
 21
253.5370451283
 31
0.0
  0
LINE
  5
8D
330
1F
100
AcDbEntity
  8
0
  6
Continuous
 62
     7
370
    15
100
AcDbLine
 10
108.2854468881
 20
238.5370445322
 30
0.0
 11
101.8854503094
 21
238.5370445322
 31
0.0
  0
LINE
  5
8E
330
1F
100
AcDbEntity
  8
0
  6
Continuous
 62
     7
370
    15
100
AcDbLine
 10
101.8854503094
 20
238.5370445322
 30
0.0
 11
101.8854503094
 21
232.3370448198
 31
0.0
  0
LINE
  5
8F
330
1F
100
AcDbEntity
  8
0
  6
Continuous
 62
     7
370
    15
100
AcDbLine
 10
101.8854503094
 20
232.3370448198
 30
0.0
 11
108.2854468881
 21
232.3370448198
 31
0.0
  0
LINE
  5
90
330
1F
100
AcDbEntity
  8
0
  6
Continuous
 62
     7
370
    15
100
AcDbLine
 10
108.2854468881
 20
232.3370448198
 30
0.0
 11
108.2854468881
 21
238.5370445322
 31
0.0
  0
LINE
  5
91
330
1F
100
AcDbEntity
  8
0
  6
Continuous
 62
     7
370
    15
100
AcDbLine
 10
108.2854468881
 20
413.5370508652
 30
0.0
 11
108.2854468881
 21
419.7370515089
 31
0.0
  0
LINE
  5
92
330
1F
100
AcDbEntity
  8
0
  6
Continuous
 62
     7
370
    15
100
AcDbLine
 10
108.2854468881
 20
419.7370515089
 30
0.0
 11
101.8854503094
 21
419.7370515089
 31
0.0
  0
LINE
  5
93
330
1F
100
AcDbEntity
  8
0
  6
Continuous
 62
     7
370
    15
100
AcDbLine
 10
101.8854503094
 20
419.7370515089
 30
0.0
 11
101.8854503094
 21
413.5370508652
 31
0.0
  0
LINE
  5
94
330
1F
100
AcDbEntity
  8
0
  6
Continuous
 62
     7
370
    15
100
AcDbLine
 10
101.8854503094
 20
413.5370508652
 30
0.0
 11
108.2854468881
 21
413.5370508652
 31
0.0
  0
LINE
  5
95
330
1F
100
AcDbEntity
  8
0
  6
Continuous
 62
     7
370
    15
100
AcDbLine
 10
108.2854468881
 20
398.5370502692
 30
0.0
 11
101.8854503094
 21
398.5370502692
 31
0.0
  0
LINE
  5
96
330
1F
100
AcDbEntity
  8
0
  6
Continuous
 62
     7
370
    15
100
AcDbLine
 10
101.8854503094
 20
398.5370502692
 30
0.0
 11
101.8854503094
 21
392.3370496254
 31
0.0
  0
LINE
  5
97
330
1F
100
AcDbEntity
  8
0
  6
Continuous
 62
     7
370
    15
100
AcDbLine
 10
101.8854503094
 20
392.3370496254
 30
0.0
 11
108.2854468881
 21
392.3370496254
 31
0.0
  0
LINE
  5
98
330
1F
100
AcDbEntity
  8
0
  6
Continuous
 62
     7
370
    15
100
AcDbLine
 10
108.2854468881
 20
392.3370496254
 30
0.0
 11
108.2854468881
 21
398.5370502692
 31
0.0
  0
CIRCLE
  5
99
330
1F
100
AcDbEntity
  8
0
  6
Continuous
 62
     7
370
    15
100
AcDbCircle
 10
105.0854488789
 20
246.0370447855
 30
0.0
 40
1.599999999999994
  0
LINE
  5
9A
330
1F
100
AcDbEntity
  8
0
  6
Continuous
 62
     7
370
    15
100
AcDbLine
 10
393.2604466139
 20
223.0370447855
 30
0.0
 11
395.2604506671
 21
221.0370446906
 31
0.0
  0
LINE
  5
9B
330
1F
100
AcDbEntity
  8
0
  6
Continuous
 62
     7
370
    15
100
AcDbLine
 10
57.2604511439
 20
223.0370447855
 30
0.0
 11
393.2604466139
 21
223.0370447855
 31
0.0
  0
LINE
  5
9C
330
1F
100
AcDbEntity
  8
0
  6
Continuous
 62
     7
370
    15
100
AcDbLine
 10
55.2604470908
 20
221.0370446906
 30
0.0
 11
57.2604511439
 21
223.0370447855
 31
0.0
  0
LINE
  5
9D
330
1F
100
AcDbEntity
  8
0
  6
Continuous
 62
     7
370
    15
100
AcDbLine
 10
35.2604512631
 20
221.0370446906
 30
0.0
 11
55.2604470908
 21
221.0370446906
 31
0.0
  0
ARC
  5
9E
330
1F
100
AcDbEntity
  8
0
  6
Continuous
 62
     7
370
    15
100
AcDbCircle
 10
35.2604488789
 20
226.0370447855
 30
0.0
 40
5.000000000000004
100
AcDbArc
 50
180.0
 51
270.0
  0
LINE
  5
9F
330
1F
100
AcDbEntity
  8
0
  6
Continuous
 62
     7
370
    15
100
AcDbLine
 10
30.2604560315
 20
277.3870446604
 30
0.0
 11
30.2604560315
 21
226.0370448116
 31
0.0
  0
ARC
  5
A0
330
1F
100
AcDbEntity
  8
0
  6
Continuous
 62
     7
370
    15
100
AcDbCircle
 10
28.2604488789
 20
285.133011478
 30
0.0
 40
8.000000000000034
100
AcDbArc
 50
284.4775121859
 51
0.0
  0
LINE
  5
A1
330
1F
100
AcDbEntity
  8
0
  6
Continuous
 62
     7
370
    15
100
AcDbLine
 10
36.2604532897
 20
568.2910785895
 30
0.0
 11
36.2604532897
 21
285.1330109756
 31
0.0
  0
ARC
  5
A2
330
1F
100
AcDbEntity
  8
0
  6
Continuous
 62
     7
370
    15
100
AcDbCircle
 10
28.2604488789
 20
568.2910780931
 30
0.0
 40
8.000000000000034
100
AcDbArc
 50
0.0
 51
75.5224878141
  0
LINE
  5
A3
330
1F
100
AcDbEntity
  8
0
  6
Continuous
 62
     7
370
    15
100
AcDbLine
 10
30.2604560315
 20
591.0370455008
 30
0.0
 11
30.2604560315
 21
576.0370300036
 31
0.0
  0
LINE
  5
A4
330
1F
100
AcDbEntity
  8
0
  6
Continuous
 62
     7
370
    15
100
AcDbLine
 10
40.2604464947
 20
591.0370455008
 30
0.0
 11
30.2604560315
 21
591.0370455008
 31
0.0
  0
LINE
  5
A5
330
1F
100
AcDbEntity
  8
0
  6
Continuous
 62
     7
370
    15
100
AcDbLine
 10
40.2604464947
 20
591.0370455008
 30
0.0
 11
40.2604464947
 21
584.6370563727
 31
0.0
  0
LINE
  5
A6
330
1F
100
AcDbEntity
  8
0
  6
Continuous
 62
     7
370
    15
100
AcDbLine
 10
40.2604464947
 20
584.6370563727
 30
0.0
 11
64.5854447543
 21
584.6370563727
 31
0.0
  0
LINE
  5
A7
330
1F
100
AcDbEntity
  8
0
  6
Continuous
 62
     7
370
    15
100
AcDbLine
 10
64.5854447543
 20
578.6370442133
 30
0.0
 11
64.5854447543
 21
584.6370563727
 31
0.0
  0
LINE
  5
A8
330
1F
100
AcDbEntity
  8
0
  6
Continuous
 62
     7
370
    15
100
AcDbLine
 10
63.3354459464
 20
578.6370442133
 30
0.0
 11
64.5854447543
 21
578.6370442133
 31
0.0
  0
LINE
  5
A9
330
1F
100
AcDbEntity
  8
0
  6
Continuous
 62
     7
370
    15
100
AcDbLine
 10
63.3354459464
 20
576.6370401602
 30
0.0
 11
63.3354459464
 21
578.6370442133
 31
0.0
  0
LINE
  5
AA
330
1F
100
AcDbEntity
  8
0
  6
Continuous
 62
     7
370
    15
100
AcDbLine
 10
64.5854447543
 20
576.6370401602
 30
0.0
 11
63.3354459464
 21
576.6370401602
 31
0.0
  0
LINE
  5
AB
330
1F
100
AcDbEntity
  8
0
  6
Continuous
 62
     7
370
    15
100
AcDbLine
 10
64.5854447543
 20
573.9870474558
 30
0.0
 11
64.5854447543
 21
576.6370401602
 31
0.0
  0
LINE
  5
AC
330
1F
100
AcDbEntity
  8
0
  6
Continuous
 62
     7
370
    15
100
AcDbLine
 10
67.5854508339
 20
573.9870474558
 30
0.0
 11
64.5854447543
 21
573.9870474558
 31
0.0
  0
LINE
  5
AD
330
1F
100
AcDbEntity
  8
0
  6
Continuous
 62
     7
370
    15
100
AcDbLine
 10
67.5854508339
 20
573.9870474558
 30
0.0
 11
67.5854508339
 21
576.6370401602
 31
0.0
  0
LINE
  5
AE
330
1F
100
AcDbEntity
  8
0
  6
Continuous
 62
     7
370
    15
100
AcDbLine
 10
67.5854508339
 20
576.6370401602
 30
0.0
 11
68.8354496419
 21
576.6370401602
 31
0.0
  0
LINE
  5
AF
330
1F
100
AcDbEntity
  8
0
  6
Continuous
 62
     7
370
    15
100
AcDbLine
 10
68.8354496419
 20
576.6370401602
 30
0.0
 11
68.8354496419
 21
578.6370442133
 31
0.0
  0
LINE
  5
B0
330
1F
100
AcDbEntity
  8
0
  6
Continuous
 62
     7
370
    15
100
AcDbLine
 10
68.8354496419
 20
578.6370442133
 30
0.0
 11
67.5854508339
 21
578.6370442133
 31
0.0
  0
LINE
  5
B1
330
1F
100
AcDbEntity
  8
0
  6
Continuous
 62
     7
370
    15
100
AcDbLine
 10
67.5854508339
 20
578.6370442133
 30
0.0
 11
67.5854508339
 21
584.6370563727
 31
0.0
  0
LINE
  5
B2
330
1F
100
AcDbEntity
  8
0
  6
Continuous
 62
     7
370
    15
100
AcDbLine
 10
67.5854508339
 20
584.6370563727
 30
0.0
 11
91.9104490935
 21
584.6370563727
 31
0.0
  0
LINE
  5
B3
330
1F
100
AcDbEntity
  8
0
  6
Continuous
 62
     7
370
    15
100
AcDbLine
 10
91.9104490935
 20
591.0370455008
 30
0.0
 11
91.9104490935
 21
584.6370563727
 31
0.0
  0
LINE
  5
B4
330
1F
100
AcDbEntity
  8
0
  6
Continuous
 62
     7
370
    15
100
AcDbLine
 10
358.6104486643
 20
591.0370455008
 30
0.0
 11
91.9104490935
 21
591.0370455008
 31
0.0
  0
LINE
  5
B5
330
1F
100
AcDbEntity
  8
0
  6
Continuous
 62
     7
370
    15
100
AcDbLine
 10
358.6104486643
 20
591.0370455008
 30
0.0
 11
358.6104486643
 21
584.6370563727
 31
0.0
  0
LINE
  5
B6
330
1F
100
AcDbEntity
  8
0
  6
Continuous
 62
     7
370
    15
100
AcDbLine
 10
358.6104486643
 20
584.6370563727
 30
0.0
 11
382.9354469239
 21
584.6370563727
 31
0.0
  0
LINE
  5
B7
330
1F
100
AcDbEntity
  8
0
  6
Continuous
 62
     7
370
    15
100
AcDbLine
 10
382.9354469239
 20
578.6370442133
 30
0.0
 11
382.9354469239
 21
584.6370563727
 31
0.0
  0
LINE
  5
B8
330
1F
100
AcDbEntity
  8
0
  6
Continuous
 62
     7
370
    15
100
AcDbLine
 10
381.685448116
 20
578.6370442133
 30
0.0
 11
382.9354469239
 21
578.6370442133
 31
0.0
  0
LINE
  5
B9
330
1F
100
AcDbEntity
  8
0
  6
Continuous
 62
     7
370
    15
100
AcDbLine
 10
381.685448116
 20
576.6370401602
 30
0.0
 11
381.685448116
 21
578.6370442133
 31
0.0
  0
LINE
  5
BA
330
1F
100
AcDbEntity
  8
0
  6
Continuous
 62
     7
370
    15
100
AcDbLine
 10
382.9354469239
 20
576.6370401602
 30
0.0
 11
381.685448116
 21
576.6370401602
 31
0.0
  0
LINE
  5
BB
330
1F
100
AcDbEntity
  8
0
  6
Continuous
 62
     7
370
    15
100
AcDbLine
 10
382.9354469239
 20
573.9870474558
 30
0.0
 11
382.9354469239
 21
576.6370401602
 31
0.0
  0
LINE
  5
BC
330
1F
100
AcDbEntity
  8
0
  6
Continuous
 62
     7
370
    15
100
AcDbLine
 10
382.9354469239
 20
573.9870474558
 30
0.0
 11
385.9354530036
 21
573.9870474558
 31
0.0
  0
LINE
  5
BD
330
1F
100
AcDbEntity
  8
0
  6
Continuous
 62
     7
370
    15
100
AcDbLine
 10
385.9354530036
 20
573.9870474558
 30
0.0
 11
385.9354530036
 21
576.6370401602
 31
0.0
  0
LINE
  5
BE
330
1F
100
AcDbEntity
  8
0
  6
Continuous
 62
     7
370
    15
100
AcDbLine
 10
385.9354530036
 20
576.6370401602
 30
0.0
 11
387.1854518115
 21
576.6370401602
 31
0.0
  0
LINE
  5
BF
330
1F
100
AcDbEntity
  8
0
  6
Continuous
 62
     7
370
    15
100
AcDbLine
 10
387.1854518115
 20
576.6370401602
 30
0.0
 11
387.1854518115
 21
578.6370442133
 31
0.0
  0
LINE
  5
C0
330
1F
100
AcDbEntity
  8
0
  6
Continuous
 62
     7
370
    15
100
AcDbLine
 10
387.1854518115
 20
578.6370442133
 30
0.0
 11
385.9354530036
 21
578.6370442133
 31
0.0
  0
LINE
  5
C1
330
1F
100
AcDbEntity
  8
0
  6
Continuous
 62
     7
370
    15
100
AcDbLine
 10
385.9354530036
 20
578.6370442133
 30
0.0
 11
385.9354530036
 21
584.6370563727
 31
0.0
  0
LINE
  5
C2
330
1F
100
AcDbEntity
  8
0
  6
Continuous
 62
     7
370
    15
100
AcDbLine
 10
385.9354530036
 20
584.6370563727
 30
0.0
 11
410.2604512631
 21
584.6370563727
 31
0.0
  0
LINE
  5
C3
330
1F
100
AcDbEntity
  8
0
  6
Continuous
 62
     7
370
    15
100
AcDbLine
 10
410.2604512631
 20
591.0370455008
 30
0.0
 11
410.2604512631
 21
584.6370563727
 31
0.0
  0
LINE
  5
C4
330
1F
100
AcDbEntity
  8
0
  6
Continuous
 62
     7
370
    15
100
AcDbLine
 10
420.2604417264
 20
591.0370455008
 30
0.0
 11
410.2604512631
 21
591.0370455008
 31
0.0
  0
LINE
  5
C5
330
1F
100
AcDbEntity
  8
0
  6
Continuous
 62
     7
370
    15
100
AcDbLine
 10
420.2604417264
 20
576.0370300036
 30
0.0
 11
420.2604417264
 21
591.0370455008
 31
0.0
  0
ARC
  5
C6
330
1F
100
AcDbEntity
  8
0
  6
Continuous
 62
     7
370
    15
100
AcDbCircle
 10
422.2604488789
 20
568.2910780931
 30
0.0
 40
8.0
100
AcDbArc
 50
104.4775121859
 51
180.0
  0
LINE
  5
C7
330
1F
100
AcDbEntity
  8
0
  6
Continuous
 62
     7
370
    15
100
AcDbLine
 10
414.2604444682
 20
285.1330109756
 30
0.0
 11
414.2604444682
 21
568.2910785895
 31
0.0
  0
ARC
  5
C8
330
1F
100
AcDbEntity
  8
0
  6
Continuous
 62
     7
370
    15
100
AcDbCircle
 10
422.2604488789
 20
285.133011478
 30
0.0
 40
8.000000000000032
100
AcDbArc
 50
180.0
 51
255.5224878141
  0
LINE
  5
C9
330
1F
100
AcDbEntity
  8
0
  6
Continuous
 62
     7
370
    15
100
AcDbLine
 10
420.2604417264
 20
226.0370448116
 30
0.0
 11
420.2604417264
 21
277.3870446604
 31
0.0
  0
ARC
  5
CA
330
1F
100
AcDbEntity
  8
0
  6
Continuous
 62
     7
370
    15
100
AcDbCircle
 10
415.2604488789
 20
226.0370447855
 30
0.0
 40
5.0
100
AcDbArc
 50
270.0
 51
0.0
  0
LINE
  5
CB
330
1F
100
AcDbEntity
  8
0
  6
Continuous
 62
     7
370
    15
100
AcDbLine
 10
395.2604506671
 20
221.0370446906
 30
0.0
 11
415.2604464947
 21
221.0370446906
 31
0.0
  0
CIRCLE
  5
CC
330
1F
100
AcDbEntity
  8
0
  6
Continuous
 62
     7
370
    15
100
AcDbCircle
 10
84.4804488789
 20
246.0370447855
 30
0.0
 40
1.59999999999998
  0
CIRCLE
  5
CD
330
1F
100
AcDbEntity
  8
0
  6
Continuous
 62
     7
370
    15
100
AcDbCircle
 10
35.4404488789
 20
246.0370447855
 30
0.0
 40
1.599999999999987
  0
LINE
  5
CE
330
1F
100
AcDbEntity
  8
0
  6
Continuous
 62
     7
370
    15
100
AcDbLine
 10
342.2354508697
 20
398.5370502692
 30
0.0
 11
348.6354474484
 21
398.5370502692
 31
0.0
  0
LINE
  5
CF
330
1F
100
AcDbEntity
  8
0
  6
Continuous
 62
     7
370
    15
100
AcDbLine
 10
342.2354508697
 20
392.3370496254
 30
0.0
 11
342.2354508697
 21
398.5370502692
 31
0.0
  0
LINE
  5
D0
330
1F
100
AcDbEntity
  8
0
  6
Continuous
 62
     7
370
    15
100
AcDbLine
 10
348.6354474484
 20
392.3370496254
 30
0.0
 11
342.2354508697
 21
392.3370496254
 31
0.0
  0
LINE
  5
D1
330
1F
100
AcDbEntity
  8
0
  6
Continuous
 62
     7
370
    15
100
AcDbLine
 10
348.6354474484
 20
398.5370502692
 30
0.0
 11
348.6354474484
 21
392.3370496254
 31
0.0
  0
LINE
  5
D2
330
1F
100
AcDbEntity
  8
0
  6
Continuous
 62
     7
370
    15
100
AcDbLine
 10
342.2354508697
 20
573.5370323878
 30
0.0
 11
342.2354508697
 21
579.7370479327
 31
0.0
  0
LINE
  5
D3
330
1F
100
AcDbEntity
  8
0
  6
Continuous
 62
     7
370
    15
100
AcDbLine
 10
348.6354474484
 20
573.5370323878
 30
0.0
 11
342.2354508697
 21
573.5370323878
 31
0.0
  0
LINE
  5
D4
330
1F
100
AcDbEntity
  8
0
  6
Continuous
 62
     7
370
    15
100
AcDbLine
 10
348.6354474484
 20
579.7370479327
 30
0.0
 11
348.6354474484
 21
573.5370323878
 31
0.0
  0
LINE
  5
D5
330
1F
100
AcDbEntity
  8
0
  6
Continuous
 62
     7
370
    15
100
AcDbLine
 10
342.2354508697
 20
579.7370479327
 30
0.0
 11
348.6354474484
 21
579.7370479327
 31
0.0
  0
LINE
  5
D6
330
1F
100
AcDbEntity
  8
0
  6
Continuous
 62
     7
370
    15
100
AcDbLine
 10
348.6354474484
 20
552.337031148
 30
0.0
 11
342.2354508697
 21
552.337031148
 31
0.0
  0
LINE
  5
D7
330
1F
100
AcDbEntity
  8
0
  6
Continuous
 62
     7
370
    15
100
AcDbLine
 10
348.6354474484
 20
558.5370466929
 30
0.0
 11
348.6354474484
 21
552.337031148
 31
0.0
  0
LINE
  5
D8
330
1F
100
AcDbEntity
  8
0
  6
Continuous
 62
     7
370
    15
100
AcDbLine
 10
342.2354508697
 20
558.5370466929
 30
0.0
 11
348.6354474484
 21
558.5370466929
 31
0.0
  0
LINE
  5
D9
330
1F
100
AcDbEntity
  8
0
  6
Continuous
 62
     7
370
    15
100
AcDbLine
 10
342.2354508697
 20
552.337031148
 30
0.0
 11
342.2354508697
 21
558.5370466929
 31
0.0
  0
LINE
  5
DA
330
1F
100
AcDbEntity
  8
0
  6
Continuous
 62
     7
370
    15
100
AcDbLine
 10
342.2354508697
 20
253.5370451283
 30
0.0
 11
342.2354508697
 21
259.7370439094
 31
0.0
  0
LINE
  5
DB
330
1F
100
AcDbEntity
  8
0
  6
Continuous
 62
     7
370
    15
100
AcDbLine
 10
348.6354474484
 20
253.5370451283
 30
0.0
 11
342.2354508697
 21
253.5370451283
 31
0.0
  0
LINE
  5
DC
330
1F
100
AcDbEntity
  8
0
  6
Continuous
 62
     7
370
    15
100
AcDbLine
 10
348.6354474484
 20
259.7370439094
 30
0.0
 11
348.6354474484
 21
253.5370451283
 31
0.0
  0
LINE
  5
DD
330
1F
100
AcDbEntity
  8
0
  6
Continuous
 62
     7
370
    15
100
AcDbLine
 10
342.2354508697
 20
259.7370439094
 30
0.0
 11
348.6354474484
 21
259.7370439094
 31
0.0
  0
LINE
  5
DE
330
1F
100
AcDbEntity
  8
0
  6
Continuous
 62
     7
370
    15
100
AcDbLine
 10
342.2354508697
 20
238.5370445322
 30
0.0
 11
348.6354474484
 21
238.5370445322
 31
0.0
  0
LINE
  5
DF
330
1F
100
AcDbEntity
  8
0
  6
Continuous
 62
     7
370
    15
100
AcDbLine
 10
342.2354508697
 20
232.3370448198
 30
0.0
 11
342.2354508697
 21
238.5370445322
 31
0.0
  0
LINE
  5
E0
330
1F
100
AcDbEntity
  8
0
  6
Continuous
 62
     7
370
    15
100
AcDbLine
 10
348.6354474484
 20
232.3370448198
 30
0.0
 11
342.2354508697
 21
232.3370448198
 31
0.0
  0
LINE
  5
E1
330
1F
100
AcDbEntity
  8
0
  6
Continuous
 62
     7
370
    15
100
AcDbLine
 10
348.6354474484
 20
238.5370445322
 30
0.0
 11
348.6354474484
 21
232.3370448198
 31
0.0
  0
LINE
  5
E2
330
1F
100
AcDbEntity
  8
0
  6
Continuous
 62
     7
370
    15
100
AcDbLine
 10
342.2354508697
 20
413.5370508652
 30
0.0
 11
342.2354508697
 21
419.7370515089
 31
0.0
  0
LINE
  5
E3
330
1F
100
AcDbEntity
  8
0
  6
Continuous
 62
     7
370
    15
100
AcDbLine
 10
348.6354474484
 20
413.5370508652
 30
0.0
 11
342.2354508697
 21
413.5370508652
 31
0.0
  0
LINE
  5
E4
330
1F
100
AcDbEntity
  8
0
  6
Continuous
 62
     7
370
    15
100
AcDbLine
 10
348.6354474484
 20
419.7370515089
 30
0.0
 11
348.6354474484
 21
413.5370508652
 31
0.0
  0
LINE
  5
E5
330
1F
100
AcDbEntity
  8
0
  6
Continuous
 62
     7
370
    15
100
AcDbLine
 10
342.2354508697
 20
419.7370515089
 30
0.0
 11
348.6354474484
 21
419.7370515089
 31
0.0
  0
CIRCLE
  5
E6
330
1F
100
AcDbEntity
  8
0
  6
Continuous
 62
     7
370
    15
100
AcDbCircle
 10
345.4354488789
 20
566.0370447855
 30
0.0
 40
1.600000000000023
  0
CIRCLE
  5
E7
330
1F
100
AcDbEntity
  8
0
  6
Continuous
 62
     7
370
    15
100
AcDbCircle
 10
345.4354488789
 20
246.0370447855
 30
0.0
 40
1.600000000000023
  0
CIRCLE
  5
E8
330
1F
100
AcDbEntity
  8
0
  6
Continuous
 62
     7
370
    15
100
AcDbCircle
 10
345.4354488789
 20
406.0370447855
 30
0.0
 40
1.600000000000023
  0
LINE
  5
E9
330
1F
100
AcDbEntity
  8
0
  6
Continuous
 62
     7
370
    15
100
AcDbLine
 10
383.0604527651
 20
277.4120450836
 30
0.0
 11
383.0604527651
 21
271.0120447796
 31
0.0
  0
LINE
  5
EA
330
1F
100
AcDbEntity
  8
0
  6
Continuous
 62
     7
370
    15
100
AcDbLine
 10
376.8604521214
 20
277.4120450836
 30
0.0
 11
383.0604527651
 21
277.4120450836
 31
0.0
  0
LINE
  5
EB
330
1F
100
AcDbEntity
  8
0
  6
Continuous
 62
     7
370
    15
100
AcDbLine
 10
376.8604521214
 20
271.0120447796
 30
0.0
 11
376.8604521214
 21
277.4120450836
 31
0.0
  0
LINE
  5
EC
330
1F
100
AcDbEntity
  8
0
  6
Continuous
 62
     7
370
    15
100
AcDbLine
 10
383.0604527651
 20
271.0120447796
 30
0.0
 11
376.8604521214
 21
271.0120447796
 31
0.0
  0
LINE
  5
ED
330
1F
100
AcDbEntity
  8
0
  6
Continuous
 62
     7
370
    15
100
AcDbLine
 10
404.2604540049
 20
277.4120450836
 30
0.0
 11
404.2604540049
 21
271.0120447796
 31
0.0
  0
LINE
  5
EE
330
1F
100
AcDbEntity
  8
0
  6
Continuous
 62
     7
370
    15
100
AcDbLine
 10
398.0604533612
 20
277.4120450836
 30
0.0
 11
404.2604540049
 21
277.4120450836
 31
0.0
  0
LINE
  5
EF
330
1F
100
AcDbEntity
  8
0
  6
Continuous
 62
     7
370
    15
100
AcDbLine
 10
398.0604533612
 20
271.0120447796
 30
0.0
 11
398.0604533612
 21
277.4120450836
 31
0.0
  0
LINE
  5
F0
330
1F
100
AcDbEntity
  8
0
  6
Continuous
 62
     7
370
    15
100
AcDbLine
 10
404.2604540049
 20
271.0120447796
 30
0.0
 11
398.0604533612
 21
271.0120447796
 31
0.0
  0
LINE
  5
F1
330
1F
100
AcDbEntity
  8
0
  6
Continuous
 62
     7
370
    15
100
AcDbLine
 10
369.2404453217
 20
253.5370451283
 30
0.0
 11
362.8404561936
 21
253.5370451283
 31
0.0
  0
LINE
  5
F2
330
1F
100
AcDbEntity
  8
0
  6
Continuous
 62
     7
370
    15
100
AcDbLine
 10
369.2404453217
 20
259.7370439094
 30
0.0
 11
369.2404453217
 21
253.5370451283
 31
0.0
  0
LINE
  5
F3
330
1F
100
AcDbEntity
  8
0
  6
Continuous
 62
     7
370
    15
100
AcDbLine
 10
362.8404561936
 20
259.7370439094
 30
0.0
 11
369.2404453217
 21
259.7370439094
 31
0.0
  0
LINE
  5
F4
330
1F
100
AcDbEntity
  8
0
  6
Continuous
 62
     7
370
    15
100
AcDbLine
 10
362.8404561936
 20
253.5370451283
 30
0.0
 11
362.8404561936
 21
259.7370439094
 31
0.0
  0
LINE
  5
F5
330
1F
100
AcDbEntity
  8
0
  6
Continuous
 62
     7
370
    15
100
AcDbLine
 10
411.8804459034
 20
253.5370451283
 30
0.0
 11
411.8804459034
 21
259.7370439094
 31
0.0
  0
LINE
  5
F6
330
1F
100
AcDbEntity
  8
0
  6
Continuous
 62
     7
370
    15
100
AcDbLine
 10
418.2804499327
 20
253.5370451283
 30
0.0
 11
411.8804459034
 21
253.5370451283
 31
0.0
  0
LINE
  5
F7
330
1F
100
AcDbEntity
  8
0
  6
Continuous
 62
     7
370
    15
100
AcDbLine
 10
418.2804499327
 20
259.7370439094
 30
0.0
 11
418.2804499327
 21
253.5370451283
 31
0.0
  0
LINE
  5
F8
330
1F
100
AcDbEntity
  8
0
  6
Continuous
 62
     7
370
    15
100
AcDbLine
 10
411.8804459034
 20
259.7370439094
 30
0.0
 11
418.2804499327
 21
259.7370439094
 31
0.0
  0
LINE
  5
F9
330
1F
100
AcDbEntity
  8
0
  6
Continuous
 62
     7
370
    15
100
AcDbLine
 10
411.8804459034
 20
232.3370448198
 30
0.0
 11
411.8804459034
 21
238.5370445322
 31
0.0
  0
LINE
  5
FA
330
1F
100
AcDbEntity
  8
0
  6
Continuous
 62
     7
370
    15
100
AcDbLine
 10
418.2804499327
 20
232.3370448198
 30
0.0
 11
411.8804459034
 21
232.3370448198
 31
0.0
  0
LINE
  5
FB
330
1F
100
AcDbEntity
  8
0
  6
Continuous
 62
     7
370
    15
100
AcDbLine
 10
418.2804499327
 20
238.5370445322
 30
0.0
 11
418.2804499327
 21
232.3370448198
 31
0.0
  0
LINE
  5
FC
330
1F
100
AcDbEntity
  8
0
  6
Continuous
 62
     7
370
    15
100
AcDbLine
 10
411.8804459034
 20
238.5370445322
 30
0.0
 11
418.2804499327
 21
238.5370445322
 31
0.0
  0
LINE
  5
FD
330
1F
100
AcDbEntity
  8
0
  6
Continuous
 62
     7
370
    15
100
AcDbLine
 10
362.8404561936
 20
238.5370445322
 30
0.0
 11
369.2404453217
 21
238.5370445322
 31
0.0
  0
LINE
  5
FE
330
1F
100
AcDbEntity
  8
0
  6
Continuous
 62
     7
370
    15
100
AcDbLine
 10
362.8404561936
 20
232.3370448198
 30
0.0
 11
362.8404561936
 21
238.5370445322
 31
0.0
  0
LINE
  5
FF
330
1F
100
AcDbEntity
  8
0
  6
Continuous
 62
     7
370
    15
100
AcDbLine
 10
369.2404453217
 20
232.3370448198
 30
0.0
 11
362.8404561936
 21
232.3370448198
 31
0.0
  0
LINE
  5
100
330
1F
100
AcDbEntity
  8
0
  6
Continuous
 62
     7
370
    15
100
AcDbLine
 10
369.2404453217
 20
238.5370445322
 30
0.0
 11
369.2404453217
 21
232.3370448198
 31
0.0
  0
CIRCLE
  5
101
330
1F
100
AcDbEntity
  8
0
  6
Continuous
 62
     7
370
    15
100
AcDbCircle
 10
415.0804488789
 20
246.0370447855
 30
0.0
 40
1.599999999999966
  0
CIRCLE
  5
102
330
1F
100
AcDbEntity
  8
0
  6
Continuous
 62
     7
370
    15
100
AcDbCircle
 10
390.5604488789
 20
274.2120447855
 30
0.0
 40
1.600000000000023
  0
CIRCLE
  5
103
330
1F
100
AcDbEntity
  8
0
  6
Continuous
 62
     7
370
    15
100
AcDbCircle
 10
366.0404488789
 20
246.0370447855
 30
0.0
 40
1.600000000000023
  0
LINE
  5
104
330
1F
100
AcDbEntity
  8
0
  6
Continuous
 62
     7
370
    15
100
AcDbLine
 10
448.9288403986
 20
50.5371833415
 30
0.0
 11
448.9288403986
 21
58.5371837215
 31
0.0
  0
ARC
  5
105
330
1F
100
AcDbEntity
  8
0
  6
Continuous
 62
     7
370
    15
100
AcDbCircle
 10
444.9288404507
 20
58.5371836768
 30
0.0
 40
4.0
100
AcDbArc
 50
0.0
 51
180.0
  0
LINE
  5
106
330
1F
100
AcDbEntity
  8
0
  6
Continuous
 62
     7
370
    15
100
AcDbLine
 10
440.9288400186
 20
58.5371837215
 30
0.0
 11
440.9288400186
 21
50.5371833415
 31
0.0
  0
ARC
  5
107
330
1F
100
AcDbEntity
  8
0
  6
Continuous
 62
     7
370
    15
100
AcDbCircle
 10
444.9288404507
 20
50.5371836768
 30
0.0
 40
4.0
100
AcDbArc
 50
180.0
 51
0.0
  0
ARC
  5
108
330
1F
100
AcDbEntity
  8
0
  6
Continuous
 62
     7
370
    15
100
AcDbCircle
 10
418.8288404507
 20
165.5371836768
 30
0.0
 40
4.0
100
AcDbArc
 50
0.0
 51
90.0
  0
LINE
  5
109
330
1F
100
AcDbEntity
  8
0
  6
Continuous
 62
     7
370
    15
100
AcDbLine
 10
422.8288409633
 20
114.5371873127
 30
0.0
 11
422.8288409633
 21
165.5371789084
 31
0.0
  0
ARC
  5
10A
330
1F
100
AcDbEntity
  8
0
  6
Continuous
 62
     7
370
    15
100
AcDbCircle
 10
426.9288404507
 20
114.5371836768
 30
0.0
 40
4.100000000000023
100
AcDbArc
 50
180.0
 51
0.0
  0
LINE
  5
10B
330
1F
100
AcDbEntity
  8
0
  6
Continuous
 62
     7
370
    15
100
AcDbLine
 10
431.0288400723
 20
165.5371789084
 30
0.0
 11
431.0288400723
 21
114.5371873127
 31
0.0
  0
ARC
  5
10C
330
1F
100
AcDbEntity
  8
0
  6
Continuous
 62
     7
370
    15
100
AcDbCircle
 10
435.0288404507
 20
165.5371836768
 30
0.0
 40
4.0
100
AcDbArc
 50
90.0
 51
180.0
  0
LINE
  5
10D
330
1F
100
AcDbEntity
  8
0
  6
Continuous
 62
     7
370
    15
100
AcDbLine
 10
456.9288405457
 20
169.5371870146
 30
0.0
 11
435.0288407279
 21
169.5371870146
 31
0.0
  0
LINE
  5
10E
330
1F
100
AcDbEntity
  8
0
  6
Continuous
 62
     7
370
    15
100
AcDbLine
 10
456.9288405457
 20
139.5371858225
 30
0.0
 11
456.9288405457
 21
169.5371870146
 31
0.0
  0
LINE
  5
10F
330
1F
100
AcDbEntity
  8
0
  6
Continuous
 62
     7
370
    15
100
AcDbLine
 10
454.9288404507
 20
137.5371817694
 30
0.0
 11
456.9288405457
 21
139.5371858225
 31
0.0
  0
LINE
  5
110
330
1F
100
AcDbEntity
  8
0
  6
Continuous
 62
     7
370
    15
100
AcDbLine
 10
454.9288404507
 20
35.5371836768
 30
0.0
 11
454.9288404507
 21
137.5371817694
 31
0.0
  0
LINE
  5
111
330
1F
100
AcDbEntity
  8
0
  6
Continuous
 62
     7
370
    15
100
AcDbLine
 10
445.5288405863
 20
29.1871837535
 30
0.0
 11
445.5288405863
 21
35.5371836768
 31
0.0
  0
LINE
  5
112
330
1F
100
AcDbEntity
  8
0
  6
Continuous
 62
     7
370
    15
100
AcDbLine
 10
439.5288405342
 20
29.1871837535
 30
0.0
 11
445.5288405863
 21
29.1871837535
 31
0.0
  0
LINE
  5
113
330
1F
100
AcDbEntity
  8
0
  6
Continuous
 62
     7
370
    15
100
AcDbLine
 10
439.5288405342
 20
35.5371836768
 30
0.0
 11
439.5288405342
 21
29.1871837535
 31
0.0
  0
LINE
  5
114
330
1F
100
AcDbEntity
  8
0
  6
Continuous
 62
     7
370
    15
100
AcDbLine
 10
433.4288397206
 20
35.5371836768
 30
0.0
 11
433.4288397206
 21
41.5371837289
 31
0.0
  0
LINE
  5
115
330
1F
100
AcDbEntity
  8
0
  6
Continuous
 62
     7
370
    15
100
AcDbLine
 10
433.4288397206
 20
41.5371837289
 30
0.0
 11
434.6788403911
 21
41.5371837289
 31
0.0
  0
LINE
  5
116
330
1F
100
AcDbEntity
  8
0
  6
Continuous
 62
     7
370
    15
100
AcDbLine
 10
434.6788403911
 20
41.5371837289
 30
0.0
 11
434.6788403911
 21
43.5371840568
 31
0.0
  0
LINE
  5
117
330
1F
100
AcDbEntity
  8
0
  6
Continuous
 62
     7
370
    15
100
AcDbLine
 10
434.6788403911
 20
43.5371840568
 30
0.0
 11
433.4288397206
 21
43.5371840568
 31
0.0
  0
LINE
  5
118
330
1F
100
AcDbEntity
  8
0
  6
Continuous
 62
     7
370
    15
100
AcDbLine
 10
433.4288397206
 20
43.5371840568
 30
0.0
 11
433.4288397206
 21
46.1871832804
 31
0.0
  0
LINE
  5
119
330
1F
100
AcDbEntity
  8
0
  6
Continuous
 62
     7
370
    15
100
AcDbLine
 10
433.4288397206
 20
46.1871832804
 30
0.0
 11
430.4288410915
 21
46.1871832804
 31
0.0
  0
LINE
  5
11A
330
1F
100
AcDbEntity
  8
0
  6
Continuous
 62
     7
370
    15
100
AcDbLine
 10
430.4288410915
 20
46.1871832804
 30
0.0
 11
430.4288410915
 21
43.5371840568
 31
0.0
  0
LINE
  5
11B
330
1F
100
AcDbEntity
  8
0
  6
Continuous
 62
     7
370
    15
100
AcDbLine
 10
430.4288410915
 20
43.5371840568
 30
0.0
 11
429.1788404209
 21
43.5371840568
 31
0.0
  0
LINE
  5
11C
330
1F
100
AcDbEntity
  8
0
  6
Continuous
 62
     7
370
    15
100
AcDbLine
 10
429.1788404209
 20
43.5371840568
 30
0.0
 11
429.1788404209
 21
41.5371837289
 31
0.0
  0
LINE
  5
11D
330
1F
100
AcDbEntity
  8
0
  6
Continuous
 62
     7
370
    15
100
AcDbLine
 10
429.1788404209
 20
41.5371837289
 30
0.0
 11
430.4288410915
 21
41.5371837289
 31
0.0
  0
LINE
  5
11E
330
1F
100
AcDbEntity
  8
0
  6
Continuous
 62
     7
370
    15
100
AcDbLine
 10
430.4288410915
 20
41.5371837289
 30
0.0
 11
430.4288410915
 21
35.5371836768
 31
0.0
  0
LINE
  5
11F
330
1F
100
AcDbEntity
  8
0
  6
Continuous
 62
     7
370
    15
100
AcDbLine
 10
424.3288402779
 20
29.1871837535
 30
0.0
 11
424.3288402779
 21
35.5371836768
 31
0.0
  0
LINE
  5
120
330
1F
100
AcDbEntity
  8
0
  6
Continuous
 62
     7
370
    15
100
AcDbLine
 10
418.3288392944
 20
29.1871837535
 30
0.0
 11
424.3288402779
 21
29.1871837535
 31
0.0
  0
LINE
  5
121
330
1F
100
AcDbEntity
  8
0
  6
Continuous
 62
     7
370
    15
100
AcDbLine
 10
418.3288392944
 20
35.5371836768
 30
0.0
 11
418.3288392944
 21
29.1871837535
 31
0.0
  0
LINE
  5
122
330
1F
100
AcDbEntity
  8
0
  6
Continuous
 62
     7
370
    15
100
AcDbLine
 10
285.5288339181
 20
29.1871837535
 30
0.0
 11
285.5288339181
 21
35.5371836768
 31
0.0
  0
LINE
  5
123
330
1F
100
AcDbEntity
  8
0
  6
Continuous
 62
     7
370
    15
100
AcDbLine
 10
279.5288366599
 20
29.1871837535
 30
0.0
 11
285.5288339181
 21
29.1871837535
 31
0.0
  0
LINE
  5
124
330
1F
100
AcDbEntity
  8
0
  6
Continuous
 62
     7
370
    15
100
AcDbLine
 10
279.5288366599
 20
35.5371836768
 30
0.0
 11
279.5288366599
 21
29.1871837535
 31
0.0
  0
LINE
  5
125
330
1F
100
AcDbEntity
  8
0
  6
Continuous
 62
     7
370
    15
100
AcDbLine
 10
273.4288377089
 20
35.5371836768
 30
0.0
 11
279.5288366599
 21
35.5371836768
 31
0.0
  0
LINE
  5
126
330
1F
100
AcDbEntity
  8
0
  6
Continuous
 62
     7
370
    15
100
AcDbLine
 10
273.4288377089
 20
35.5371836768
 30
0.0
 11
273.4288377089
 21
41.5371837289
 31
0.0
  0
LINE
  5
127
330
1F
100
AcDbEntity
  8
0
  6
Continuous
 62
     7
370
    15
100
AcDbLine
 10
273.4288377089
 20
41.5371837289
 30
0.0
 11
274.6788365168
 21
41.5371837289
 31
0.0
  0
LINE
  5
128
330
1F
100
AcDbEntity
  8
0
  6
Continuous
 62
     7
370
    15
100
AcDbLine
 10
274.6788365168
 20
41.5371837289
 30
0.0
 11
274.6788365168
 21
43.5371840568
 31
0.0
  0
LINE
  5
129
330
1F
100
AcDbEntity
  8
0
  6
Continuous
 62
     7
370
    15
100
AcDbLine
 10
274.6788365168
 20
43.5371840568
 30
0.0
 11
273.4288377089
 21
43.5371840568
 31
0.0
  0
LINE
  5
12A
330
1F
100
AcDbEntity
  8
0
  6
Continuous
 62
     7
370
    15
100
AcDbLine
 10
273.4288377089
 20
43.5371840568
 30
0.0
 11
273.4288377089
 21
46.1871832804
 31
0.0
  0
LINE
  5
12B
330
1F
100
AcDbEntity
  8
0
  6
Continuous
 62
     7
370
    15
100
AcDbLine
 10
273.4288377089
 20
46.1871832804
 30
0.0
 11
270.4288465304
 21
46.1871832804
 31
0.0
  0
LINE
  5
12C
330
1F
100
AcDbEntity
  8
0
  6
Continuous
 62
     7
370
    15
100
AcDbLine
 10
270.4288465304
 20
46.1871832804
 30
0.0
 11
270.4288465304
 21
43.5371840568
 31
0.0
  0
LINE
  5
12D
330
1F
100
AcDbEntity
  8
0
  6
Continuous
 62
     7
370
    15
100
AcDbLine
 10
270.4288465304
 20
43.5371840568
 30
0.0
 11
269.1788477225
 21
43.5371840568
 31
0.0
  0
LINE
  5
12E
330
1F
100
AcDbEntity
  8
0
  6
Continuous
 62
     7
370
    15
100
AcDbLine
 10
269.1788477225
 20
43.5371840568
 30
0.0
 11
269.1788477225
 21
41.5371837289
 31
0.0
  0
LINE
  5
12F
330
1F
100
AcDbEntity
  8
0
  6
Continuous
 62
     7
370
    15
100
AcDbLine
 10
269.1788477225
 20
41.5371837289
 30
0.0
 11
270.4288465304
 21
41.5371837289
 31
0.0
  0
LINE
  5
130
330
1F
100
AcDbEntity
  8
0
  6
Continuous
 62
     7
370
    15
100
AcDbLine
 10
270.4288465304
 20
41.5371837289
 30
0.0
 11
270.4288465304
 21
35.5371836768
 31
0.0
  0
LINE
  5
131
330
1F
100
AcDbEntity
  8
0
  6
Continuous
 62
     7
370
    15
100
AcDbLine
 10
264.3288475795
 20
29.1871837535
 30
0.0
 11
264.3288475795
 21
35.5371836768
 31
0.0
  0
LINE
  5
132
330
1F
100
AcDbEntity
  8
0
  6
Continuous
 62
     7
370
    15
100
AcDbLine
 10
258.3288354201
 20
29.1871837535
 30
0.0
 11
264.3288475795
 21
29.1871837535
 31
0.0
  0
LINE
  5
133
330
1F
100
AcDbEntity
  8
0
  6
Continuous
 62
     7
370
    15
100
AcDbLine
 10
258.3288354201
 20
35.5371836768
 30
0.0
 11
258.3288354201
 21
29.1871837535
 31
0.0
  0
LINE
  5
134
330
1F
100
AcDbEntity
  8
0
  6
Continuous
 62
     7
370
    15
100
AcDbLine
 10
125.5288374943
 20
29.1871837535
 30
0.0
 11
125.5288374943
 21
35.5371836768
 31
0.0
  0
LINE
  5
135
330
1F
100
AcDbEntity
  8
0
  6
Continuous
 62
     7
370
    15
100
AcDbLine
 10
119.5288551373
 20
29.1871837535
 30
0.0
 11
125.5288374943
 21
29.1871837535
 31
0.0
  0
LINE
  5
136
330
1F
100
AcDbEntity
  8
0
  6
Continuous
 62
     7
370
    15
100
AcDbLine
 10
119.5288551373
 20
35.5371836768
 30
0.0
 11
119.5288551373
 21
29.1871837535
 31
0.0
  0
LINE
  5
137
330
1F
100
AcDbEntity
  8
0
  6
Continuous
 62
     7
370
    15
100
AcDbLine
 10
113.428826384
 20
35.5371836768
 30
0.0
 11
113.428826384
 21
41.5371837289
 31
0.0
  0
LINE
  5
138
330
1F
100
AcDbEntity
  8
0
  6
Continuous
 62
     7
370
    15
100
AcDbLine
 10
113.428826384
 20
41.5371837289
 30
0.0
 11
114.6788549943
 21
41.5371837289
 31
0.0
  0
LINE
  5
139
330
1F
100
AcDbEntity
  8
0
  6
Continuous
 62
     7
370
    15
100
AcDbLine
 10
114.6788549943
 20
41.5371837289
 30
0.0
 11
114.6788549943
 21
43.5371840568
 31
0.0
  0
LINE
  5
13A
330
1F
100
AcDbEntity
  8
0
  6
Continuous
 62
     7
370
    15
100
AcDbLine
 10
114.6788549943
 20
43.5371840568
 30
0.0
 11
113.428826384
 21
43.5371840568
 31
0.0
  0
LINE
  5
13B
330
1F
100
AcDbEntity
  8
0
  6
Continuous
 62
     7
370
    15
100
AcDbLine
 10
113.428826384
 20
43.5371840568
 30
0.0
 11
113.428826384
 21
46.1871832804
 31
0.0
  0
LINE
  5
13C
330
1F
100
AcDbEntity
  8
0
  6
Continuous
 62
     7
370
    15
100
AcDbLine
 10
113.428826384
 20
46.1871832804
 30
0.0
 11
110.4288352055
 21
46.1871832804
 31
0.0
  0
LINE
  5
13D
330
1F
100
AcDbEntity
  8
0
  6
Continuous
 62
     7
370
    15
100
AcDbLine
 10
110.4288352055
 20
46.1871832804
 30
0.0
 11
110.4288352055
 21
43.5371840568
 31
0.0
  0
LINE
  5
13E
330
1F
100
AcDbEntity
  8
0
  6
Continuous
 62
     7
370
    15
100
AcDbLine
 10
110.4288352055
 20
43.5371840568
 30
0.0
 11
109.1788363976
 21
43.5371840568
 31
0.0
  0
LINE
  5
13F
330
1F
100
AcDbEntity
  8
0
  6
Continuous
 62
     7
370
    15
100
AcDbLine
 10
109.1788363976
 20
43.5371840568
 30
0.0
 11
109.1788363976
 21
41.5371837289
 31
0.0
  0
LINE
  5
140
330
1F
100
AcDbEntity
  8
0
  6
Continuous
 62
     7
370
    15
100
AcDbLine
 10
109.1788363976
 20
41.5371837289
 30
0.0
 11
110.4288352055
 21
41.5371837289
 31
0.0
  0
LINE
  5
141
330
1F
100
AcDbEntity
  8
0
  6
Continuous
 62
     7
370
    15
100
AcDbLine
 10
110.4288352055
 20
41.5371837289
 30
0.0
 11
110.4288352055
 21
35.5371836768
 31
0.0
  0
LINE
  5
142
330
1F
100
AcDbEntity
  8
0
  6
Continuous
 62
     7
370
    15
100
AcDbLine
 10
104.3288362546
 20
29.1871837535
 30
0.0
 11
104.3288362546
 21
35.5371836768
 31
0.0
  0
LINE
  5
143
330
1F
100
AcDbEntity
  8
0
  6
Continuous
 62
     7
370
    15
100
AcDbLine
 10
98.3288538975
 20
29.1871837535
 30
0.0
 11
104.3288362546
 21
29.1871837535
 31
0.0
  0
LINE
  5
144
330
1F
100
AcDbEntity
  8
0
  6
Continuous
 62
     7
370
    15
100
AcDbLine
 10
98.3288538975
 20
35.5371836768
 30
0.0
 11
98.3288538975
 21
29.1871837535
 31
0.0
  0
LINE
  5
145
330
1F
100
AcDbEntity
  8
0
  6
Continuous
 62
     7
370
    15
100
AcDbLine
 10
86.9288397355
 20
46.1871832804
 30
0.0
 11
86.9288397355
 21
35.5371836768
 31
0.0
  0
LINE
  5
146
330
1F
100
AcDbEntity
  8
0
  6
Continuous
 62
     7
370
    15
100
AcDbLine
 10
86.9288397355
 20
46.1871832804
 30
0.0
 11
93.3288288636
 21
46.1871832804
 31
0.0
  0
LINE
  5
147
330
1F
100
AcDbEntity
  8
0
  6
Continuous
 62
     7
370
    15
100
AcDbLine
 10
93.3288288636
 20
46.1871832804
 30
0.0
 11
93.3288288636
 21
54.637182896
 31
0.0
  0
LINE
  5
148
330
1F
100
AcDbEntity
  8
0
  6
Continuous
 62
     7
370
    15
100
AcDbLine
 10
93.3288288636
 20
54.637182896
 30
0.0
 11
99.3288410229
 21
54.637182896
 31
0.0
  0
LINE
  5
149
330
1F
100
AcDbEntity
  8
0
  6
Continuous
 62
     7
370
    15
100
AcDbLine
 10
99.3288410229
 20
54.637182896
 30
0.0
 11
99.3288410229
 21
53.387184088
 31
0.0
  0
LINE
  5
14A
330
1F
100
AcDbEntity
  8
0
  6
Continuous
 62
     7
370
    15
100
AcDbLine
 10
99.3288410229
 20
53.387184088
 30
0.0
 11
101.3288450761
 21
53.387184088
 31
0.0
  0
LINE
  5
14B
330
1F
100
AcDbEntity
  8
0
  6
Continuous
 62
     7
370
    15
100
AcDbLine
 10
101.3288450761
 20
53.387184088
 30
0.0
 11
101.3288450761
 21
54.637182896
 31
0.0
  0
LINE
  5
14C
330
1F
100
AcDbEntity
  8
0
  6
Continuous
 62
     7
370
    15
100
AcDbLine
 10
101.3288450761
 20
54.637182896
 30
0.0
 11
103.9788377805
 21
54.637182896
 31
0.0
  0
LINE
  5
14D
330
1F
100
AcDbEntity
  8
0
  6
Continuous
 62
     7
370
    15
100
AcDbLine
 10
103.9788377805
 20
54.637182896
 30
0.0
 11
103.9788377805
 21
57.7371832178
 31
0.0
  0
LINE
  5
14E
330
1F
100
AcDbEntity
  8
0
  6
Continuous
 62
     7
370
    15
100
AcDbLine
 10
103.9788377805
 20
57.7371832178
 30
0.0
 11
101.3288450761
 21
57.7371832178
 31
0.0
  0
LINE
  5
14F
330
1F
100
AcDbEntity
  8
0
  6
Continuous
 62
     7
370
    15
100
AcDbLine
 10
101.3288450761
 20
57.7371832178
 30
0.0
 11
101.3288450761
 21
58.9871838884
 31
0.0
  0
LINE
  5
150
330
1F
100
AcDbEntity
  8
0
  6
Continuous
 62
     7
370
    15
100
AcDbLine
 10
101.3288450761
 20
58.9871838884
 30
0.0
 11
99.3288410229
 21
58.9871838884
 31
0.0
  0
LINE
  5
151
330
1F
100
AcDbEntity
  8
0
  6
Continuous
 62
     7
370
    15
100
AcDbLine
 10
99.3288410229
 20
58.9871838884
 30
0.0
 11
99.3288410229
 21
57.7371832178
 31
0.0
  0
LINE
  5
152
330
1F
100
AcDbEntity
  8
0
  6
Continuous
 62
     7
370
    15
100
AcDbLine
 10
99.3288410229
 20
57.7371832178
 30
0.0
 11
93.3288288636
 21
57.7371832178
 31
0.0
  0
LINE
  5
153
330
1F
100
AcDbEntity
  8
0
  6
Continuous
 62
     7
370
    15
100
AcDbLine
 10
93.3288288636
 20
57.7371832178
 30
0.0
 11
93.3288288636
 21
67.5978664504
 31
0.0
  0
LINE
  5
154
330
1F
100
AcDbEntity
  8
0
  6
Continuous
 62
     7
370
    15
100
AcDbLine
 10
409.3309817238
 20
169.3446789132
 30
0.0
 11
93.3288288636
 21
67.5978664504
 31
0.0
  0
ARC
  5
155
330
1F
100
AcDbEntity
  8
0
  6
Continuous
 62
     7
370
    15
100
AcDbCircle
 10
410.5569259371
 20
165.5371836768
 30
0.0
 40
4.000000000000005
100
AcDbArc
 50
90.0
 51
107.8475942125
  0
LINE
  5
156
330
1F
100
AcDbEntity
  8
0
  6
Continuous
 62
     7
370
    15
100
AcDbLine
 10
418.8288403077
 20
169.5371870146
 30
0.0
 11
410.5569263322
 21
169.5371870146
 31
0.0
  0
CIRCLE
  5
157
330
1F
100
AcDbEntity
  8
0
  6
Continuous
 62
     7
370
    15
100
AcDbCircle
 10
386.9288404507
 20
108.7171836768
 30
0.0
 40
1.59999999999998
  0
CIRCLE
  5
158
330
1F
100
AcDbEntity
  8
0
  6
Continuous
 62
     7
370
    15
100
AcDbCircle
 10
386.9288404507
 20
65.5371836768
 30
0.0
 40
1.599999999999959
  0
CIRCLE
  5
159
330
1F
100
AcDbEntity
  8
0
  6
Continuous
 62
     7
370
    15
100
AcDbCircle
 10
292.9488404507
 20
65.5371836768
 30
0.0
 40
1.599999999999959
  0
CIRCLE
  5
15A
330
1F
100
AcDbEntity
  8
0
  6
Continuous
 62
     7
370
    15
100
AcDbCircle
 10
292.9488404507
 20
108.7171836768
 30
0.0
 40
1.599999999999966
  0
LINE
  5
15B
330
1F
100
AcDbEntity
  8
0
  6
Continuous
 62
     7
370
    15
100
AcDbLine
 10
104.3288362546
 20
35.5371836768
 30
0.0
 11
110.4288352055
 21
35.5371836768
 31
0.0
  0
LINE
  5
15C
330
1F
100
AcDbEntity
  8
0
  6
Continuous
 62
     7
370
    15
100
AcDbLine
 10
445.5288405863
 20
35.5371836768
 30
0.0
 11
454.9288404507
 21
35.5371836768
 31
0.0
  0
LINE
  5
15D
330
1F
100
AcDbEntity
  8
0
  6
Continuous
 62
     7
370
    15
100
AcDbLine
 10
113.428826384
 20
35.5371836768
 30
0.0
 11
119.5288551373
 21
35.5371836768
 31
0.0
  0
LINE
  5
15E
330
1F
100
AcDbEntity
  8
0
  6
Continuous
 62
     7
370
    15
100
AcDbLine
 10
86.9288397355
 20
35.5371836768
 30
0.0
 11
98.3288538975
 21
35.5371836768
 31
0.0
  0
LINE
  5
15F
330
1F
100
AcDbEntity
  8
0
  6
Continuous
 62
     7
370
    15
100
AcDbLine
 10
125.5288374943
 20
35.5371836768
 30
0.0
 11
258.3288354201
 21
35.5371836768
 31
0.0
  0
LINE
  5
160
330
1F
100
AcDbEntity
  8
0
  6
Continuous
 62
     7
370
    15
100
AcDbLine
 10
264.3288475795
 20
35.5371836768
 30
0.0
 11
270.4288465304
 21
35.5371836768
 31
0.0
  0
LINE
  5
161
330
1F
100
AcDbEntity
  8
0
  6
Continuous
 62
     7
370
    15
100
AcDbLine
 10
424.3288402779
 20
35.5371836768
 30
0.0
 11
430.4288410915
 21
35.5371836768
 31
0.0
  0
LINE
  5
162
330
1F
100
AcDbEntity
  8
0
  6
Continuous
 62
     7
370
    15
100
AcDbLine
 10
285.5288339181
 20
35.5371836768
 30
0.0
 11
418.3288392944
 21
35.5371836768
 31
0.0
  0
LINE
  5
163
330
1F
100
AcDbEntity
  8
0
  6
Continuous
 62
     7
370
    15
100
AcDbLine
 10
433.4288397206
 20
35.5371836768
 30
0.0
 11
439.5288405342
 21
35.5371836768
 31
0.0
  0
LINE
  5
164
330
1F
100
AcDbEntity
  8
0
  6
Continuous
 62
     7
370
    15
100
AcDbLine
 10
39.7689898843
 20
191.5166453469
 30
0.0
 11
39.7689898843
 21
183.516644967
 31
0.0
  0
ARC
  5
165
330
1F
100
AcDbEntity
  8
0
  6
Continuous
 62
     7
370
    15
100
AcDbCircle
 10
43.7689898321
 20
183.5166450117
 30
0.0
 40
4.000000000000007
100
AcDbArc
 50
180.0
 51
0.0
  0
LINE
  5
166
330
1F
100
AcDbEntity
  8
0
  6
Continuous
 62
     7
370
    15
100
AcDbLine
 10
47.7689902643
 20
183.516644967
 30
0.0
 11
47.7689902643
 21
191.5166453469
 31
0.0
  0
ARC
  5
167
330
1F
100
AcDbEntity
  8
0
  6
Continuous
 62
     7
370
    15
100
AcDbCircle
 10
43.7689898321
 20
191.5166450117
 30
0.0
 40
4.000000000000007
100
AcDbArc
 50
0.0
 51
180.0
  0
ARC
  5
168
330
1F
100
AcDbEntity
  8
0
  6
Continuous
 62
     7
370
    15
100
AcDbCircle
 10
69.8689898321
 20
76.5166450117
 30
0.0
 40
4.0
100
AcDbArc
 50
180.0
 51
270.0
  0
LINE
  5
169
330
1F
100
AcDbEntity
  8
0
  6
Continuous
 62
     7
370
    15
100
AcDbLine
 10
65.8689893195
 20
127.5166413758
 30
0.0
 11
65.8689893195
 21
76.51664978
 31
0.0
  0
ARC
  5
16A
330
1F
100
AcDbEntity
  8
0
  6
Continuous
 62
     7
370
    15
100
AcDbCircle
 10
61.7689898321
 20
127.5166450117
 30
0.0
 40
4.099999999999994
100
AcDbArc
 50
0.0
 51
180.0
  0
LINE
  5
16B
330
1F
100
AcDbEntity
  8
0
  6
Continuous
 62
     7
370
    15
100
AcDbLine
 10
57.6689902106
 20
76.51664978
 30
0.0
 11
57.6689902106
 21
127.5166413758
 31
0.0
  0
ARC
  5
16C
330
1F
100
AcDbEntity
  8
0
  6
Continuous
 62
     7
370
    15
100
AcDbCircle
 10
53.6689898321
 20
76.5166450117
 30
0.0
 40
4.0
100
AcDbArc
 50
270.0
 51
0.0
  0
LINE
  5
16D
330
1F
100
AcDbEntity
  8
0
  6
Continuous
 62
     7
370
    15
100
AcDbLine
 10
31.7689897371
 20
72.5166416738
 30
0.0
 11
53.668989555
 21
72.5166416738
 31
0.0
  0
LINE
  5
16E
330
1F
100
AcDbEntity
  8
0
  6
Continuous
 62
     7
370
    15
100
AcDbLine
 10
31.7689897371
 20
102.5166428659
 30
0.0
 11
31.7689897371
 21
72.5166416738
 31
0.0
  0
LINE
  5
16F
330
1F
100
AcDbEntity
  8
0
  6
Continuous
 62
     7
370
    15
100
AcDbLine
 10
33.7689898321
 20
104.516646919
 30
0.0
 11
31.7689897371
 21
102.5166428659
 31
0.0
  0
LINE
  5
170
330
1F
100
AcDbEntity
  8
0
  6
Continuous
 62
     7
370
    15
100
AcDbLine
 10
33.7689898321
 20
206.5166450117
 30
0.0
 11
33.7689898321
 21
104.516646919
 31
0.0
  0
LINE
  5
171
330
1F
100
AcDbEntity
  8
0
  6
Continuous
 62
     7
370
    15
100
AcDbLine
 10
43.1689896965
 20
212.8666449349
 30
0.0
 11
43.1689896965
 21
206.5166450117
 31
0.0
  0
LINE
  5
172
330
1F
100
AcDbEntity
  8
0
  6
Continuous
 62
     7
370
    15
100
AcDbLine
 10
49.1689897487
 20
212.8666449349
 30
0.0
 11
43.1689896965
 21
212.8666449349
 31
0.0
  0
LINE
  5
173
330
1F
100
AcDbEntity
  8
0
  6
Continuous
 62
     7
370
    15
100
AcDbLine
 10
49.1689897487
 20
206.5166450117
 30
0.0
 11
49.1689897487
 21
212.8666449349
 31
0.0
  0
LINE
  5
174
330
1F
100
AcDbEntity
  8
0
  6
Continuous
 62
     7
370
    15
100
AcDbLine
 10
55.2689905623
 20
206.5166450117
 30
0.0
 11
55.2689905623
 21
200.5166449595
 31
0.0
  0
LINE
  5
175
330
1F
100
AcDbEntity
  8
0
  6
Continuous
 62
     7
370
    15
100
AcDbLine
 10
55.2689905623
 20
200.5166449595
 30
0.0
 11
54.0189898917
 21
200.5166449595
 31
0.0
  0
LINE
  5
176
330
1F
100
AcDbEntity
  8
0
  6
Continuous
 62
     7
370
    15
100
AcDbLine
 10
54.0189898917
 20
200.5166449595
 30
0.0
 11
54.0189898917
 21
198.5166446317
 31
0.0
  0
LINE
  5
177
330
1F
100
AcDbEntity
  8
0
  6
Continuous
 62
     7
370
    15
100
AcDbLine
 10
54.0189898917
 20
198.5166446317
 30
0.0
 11
55.2689905623
 21
198.5166446317
 31
0.0
  0
LINE
  5
178
330
1F
100
AcDbEntity
  8
0
  6
Continuous
 62
     7
370
    15
100
AcDbLine
 10
55.2689905623
 20
198.5166446317
 30
0.0
 11
55.2689905623
 21
195.866645408
 31
0.0
  0
LINE
  5
179
330
1F
100
AcDbEntity
  8
0
  6
Continuous
 62
     7
370
    15
100
AcDbLine
 10
55.2689905623
 20
195.866645408
 30
0.0
 11
58.2689891914
 21
195.866645408
 31
0.0
  0
LINE
  5
17A
330
1F
100
AcDbEntity
  8
0
  6
Continuous
 62
     7
370
    15
100
AcDbLine
 10
58.2689891914
 20
195.866645408
 30
0.0
 11
58.2689891914
 21
198.5166446317
 31
0.0
  0
LINE
  5
17B
330
1F
100
AcDbEntity
  8
0
  6
Continuous
 62
     7
370
    15
100
AcDbLine
 10
58.2689891914
 20
198.5166446317
 30
0.0
 11
59.5189898619
 21
198.5166446317
 31
0.0
  0
LINE
  5
17C
330
1F
100
AcDbEntity
  8
0
  6
Continuous
 62
     7
370
    15
100
AcDbLine
 10
59.5189898619
 20
198.5166446317
 30
0.0
 11
59.5189898619
 21
200.5166449595
 31
0.0
  0
LINE
  5
17D
330
1F
100
AcDbEntity
  8
0
  6
Continuous
 62
     7
370
    15
100
AcDbLine
 10
59.5189898619
 20
200.5166449595
 30
0.0
 11
58.2689891914
 21
200.5166449595
 31
0.0
  0
LINE
  5
17E
330
1F
100
AcDbEntity
  8
0
  6
Continuous
 62
     7
370
    15
100
AcDbLine
 10
58.2689891914
 20
200.5166449595
 30
0.0
 11
58.2689891914
 21
206.5166450117
 31
0.0
  0
LINE
  5
17F
330
1F
100
AcDbEntity
  8
0
  6
Continuous
 62
     7
370
    15
100
AcDbLine
 10
64.368990005
 20
212.8666449349
 30
0.0
 11
64.368990005
 21
206.5166450117
 31
0.0
  0
LINE
  5
180
330
1F
100
AcDbEntity
  8
0
  6
Continuous
 62
     7
370
    15
100
AcDbLine
 10
70.3689909885
 20
212.8666449349
 30
0.0
 11
64.368990005
 21
212.8666449349
 31
0.0
  0
LINE
  5
181
330
1F
100
AcDbEntity
  8
0
  6
Continuous
 62
     7
370
    15
100
AcDbLine
 10
70.3689909885
 20
206.5166450117
 30
0.0
 11
70.3689909885
 21
212.8666449349
 31
0.0
  0
LINE
  5
182
330
1F
100
AcDbEntity
  8
0
  6
Continuous
 62
     7
370
    15
100
AcDbLine
 10
203.1689963648
 20
212.8666449349
 30
0.0
 11
203.1689963648
 21
206.5166450117
 31
0.0
  0
LINE
  5
183
330
1F
100
AcDbEntity
  8
0
  6
Continuous
 62
     7
370
    15
100
AcDbLine
 10
209.168993623
 20
212.8666449349
 30
0.0
 11
203.1689963648
 21
212.8666449349
 31
0.0
  0
LINE
  5
184
330
1F
100
AcDbEntity
  8
0
  6
Continuous
 62
     7
370
    15
100
AcDbLine
 10
209.168993623
 20
206.5166450117
 30
0.0
 11
209.168993623
 21
212.8666449349
 31
0.0
  0
LINE
  5
185
330
1F
100
AcDbEntity
  8
0
  6
Continuous
 62
     7
370
    15
100
AcDbLine
 10
215.2689925739
 20
206.5166450117
 30
0.0
 11
209.168993623
 21
206.5166450117
 31
0.0
  0
LINE
  5
186
330
1F
100
AcDbEntity
  8
0
  6
Continuous
 62
     7
370
    15
100
AcDbLine
 10
215.2689925739
 20
206.5166450117
 30
0.0
 11
215.2689925739
 21
200.5166449595
 31
0.0
  0
LINE
  5
187
330
1F
100
AcDbEntity
  8
0
  6
Continuous
 62
     7
370
    15
100
AcDbLine
 10
215.2689925739
 20
200.5166449595
 30
0.0
 11
214.018993766
 21
200.5166449595
 31
0.0
  0
LINE
  5
188
330
1F
100
AcDbEntity
  8
0
  6
Continuous
 62
     7
370
    15
100
AcDbLine
 10
214.018993766
 20
200.5166449595
 30
0.0
 11
214.018993766
 21
198.5166446317
 31
0.0
  0
LINE
  5
189
330
1F
100
AcDbEntity
  8
0
  6
Continuous
 62
     7
370
    15
100
AcDbLine
 10
214.018993766
 20
198.5166446317
 30
0.0
 11
215.2689925739
 21
198.5166446317
 31
0.0
  0
LINE
  5
18A
330
1F
100
AcDbEntity
  8
0
  6
Continuous
 62
     7
370
    15
100
AcDbLine
 10
215.2689925739
 20
198.5166446317
 30
0.0
 11
215.2689925739
 21
195.866645408
 31
0.0
  0
LINE
  5
18B
330
1F
100
AcDbEntity
  8
0
  6
Continuous
 62
     7
370
    15
100
AcDbLine
 10
215.2689925739
 20
195.866645408
 30
0.0
 11
218.2689837525
 21
195.866645408
 31
0.0
  0
LINE
  5
18C
330
1F
100
AcDbEntity
  8
0
  6
Continuous
 62
     7
370
    15
100
AcDbLine
 10
218.2689837525
 20
195.866645408
 30
0.0
 11
218.2689837525
 21
198.5166446317
 31
0.0
  0
LINE
  5
18D
330
1F
100
AcDbEntity
  8
0
  6
Continuous
 62
     7
370
    15
100
AcDbLine
 10
218.2689837525
 20
198.5166446317
 30
0.0
 11
219.5189825604
 21
198.5166446317
 31
0.0
  0
LINE
  5
18E
330
1F
100
AcDbEntity
  8
0
  6
Continuous
 62
     7
370
    15
100
AcDbLine
 10
219.5189825604
 20
198.5166446317
 30
0.0
 11
219.5189825604
 21
200.5166449595
 31
0.0
  0
LINE
  5
18F
330
1F
100
AcDbEntity
  8
0
  6
Continuous
 62
     7
370
    15
100
AcDbLine
 10
219.5189825604
 20
200.5166449595
 30
0.0
 11
218.2689837525
 21
200.5166449595
 31
0.0
  0
LINE
  5
190
330
1F
100
AcDbEntity
  8
0
  6
Continuous
 62
     7
370
    15
100
AcDbLine
 10
218.2689837525
 20
200.5166449595
 30
0.0
 11
218.2689837525
 21
206.5166450117
 31
0.0
  0
LINE
  5
191
330
1F
100
AcDbEntity
  8
0
  6
Continuous
 62
     7
370
    15
100
AcDbLine
 10
224.3689827034
 20
212.8666449349
 30
0.0
 11
224.3689827034
 21
206.5166450117
 31
0.0
  0
LINE
  5
192
330
1F
100
AcDbEntity
  8
0
  6
Continuous
 62
     7
370
    15
100
AcDbLine
 10
230.3689948628
 20
212.8666449349
 30
0.0
 11
224.3689827034
 21
212.8666449349
 31
0.0
  0
LINE
  5
193
330
1F
100
AcDbEntity
  8
0
  6
Continuous
 62
     7
370
    15
100
AcDbLine
 10
230.3689948628
 20
206.5166450117
 30
0.0
 11
230.3689948628
 21
212.8666449349
 31
0.0
  0
LINE
  5
194
330
1F
100
AcDbEntity
  8
0
  6
Continuous
 62
     7
370
    15
100
AcDbLine
 10
363.1689927885
 20
212.8666449349
 30
0.0
 11
363.1689927885
 21
206.5166450117
 31
0.0
  0
LINE
  5
195
330
1F
100
AcDbEntity
  8
0
  6
Continuous
 62
     7
370
    15
100
AcDbLine
 10
369.1689751455
 20
212.8666449349
 30
0.0
 11
363.1689927885
 21
212.8666449349
 31
0.0
  0
LINE
  5
196
330
1F
100
AcDbEntity
  8
0
  6
Continuous
 62
     7
370
    15
100
AcDbLine
 10
369.1689751455
 20
206.5166450117
 30
0.0
 11
369.1689751455
 21
212.8666449349
 31
0.0
  0
LINE
  5
197
330
1F
100
AcDbEntity
  8
0
  6
Continuous
 62
     7
370
    15
100
AcDbLine
 10
375.2690038988
 20
206.5166450117
 30
0.0
 11
375.2690038988
 21
200.5166449595
 31
0.0
  0
LINE
  5
198
330
1F
100
AcDbEntity
  8
0
  6
Continuous
 62
     7
370
    15
100
AcDbLine
 10
375.2690038988
 20
200.5166449595
 30
0.0
 11
374.0189752886
 21
200.5166449595
 31
0.0
  0
LINE
  5
199
330
1F
100
AcDbEntity
  8
0
  6
Continuous
 62
     7
370
    15
100
AcDbLine
 10
374.0189752886
 20
200.5166449595
 30
0.0
 11
374.0189752886
 21
198.5166446317
 31
0.0
  0
LINE
  5
19A
330
1F
100
AcDbEntity
  8
0
  6
Continuous
 62
     7
370
    15
100
AcDbLine
 10
374.0189752886
 20
198.5166446317
 30
0.0
 11
375.2690038988
 21
198.5166446317
 31
0.0
  0
LINE
  5
19B
330
1F
100
AcDbEntity
  8
0
  6
Continuous
 62
     7
370
    15
100
AcDbLine
 10
375.2690038988
 20
198.5166446317
 30
0.0
 11
375.2690038988
 21
195.866645408
 31
0.0
  0
LINE
  5
19C
330
1F
100
AcDbEntity
  8
0
  6
Continuous
 62
     7
370
    15
100
AcDbLine
 10
375.2690038988
 20
195.866645408
 30
0.0
 11
378.2689950773
 21
195.866645408
 31
0.0
  0
LINE
  5
19D
330
1F
100
AcDbEntity
  8
0
  6
Continuous
 62
     7
370
    15
100
AcDbLine
 10
378.2689950773
 20
195.866645408
 30
0.0
 11
378.2689950773
 21
198.5166446317
 31
0.0
  0
LINE
  5
19E
330
1F
100
AcDbEntity
  8
0
  6
Continuous
 62
     7
370
    15
100
AcDbLine
 10
378.2689950773
 20
198.5166446317
 30
0.0
 11
379.5189938852
 21
198.5166446317
 31
0.0
  0
LINE
  5
19F
330
1F
100
AcDbEntity
  8
0
  6
Continuous
 62
     7
370
    15
100
AcDbLine
 10
379.5189938852
 20
198.5166446317
 30
0.0
 11
379.5189938852
 21
200.5166449595
 31
0.0
  0
LINE
  5
1A0
330
1F
100
AcDbEntity
  8
0
  6
Continuous
 62
     7
370
    15
100
AcDbLine
 10
379.5189938852
 20
200.5166449595
 30
0.0
 11
378.2689950773
 21
200.5166449595
 31
0.0
  0
LINE
  5
1A1
330
1F
100
AcDbEntity
  8
0
  6
Continuous
 62
     7
370
    15
100
AcDbLine
 10
378.2689950773
 20
200.5166449595
 30
0.0
 11
378.2689950773
 21
206.5166450117
 31
0.0
  0
LINE
  5
1A2
330
1F
100
AcDbEntity
  8
0
  6
Continuous
 62
     7
370
    15
100
AcDbLine
 10
384.3689940283
 20
212.8666449349
 30
0.0
 11
384.3689940283
 21
206.5166450117
 31
0.0
  0
LINE
  5
1A3
330
1F
100
AcDbEntity
  8
0
  6
Continuous
 62
     7
370
    15
100
AcDbLine
 10
390.3689763853
 20
212.8666449349
 30
0.0
 11
384.3689940283
 21
212.8666449349
 31
0.0
  0
LINE
  5
1A4
330
1F
100
AcDbEntity
  8
0
  6
Continuous
 62
     7
370
    15
100
AcDbLine
 10
390.3689763853
 20
206.5166450117
 30
0.0
 11
390.3689763853
 21
212.8666449349
 31
0.0
  0
LINE
  5
1A5
330
1F
100
AcDbEntity
  8
0
  6
Continuous
 62
     7
370
    15
100
AcDbLine
 10
401.7689905474
 20
195.866645408
 30
0.0
 11
401.7689905474
 21
206.5166450117
 31
0.0
  0
LINE
  5
1A6
330
1F
100
AcDbEntity
  8
0
  6
Continuous
 62
     7
370
    15
100
AcDbLine
 10
401.7689905474
 20
195.866645408
 30
0.0
 11
395.3690014193
 21
195.866645408
 31
0.0
  0
LINE
  5
1A7
330
1F
100
AcDbEntity
  8
0
  6
Continuous
 62
     7
370
    15
100
AcDbLine
 10
395.3690014193
 20
195.866645408
 30
0.0
 11
395.3690014193
 21
187.4166457925
 31
0.0
  0
LINE
  5
1A8
330
1F
100
AcDbEntity
  8
0
  6
Continuous
 62
     7
370
    15
100
AcDbLine
 10
395.3690014193
 20
187.4166457925
 30
0.0
 11
389.3689892599
 21
187.4166457925
 31
0.0
  0
LINE
  5
1A9
330
1F
100
AcDbEntity
  8
0
  6
Continuous
 62
     7
370
    15
100
AcDbLine
 10
389.3689892599
 20
187.4166457925
 30
0.0
 11
389.3689892599
 21
188.6666446004
 31
0.0
  0
LINE
  5
1AA
330
1F
100
AcDbEntity
  8
0
  6
Continuous
 62
     7
370
    15
100
AcDbLine
 10
389.3689892599
 20
188.6666446004
 30
0.0
 11
387.3689852068
 21
188.6666446004
 31
0.0
  0
LINE
  5
1AB
330
1F
100
AcDbEntity
  8
0
  6
Continuous
 62
     7
370
    15
100
AcDbLine
 10
387.3689852068
 20
188.6666446004
 30
0.0
 11
387.3689852068
 21
187.4166457925
 31
0.0
  0
LINE
  5
1AC
330
1F
100
AcDbEntity
  8
0
  6
Continuous
 62
     7
370
    15
100
AcDbLine
 10
387.3689852068
 20
187.4166457925
 30
0.0
 11
384.7189925024
 21
187.4166457925
 31
0.0
  0
LINE
  5
1AD
330
1F
100
AcDbEntity
  8
0
  6
Continuous
 62
     7
370
    15
100
AcDbLine
 10
384.7189925024
 20
187.4166457925
 30
0.0
 11
384.7189925024
 21
184.3166454706
 31
0.0
  0
LINE
  5
1AE
330
1F
100
AcDbEntity
  8
0
  6
Continuous
 62
     7
370
    15
100
AcDbLine
 10
384.7189925024
 20
184.3166454706
 30
0.0
 11
387.3689852068
 21
184.3166454706
 31
0.0
  0
LINE
  5
1AF
330
1F
100
AcDbEntity
  8
0
  6
Continuous
 62
     7
370
    15
100
AcDbLine
 10
387.3689852068
 20
184.3166454706
 30
0.0
 11
387.3689852068
 21
183.0666448001
 31
0.0
  0
LINE
  5
1B0
330
1F
100
AcDbEntity
  8
0
  6
Continuous
 62
     7
370
    15
100
AcDbLine
 10
387.3689852068
 20
183.0666448001
 30
0.0
 11
389.3689892599
 21
183.0666448001
 31
0.0
  0
LINE
  5
1B1
330
1F
100
AcDbEntity
  8
0
  6
Continuous
 62
     7
370
    15
100
AcDbLine
 10
389.3689892599
 20
183.0666448001
 30
0.0
 11
389.3689892599
 21
184.3166454706
 31
0.0
  0
LINE
  5
1B2
330
1F
100
AcDbEntity
  8
0
  6
Continuous
 62
     7
370
    15
100
AcDbLine
 10
389.3689892599
 20
184.3166454706
 30
0.0
 11
395.3690014193
 21
184.3166454706
 31
0.0
  0
LINE
  5
1B3
330
1F
100
AcDbEntity
  8
0
  6
Continuous
 62
     7
370
    15
100
AcDbLine
 10
395.3690014193
 20
184.3166454706
 30
0.0
 11
395.3690014193
 21
174.4559622381
 31
0.0
  0
LINE
  5
1B4
330
1F
100
AcDbEntity
  8
0
  6
Continuous
 62
     7
370
    15
100
AcDbLine
 10
79.3668485591
 20
72.7091497753
 30
0.0
 11
395.3690014193
 21
174.4559622381
 31
0.0
  0
ARC
  5
1B5
330
1F
100
AcDbEntity
  8
0
  6
Continuous
 62
     7
370
    15
100
AcDbCircle
 10
78.1409043458
 20
76.5166450117
 30
0.0
 40
4.000000000000032
100
AcDbArc
 50
270.0
 51
287.8475942125
  0
LINE
  5
1B6
330
1F
100
AcDbEntity
  8
0
  6
Continuous
 62
     7
370
    15
100
AcDbLine
 10
69.8689899752
 20
72.5166416738
 30
0.0
 11
78.1409039507
 21
72.5166416738
 31
0.0
  0
CIRCLE
  5
1B7
330
1F
100
AcDbEntity
  8
0
  6
Continuous
 62
     7
370
    15
100
AcDbCircle
 10
101.7689898321
 20
133.3366450117
 30
0.0
 40
1.599999999999994
  0
CIRCLE
  5
1B8
330
1F
100
AcDbEntity
  8
0
  6
Continuous
 62
     7
370
    15
100
AcDbCircle
 10
101.7689898321
 20
176.5166450117
 30
0.0
 40
1.599999999999966
  0
CIRCLE
  5
1B9
330
1F
100
AcDbEntity
  8
0
  6
Continuous
 62
     7
370
    15
100
AcDbCircle
 10
195.7489898321
 20
176.5166450117
 30
0.0
 40
1.599999999999966
  0
CIRCLE
  5
1BA
330
1F
100
AcDbEntity
  8
0
  6
Continuous
 62
     7
370
    15
100
AcDbCircle
 10
195.7489898321
 20
133.3366450117
 30
0.0
 40
1.599999999999966
  0
LINE
  5
1BB
330
1F
100
AcDbEntity
  8
0
  6
Continuous
 62
     7
370
    15
100
AcDbLine
 10
384.3689940283
 20
206.5166450117
 30
0.0
 11
378.2689950773
 21
206.5166450117
 31
0.0
  0
LINE
  5
1BC
330
1F
100
AcDbEntity
  8
0
  6
Continuous
 62
     7
370
    15
100
AcDbLine
 10
43.1689896965
 20
206.5166450117
 30
0.0
 11
33.7689898321
 21
206.5166450117
 31
0.0
  0
LINE
  5
1BD
330
1F
100
AcDbEntity
  8
0
  6
Continuous
 62
     7
370
    15
100
AcDbLine
 10
375.2690038988
 20
206.5166450117
 30
0.0
 11
369.1689751455
 21
206.5166450117
 31
0.0
  0
LINE
  5
1BE
330
1F
100
AcDbEntity
  8
0
  6
Continuous
 62
     7
370
    15
100
AcDbLine
 10
401.7689905474
 20
206.5166450117
 30
0.0
 11
390.3689763853
 21
206.5166450117
 31
0.0
  0
LINE
  5
1BF
330
1F
100
AcDbEntity
  8
0
  6
Continuous
 62
     7
370
    15
100
AcDbLine
 10
363.1689927885
 20
206.5166450117
 30
0.0
 11
230.3689948628
 21
206.5166450117
 31
0.0
  0
LINE
  5
1C0
330
1F
100
AcDbEntity
  8
0
  6
Continuous
 62
     7
370
    15
100
AcDbLine
 10
224.3689827034
 20
206.5166450117
 30
0.0
 11
218.2689837525
 21
206.5166450117
 31
0.0
  0
LINE
  5
1C1
330
1F
100
AcDbEntity
  8
0
  6
Continuous
 62
     7
370
    15
100
AcDbLine
 10
64.368990005
 20
206.5166450117
 30
0.0
 11
58.2689891914
 21
206.5166450117
 31
0.0
  0
LINE
  5
1C2
330
1F
100
AcDbEntity
  8
0
  6
Continuous
 62
     7
370
    15
100
AcDbLine
 10
203.1689963648
 20
206.5166450117
 30
0.0
 11
70.3689909885
 21
206.5166450117
 31
0.0
  0
LINE
  5
1C3
330
1F
100
AcDbEntity
  8
0
  6
Continuous
 62
     7
370
    15
100
AcDbLine
 10
55.2689905623
 20
206.5166450117
 30
0.0
 11
49.1689897487
 21
206.5166450117
 31
0.0
  0
ARC
  5
1C4
330
1F
100
AcDbEntity
  8
0
  6
Continuous
 62
     7
370
    15
100
AcDbCircle
 10
270.4909892465
 20
327.4046514326
 30
0.0
 40
8.000000000000057
100
AcDbArc
 50
180.0
 51
225.0
  0
ARC
  5
1C5
330
1F
100
AcDbEntity
  8
0
  6
Continuous
 62
     7
370
    15
100
AcDbCircle
 10
309.8046977455
 20
288.0909429336
 30
0.0
 40
8.000000000000057
100
AcDbArc
 50
225.0
 51
270.0
  0
LINE
  5
1C6
330
1F
100
AcDbEntity
  8
0
  6
Continuous
 62
     7
370
    15
100
AcDbLine
 10
299.0909886654
 20
328.0909433509
 30
0.0
 11
299.0909886654
 21
334.4409428085
 31
0.0
  0
LINE
  5
1C7
330
1F
100
AcDbEntity
  8
0
  6
Continuous
 62
     7
370
    15
100
AcDbLine
 10
310.4909893232
 20
328.0909433509
 30
0.0
 11
299.0909886654
 21
328.0909433509
 31
0.0
  0
LINE
  5
1C8
330
1F
100
AcDbEntity
  8
0
  6
Continuous
 62
     7
370
    15
100
AcDbLine
 10
310.4909893232
 20
316.69094409
 30
0.0
 11
310.4909893232
 21
328.0909433509
 31
0.0
  0
LINE
  5
1C9
330
1F
100
AcDbEntity
  8
0
  6
Continuous
 62
     7
370
    15
100
AcDbLine
 10
316.8409892465
 20
316.69094409
 30
0.0
 11
310.4909893232
 21
316.69094409
 31
0.0
  0
LINE
  5
1CA
330
1F
100
AcDbEntity
  8
0
  6
Continuous
 62
     7
370
    15
100
AcDbLine
 10
316.8409892465
 20
310.6909431065
 30
0.0
 11
316.8409892465
 21
316.69094409
 31
0.0
  0
LINE
  5
1CB
330
1F
100
AcDbEntity
  8
0
  6
Continuous
 62
     7
370
    15
100
AcDbLine
 10
310.4909893232
 20
310.6909431065
 30
0.0
 11
316.8409892465
 21
310.6909431065
 31
0.0
  0
LINE
  5
1CC
330
1F
100
AcDbEntity
  8
0
  6
Continuous
 62
     7
370
    15
100
AcDbLine
 10
310.4909893232
 20
304.5909422929
 30
0.0
 11
310.4909893232
 21
310.6909431065
 31
0.0
  0
LINE
  5
1CD
330
1F
100
AcDbEntity
  8
0
  6
Continuous
 62
     7
370
    15
100
AcDbLine
 10
304.4909888054
 20
304.5909422929
 30
0.0
 11
310.4909893232
 21
304.5909422929
 31
0.0
  0
LINE
  5
1CE
330
1F
100
AcDbEntity
  8
0
  6
Continuous
 62
     7
370
    15
100
AcDbLine
 10
304.4909888054
 20
305.8409429634
 30
0.0
 11
304.4909888054
 21
304.5909422929
 31
0.0
  0
LINE
  5
1CF
330
1F
100
AcDbEntity
  8
0
  6
Continuous
 62
     7
370
    15
100
AcDbLine
 10
302.4909894089
 20
305.8409429634
 30
0.0
 11
304.4909888054
 21
305.8409429634
 31
0.0
  0
LINE
  5
1D0
330
1F
100
AcDbEntity
  8
0
  6
Continuous
 62
     7
370
    15
100
AcDbLine
 10
302.4909894089
 20
304.5909422929
 30
0.0
 11
302.4909894089
 21
305.8409429634
 31
0.0
  0
LINE
  5
1D1
330
1F
100
AcDbEntity
  8
0
  6
Continuous
 62
     7
370
    15
100
AcDbLine
 10
299.8409883226
 20
304.5909422929
 30
0.0
 11
302.4909894089
 21
304.5909422929
 31
0.0
  0
LINE
  5
1D2
330
1F
100
AcDbEntity
  8
0
  6
Continuous
 62
     7
370
    15
100
AcDbLine
 10
299.8409883226
 20
301.5909436638
 30
0.0
 11
299.8409883226
 21
304.5909422929
 31
0.0
  0
LINE
  5
1D3
330
1F
100
AcDbEntity
  8
0
  6
Continuous
 62
     7
370
    15
100
AcDbLine
 10
302.4909894089
 20
301.5909436638
 30
0.0
 11
299.8409883226
 21
301.5909436638
 31
0.0
  0
LINE
  5
1D4
330
1F
100
AcDbEntity
  8
0
  6
Continuous
 62
     7
370
    15
100
AcDbLine
 10
302.4909894089
 20
300.3409429932
 30
0.0
 11
302.4909894089
 21
301.5909436638
 31
0.0
  0
LINE
  5
1D5
330
1F
100
AcDbEntity
  8
0
  6
Continuous
 62
     7
370
    15
100
AcDbLine
 10
304.4909888054
 20
300.3409429932
 30
0.0
 11
302.4909894089
 21
300.3409429932
 31
0.0
  0
LINE
  5
1D6
330
1F
100
AcDbEntity
  8
0
  6
Continuous
 62
     7
370
    15
100
AcDbLine
 10
304.4909888054
 20
301.5909436638
 30
0.0
 11
304.4909888054
 21
300.3409429932
 31
0.0
  0
LINE
  5
1D7
330
1F
100
AcDbEntity
  8
0
  6
Continuous
 62
     7
370
    15
100
AcDbLine
 10
310.4909893232
 20
301.5909436638
 30
0.0
 11
304.4909888054
 21
301.5909436638
 31
0.0
  0
LINE
  5
1D8
330
1F
100
AcDbEntity
  8
0
  6
Continuous
 62
     7
370
    15
100
AcDbLine
 10
310.4909893232
 20
295.4909428502
 30
0.0
 11
310.4909893232
 21
301.5909436638
 31
0.0
  0
LINE
  5
1D9
330
1F
100
AcDbEntity
  8
0
  6
Continuous
 62
     7
370
    15
100
AcDbLine
 10
316.8409892465
 20
295.4909428502
 30
0.0
 11
310.4909893232
 21
295.4909428502
 31
0.0
  0
LINE
  5
1DA
330
1F
100
AcDbEntity
  8
0
  6
Continuous
 62
     7
370
    15
100
AcDbLine
 10
316.8409892465
 20
289.490942798
 30
0.0
 11
316.8409892465
 21
295.4909428502
 31
0.0
  0
LINE
  5
1DB
330
1F
100
AcDbEntity
  8
0
  6
Continuous
 62
     7
370
    15
100
AcDbLine
 10
310.4909893232
 20
289.490942798
 30
0.0
 11
316.8409892465
 21
289.490942798
 31
0.0
  0
LINE
  5
1DC
330
1F
100
AcDbEntity
  8
0
  6
Continuous
 62
     7
370
    15
100
AcDbLine
 10
310.4909893232
 20
280.0909429336
 30
0.0
 11
310.4909893232
 21
289.490942798
 31
0.0
  0
LINE
  5
1DD
330
1F
100
AcDbEntity
  8
0
  6
Continuous
 62
     7
370
    15
100
AcDbLine
 10
309.804697718
 20
280.0909429336
 30
0.0
 11
310.4909893232
 21
280.0909429336
 31
0.0
  0
LINE
  5
1DE
330
1F
100
AcDbEntity
  8
0
  6
Continuous
 62
     7
370
    15
100
AcDbLine
 10
264.8341336395
 20
321.7477984274
 30
0.0
 11
304.1478439341
 21
282.4340885984
 31
0.0
  0
LINE
  5
1DF
330
1F
100
AcDbEntity
  8
0
  6
Continuous
 62
     7
370
    15
100
AcDbLine
 10
262.4909893717
 20
328.0909433509
 30
0.0
 11
262.4909893717
 21
327.4046517456
 31
0.0
  0
LINE
  5
1E0
330
1F
100
AcDbEntity
  8
0
  6
Continuous
 62
     7
370
    15
100
AcDbLine
 10
271.8909883047
 20
328.0909433509
 30
0.0
 11
262.4909893717
 21
328.0909433509
 31
0.0
  0
LINE
  5
1E1
330
1F
100
AcDbEntity
  8
0
  6
Continuous
 62
     7
370
    15
100
AcDbLine
 10
271.8909883047
 20
334.4409428085
 30
0.0
 11
271.8909883047
 21
328.0909433509
 31
0.0
  0
LINE
  5
1E2
330
1F
100
AcDbEntity
  8
0
  6
Continuous
 62
     7
370
    15
100
AcDbLine
 10
277.8909892882
 20
334.4409428085
 30
0.0
 11
271.8909883047
 21
334.4409428085
 31
0.0
  0
LINE
  5
1E3
330
1F
100
AcDbEntity
  8
0
  6
Continuous
 62
     7
370
    15
100
AcDbLine
 10
277.8909892882
 20
328.0909433509
 30
0.0
 11
277.8909892882
 21
334.4409428085
 31
0.0
  0
LINE
  5
1E4
330
1F
100
AcDbEntity
  8
0
  6
Continuous
 62
     7
370
    15
100
AcDbLine
 10
283.9909882392
 20
328.0909433509
 30
0.0
 11
277.8909892882
 21
328.0909433509
 31
0.0
  0
LINE
  5
1E5
330
1F
100
AcDbEntity
  8
0
  6
Continuous
 62
     7
370
    15
100
AcDbLine
 10
283.9909882392
 20
322.0909423674
 30
0.0
 11
283.9909882392
 21
328.0909433509
 31
0.0
  0
LINE
  5
1E6
330
1F
100
AcDbEntity
  8
0
  6
Continuous
 62
     7
370
    15
100
AcDbLine
 10
282.7409894313
 20
322.0909423674
 30
0.0
 11
283.9909882392
 21
322.0909423674
 31
0.0
  0
LINE
  5
1E7
330
1F
100
AcDbEntity
  8
0
  6
Continuous
 62
     7
370
    15
100
AcDbLine
 10
282.7409894313
 20
320.0909420396
 30
0.0
 11
282.7409894313
 21
322.0909423674
 31
0.0
  0
LINE
  5
1E8
330
1F
100
AcDbEntity
  8
0
  6
Continuous
 62
     7
370
    15
100
AcDbLine
 10
283.9909882392
 20
320.0909420396
 30
0.0
 11
282.7409894313
 21
320.0909420396
 31
0.0
  0
LINE
  5
1E9
330
1F
100
AcDbEntity
  8
0
  6
Continuous
 62
     7
370
    15
100
AcDbLine
 10
283.9909882392
 20
317.4409418846
 30
0.0
 11
283.9909882392
 21
320.0909420396
 31
0.0
  0
LINE
  5
1EA
330
1F
100
AcDbEntity
  8
0
  6
Continuous
 62
     7
370
    15
100
AcDbLine
 10
286.9909887309
 20
317.4409418846
 30
0.0
 11
283.9909882392
 21
317.4409418846
 31
0.0
  0
LINE
  5
1EB
330
1F
100
AcDbEntity
  8
0
  6
Continuous
 62
     7
370
    15
100
AcDbLine
 10
286.9909887309
 20
320.0909420396
 30
0.0
 11
286.9909887309
 21
317.4409418846
 31
0.0
  0
LINE
  5
1EC
330
1F
100
AcDbEntity
  8
0
  6
Continuous
 62
     7
370
    15
100
AcDbLine
 10
288.2409894015
 20
320.0909420396
 30
0.0
 11
286.9909887309
 21
320.0909420396
 31
0.0
  0
LINE
  5
1ED
330
1F
100
AcDbEntity
  8
0
  6
Continuous
 62
     7
370
    15
100
AcDbLine
 10
288.2409894015
 20
322.0909423674
 30
0.0
 11
288.2409894015
 21
320.0909420396
 31
0.0
  0
LINE
  5
1EE
330
1F
100
AcDbEntity
  8
0
  6
Continuous
 62
     7
370
    15
100
AcDbLine
 10
286.9909887309
 20
322.0909423674
 30
0.0
 11
288.2409894015
 21
322.0909423674
 31
0.0
  0
LINE
  5
1EF
330
1F
100
AcDbEntity
  8
0
  6
Continuous
 62
     7
370
    15
100
AcDbLine
 10
286.9909887309
 20
328.0909433509
 30
0.0
 11
286.9909887309
 21
322.0909423674
 31
0.0
  0
LINE
  5
1F0
330
1F
100
AcDbEntity
  8
0
  6
Continuous
 62
     7
370
    15
100
AcDbLine
 10
293.0909895445
 20
328.0909433509
 30
0.0
 11
286.9909887309
 21
328.0909433509
 31
0.0
  0
LINE
  5
1F1
330
1F
100
AcDbEntity
  8
0
  6
Continuous
 62
     7
370
    15
100
AcDbLine
 10
293.0909895445
 20
334.4409428085
 30
0.0
 11
293.0909895445
 21
328.0909433509
 31
0.0
  0
LINE
  5
1F2
330
1F
100
AcDbEntity
  8
0
  6
Continuous
 62
     7
370
    15
100
AcDbLine
 10
299.0909886654
 20
334.4409428085
 30
0.0
 11
293.0909895445
 21
334.4409428085
 31
0.0
  0
ARC
  5
1F3
330
1F
100
AcDbEntity
  8
0
  6
Continuous
 62
     7
370
    15
100
AcDbCircle
 10
326.746019244
 20
418.0311929417
 30
0.0
 40
6.0
100
AcDbArc
 50
315.0
 51
0.0
  0
ARC
  5
1F4
330
1F
100
AcDbEntity
  8
0
  6
Continuous
 62
     7
370
    15
100
AcDbCircle
 10
300.746019244
 20
375.0606301932
 30
0.0
 40
6.0
100
AcDbArc
 50
135.0
 51
180.0
  0
ARC
  5
1F5
330
1F
100
AcDbEntity
  8
0
  6
Continuous
 62
     7
370
    15
100
AcDbCircle
 10
300.746019244
 20
367.0311929417
 30
0.0
 40
6.000000000000008
100
AcDbArc
 50
180.0
 51
225.0
  0
ARC
  5
1F6
330
1F
100
AcDbEntity
  8
0
  6
Continuous
 62
     7
370
    15
100
AcDbCircle
 10
300.2607378698
 20
336.5459115675
 30
0.0
 40
6.000000000000049
100
AcDbArc
 50
45.0
 51
90.0
  0
ARC
  5
1F7
330
1F
100
AcDbEntity
  8
0
  6
Continuous
 62
     7
370
    15
100
AcDbCircle
 10
149.2313006182
 20
336.5459115675
 30
0.0
 40
6.000000000000008
100
AcDbArc
 50
90.0
 51
135.0
  0
ARC
  5
1F8
330
1F
100
AcDbEntity
  8
0
  6
Continuous
 62
     7
370
    15
100
AcDbCircle
 10
128.746019244
 20
347.0311929417
 30
0.0
 40
6.000000000000068
100
AcDbArc
 50
315.0
 51
0.0
  0
ARC
  5
1F9
330
1F
100
AcDbEntity
  8
0
  6
Continuous
 62
     7
370
    15
100
AcDbCircle
 10
128.746019244
 20
362.0606301932
 30
0.0
 40
6.0
100
AcDbArc
 50
0.0
 51
45.0
  0
ARC
  5
1FA
330
1F
100
AcDbEntity
  8
0
  6
Continuous
 62
     7
370
    15
100
AcDbCircle
 10
122.746019244
 20
385.0311929417
 30
0.0
 40
6.0
100
AcDbArc
 50
180.0
 51
225.0
  0
ARC
  5
1FB
330
1F
100
AcDbEntity
  8
0
  6
Continuous
 62
     7
370
    15
100
AcDbCircle
 10
122.746019244
 20
402.0606301932
 30
0.0
 40
6.000000000000019
100
AcDbArc
 50
135.0
 51
180.0
  0
ARC
  5
1FC
330
1F
100
AcDbEntity
  8
0
  6
Continuous
 62
     7
370
    15
100
AcDbCircle
 10
128.746019244
 20
425.0311929417
 30
0.0
 40
6.000000000000028
100
AcDbArc
 50
315.0
 51
0.0
  0
ARC
  5
1FD
330
1F
100
AcDbEntity
  8
0
  6
Continuous
 62
     7
370
    15
100
AcDbCircle
 10
128.746019244
 20
430.0606301932
 30
0.0
 40
6.000000000000028
100
AcDbArc
 50
0.0
 51
45.0
  0
ARC
  5
1FE
330
1F
100
AcDbEntity
  8
0
  6
Continuous
 62
     7
370
    15
100
AcDbCircle
 10
122.746019244
 20
453.0311929417
 30
0.0
 40
6.000000000000019
100
AcDbArc
 50
180.0
 51
225.0
  0
ARC
  5
1FF
330
1F
100
AcDbEntity
  8
0
  6
Continuous
 62
     7
370
    15
100
AcDbCircle
 10
122.746019244
 20
470.0606301932
 30
0.0
 40
6.0
100
AcDbArc
 50
135.0
 51
180.0
  0
ARC
  5
200
330
1F
100
AcDbEntity
  8
0
  6
Continuous
 62
     7
370
    15
100
AcDbCircle
 10
128.746019244
 20
493.0311929417
 30
0.0
 40
6.0
100
AcDbArc
 50
315.0
 51
0.0
  0
ARC
  5
201
330
1F
100
AcDbEntity
  8
0
  6
Continuous
 62
     7
370
    15
100
AcDbCircle
 10
128.746019244
 20
508.0606301932
 30
0.0
 40
6.000000000000028
100
AcDbArc
 50
0.0
 51
45.0
  0
ARC
  5
202
330
1F
100
AcDbEntity
  8
0
  6
Continuous
 62
     7
370
    15
100
AcDbCircle
 10
149.2313006182
 20
518.5459115675
 30
0.0
 40
6.000000000000028
100
AcDbArc
 50
225.0
 51
270.0
  0
ARC
  5
203
330
1F
100
AcDbEntity
  8
0
  6
Continuous
 62
     7
370
    15
100
AcDbCircle
 10
300.2607378698
 20
518.5459115675
 30
0.0
 40
6.000000000000049
100
AcDbArc
 50
270.0
 51
315.0
  0
ARC
  5
204
330
1F
100
AcDbEntity
  8
0
  6
Continuous
 62
     7
370
    15
100
AcDbCircle
 10
300.746019244
 20
488.0606301932
 30
0.0
 40
6.000000000000008
100
AcDbArc
 50
135.0
 51
180.0
  0
ARC
  5
205
330
1F
100
AcDbEntity
  8
0
  6
Continuous
 62
     7
370
    15
100
AcDbCircle
 10
300.746019244
 20
480.0311929417
 30
0.0
 40
6.0
100
AcDbArc
 50
180.0
 51
225.0
  0
ARC
  5
206
330
1F
100
AcDbEntity
  8
0
  6
Continuous
 62
     7
370
    15
100
AcDbCircle
 10
326.746019244
 20
437.0606301932
 30
0.0
 40
6.000000000000008
100
AcDbArc
 50
0.0
 51
45.0
  0
ARC
  5
207
330
1F
100
AcDbEntity
  8
0
  6
Continuous
 62
     7
370
    15
100
AcDbCircle
 10
199.2313006182
 20
468.5459115675
 30
0.0
 40
6.0
100
AcDbArc
 50
225.0
 51
270.0
  0
LINE
  5
208
330
1F
100
AcDbEntity
  8
0
  6
Continuous
 62
     7
370
    15
100
AcDbLine
 10
250.2607373891
 20
462.5459117165
 30
0.0
 11
199.2313010989
 21
462.5459117165
 31
0.0
  0
ARC
  5
209
330
1F
100
AcDbEntity
  8
0
  6
Continuous
 62
     7
370
    15
100
AcDbCircle
 10
250.2607378698
 20
468.5459115675
 30
0.0
 40
6.0
100
AcDbArc
 50
270.0
 51
315.0
  0
LINE
  5
20A
330
1F
100
AcDbEntity
  8
0
  6
Continuous
 62
     7
370
    15
100
AcDbLine
 10
282.5033782421
 20
492.3032735756
 30
0.0
 11
254.5033792404
 21
464.3032727113
 31
0.0
  0
ARC
  5
20B
330
1F
100
AcDbEntity
  8
0
  6
Continuous
 62
     7
370
    15
100
AcDbCircle
 10
278.2607378698
 20
496.5459115675
 30
0.0
 40
6.000000000000008
100
AcDbArc
 50
315.0
 51
90.0
  0
LINE
  5
20C
330
1F
100
AcDbEntity
  8
0
  6
Continuous
 62
     7
370
    15
100
AcDbLine
 10
171.2313002346
 20
502.5459145477
 30
0.0
 11
278.2607382534
 21
502.5459145477
 31
0.0
  0
ARC
  5
20D
330
1F
100
AcDbEntity
  8
0
  6
Continuous
 62
     7
370
    15
100
AcDbCircle
 10
171.2313006182
 20
496.5459115675
 30
0.0
 40
6.000000000000008
100
AcDbArc
 50
90.0
 51
225.0
  0
LINE
  5
20E
330
1F
100
AcDbEntity
  8
0
  6
Continuous
 62
     7
370
    15
100
AcDbLine
 10
194.9886592476
 20
464.3032727113
 30
0.0
 11
166.9886602459
 21
492.3032735756
 31
0.0
  0
ARC
  5
20F
330
1F
100
AcDbEntity
  8
0
  6
Continuous
 62
     7
370
    15
100
AcDbCircle
 10
250.746019244
 20
425.0311929417
 30
0.0
 40
6.000000000000028
100
AcDbArc
 50
180.0
 51
225.0
  0
LINE
  5
210
330
1F
100
AcDbEntity
  8
0
  6
Continuous
 62
     7
370
    15
100
AcDbLine
 10
262.9886610804
 20
404.3032703271
 30
0.0
 11
246.5033779291
 21
420.7885520814
 31
0.0
  0
ARC
  5
211
330
1F
100
AcDbEntity
  8
0
  6
Continuous
 62
     7
370
    15
100
AcDbCircle
 10
267.2313006182
 20
408.5459115675
 30
0.0
 40
6.000000000000049
100
AcDbArc
 50
225.0
 51
270.0
  0
LINE
  5
212
330
1F
100
AcDbEntity
  8
0
  6
Continuous
 62
     7
370
    15
100
AcDbLine
 10
272.2607372699
 20
402.5459111949
 30
0.0
 11
267.2313010691
 21
402.5459111949
 31
0.0
  0
ARC
  5
213
330
1F
100
AcDbEntity
  8
0
  6
Continuous
 62
     7
370
    15
100
AcDbCircle
 10
272.2607378698
 20
408.5459115675
 30
0.0
 40
6.000000000000049
100
AcDbArc
 50
270.0
 51
315.0
  0
LINE
  5
214
330
1F
100
AcDbEntity
  8
0
  6
Continuous
 62
     7
370
    15
100
AcDbLine
 10
282.9886606334
 20
410.7885518392
 30
0.0
 11
276.5033772586
 21
404.3032703271
 31
0.0
  0
ARC
  5
215
330
1F
100
AcDbEntity
  8
0
  6
Continuous
 62
     7
370
    15
100
AcDbCircle
 10
278.746019244
 20
415.0311929417
 30
0.0
 40
6.000000000000008
100
AcDbArc
 50
315.0
 51
0.0
  0
LINE
  5
216
330
1F
100
AcDbEntity
  8
0
  6
Continuous
 62
     7
370
    15
100
AcDbLine
 10
284.7460179029
 20
440.0606303757
 30
0.0
 11
284.7460179029
 21
415.0311927592
 31
0.0
  0
ARC
  5
217
330
1F
100
AcDbEntity
  8
0
  6
Continuous
 62
     7
370
    15
100
AcDbCircle
 10
278.746019244
 20
440.0606301932
 30
0.0
 40
6.0
100
AcDbArc
 50
0.0
 51
45.0
  0
LINE
  5
218
330
1F
100
AcDbEntity
  8
0
  6
Continuous
 62
     7
370
    15
100
AcDbLine
 10
276.5033772586
 20
450.7885528078
 30
0.0
 11
282.9886606334
 21
444.3032712957
 31
0.0
  0
ARC
  5
219
330
1F
100
AcDbEntity
  8
0
  6
Continuous
 62
     7
370
    15
100
AcDbCircle
 10
272.2607378698
 20
446.5459115675
 30
0.0
 40
6.000000000000049
100
AcDbArc
 50
45.0
 51
90.0
  0
LINE
  5
21A
330
1F
100
AcDbEntity
  8
0
  6
Continuous
 62
     7
370
    15
100
AcDbLine
 10
267.2313010691
 20
452.54591194
 30
0.0
 11
272.2607372699
 21
452.54591194
 31
0.0
  0
ARC
  5
21B
330
1F
100
AcDbEntity
  8
0
  6
Continuous
 62
     7
370
    15
100
AcDbCircle
 10
267.2313006182
 20
446.5459115675
 30
0.0
 40
6.000000000000049
100
AcDbArc
 50
90.0
 51
135.0
  0
LINE
  5
21C
330
1F
100
AcDbEntity
  8
0
  6
Continuous
 62
     7
370
    15
100
AcDbLine
 10
246.5033779291
 20
434.3032710535
 30
0.0
 11
262.9886610804
 21
450.7885528078
 31
0.0
  0
ARC
  5
21D
330
1F
100
AcDbEntity
  8
0
  6
Continuous
 62
     7
370
    15
100
AcDbCircle
 10
250.746019244
 20
430.0606301932
 30
0.0
 40
6.000000000000028
100
AcDbArc
 50
135.0
 51
180.0
  0
LINE
  5
21E
330
1F
100
AcDbEntity
  8
0
  6
Continuous
 62
     7
370
    15
100
AcDbLine
 10
244.746018797
 20
425.0311930014
 30
0.0
 11
244.746018797
 21
430.0606301335
 31
0.0
  0
ARC
  5
21F
330
1F
100
AcDbEntity
  8
0
  6
Continuous
 62
     7
370
    15
100
AcDbCircle
 10
167.2313006182
 20
446.5459115675
 30
0.0
 40
6.0
100
AcDbArc
 50
90.0
 51
135.0
  0
LINE
  5
220
330
1F
100
AcDbEntity
  8
0
  6
Continuous
 62
     7
370
    15
100
AcDbLine
 10
146.5033820269
 20
434.3032710535
 30
0.0
 11
162.9886595903
 21
450.7885528078
 31
0.0
  0
ARC
  5
221
330
1F
100
AcDbEntity
  8
0
  6
Continuous
 62
     7
370
    15
100
AcDbCircle
 10
150.746019244
 20
430.0606301932
 30
0.0
 40
6.000000000000049
100
AcDbArc
 50
135.0
 51
180.0
  0
LINE
  5
222
330
1F
100
AcDbEntity
  8
0
  6
Continuous
 62
     7
370
    15
100
AcDbLine
 10
144.7460210321
 20
425.0311930014
 30
0.0
 11
144.7460210321
 21
430.0606301335
 31
0.0
  0
ARC
  5
223
330
1F
100
AcDbEntity
  8
0
  6
Continuous
 62
     7
370
    15
100
AcDbCircle
 10
150.746019244
 20
425.0311929417
 30
0.0
 40
6.000000000000049
100
AcDbArc
 50
180.0
 51
225.0
  0
LINE
  5
224
330
1F
100
AcDbEntity
  8
0
  6
Continuous
 62
     7
370
    15
100
AcDbLine
 10
162.9886595903
 20
404.3032703271
 30
0.0
 11
146.5033820269
 21
420.7885520814
 31
0.0
  0
ARC
  5
225
330
1F
100
AcDbEntity
  8
0
  6
Continuous
 62
     7
370
    15
100
AcDbCircle
 10
167.2313006182
 20
408.5459115675
 30
0.0
 40
6.0
100
AcDbArc
 50
225.0
 51
270.0
  0
LINE
  5
226
330
1F
100
AcDbEntity
  8
0
  6
Continuous
 62
     7
370
    15
100
AcDbLine
 10
182.2607374189
 20
402.5459111949
 30
0.0
 11
167.2312995789
 21
402.5459111949
 31
0.0
  0
ARC
  5
227
330
1F
100
AcDbEntity
  8
0
  6
Continuous
 62
     7
370
    15
100
AcDbCircle
 10
182.2607378698
 20
408.5459115675
 30
0.0
 40
6.0
100
AcDbArc
 50
270.0
 51
315.0
  0
LINE
  5
228
330
1F
100
AcDbEntity
  8
0
  6
Continuous
 62
     7
370
    15
100
AcDbLine
 10
202.9886605589
 20
420.7885520814
 30
0.0
 11
186.5033774076
 21
404.3032703271
 31
0.0
  0
ARC
  5
229
330
1F
100
AcDbEntity
  8
0
  6
Continuous
 62
     7
370
    15
100
AcDbCircle
 10
198.746019244
 20
425.0311929417
 30
0.0
 40
6.000000000000008
100
AcDbArc
 50
315.0
 51
0.0
  0
LINE
  5
22A
330
1F
100
AcDbEntity
  8
0
  6
Continuous
 62
     7
370
    15
100
AcDbLine
 10
204.746019691
 20
430.0606301335
 30
0.0
 11
204.746019691
 21
425.0311930014
 31
0.0
  0
ARC
  5
22B
330
1F
100
AcDbEntity
  8
0
  6
Continuous
 62
     7
370
    15
100
AcDbCircle
 10
198.746019244
 20
430.0606301932
 30
0.0
 40
6.000000000000008
100
AcDbArc
 50
0.0
 51
45.0
  0
LINE
  5
22C
330
1F
100
AcDbEntity
  8
0
  6
Continuous
 62
     7
370
    15
100
AcDbLine
 10
186.5033774076
 20
450.7885528078
 30
0.0
 11
202.9886605589
 21
434.3032710535
 31
0.0
  0
ARC
  5
22D
330
1F
100
AcDbEntity
  8
0
  6
Continuous
 62
     7
370
    15
100
AcDbCircle
 10
182.2607378698
 20
446.5459115675
 30
0.0
 40
6.0
100
AcDbArc
 50
45.0
 51
90.0
  0
LINE
  5
22E
330
1F
100
AcDbEntity
  8
0
  6
Continuous
 62
     7
370
    15
100
AcDbLine
 10
167.2312995789
 20
452.54591194
 30
0.0
 11
182.2607374189
 21
452.54591194
 31
0.0
  0
ARC
  5
22F
330
1F
100
AcDbEntity
  8
0
  6
Continuous
 62
     7
370
    15
100
AcDbCircle
 10
278.2607378698
 20
358.5459115675
 30
0.0
 40
6.000000000000049
100
AcDbArc
 50
270.0
 51
45.0
  0
LINE
  5
230
330
1F
100
AcDbEntity
  8
0
  6
Continuous
 62
     7
370
    15
100
AcDbLine
 10
254.5033792404
 20
390.7885504236
 30
0.0
 11
282.5033782421
 21
362.7885495594
 31
0.0
  0
ARC
  5
231
330
1F
100
AcDbEntity
  8
0
  6
Continuous
 62
     7
370
    15
100
AcDbCircle
 10
250.2607378698
 20
386.5459115675
 30
0.0
 40
6.0
100
AcDbArc
 50
45.0
 51
90.0
  0
LINE
  5
232
330
1F
100
AcDbEntity
  8
0
  6
Continuous
 62
     7
370
    15
100
AcDbLine
 10
199.2313010989
 20
392.5459114184
 30
0.0
 11
250.2607373891
 21
392.5459114184
 31
0.0
  0
ARC
  5
233
330
1F
100
AcDbEntity
  8
0
  6
Continuous
 62
     7
370
    15
100
AcDbCircle
 10
199.2313006182
 20
386.5459115675
 30
0.0
 40
6.0
100
AcDbArc
 50
90.0
 51
135.0
  0
LINE
  5
234
330
1F
100
AcDbEntity
  8
0
  6
Continuous
 62
     7
370
    15
100
AcDbLine
 10
166.9886602459
 20
362.7885495594
 30
0.0
 11
194.9886592476
 21
390.7885504236
 31
0.0
  0
ARC
  5
235
330
1F
100
AcDbEntity
  8
0
  6
Continuous
 62
     7
370
    15
100
AcDbCircle
 10
171.2313006182
 20
358.5459115675
 30
0.0
 40
6.000000000000057
100
AcDbArc
 50
135.0
 51
270.0
  0
LINE
  5
236
330
1F
100
AcDbEntity
  8
0
  6
Continuous
 62
     7
370
    15
100
AcDbLine
 10
278.2607382534
 20
352.5459085872
 30
0.0
 11
171.2313002346
 21
352.5459085872
 31
0.0
  0
CIRCLE
  5
237
330
1F
100
AcDbEntity
  8
0
  6
Continuous
 62
     7
370
    15
100
AcDbCircle
 10
120.246019244
 20
532.0459115675
 30
0.0
 40
1.600000000000023
  0
CIRCLE
  5
238
330
1F
100
AcDbEntity
  8
0
  6
Continuous
 62
     7
370
    15
100
AcDbCircle
 10
329.246019244
 20
532.0459115675
 30
0.0
 40
1.600000000000023
  0
CIRCLE
  5
239
330
1F
100
AcDbEntity
  8
0
  6
Continuous
 62
     7
370
    15
100
AcDbCircle
 10
329.246019244
 20
323.0459115675
 30
0.0
 40
1.599999999999966
  0
CIRCLE
  5
23A
330
1F
100
AcDbEntity
  8
0
  6
Continuous
 62
     7
370
    15
100
AcDbCircle
 10
120.246019244
 20
323.0459115675
 30
0.0
 40
1.599999999999966
  0
CIRCLE
  5
23B
330
1F
100
AcDbEntity
  8
0
  6
Continuous
 62
     7
370
    15
100
AcDbCircle
 10
324.746019244
 20
427.5459115675
 30
0.0
 40
1.599999999999966
  0
CIRCLE
  5
23C
330
1F
100
AcDbEntity
  8
0
  6
Continuous
 62
     7
370
    15
100
AcDbCircle
 10
294.746019244
 20
427.5459115675
 30
0.0
 40
1.599999999999966
  0
CIRCLE
  5
23D
330
1F
100
AcDbEntity
  8
0
  6
Continuous
 62
     7
370
    15
100
AcDbCircle
 10
224.746019244
 20
445.0459115675
 30
0.0
 40
1.599999999999966
  0
CIRCLE
  5
23E
330
1F
100
AcDbEntity
  8
0
  6
Continuous
 62
     7
370
    15
100
AcDbCircle
 10
236.746019244
 20
410.0459115675
 30
0.0
 40
1.600000000000023
  0
CIRCLE
  5
23F
330
1F
100
AcDbEntity
  8
0
  6
Continuous
 62
     7
370
    15
100
AcDbCircle
 10
212.746019244
 20
410.0459115675
 30
0.0
 40
1.600000000000023
  0
CIRCLE
  5
240
330
1F
100
AcDbEntity
  8
0
  6
Continuous
 62
     7
370
    15
100
AcDbCircle
 10
124.746019244
 20
462.5459115675
 30
0.0
 40
1.60000000000008
  0
CIRCLE
  5
241
330
1F
100
AcDbEntity
  8
0
  6
Continuous
 62
     7
370
    15
100
AcDbCircle
 10
154.746019244
 20
462.5459115675
 30
0.0
 40
1.600000000000023
  0
CIRCLE
  5
242
330
1F
100
AcDbEntity
  8
0
  6
Continuous
 62
     7
370
    15
100
AcDbCircle
 10
154.746019244
 20
392.5459115675
 30
0.0
 40
1.60000000000008
  0
CIRCLE
  5
243
330
1F
100
AcDbEntity
  8
0
  6
Continuous
 62
     7
370
    15
100
AcDbCircle
 10
124.746019244
 20
392.5459115675
 30
0.0
 40
1.600000000000023
  0
LINE
  5
244
330
1F
100
AcDbEntity
  8
0
  6
Continuous
 62
     7
370
    15
100
AcDbLine
 10
118.5033774374
 20
474.3032706251
 30
0.0
 11
132.9886621235
 21
488.7885515859
 31
0.0
  0
LINE
  5
245
330
1F
100
AcDbEntity
  8
0
  6
Continuous
 62
     7
370
    15
100
AcDbLine
 10
134.7460156677
 20
493.0311952999
 30
0.0
 11
134.7460156677
 21
508.0606331399
 31
0.0
  0
LINE
  5
246
330
1F
100
AcDbEntity
  8
0
  6
Continuous
 62
     7
370
    15
100
AcDbLine
 10
132.9886621235
 20
512.3032694032
 30
0.0
 11
116.7460164426
 21
528.5459150841
 31
0.0
  0
ARC
  5
247
330
1F
100
AcDbEntity
  8
0
  6
Continuous
 62
     7
370
    15
100
AcDbCircle
 10
120.246019244
 20
532.0459115675
 30
0.0
 40
4.949747468305853
100
AcDbArc
 50
45.0
 51
225.0
  0
LINE
  5
248
330
1F
100
AcDbEntity
  8
0
  6
Continuous
 62
     7
370
    15
100
AcDbLine
 10
123.7460157273
 20
535.5459143689
 30
0.0
 11
144.9886566398
 21
514.3032734563
 31
0.0
  0
LINE
  5
249
330
1F
100
AcDbEntity
  8
0
  6
Continuous
 62
     7
370
    15
100
AcDbLine
 10
149.2313003538
 20
512.5459124615
 30
0.0
 11
300.2607381342
 21
512.5459124615
 31
0.0
  0
LINE
  5
24A
330
1F
100
AcDbEntity
  8
0
  6
Continuous
 62
     7
370
    15
100
AcDbLine
 10
304.5033818481
 20
514.3032734563
 30
0.0
 11
325.7460227607
 21
535.5459143689
 31
0.0
  0
ARC
  5
24B
330
1F
100
AcDbEntity
  8
0
  6
Continuous
 62
     7
370
    15
100
AcDbCircle
 10
329.246019244
 20
532.0459115675
 30
0.0
 40
4.949747468305873
100
AcDbArc
 50
315.0
 51
135.0
  0
LINE
  5
24C
330
1F
100
AcDbEntity
  8
0
  6
Continuous
 62
     7
370
    15
100
AcDbLine
 10
332.7460220454
 20
528.5459150841
 30
0.0
 11
296.5033805368
 21
492.3032735756
 31
0.0
  0
LINE
  5
24D
330
1F
100
AcDbEntity
  8
0
  6
Continuous
 62
     7
370
    15
100
AcDbLine
 10
294.746019542
 20
488.0606298616
 30
0.0
 11
294.746019542
 21
480.0311913064
 31
0.0
  0
LINE
  5
24E
330
1F
100
AcDbEntity
  8
0
  6
Continuous
 62
     7
370
    15
100
AcDbLine
 10
296.5033805368
 20
475.7885513177
 30
0.0
 11
330.9886610506
 21
441.3032708039
 31
0.0
  0
LINE
  5
24F
330
1F
100
AcDbEntity
  8
0
  6
Continuous
 62
     7
370
    15
100
AcDbLine
 10
332.7460220454
 20
437.060629884
 30
0.0
 11
332.7460220454
 21
418.031193251
 31
0.0
  0
LINE
  5
250
330
1F
100
AcDbEntity
  8
0
  6
Continuous
 62
     7
370
    15
100
AcDbLine
 10
330.9886610506
 20
413.788552331
 30
0.0
 11
296.5033805368
 21
379.3032718172
 31
0.0
  0
LINE
  5
251
330
1F
100
AcDbEntity
  8
0
  6
Continuous
 62
     7
370
    15
100
AcDbLine
 10
294.746019542
 20
375.0606318286
 30
0.0
 11
294.746019542
 21
367.0311932733
 31
0.0
  0
LINE
  5
252
330
1F
100
AcDbEntity
  8
0
  6
Continuous
 62
     7
370
    15
100
AcDbLine
 10
296.5033805368
 20
362.7885495594
 30
0.0
 11
332.7460220454
 21
326.5459080508
 31
0.0
  0
ARC
  5
253
330
1F
100
AcDbEntity
  8
0
  6
Continuous
 62
     7
370
    15
100
AcDbCircle
 10
329.246019244
 20
323.0459115675
 30
0.0
 40
4.949747468305833
100
AcDbArc
 50
225.0
 51
45.0
  0
LINE
  5
254
330
1F
100
AcDbEntity
  8
0
  6
Continuous
 62
     7
370
    15
100
AcDbLine
 10
325.7460227607
 20
319.545908766
 30
0.0
 11
304.5033818481
 21
340.7885496786
 31
0.0
  0
LINE
  5
255
330
1F
100
AcDbEntity
  8
0
  6
Continuous
 62
     7
370
    15
100
AcDbLine
 10
300.2607381342
 20
342.5459106734
 30
0.0
 11
149.2313003538
 21
342.5459106734
 31
0.0
  0
LINE
  5
256
330
1F
100
AcDbEntity
  8
0
  6
Continuous
 62
     7
370
    15
100
AcDbLine
 10
144.9886566398
 20
340.7885496786
 30
0.0
 11
123.7460157273
 21
319.545908766
 31
0.0
  0
ARC
  5
257
330
1F
100
AcDbEntity
  8
0
  6
Continuous
 62
     7
370
    15
100
AcDbCircle
 10
120.246019244
 20
323.0459115675
 30
0.0
 40
4.949747468305833
100
AcDbArc
 50
135.0
 51
315.0
  0
LINE
  5
258
330
1F
100
AcDbEntity
  8
0
  6
Continuous
 62
     7
370
    15
100
AcDbLine
 10
116.7460164426
 20
326.5459080508
 30
0.0
 11
132.9886621235
 21
342.7885537317
 31
0.0
  0
LINE
  5
259
330
1F
100
AcDbEntity
  8
0
  6
Continuous
 62
     7
370
    15
100
AcDbLine
 10
134.7460156677
 20
347.0311899951
 30
0.0
 11
134.7460156677
 21
362.060627835
 31
0.0
  0
LINE
  5
25A
330
1F
100
AcDbEntity
  8
0
  6
Continuous
 62
     7
370
    15
100
AcDbLine
 10
132.9886621235
 20
366.303271549
 30
0.0
 11
118.5033774374
 21
380.7885525098
 31
0.0
  0
LINE
  5
25B
330
1F
100
AcDbEntity
  8
0
  6
Continuous
 62
     7
370
    15
100
AcDbLine
 10
116.7460164426
 20
385.0311924985
 30
0.0
 11
116.7460164426
 21
402.0606306663
 31
0.0
  0
LINE
  5
25C
330
1F
100
AcDbEntity
  8
0
  6
Continuous
 62
     7
370
    15
100
AcDbLine
 10
118.5033774374
 20
406.3032706549
 30
0.0
 11
132.9886621235
 21
420.7885520814
 31
0.0
  0
LINE
  5
25D
330
1F
100
AcDbEntity
  8
0
  6
Continuous
 62
     7
370
    15
100
AcDbLine
 10
134.7460156677
 20
425.0311930014
 30
0.0
 11
134.7460156677
 21
430.0606301335
 31
0.0
  0
LINE
  5
25E
330
1F
100
AcDbEntity
  8
0
  6
Continuous
 62
     7
370
    15
100
AcDbLine
 10
132.9886621235
 20
434.3032710535
 30
0.0
 11
118.5033774374
 21
448.78855248
 31
0.0
  0
LINE
  5
25F
330
1F
100
AcDbEntity
  8
0
  6
Continuous
 62
     7
370
    15
100
AcDbLine
 10
116.7460164426
 20
453.0311924687
 30
0.0
 11
116.7460164426
 21
470.0606306365
 31
0.0
  0
LINE
  5
260
330
1F
100
AcDbEntity
  8
0
  6
Continuous
 62
     7
370
    15
100
AcDbLine
 10
457.6783488496
 20
488.6122977424
 30
0.0
 11
451.6058137226
 21
486.7557374399
 31
0.0
  0
LINE
  5
261
330
1F
100
AcDbEntity
  8
0
  6
Continuous
 62
     7
370
    15
100
AcDbLine
 10
451.6058137226
 20
486.7557374399
 30
0.0
 11
454.5222218327
 21
477.2165963363
 31
0.0
  0
LINE
  5
262
330
1F
100
AcDbEntity
  8
0
  6
Continuous
 62
     7
370
    15
100
AcDbLine
 10
454.5222218327
 20
477.2165963363
 30
0.0
 11
444.3448848879
 21
474.0789333359
 31
0.0
  0
LINE
  5
263
330
1F
100
AcDbEntity
  8
0
  6
Continuous
 62
     7
370
    15
100
AcDbLine
 10
444.3448848879
 20
474.0789333359
 30
0.0
 11
446.2014461435
 21
468.0063950917
 31
0.0
  0
LINE
  5
264
330
1F
100
AcDbEntity
  8
0
  6
Continuous
 62
     7
370
    15
100
AcDbLine
 10
446.2014461435
 20
468.0063950917
 30
0.0
 11
456.3860914155
 21
471.1201536311
 31
0.0
  0
LINE
  5
265
330
1F
100
AcDbEntity
  8
0
  6
Continuous
 62
     7
370
    15
100
AcDbLine
 10
456.3860914155
 20
471.1201536311
 30
0.0
 11
459.3098078528
 21
461.5571080665
 31
0.0
  0
LINE
  5
266
330
1F
100
AcDbEntity
  8
0
  6
Continuous
 62
     7
370
    15
100
AcDbLine
 10
459.3098078528
 20
461.5571080665
 30
0.0
 11
451.6729568656
 21
459.22228841
 31
0.0
  0
ARC
  5
267
330
1F
100
AcDbEntity
  8
0
  6
Continuous
 62
     7
370
    15
100
AcDbCircle
 10
448.1644963608
 20
470.6979446565
 30
0.0
 40
12.00000000000008
100
AcDbArc
 50
261.9647629484
 51
287.0
  0
LINE
  5
268
330
1F
100
AcDbEntity
  8
0
  6
Continuous
 62
     7
370
    15
100
AcDbLine
 10
446.4871104485
 20
458.8157595828
 30
0.0
 11
425.7263079997
 21
461.746517154
 31
0.0
  0
LINE
  5
269
330
1F
100
AcDbEntity
  8
0
  6
Continuous
 62
     7
370
    15
100
AcDbLine
 10
425.7263079997
 20
461.746517154
 30
0.0
 11
423.8697467441
 21
467.8190553982
 31
0.0
  0
LINE
  5
26A
330
1F
100
AcDbEntity
  8
0
  6
Continuous
 62
     7
370
    15
100
AcDbLine
 10
423.8697467441
 20
467.8190553982
 30
0.0
 11
423.4530247928
 21
533.6599069636
 31
0.0
  0
ARC
  5
26B
330
1F
100
AcDbEntity
  8
0
  6
Continuous
 62
     7
370
    15
100
AcDbCircle
 10
435.4527846362
 20
533.7358567836
 30
0.0
 40
11.99999999999999
100
AcDbArc
 50
107.0
 51
180.3626350552
  0
LINE
  5
26C
330
1F
100
AcDbEntity
  8
0
  6
Continuous
 62
     7
370
    15
100
AcDbLine
 10
431.944326235
 20
545.2115070042
 30
0.0
 11
433.5811001549
 21
545.7119190102
 31
0.0
  0
LINE
  5
26D
330
1F
100
AcDbEntity
  8
0
  6
Continuous
 62
     7
370
    15
100
AcDbLine
 10
433.5811001549
 20
545.7119190102
 30
0.0
 11
436.5048144139
 21
536.1488805706
 31
0.0
  0
LINE
  5
26E
330
1F
100
AcDbEntity
  8
0
  6
Continuous
 62
     7
370
    15
100
AcDbLine
 10
436.5048144139
 20
536.1488805706
 30
0.0
 11
442.5773495408
 21
538.0054408731
 31
0.0
  0
LINE
  5
26F
330
1F
100
AcDbEntity
  8
0
  6
Continuous
 62
     7
370
    15
100
AcDbLine
 10
442.5773495408
 20
538.0054408731
 30
0.0
 11
439.6536352819
 21
547.5684793127
 31
0.0
  0
LINE
  5
270
330
1F
100
AcDbEntity
  8
0
  6
Continuous
 62
     7
370
    15
100
AcDbLine
 10
439.6536352819
 20
547.5684793127
 30
0.0
 11
467.3864719615
 21
556.0472583696
 31
0.0
  0
ARC
  5
271
330
1F
100
AcDbEntity
  8
0
  6
Continuous
 62
     7
370
    15
100
AcDbCircle
 10
470.8949316437
 20
544.5716085406
 30
0.0
 40
12.00000000000002
100
AcDbArc
 50
17.0
 51
107.0
  0
LINE
  5
272
330
1F
100
AcDbEntity
  8
0
  6
Continuous
 62
     7
370
    15
100
AcDbLine
 10
482.3705897675
 20
548.0800675738
 30
0.0
 11
488.6880994742
 21
527.4164244073
 31
0.0
  0
ARC
  5
273
330
1F
100
AcDbEntity
  8
0
  6
Continuous
 62
     7
370
    15
100
AcDbCircle
 10
477.2124419666
 20
523.9079633586
 30
0.0
 40
11.99999999999997
100
AcDbArc
 50
313.7325006161
 51
17.0
  0
LINE
  5
274
330
1F
100
AcDbEntity
  8
0
  6
Continuous
 62
     7
370
    15
100
AcDbLine
 10
485.5079481466
 20
515.2370661431
 30
0.0
 11
457.6783488496
 21
488.6122977424
 31
0.0
  0
CIRCLE
  5
275
330
1F
100
AcDbEntity
  8
0
  6
Continuous
 62
     7
370
    15
100
AcDbCircle
 10
435.7101176589
 20
468.1189467827
 30
0.0
 40
1.599999999999961
  0
CIRCLE
  5
276
330
1F
100
AcDbEntity
  8
0
  6
Continuous
 62
     7
370
    15
100
AcDbCircle
 10
447.0915819856
 20
512.3805881303
 30
0.0
 40
1.599999999999999
  0
CIRCLE
  5
277
330
1F
100
AcDbEntity
  8
0
  6
Continuous
 62
     7
370
    15
100
AcDbCircle
 10
471.3864832638
 20
543.9899067228
 30
0.0
 40
3.99999999999999
  0
CIRCLE
  5
278
330
1F
100
AcDbEntity
  8
0
  6
Continuous
 62
     7
370
    15
100
AcDbCircle
 10
476.356802244
 20
527.7327258715
 30
0.0
 40
5.000000000000023
  0
CIRCLE
  5
279
330
1F
100
AcDbEntity
  8
0
  6
Continuous
 62
     7
370
    15
100
AcDbCircle
 10
456.6248059095
 20
317.5849973106
 30
0.0
 40
11.5
  0
CIRCLE
  5
27A
330
1F
100
AcDbEntity
  8
0
  6
Continuous
 62
     7
370
    15
100
AcDbCircle
 10
439.6248059095
 20
317.5849973106
 30
0.0
 40
4.0
  0
LINE
  5
27B
330
1F
100
AcDbEntity
  8
0
  6
Continuous
 62
     7
370
    15
100
AcDbLine
 10
486.9248005451
 20
288.2849972339
 30
0.0
 11
470.2248009743
 21
288.2849972339
 31
0.0
  0
LINE
  5
27C
330
1F
100
AcDbEntity
  8
0
  6
Continuous
 62
     7
370
    15
100
AcDbLine
 10
470.2248009743
 20
288.2849972339
 30
0.0
 11
470.2248009743
 21
281.9349973106
 31
0.0
  0
LINE
  5
27D
330
1F
100
AcDbEntity
  8
0
  6
Continuous
 62
     7
370
    15
100
AcDbLine
 10
470.2248009743
 20
281.9349973106
 30
0.0
 11
464.2248037161
 21
281.9349973106
 31
0.0
  0
LINE
  5
27E
330
1F
100
AcDbEntity
  8
0
  6
Continuous
 62
     7
370
    15
100
AcDbLine
 10
464.2248037161
 20
281.9349973106
 30
0.0
 11
464.2248037161
 21
288.2849972339
 31
0.0
  0
LINE
  5
27F
330
1F
100
AcDbEntity
  8
0
  6
Continuous
 62
     7
370
    15
100
AcDbLine
 10
464.2248037161
 20
288.2849972339
 30
0.0
 11
458.1248047651
 21
288.2849972339
 31
0.0
  0
LINE
  5
280
330
1F
100
AcDbEntity
  8
0
  6
Continuous
 62
     7
370
    15
100
AcDbLine
 10
458.1248047651
 20
294.2849977517
 30
0.0
 11
458.1248047651
 21
288.2849972339
 31
0.0
  0
LINE
  5
281
330
1F
100
AcDbEntity
  8
0
  6
Continuous
 62
     7
370
    15
100
AcDbLine
 10
459.374803573
 20
294.2849977517
 30
0.0
 11
458.1248047651
 21
294.2849977517
 31
0.0
  0
LINE
  5
282
330
1F
100
AcDbEntity
  8
0
  6
Continuous
 62
     7
370
    15
100
AcDbLine
 10
459.374803573
 20
296.2849971482
 30
0.0
 11
459.374803573
 21
294.2849977517
 31
0.0
  0
LINE
  5
283
330
1F
100
AcDbEntity
  8
0
  6
Continuous
 62
     7
370
    15
100
AcDbLine
 10
458.1248047651
 20
296.2849971482
 30
0.0
 11
459.374803573
 21
296.2849971482
 31
0.0
  0
LINE
  5
284
330
1F
100
AcDbEntity
  8
0
  6
Continuous
 62
     7
370
    15
100
AcDbLine
 10
458.1248047651
 20
298.9349982345
 30
0.0
 11
458.1248047651
 21
296.2849971482
 31
0.0
  0
LINE
  5
285
330
1F
100
AcDbEntity
  8
0
  6
Continuous
 62
     7
370
    15
100
AcDbLine
 10
455.1247986855
 20
298.9349982345
 30
0.0
 11
458.1248047651
 21
298.9349982345
 31
0.0
  0
LINE
  5
286
330
1F
100
AcDbEntity
  8
0
  6
Continuous
 62
     7
370
    15
100
AcDbLine
 10
455.1247986855
 20
296.2849971482
 30
0.0
 11
455.1247986855
 21
298.9349982345
 31
0.0
  0
LINE
  5
287
330
1F
100
AcDbEntity
  8
0
  6
Continuous
 62
     7
370
    15
100
AcDbLine
 10
453.8747998776
 20
296.2849971482
 30
0.0
 11
455.1247986855
 21
296.2849971482
 31
0.0
  0
LINE
  5
288
330
1F
100
AcDbEntity
  8
0
  6
Continuous
 62
     7
370
    15
100
AcDbLine
 10
453.8747998776
 20
294.2849977517
 30
0.0
 11
453.8747998776
 21
296.2849971482
 31
0.0
  0
LINE
  5
289
330
1F
100
AcDbEntity
  8
0
  6
Continuous
 62
     7
370
    15
100
AcDbLine
 10
455.1247986855
 20
294.2849977517
 30
0.0
 11
453.8747998776
 21
294.2849977517
 31
0.0
  0
LINE
  5
28A
330
1F
100
AcDbEntity
  8
0
  6
Continuous
 62
     7
370
    15
100
AcDbLine
 10
455.1247986855
 20
288.2849972339
 30
0.0
 11
455.1247986855
 21
294.2849977517
 31
0.0
  0
LINE
  5
28B
330
1F
100
AcDbEntity
  8
0
  6
Continuous
 62
     7
370
    15
100
AcDbLine
 10
455.1247986855
 20
288.2849972339
 30
0.0
 11
449.0247997345
 21
288.2849972339
 31
0.0
  0
LINE
  5
28C
330
1F
100
AcDbEntity
  8
0
  6
Continuous
 62
     7
370
    15
100
AcDbLine
 10
449.0247997345
 20
281.9349973106
 30
0.0
 11
443.0248024763
 21
281.9349973106
 31
0.0
  0
LINE
  5
28D
330
1F
100
AcDbEntity
  8
0
  6
Continuous
 62
     7
370
    15
100
AcDbLine
 10
443.0248024763
 20
288.2849972339
 30
0.0
 11
426.9248130621
 21
288.2849972339
 31
0.0
  0
LINE
  5
28E
330
1F
100
AcDbEntity
  8
0
  6
Continuous
 62
     7
370
    15
100
AcDbLine
 10
426.9248130621
 20
288.2849972339
 30
0.0
 11
426.9248130621
 21
333.2849985564
 31
0.0
  0
ARC
  5
28F
330
1F
100
AcDbEntity
  8
0
  6
Continuous
 62
     7
370
    15
100
AcDbCircle
 10
431.9248059095
 20
333.2849973106
 30
0.0
 40
5.0
100
AcDbArc
 50
90.0
 51
180.0
  0
LINE
  5
290
330
1F
100
AcDbEntity
  8
0
  6
Continuous
 62
     7
370
    15
100
AcDbLine
 10
431.9248082937
 20
338.2849975133
 30
0.0
 11
481.9248053135
 21
338.2849975133
 31
0.0
  0
ARC
  5
291
330
1F
100
AcDbEntity
  8
0
  6
Continuous
 62
     7
370
    15
100
AcDbCircle
 10
481.9248059095
 20
333.2849973106
 30
0.0
 40
5.0
100
AcDbArc
 50
0.0
 51
90.0
  0
LINE
  5
292
330
1F
100
AcDbEntity
  8
0
  6
Continuous
 62
     7
370
    15
100
AcDbLine
 10
486.9248005451
 20
333.2849985564
 30
0.0
 11
486.9248005451
 21
288.2849972339
 31
0.0
  0
LINE
  5
293
330
1F
100
AcDbEntity
  8
0
  6
Continuous
 62
     7
370
    15
100
AcDbLine
 10
435.304808885
 20
299.5849980616
 30
0.0
 11
428.9048048557
 21
299.5849980616
 31
0.0
  0
LINE
  5
294
330
1F
100
AcDbEntity
  8
0
  6
Continuous
 62
     7
370
    15
100
AcDbLine
 10
435.304808885
 20
305.7849968427
 30
0.0
 11
435.304808885
 21
299.5849980616
 31
0.0
  0
LINE
  5
295
330
1F
100
AcDbEntity
  8
0
  6
Continuous
 62
     7
370
    15
100
AcDbLine
 10
428.9048048557
 20
305.7849968427
 30
0.0
 11
435.304808885
 21
305.7849968427
 31
0.0
  0
LINE
  5
296
330
1F
100
AcDbEntity
  8
0
  6
Continuous
 62
     7
370
    15
100
AcDbLine
 10
428.9048048557
 20
299.5849980616
 30
0.0
 11
428.9048048557
 21
305.7849968427
 31
0.0
  0
LINE
  5
297
330
1F
100
AcDbEntity
  8
0
  6
Continuous
 62
     7
370
    15
100
AcDbLine
 10
435.304808885
 20
320.7849955761
 30
0.0
 11
428.9048048557
 21
320.7849955761
 31
0.0
  0
LINE
  5
298
330
1F
100
AcDbEntity
  8
0
  6
Continuous
 62
     7
370
    15
100
AcDbLine
 10
435.304808885
 20
326.9849962199
 30
0.0
 11
435.304808885
 21
320.7849955761
 31
0.0
  0
LINE
  5
299
330
1F
100
AcDbEntity
  8
0
  6
Continuous
 62
     7
370
    15
100
AcDbLine
 10
428.9048048557
 20
326.9849962199
 30
0.0
 11
435.304808885
 21
326.9849962199
 31
0.0
  0
LINE
  5
29A
330
1F
100
AcDbEntity
  8
0
  6
Continuous
 62
     7
370
    15
100
AcDbLine
 10
428.9048048557
 20
320.7849955761
 30
0.0
 11
428.9048048557
 21
326.9849962199
 31
0.0
  0
LINE
  5
29B
330
1F
100
AcDbEntity
  8
0
  6
Continuous
 62
     7
370
    15
100
AcDbLine
 10
484.3447985949
 20
326.9849962199
 30
0.0
 11
484.3447985949
 21
320.7849955761
 31
0.0
  0
LINE
  5
29C
330
1F
100
AcDbEntity
  8
0
  6
Continuous
 62
     7
370
    15
100
AcDbLine
 10
477.9448094667
 20
326.9849962199
 30
0.0
 11
484.3447985949
 21
326.9849962199
 31
0.0
  0
LINE
  5
29D
330
1F
100
AcDbEntity
  8
0
  6
Continuous
 62
     7
370
    15
100
AcDbLine
 10
477.9448094667
 20
320.7849955761
 30
0.0
 11
477.9448094667
 21
326.9849962199
 31
0.0
  0
LINE
  5
29E
330
1F
100
AcDbEntity
  8
0
  6
Continuous
 62
     7
370
    15
100
AcDbLine
 10
484.3447985949
 20
320.7849955761
 30
0.0
 11
477.9448094667
 21
320.7849955761
 31
0.0
  0
LINE
  5
29F
330
1F
100
AcDbEntity
  8
0
  6
Continuous
 62
     7
370
    15
100
AcDbLine
 10
477.9448094667
 20
305.7849968427
 30
0.0
 11
484.3447985949
 21
305.7849968427
 31
0.0
  0
LINE
  5
2A0
330
1F
100
AcDbEntity
  8
0
  6
Continuous
 62
     7
370
    15
100
AcDbLine
 10
477.9448094667
 20
299.5849980616
 30
0.0
 11
477.9448094667
 21
305.7849968427
 31
0.0
  0
LINE
  5
2A1
330
1F
100
AcDbEntity
  8
0
  6
Continuous
 62
     7
370
    15
100
AcDbLine
 10
484.3447985949
 20
299.5849980616
 30
0.0
 11
477.9448094667
 21
299.5849980616
 31
0.0
  0
LINE
  5
2A2
330
1F
100
AcDbEntity
  8
0
  6
Continuous
 62
     7
370
    15
100
AcDbLine
 10
484.3447985949
 20
305.7849968427
 30
0.0
 11
484.3447985949
 21
299.5849980616
 31
0.0
  0
CIRCLE
  5
2A3
330
1F
100
AcDbEntity
  8
0
  6
Continuous
 62
     7
370
    15
100
AcDbCircle
 10
481.1448059095
 20
313.2849973106
 30
0.0
 40
1.600000000000023
  0
CIRCLE
  5
2A4
330
1F
100
AcDbEntity
  8
0
  6
Continuous
 62
     7
370
    15
100
AcDbCircle
 10
432.1048059095
 20
313.2849973106
 30
0.0
 40
1.600000000000023
  0
CIRCLE
  5
2A5
330
1F
100
AcDbEntity
  8
0
  6
Continuous
 62
     7
370
    15
100
AcDbCircle
 10
441.1248059095
 20
333.0849973106
 30
0.0
 40
1.599999999999966
  0
CIRCLE
  5
2A6
330
1F
100
AcDbEntity
  8
0
  6
Continuous
 62
     7
370
    15
100
AcDbCircle
 10
472.1248059095
 20
333.0849973106
 30
0.0
 40
1.599999999999966
  0
CIRCLE
  5
2A7
330
1F
100
AcDbEntity
  8
0
  6
Continuous
 62
     7
370
    15
100
AcDbCircle
 10
472.1248059095
 20
302.0849973106
 30
0.0
 40
1.600000000000023
  0
CIRCLE
  5
2A8
330
1F
100
AcDbEntity
  8
0
  6
Continuous
 62
     7
370
    15
100
AcDbCircle
 10
441.1248059095
 20
302.0849973106
 30
0.0
 40
1.600000000000023
  0
LINE
  5
2A9
330
1F
100
AcDbEntity
  8
0
  6
Continuous
 62
     7
370
    15
100
AcDbLine
 10
449.0247997345
 20
288.2849972339
 30
0.0
 11
449.0247997345
 21
281.9349973106
 31
0.0
  0
LINE
  5
2AA
330
1F
100
AcDbEntity
  8
0
  6
Continuous
 62
     7
370
    15
100
AcDbLine
 10
443.0248024763
 20
281.9349973106
 30
0.0
 11
443.0248024763
 21
288.2849972339
 31
0.0
  0
ARC
  5
2AB
330
1F
100
AcDbEntity
  8
0
  6
Continuous
 62
     7
370
    15
100
AcDbCircle
 10
280.0485258578
 20
277.9820720586
 30
0.0
 40
8.000000000000025
100
AcDbArc
 50
0.0
 51
45.0
  0
ARC
  5
2AC
330
1F
100
AcDbEntity
  8
0
  6
Continuous
 62
     7
370
    15
100
AcDbCircle
 10
240.7348173588
 20
317.2957805576
 30
0.0
 40
8.000000000000004
100
AcDbArc
 50
45.0
 51
90.0
  0
LINE
  5
2AD
330
1F
100
AcDbEntity
  8
0
  6
Continuous
 62
     7
370
    15
100
AcDbLine
 10
251.4485264389
 20
277.2957801403
 30
0.0
 11
251.4485264389
 21
270.9457806827
 31
0.0
  0
LINE
  5
2AE
330
1F
100
AcDbEntity
  8
0
  6
Continuous
 62
     7
370
    15
100
AcDbLine
 10
240.048525781
 20
277.2957801403
 30
0.0
 11
251.4485264389
 21
277.2957801403
 31
0.0
  0
LINE
  5
2AF
330
1F
100
AcDbEntity
  8
0
  6
Continuous
 62
     7
370
    15
100
AcDbLine
 10
240.048525781
 20
288.6957794012
 30
0.0
 11
240.048525781
 21
277.2957801403
 31
0.0
  0
LINE
  5
2B0
330
1F
100
AcDbEntity
  8
0
  6
Continuous
 62
     7
370
    15
100
AcDbLine
 10
233.6985258578
 20
288.6957794012
 30
0.0
 11
240.048525781
 21
288.6957794012
 31
0.0
  0
LINE
  5
2B1
330
1F
100
AcDbEntity
  8
0
  6
Continuous
 62
     7
370
    15
100
AcDbLine
 10
233.6985258578
 20
294.6957803847
 30
0.0
 11
233.6985258578
 21
288.6957794012
 31
0.0
  0
LINE
  5
2B2
330
1F
100
AcDbEntity
  8
0
  6
Continuous
 62
     7
370
    15
100
AcDbLine
 10
240.048525781
 20
294.6957803847
 30
0.0
 11
233.6985258578
 21
294.6957803847
 31
0.0
  0
LINE
  5
2B3
330
1F
100
AcDbEntity
  8
0
  6
Continuous
 62
     7
370
    15
100
AcDbLine
 10
240.048525781
 20
300.7957811983
 30
0.0
 11
240.048525781
 21
294.6957803847
 31
0.0
  0
LINE
  5
2B4
330
1F
100
AcDbEntity
  8
0
  6
Continuous
 62
     7
370
    15
100
AcDbLine
 10
246.0485262988
 20
300.7957811983
 30
0.0
 11
240.048525781
 21
300.7957811983
 31
0.0
  0
LINE
  5
2B5
330
1F
100
AcDbEntity
  8
0
  6
Continuous
 62
     7
370
    15
100
AcDbLine
 10
246.0485262988
 20
299.5457805278
 30
0.0
 11
246.0485262988
 21
300.7957811983
 31
0.0
  0
LINE
  5
2B6
330
1F
100
AcDbEntity
  8
0
  6
Continuous
 62
     7
370
    15
100
AcDbLine
 10
248.0485256953
 20
299.5457805278
 30
0.0
 11
246.0485262988
 21
299.5457805278
 31
0.0
  0
LINE
  5
2B7
330
1F
100
AcDbEntity
  8
0
  6
Continuous
 62
     7
370
    15
100
AcDbLine
 10
248.0485256953
 20
300.7957811983
 30
0.0
 11
248.0485256953
 21
299.5457805278
 31
0.0
  0
LINE
  5
2B8
330
1F
100
AcDbEntity
  8
0
  6
Continuous
 62
     7
370
    15
100
AcDbLine
 10
250.6985267816
 20
300.7957811983
 30
0.0
 11
248.0485256953
 21
300.7957811983
 31
0.0
  0
LINE
  5
2B9
330
1F
100
AcDbEntity
  8
0
  6
Continuous
 62
     7
370
    15
100
AcDbLine
 10
250.6985267816
 20
303.7957798274
 30
0.0
 11
250.6985267816
 21
300.7957811983
 31
0.0
  0
LINE
  5
2BA
330
1F
100
AcDbEntity
  8
0
  6
Continuous
 62
     7
370
    15
100
AcDbLine
 10
248.0485256953
 20
303.7957798274
 30
0.0
 11
250.6985267816
 21
303.7957798274
 31
0.0
  0
LINE
  5
2BB
330
1F
100
AcDbEntity
  8
0
  6
Continuous
 62
     7
370
    15
100
AcDbLine
 10
248.0485256953
 20
305.045780498
 30
0.0
 11
248.0485256953
 21
303.7957798274
 31
0.0
  0
LINE
  5
2BC
330
1F
100
AcDbEntity
  8
0
  6
Continuous
 62
     7
370
    15
100
AcDbLine
 10
246.0485262988
 20
305.045780498
 30
0.0
 11
248.0485256953
 21
305.045780498
 31
0.0
  0
LINE
  5
2BD
330
1F
100
AcDbEntity
  8
0
  6
Continuous
 62
     7
370
    15
100
AcDbLine
 10
246.0485262988
 20
303.7957798274
 30
0.0
 11
246.0485262988
 21
305.045780498
 31
0.0
  0
LINE
  5
2BE
330
1F
100
AcDbEntity
  8
0
  6
Continuous
 62
     7
370
    15
100
AcDbLine
 10
240.048525781
 20
303.7957798274
 30
0.0
 11
246.0485262988
 21
303.7957798274
 31
0.0
  0
LINE
  5
2BF
330
1F
100
AcDbEntity
  8
0
  6
Continuous
 62
     7
370
    15
100
AcDbLine
 10
240.048525781
 20
309.895780641
 30
0.0
 11
240.048525781
 21
303.7957798274
 31
0.0
  0
LINE
  5
2C0
330
1F
100
AcDbEntity
  8
0
  6
Continuous
 62
     7
370
    15
100
AcDbLine
 10
233.6985258578
 20
309.895780641
 30
0.0
 11
240.048525781
 21
309.895780641
 31
0.0
  0
LINE
  5
2C1
330
1F
100
AcDbEntity
  8
0
  6
Continuous
 62
     7
370
    15
100
AcDbLine
 10
233.6985258578
 20
315.8957806932
 30
0.0
 11
233.6985258578
 21
309.895780641
 31
0.0
  0
LINE
  5
2C2
330
1F
100
AcDbEntity
  8
0
  6
Continuous
 62
     7
370
    15
100
AcDbLine
 10
240.048525781
 20
315.8957806932
 30
0.0
 11
233.6985258578
 21
315.8957806932
 31
0.0
  0
LINE
  5
2C3
330
1F
100
AcDbEntity
  8
0
  6
Continuous
 62
     7
370
    15
100
AcDbLine
 10
240.048525781
 20
325.2957805576
 30
0.0
 11
240.048525781
 21
315.8957806932
 31
0.0
  0
LINE
  5
2C4
330
1F
100
AcDbEntity
  8
0
  6
Continuous
 62
     7
370
    15
100
AcDbLine
 10
240.7348173862
 20
325.2957805576
 30
0.0
 11
240.048525781
 21
325.2957805576
 31
0.0
  0
LINE
  5
2C5
330
1F
100
AcDbEntity
  8
0
  6
Continuous
 62
     7
370
    15
100
AcDbLine
 10
285.7053814648
 20
283.6389250638
 30
0.0
 11
246.3916711701
 21
322.9526348928
 31
0.0
  0
LINE
  5
2C6
330
1F
100
AcDbEntity
  8
0
  6
Continuous
 62
     7
370
    15
100
AcDbLine
 10
288.0485257326
 20
277.2957801403
 30
0.0
 11
288.0485257326
 21
277.9820717456
 31
0.0
  0
LINE
  5
2C7
330
1F
100
AcDbEntity
  8
0
  6
Continuous
 62
     7
370
    15
100
AcDbLine
 10
278.6485267995
 20
277.2957801403
 30
0.0
 11
288.0485257326
 21
277.2957801403
 31
0.0
  0
LINE
  5
2C8
330
1F
100
AcDbEntity
  8
0
  6
Continuous
 62
     7
370
    15
100
AcDbLine
 10
278.6485267995
 20
270.9457806827
 30
0.0
 11
278.6485267995
 21
277.2957801403
 31
0.0
  0
LINE
  5
2C9
330
1F
100
AcDbEntity
  8
0
  6
Continuous
 62
     7
370
    15
100
AcDbLine
 10
272.648525816
 20
270.9457806827
 30
0.0
 11
278.6485267995
 21
270.9457806827
 31
0.0
  0
LINE
  5
2CA
330
1F
100
AcDbEntity
  8
0
  6
Continuous
 62
     7
370
    15
100
AcDbLine
 10
272.648525816
 20
277.2957801403
 30
0.0
 11
272.648525816
 21
270.9457806827
 31
0.0
  0
LINE
  5
2CB
330
1F
100
AcDbEntity
  8
0
  6
Continuous
 62
     7
370
    15
100
AcDbLine
 10
266.5485268651
 20
277.2957801403
 30
0.0
 11
272.648525816
 21
277.2957801403
 31
0.0
  0
LINE
  5
2CC
330
1F
100
AcDbEntity
  8
0
  6
Continuous
 62
     7
370
    15
100
AcDbLine
 10
266.5485268651
 20
283.2957811238
 30
0.0
 11
266.5485268651
 21
277.2957801403
 31
0.0
  0
LINE
  5
2CD
330
1F
100
AcDbEntity
  8
0
  6
Continuous
 62
     7
370
    15
100
AcDbLine
 10
267.798525673
 20
283.2957811238
 30
0.0
 11
266.5485268651
 21
283.2957811238
 31
0.0
  0
LINE
  5
2CE
330
1F
100
AcDbEntity
  8
0
  6
Continuous
 62
     7
370
    15
100
AcDbLine
 10
267.798525673
 20
285.2957814516
 30
0.0
 11
267.798525673
 21
283.2957811238
 31
0.0
  0
LINE
  5
2CF
330
1F
100
AcDbEntity
  8
0
  6
Continuous
 62
     7
370
    15
100
AcDbLine
 10
266.5485268651
 20
285.2957814516
 30
0.0
 11
267.798525673
 21
285.2957814516
 31
0.0
  0
LINE
  5
2D0
330
1F
100
AcDbEntity
  8
0
  6
Continuous
 62
     7
370
    15
100
AcDbLine
 10
266.5485268651
 20
287.9457816066
 30
0.0
 11
266.5485268651
 21
285.2957814516
 31
0.0
  0
LINE
  5
2D1
330
1F
100
AcDbEntity
  8
0
  6
Continuous
 62
     7
370
    15
100
AcDbLine
 10
263.5485263733
 20
287.9457816066
 30
0.0
 11
266.5485268651
 21
287.9457816066
 31
0.0
  0
LINE
  5
2D2
330
1F
100
AcDbEntity
  8
0
  6
Continuous
 62
     7
370
    15
100
AcDbLine
 10
263.5485263733
 20
285.2957814516
 30
0.0
 11
263.5485263733
 21
287.9457816066
 31
0.0
  0
LINE
  5
2D3
330
1F
100
AcDbEntity
  8
0
  6
Continuous
 62
     7
370
    15
100
AcDbLine
 10
262.2985257028
 20
285.2957814516
 30
0.0
 11
263.5485263733
 21
285.2957814516
 31
0.0
  0
LINE
  5
2D4
330
1F
100
AcDbEntity
  8
0
  6
Continuous
 62
     7
370
    15
100
AcDbLine
 10
262.2985257028
 20
283.2957811238
 30
0.0
 11
262.2985257028
 21
285.2957814516
 31
0.0
  0
LINE
  5
2D5
330
1F
100
AcDbEntity
  8
0
  6
Continuous
 62
     7
370
    15
100
AcDbLine
 10
263.5485263733
 20
283.2957811238
 30
0.0
 11
262.2985257028
 21
283.2957811238
 31
0.0
  0
LINE
  5
2D6
330
1F
100
AcDbEntity
  8
0
  6
Continuous
 62
     7
370
    15
100
AcDbLine
 10
263.5485263733
 20
277.2957801403
 30
0.0
 11
263.5485263733
 21
283.2957811238
 31
0.0
  0
LINE
  5
2D7
330
1F
100
AcDbEntity
  8
0
  6
Continuous
 62
     7
370
    15
100
AcDbLine
 10
257.4485255597
 20
277.2957801403
 30
0.0
 11
263.5485263733
 21
277.2957801403
 31
0.0
  0
LINE
  5
2D8
330
1F
100
AcDbEntity
  8
0
  6
Continuous
 62
     7
370
    15
100
AcDbLine
 10
257.4485255597
 20
270.9457806827
 30
0.0
 11
257.4485255597
 21
277.2957801403
 31
0.0
  0
LINE
  5
2D9
330
1F
100
AcDbEntity
  8
0
  6
Continuous
 62
     7
370
    15
100
AcDbLine
 10
251.4485264389
 20
270.9457806827
 30
0.0
 11
257.4485255597
 21
270.9457806827
 31
0.0
  0
ARC
  5
2DA
330
1F
100
AcDbEntity
  8
0
  6
Continuous
 62
     7
370
    15
100
AcDbCircle
 10
143.0056766285
 20
291.0849030457
 30
0.0
 40
8.000000000000004
100
AcDbArc
 50
270.0
 51
315.0
  0
ARC
  5
2DB
330
1F
100
AcDbEntity
  8
0
  6
Continuous
 62
     7
370
    15
100
AcDbCircle
 10
182.3193851275
 20
330.3986115447
 30
0.0
 40
8.000000000000004
100
AcDbArc
 50
315.0
 51
0.0
  0
LINE
  5
2DC
330
1F
100
AcDbEntity
  8
0
  6
Continuous
 62
     7
370
    15
100
AcDbLine
 10
153.7193857086
 20
331.0849034629
 30
0.0
 11
153.7193857086
 21
337.4349029205
 31
0.0
  0
LINE
  5
2DD
330
1F
100
AcDbEntity
  8
0
  6
Continuous
 62
     7
370
    15
100
AcDbLine
 10
142.3193850508
 20
331.0849034629
 30
0.0
 11
153.7193857086
 21
331.0849034629
 31
0.0
  0
LINE
  5
2DE
330
1F
100
AcDbEntity
  8
0
  6
Continuous
 62
     7
370
    15
100
AcDbLine
 10
142.3193850508
 20
319.684904202
 30
0.0
 11
142.3193850508
 21
331.0849034629
 31
0.0
  0
LINE
  5
2DF
330
1F
100
AcDbEntity
  8
0
  6
Continuous
 62
     7
370
    15
100
AcDbLine
 10
135.9693851275
 20
319.684904202
 30
0.0
 11
142.3193850508
 21
319.684904202
 31
0.0
  0
LINE
  5
2E0
330
1F
100
AcDbEntity
  8
0
  6
Continuous
 62
     7
370
    15
100
AcDbLine
 10
135.9693851275
 20
313.6849032185
 30
0.0
 11
135.9693851275
 21
319.684904202
 31
0.0
  0
LINE
  5
2E1
330
1F
100
AcDbEntity
  8
0
  6
Continuous
 62
     7
370
    15
100
AcDbLine
 10
142.3193850508
 20
313.6849032185
 30
0.0
 11
135.9693851275
 21
313.6849032185
 31
0.0
  0
LINE
  5
2E2
330
1F
100
AcDbEntity
  8
0
  6
Continuous
 62
     7
370
    15
100
AcDbLine
 10
142.3193850508
 20
307.5849024049
 30
0.0
 11
142.3193850508
 21
313.6849032185
 31
0.0
  0
LINE
  5
2E3
330
1F
100
AcDbEntity
  8
0
  6
Continuous
 62
     7
370
    15
100
AcDbLine
 10
148.3193855686
 20
307.5849024049
 30
0.0
 11
142.3193850508
 21
307.5849024049
 31
0.0
  0
LINE
  5
2E4
330
1F
100
AcDbEntity
  8
0
  6
Continuous
 62
     7
370
    15
100
AcDbLine
 10
148.3193855686
 20
308.8349030755
 30
0.0
 11
148.3193855686
 21
307.5849024049
 31
0.0
  0
LINE
  5
2E5
330
1F
100
AcDbEntity
  8
0
  6
Continuous
 62
     7
370
    15
100
AcDbLine
 10
150.3193849651
 20
308.8349030755
 30
0.0
 11
148.3193855686
 21
308.8349030755
 31
0.0
  0
LINE
  5
2E6
330
1F
100
AcDbEntity
  8
0
  6
Continuous
 62
     7
370
    15
100
AcDbLine
 10
150.3193849651
 20
307.5849024049
 30
0.0
 11
150.3193849651
 21
308.8349030755
 31
0.0
  0
LINE
  5
2E7
330
1F
100
AcDbEntity
  8
0
  6
Continuous
 62
     7
370
    15
100
AcDbLine
 10
152.9693860514
 20
307.5849024049
 30
0.0
 11
150.3193849651
 21
307.5849024049
 31
0.0
  0
LINE
  5
2E8
330
1F
100
AcDbEntity
  8
0
  6
Continuous
 62
     7
370
    15
100
AcDbLine
 10
152.9693860514
 20
304.5849037758
 30
0.0
 11
152.9693860514
 21
307.5849024049
 31
0.0
  0
LINE
  5
2E9
330
1F
100
AcDbEntity
  8
0
  6
Continuous
 62
     7
370
    15
100
AcDbLine
 10
150.3193849651
 20
304.5849037758
 30
0.0
 11
152.9693860514
 21
304.5849037758
 31
0.0
  0
LINE
  5
2EA
330
1F
100
AcDbEntity
  8
0
  6
Continuous
 62
     7
370
    15
100
AcDbLine
 10
150.3193849651
 20
303.3349031053
 30
0.0
 11
150.3193849651
 21
304.5849037758
 31
0.0
  0
LINE
  5
2EB
330
1F
100
AcDbEntity
  8
0
  6
Continuous
 62
     7
370
    15
100
AcDbLine
 10
148.3193855686
 20
303.3349031053
 30
0.0
 11
150.3193849651
 21
303.3349031053
 31
0.0
  0
LINE
  5
2EC
330
1F
100
AcDbEntity
  8
0
  6
Continuous
 62
     7
370
    15
100
AcDbLine
 10
148.3193855686
 20
304.5849037758
 30
0.0
 11
148.3193855686
 21
303.3349031053
 31
0.0
  0
LINE
  5
2ED
330
1F
100
AcDbEntity
  8
0
  6
Continuous
 62
     7
370
    15
100
AcDbLine
 10
142.3193850508
 20
304.5849037758
 30
0.0
 11
148.3193855686
 21
304.5849037758
 31
0.0
  0
LINE
  5
2EE
330
1F
100
AcDbEntity
  8
0
  6
Continuous
 62
     7
370
    15
100
AcDbLine
 10
142.3193850508
 20
298.4849029622
 30
0.0
 11
142.3193850508
 21
304.5849037758
 31
0.0
  0
LINE
  5
2EF
330
1F
100
AcDbEntity
  8
0
  6
Continuous
 62
     7
370
    15
100
AcDbLine
 10
135.9693851275
 20
298.4849029622
 30
0.0
 11
142.3193850508
 21
298.4849029622
 31
0.0
  0
LINE
  5
2F0
330
1F
100
AcDbEntity
  8
0
  6
Continuous
 62
     7
370
    15
100
AcDbLine
 10
135.9693851275
 20
292.4849029101
 30
0.0
 11
135.9693851275
 21
298.4849029622
 31
0.0
  0
LINE
  5
2F1
330
1F
100
AcDbEntity
  8
0
  6
Continuous
 62
     7
370
    15
100
AcDbLine
 10
142.3193850508
 20
292.4849029101
 30
0.0
 11
135.9693851275
 21
292.4849029101
 31
0.0
  0
LINE
  5
2F2
330
1F
100
AcDbEntity
  8
0
  6
Continuous
 62
     7
370
    15
100
AcDbLine
 10
142.3193850508
 20
283.0849030457
 30
0.0
 11
142.3193850508
 21
292.4849029101
 31
0.0
  0
LINE
  5
2F3
330
1F
100
AcDbEntity
  8
0
  6
Continuous
 62
     7
370
    15
100
AcDbLine
 10
143.005676656
 20
283.0849030457
 30
0.0
 11
142.3193850508
 21
283.0849030457
 31
0.0
  0
LINE
  5
2F4
330
1F
100
AcDbEntity
  8
0
  6
Continuous
 62
     7
370
    15
100
AcDbLine
 10
187.9762407345
 20
324.7417585395
 30
0.0
 11
148.6625304399
 21
285.4280487105
 31
0.0
  0
LINE
  5
2F5
330
1F
100
AcDbEntity
  8
0
  6
Continuous
 62
     7
370
    15
100
AcDbLine
 10
190.3193850023
 20
331.0849034629
 30
0.0
 11
190.3193850023
 21
330.3986118577
 31
0.0
  0
LINE
  5
2F6
330
1F
100
AcDbEntity
  8
0
  6
Continuous
 62
     7
370
    15
100
AcDbLine
 10
180.9193860693
 20
331.0849034629
 30
0.0
 11
190.3193850023
 21
331.0849034629
 31
0.0
  0
LINE
  5
2F7
330
1F
100
AcDbEntity
  8
0
  6
Continuous
 62
     7
370
    15
100
AcDbLine
 10
180.9193860693
 20
337.4349029205
 30
0.0
 11
180.9193860693
 21
331.0849034629
 31
0.0
  0
LINE
  5
2F8
330
1F
100
AcDbEntity
  8
0
  6
Continuous
 62
     7
370
    15
100
AcDbLine
 10
174.9193850858
 20
337.4349029205
 30
0.0
 11
180.9193860693
 21
337.4349029205
 31
0.0
  0
LINE
  5
2F9
330
1F
100
AcDbEntity
  8
0
  6
Continuous
 62
     7
370
    15
100
AcDbLine
 10
174.9193850858
 20
331.0849034629
 30
0.0
 11
174.9193850858
 21
337.4349029205
 31
0.0
  0
LINE
  5
2FA
330
1F
100
AcDbEntity
  8
0
  6
Continuous
 62
     7
370
    15
100
AcDbLine
 10
168.8193861348
 20
331.0849034629
 30
0.0
 11
174.9193850858
 21
331.0849034629
 31
0.0
  0
LINE
  5
2FB
330
1F
100
AcDbEntity
  8
0
  6
Continuous
 62
     7
370
    15
100
AcDbLine
 10
168.8193861348
 20
325.0849024794
 30
0.0
 11
168.8193861348
 21
331.0849034629
 31
0.0
  0
LINE
  5
2FC
330
1F
100
AcDbEntity
  8
0
  6
Continuous
 62
     7
370
    15
100
AcDbLine
 10
170.0693849427
 20
325.0849024794
 30
0.0
 11
168.8193861348
 21
325.0849024794
 31
0.0
  0
LINE
  5
2FD
330
1F
100
AcDbEntity
  8
0
  6
Continuous
 62
     7
370
    15
100
AcDbLine
 10
170.0693849427
 20
323.0849021516
 30
0.0
 11
170.0693849427
 21
325.0849024794
 31
0.0
  0
LINE
  5
2FE
330
1F
100
AcDbEntity
  8
0
  6
Continuous
 62
     7
370
    15
100
AcDbLine
 10
168.8193861348
 20
323.0849021516
 30
0.0
 11
170.0693849427
 21
323.0849021516
 31
0.0
  0
LINE
  5
2FF
330
1F
100
AcDbEntity
  8
0
  6
Continuous
 62
     7
370
    15
100
AcDbLine
 10
168.8193861348
 20
320.4349019967
 30
0.0
 11
168.8193861348
 21
323.0849021516
 31
0.0
  0
LINE
  5
300
330
1F
100
AcDbEntity
  8
0
  6
Continuous
 62
     7
370
    15
100
AcDbLine
 10
165.8193856431
 20
320.4349019967
 30
0.0
 11
168.8193861348
 21
320.4349019967
 31
0.0
  0
LINE
  5
301
330
1F
100
AcDbEntity
  8
0
  6
Continuous
 62
     7
370
    15
100
AcDbLine
 10
165.8193856431
 20
323.0849021516
 30
0.0
 11
165.8193856431
 21
320.4349019967
 31
0.0
  0
LINE
  5
302
330
1F
100
AcDbEntity
  8
0
  6
Continuous
 62
     7
370
    15
100
AcDbLine
 10
164.5693849725
 20
323.0849021516
 30
0.0
 11
165.8193856431
 21
323.0849021516
 31
0.0
  0
LINE
  5
303
330
1F
100
AcDbEntity
  8
0
  6
Continuous
 62
     7
370
    15
100
AcDbLine
 10
164.5693849725
 20
325.0849024794
 30
0.0
 11
164.5693849725
 21
323.0849021516
 31
0.0
  0
LINE
  5
304
330
1F
100
AcDbEntity
  8
0
  6
Continuous
 62
     7
370
    15
100
AcDbLine
 10
165.8193856431
 20
325.0849024794
 30
0.0
 11
164.5693849725
 21
325.0849024794
 31
0.0
  0
LINE
  5
305
330
1F
100
AcDbEntity
  8
0
  6
Continuous
 62
     7
370
    15
100
AcDbLine
 10
165.8193856431
 20
331.0849034629
 30
0.0
 11
165.8193856431
 21
325.0849024794
 31
0.0
  0
LINE
  5
306
330
1F
100
AcDbEntity
  8
0
  6
Continuous
 62
     7
370
    15
100
AcDbLine
 10
159.7193848295
 20
331.0849034629
 30
0.0
 11
165.8193856431
 21
331.0849034629
 31
0.0
  0
LINE
  5
307
330
1F
100
AcDbEntity
  8
0
  6
Continuous
 62
     7
370
    15
100
AcDbLine
 10
159.7193848295
 20
337.4349029205
 30
0.0
 11
159.7193848295
 21
331.0849034629
 31
0.0
  0
LINE
  5
308
330
1F
100
AcDbEntity
  8
0
  6
Continuous
 62
     7
370
    15
100
AcDbLine
 10
153.7193857086
 20
337.4349029205
 30
0.0
 11
159.7193848295
 21
337.4349029205
 31
0.0
  0
ARC
  5
309
330
1F
100
AcDbEntity
  8
0
  6
Continuous
 62
     7
370
    15
100
AcDbCircle
 10
213.9520523403
 20
318.2570223321
 30
0.0
 40
7.999999999999984
100
AcDbArc
 50
90.0
 51
135.0
  0
ARC
  5
30A
330
1F
100
AcDbEntity
  8
0
  6
Continuous
 62
     7
370
    15
100
AcDbCircle
 10
174.6383438413
 20
278.9433138331
 30
0.0
 40
8.0
100
AcDbArc
 50
135.0
 51
180.0
  0
LINE
  5
30B
330
1F
100
AcDbEntity
  8
0
  6
Continuous
 62
     7
370
    15
100
AcDbLine
 10
203.2383432602
 20
278.2570219148
 30
0.0
 11
203.2383432602
 21
271.9070224572
 31
0.0
  0
LINE
  5
30C
330
1F
100
AcDbEntity
  8
0
  6
Continuous
 62
     7
370
    15
100
AcDbLine
 10
214.6383439181
 20
278.2570219148
 30
0.0
 11
203.2383432602
 21
278.2570219148
 31
0.0
  0
LINE
  5
30D
330
1F
100
AcDbEntity
  8
0
  6
Continuous
 62
     7
370
    15
100
AcDbLine
 10
214.6383439181
 20
289.6570211757
 30
0.0
 11
214.6383439181
 21
278.2570219148
 31
0.0
  0
LINE
  5
30E
330
1F
100
AcDbEntity
  8
0
  6
Continuous
 62
     7
370
    15
100
AcDbLine
 10
220.9883438413
 20
289.6570211757
 30
0.0
 11
214.6383439181
 21
289.6570211757
 31
0.0
  0
LINE
  5
30F
330
1F
100
AcDbEntity
  8
0
  6
Continuous
 62
     7
370
    15
100
AcDbLine
 10
220.9883438413
 20
295.6570221592
 30
0.0
 11
220.9883438413
 21
289.6570211757
 31
0.0
  0
LINE
  5
310
330
1F
100
AcDbEntity
  8
0
  6
Continuous
 62
     7
370
    15
100
AcDbLine
 10
214.6383439181
 20
295.6570221592
 30
0.0
 11
220.9883438413
 21
295.6570221592
 31
0.0
  0
LINE
  5
311
330
1F
100
AcDbEntity
  8
0
  6
Continuous
 62
     7
370
    15
100
AcDbLine
 10
214.6383439181
 20
301.7570229728
 30
0.0
 11
214.6383439181
 21
295.6570221592
 31
0.0
  0
LINE
  5
312
330
1F
100
AcDbEntity
  8
0
  6
Continuous
 62
     7
370
    15
100
AcDbLine
 10
208.6383434002
 20
301.7570229728
 30
0.0
 11
214.6383439181
 21
301.7570229728
 31
0.0
  0
LINE
  5
313
330
1F
100
AcDbEntity
  8
0
  6
Continuous
 62
     7
370
    15
100
AcDbLine
 10
208.6383434002
 20
300.5070223023
 30
0.0
 11
208.6383434002
 21
301.7570229728
 31
0.0
  0
LINE
  5
314
330
1F
100
AcDbEntity
  8
0
  6
Continuous
 62
     7
370
    15
100
AcDbLine
 10
206.6383440037
 20
300.5070223023
 30
0.0
 11
208.6383434002
 21
300.5070223023
 31
0.0
  0
LINE
  5
315
330
1F
100
AcDbEntity
  8
0
  6
Continuous
 62
     7
370
    15
100
AcDbLine
 10
206.6383440037
 20
301.7570229728
 30
0.0
 11
206.6383440037
 21
300.5070223023
 31
0.0
  0
LINE
  5
316
330
1F
100
AcDbEntity
  8
0
  6
Continuous
 62
     7
370
    15
100
AcDbLine
 10
203.9883429174
 20
301.7570229728
 30
0.0
 11
206.6383440037
 21
301.7570229728
 31
0.0
  0
LINE
  5
317
330
1F
100
AcDbEntity
  8
0
  6
Continuous
 62
     7
370
    15
100
AcDbLine
 10
203.9883429174
 20
304.7570216019
 30
0.0
 11
203.9883429174
 21
301.7570229728
 31
0.0
  0
LINE
  5
318
330
1F
100
AcDbEntity
  8
0
  6
Continuous
 62
     7
370
    15
100
AcDbLine
 10
206.6383440037
 20
304.7570216019
 30
0.0
 11
203.9883429174
 21
304.7570216019
 31
0.0
  0
LINE
  5
319
330
1F
100
AcDbEntity
  8
0
  6
Continuous
 62
     7
370
    15
100
AcDbLine
 10
206.6383440037
 20
306.0070222725
 30
0.0
 11
206.6383440037
 21
304.7570216019
 31
0.0
  0
LINE
  5
31A
330
1F
100
AcDbEntity
  8
0
  6
Continuous
 62
     7
370
    15
100
AcDbLine
 10
208.6383434002
 20
306.0070222725
 30
0.0
 11
206.6383440037
 21
306.0070222725
 31
0.0
  0
LINE
  5
31B
330
1F
100
AcDbEntity
  8
0
  6
Continuous
 62
     7
370
    15
100
AcDbLine
 10
208.6383434002
 20
304.7570216019
 30
0.0
 11
208.6383434002
 21
306.0070222725
 31
0.0
  0
LINE
  5
31C
330
1F
100
AcDbEntity
  8
0
  6
Continuous
 62
     7
370
    15
100
AcDbLine
 10
214.6383439181
 20
304.7570216019
 30
0.0
 11
208.6383434002
 21
304.7570216019
 31
0.0
  0
LINE
  5
31D
330
1F
100
AcDbEntity
  8
0
  6
Continuous
 62
     7
370
    15
100
AcDbLine
 10
214.6383439181
 20
310.8570224155
 30
0.0
 11
214.6383439181
 21
304.7570216019
 31
0.0
  0
LINE
  5
31E
330
1F
100
AcDbEntity
  8
0
  6
Continuous
 62
     7
370
    15
100
AcDbLine
 10
220.9883438413
 20
310.8570224155
 30
0.0
 11
214.6383439181
 21
310.8570224155
 31
0.0
  0
LINE
  5
31F
330
1F
100
AcDbEntity
  8
0
  6
Continuous
 62
     7
370
    15
100
AcDbLine
 10
220.9883438413
 20
316.8570224677
 30
0.0
 11
220.9883438413
 21
310.8570224155
 31
0.0
  0
LINE
  5
320
330
1F
100
AcDbEntity
  8
0
  6
Continuous
 62
     7
370
    15
100
AcDbLine
 10
214.6383439181
 20
316.8570224677
 30
0.0
 11
220.9883438413
 21
316.8570224677
 31
0.0
  0
LINE
  5
321
330
1F
100
AcDbEntity
  8
0
  6
Continuous
 62
     7
370
    15
100
AcDbLine
 10
214.6383439181
 20
326.2570223321
 30
0.0
 11
214.6383439181
 21
316.8570224677
 31
0.0
  0
LINE
  5
322
330
1F
100
AcDbEntity
  8
0
  6
Continuous
 62
     7
370
    15
100
AcDbLine
 10
213.9520523128
 20
326.2570223321
 30
0.0
 11
214.6383439181
 21
326.2570223321
 31
0.0
  0
LINE
  5
323
330
1F
100
AcDbEntity
  8
0
  6
Continuous
 62
     7
370
    15
100
AcDbLine
 10
168.9814882343
 20
284.6001668383
 30
0.0
 11
208.295198529
 21
323.9138766673
 31
0.0
  0
LINE
  5
324
330
1F
100
AcDbEntity
  8
0
  6
Continuous
 62
     7
370
    15
100
AcDbLine
 10
166.6383439665
 20
278.2570219148
 30
0.0
 11
166.6383439665
 21
278.9433135201
 31
0.0
  0
LINE
  5
325
330
1F
100
AcDbEntity
  8
0
  6
Continuous
 62
     7
370
    15
100
AcDbLine
 10
176.0383428996
 20
278.2570219148
 30
0.0
 11
166.6383439665
 21
278.2570219148
 31
0.0
  0
LINE
  5
326
330
1F
100
AcDbEntity
  8
0
  6
Continuous
 62
     7
370
    15
100
AcDbLine
 10
176.0383428996
 20
271.9070224572
 30
0.0
 11
176.0383428996
 21
278.2570219148
 31
0.0
  0
LINE
  5
327
330
1F
100
AcDbEntity
  8
0
  6
Continuous
 62
     7
370
    15
100
AcDbLine
 10
182.038343883
 20
271.9070224572
 30
0.0
 11
176.0383428996
 21
271.9070224572
 31
0.0
  0
LINE
  5
328
330
1F
100
AcDbEntity
  8
0
  6
Continuous
 62
     7
370
    15
100
AcDbLine
 10
182.038343883
 20
278.2570219148
 30
0.0
 11
182.038343883
 21
271.9070224572
 31
0.0
  0
LINE
  5
329
330
1F
100
AcDbEntity
  8
0
  6
Continuous
 62
     7
370
    15
100
AcDbLine
 10
188.138342834
 20
278.2570219148
 30
0.0
 11
182.038343883
 21
278.2570219148
 31
0.0
  0
LINE
  5
32A
330
1F
100
AcDbEntity
  8
0
  6
Continuous
 62
     7
370
    15
100
AcDbLine
 10
188.138342834
 20
284.2570228983
 30
0.0
 11
188.138342834
 21
278.2570219148
 31
0.0
  0
LINE
  5
32B
330
1F
100
AcDbEntity
  8
0
  6
Continuous
 62
     7
370
    15
100
AcDbLine
 10
186.8883440261
 20
284.2570228983
 30
0.0
 11
188.138342834
 21
284.2570228983
 31
0.0
  0
LINE
  5
32C
330
1F
100
AcDbEntity
  8
0
  6
Continuous
 62
     7
370
    15
100
AcDbLine
 10
186.8883440261
 20
286.2570232261
 30
0.0
 11
186.8883440261
 21
284.2570228983
 31
0.0
  0
LINE
  5
32D
330
1F
100
AcDbEntity
  8
0
  6
Continuous
 62
     7
370
    15
100
AcDbLine
 10
188.138342834
 20
286.2570232261
 30
0.0
 11
186.8883440261
 21
286.2570232261
 31
0.0
  0
LINE
  5
32E
330
1F
100
AcDbEntity
  8
0
  6
Continuous
 62
     7
370
    15
100
AcDbLine
 10
188.138342834
 20
288.9070233811
 30
0.0
 11
188.138342834
 21
286.2570232261
 31
0.0
  0
LINE
  5
32F
330
1F
100
AcDbEntity
  8
0
  6
Continuous
 62
     7
370
    15
100
AcDbLine
 10
191.1383433257
 20
288.9070233811
 30
0.0
 11
188.138342834
 21
288.9070233811
 31
0.0
  0
LINE
  5
330
330
1F
100
AcDbEntity
  8
0
  6
Continuous
 62
     7
370
    15
100
AcDbLine
 10
191.1383433257
 20
286.2570232261
 30
0.0
 11
191.1383433257
 21
288.9070233811
 31
0.0
  0
LINE
  5
331
330
1F
100
AcDbEntity
  8
0
  6
Continuous
 62
     7
370
    15
100
AcDbLine
 10
192.3883439963
 20
286.2570232261
 30
0.0
 11
191.1383433257
 21
286.2570232261
 31
0.0
  0
LINE
  5
332
330
1F
100
AcDbEntity
  8
0
  6
Continuous
 62
     7
370
    15
100
AcDbLine
 10
192.3883439963
 20
284.2570228983
 30
0.0
 11
192.3883439963
 21
286.2570232261
 31
0.0
  0
LINE
  5
333
330
1F
100
AcDbEntity
  8
0
  6
Continuous
 62
     7
370
    15
100
AcDbLine
 10
191.1383433257
 20
284.2570228983
 30
0.0
 11
192.3883439963
 21
284.2570228983
 31
0.0
  0
LINE
  5
334
330
1F
100
AcDbEntity
  8
0
  6
Continuous
 62
     7
370
    15
100
AcDbLine
 10
191.1383433257
 20
278.2570219148
 30
0.0
 11
191.1383433257
 21
284.2570228983
 31
0.0
  0
LINE
  5
335
330
1F
100
AcDbEntity
  8
0
  6
Continuous
 62
     7
370
    15
100
AcDbLine
 10
197.2383441393
 20
278.2570219148
 30
0.0
 11
191.1383433257
 21
278.2570219148
 31
0.0
  0
LINE
  5
336
330
1F
100
AcDbEntity
  8
0
  6
Continuous
 62
     7
370
    15
100
AcDbLine
 10
197.2383441393
 20
271.9070224572
 30
0.0
 11
197.2383441393
 21
278.2570219148
 31
0.0
  0
LINE
  5
337
330
1F
100
AcDbEntity
  8
0
  6
Continuous
 62
     7
370
    15
100
AcDbLine
 10
203.2383432602
 20
271.9070224572
 30
0.0
 11
197.2383441393
 21
271.9070224572
 31
0.0
  0
CIRCLE
  5
338
330
1F
100
AcDbEntity
  8
0
  6
Continuous
 62
     7
370
    15
100
AcDbCircle
 10
457.3125546741
 20
255.2199520849
 30
0.0
 40
11.5
  0
CIRCLE
  5
339
330
1F
100
AcDbEntity
  8
0
  6
Continuous
 62
     7
370
    15
100
AcDbCircle
 10
440.3125546741
 20
255.2199520849
 30
0.0
 40
3.999999999999943
  0
LINE
  5
33A
330
1F
100
AcDbEntity
  8
0
  6
Continuous
 62
     7
370
    15
100
AcDbLine
 10
487.6125493097
 20
225.9199520081
 30
0.0
 11
470.9125497388
 21
225.9199520081
 31
0.0
  0
LINE
  5
33B
330
1F
100
AcDbEntity
  8
0
  6
Continuous
 62
     7
370
    15
100
AcDbLine
 10
470.9125497388
 20
225.9199520081
 30
0.0
 11
470.9125497388
 21
219.5699520849
 31
0.0
  0
LINE
  5
33C
330
1F
100
AcDbEntity
  8
0
  6
Continuous
 62
     7
370
    15
100
AcDbLine
 10
470.9125497388
 20
219.5699520849
 30
0.0
 11
464.9125524806
 21
219.5699520849
 31
0.0
  0
LINE
  5
33D
330
1F
100
AcDbEntity
  8
0
  6
Continuous
 62
     7
370
    15
100
AcDbLine
 10
464.9125524806
 20
219.5699520849
 30
0.0
 11
464.9125524806
 21
225.9199520081
 31
0.0
  0
LINE
  5
33E
330
1F
100
AcDbEntity
  8
0
  6
Continuous
 62
     7
370
    15
100
AcDbLine
 10
464.9125524806
 20
225.9199520081
 30
0.0
 11
458.8125535297
 21
225.9199520081
 31
0.0
  0
LINE
  5
33F
330
1F
100
AcDbEntity
  8
0
  6
Continuous
 62
     7
370
    15
100
AcDbLine
 10
458.8125535297
 20
231.9199525259
 30
0.0
 11
458.8125535297
 21
225.9199520081
 31
0.0
  0
LINE
  5
340
330
1F
100
AcDbEntity
  8
0
  6
Continuous
 62
     7
370
    15
100
AcDbLine
 10
460.0625523376
 20
231.9199525259
 30
0.0
 11
458.8125535297
 21
231.9199525259
 31
0.0
  0
LINE
  5
341
330
1F
100
AcDbEntity
  8
0
  6
Continuous
 62
     7
370
    15
100
AcDbLine
 10
460.0625523376
 20
233.9199519224
 30
0.0
 11
460.0625523376
 21
231.9199525259
 31
0.0
  0
LINE
  5
342
330
1F
100
AcDbEntity
  8
0
  6
Continuous
 62
     7
370
    15
100
AcDbLine
 10
458.8125535297
 20
233.9199519224
 30
0.0
 11
460.0625523376
 21
233.9199519224
 31
0.0
  0
LINE
  5
343
330
1F
100
AcDbEntity
  8
0
  6
Continuous
 62
     7
370
    15
100
AcDbLine
 10
458.8125535297
 20
236.5699530087
 30
0.0
 11
458.8125535297
 21
233.9199519224
 31
0.0
  0
LINE
  5
344
330
1F
100
AcDbEntity
  8
0
  6
Continuous
 62
     7
370
    15
100
AcDbLine
 10
455.81254745
 20
236.5699530087
 30
0.0
 11
458.8125535297
 21
236.5699530087
 31
0.0
  0
LINE
  5
345
330
1F
100
AcDbEntity
  8
0
  6
Continuous
 62
     7
370
    15
100
AcDbLine
 10
455.81254745
 20
233.9199519224
 30
0.0
 11
455.81254745
 21
236.5699530087
 31
0.0
  0
LINE
  5
346
330
1F
100
AcDbEntity
  8
0
  6
Continuous
 62
     7
370
    15
100
AcDbLine
 10
454.5625486421
 20
233.9199519224
 30
0.0
 11
455.81254745
 21
233.9199519224
 31
0.0
  0
LINE
  5
347
330
1F
100
AcDbEntity
  8
0
  6
Continuous
 62
     7
370
    15
100
AcDbLine
 10
454.5625486421
 20
231.9199525259
 30
0.0
 11
454.5625486421
 21
233.9199519224
 31
0.0
  0
LINE
  5
348
330
1F
100
AcDbEntity
  8
0
  6
Continuous
 62
     7
370
    15
100
AcDbLine
 10
455.81254745
 20
231.9199525259
 30
0.0
 11
454.5625486421
 21
231.9199525259
 31
0.0
  0
LINE
  5
349
330
1F
100
AcDbEntity
  8
0
  6
Continuous
 62
     7
370
    15
100
AcDbLine
 10
455.81254745
 20
225.9199520081
 30
0.0
 11
455.81254745
 21
231.9199525259
 31
0.0
  0
LINE
  5
34A
330
1F
100
AcDbEntity
  8
0
  6
Continuous
 62
     7
370
    15
100
AcDbLine
 10
455.81254745
 20
225.9199520081
 30
0.0
 11
449.7125484991
 21
225.9199520081
 31
0.0
  0
LINE
  5
34B
330
1F
100
AcDbEntity
  8
0
  6
Continuous
 62
     7
370
    15
100
AcDbLine
 10
449.7125484991
 20
219.5699520849
 30
0.0
 11
443.7125512409
 21
219.5699520849
 31
0.0
  0
LINE
  5
34C
330
1F
100
AcDbEntity
  8
0
  6
Continuous
 62
     7
370
    15
100
AcDbLine
 10
443.7125512409
 20
225.9199520081
 30
0.0
 11
427.6125618267
 21
225.9199520081
 31
0.0
  0
LINE
  5
34D
330
1F
100
AcDbEntity
  8
0
  6
Continuous
 62
     7
370
    15
100
AcDbLine
 10
427.6125618267
 20
225.9199520081
 30
0.0
 11
427.6125618267
 21
270.9199533306
 31
0.0
  0
ARC
  5
34E
330
1F
100
AcDbEntity
  8
0
  6
Continuous
 62
     7
370
    15
100
AcDbCircle
 10
432.6125546741
 20
270.9199520849
 30
0.0
 40
5.0
100
AcDbArc
 50
90.0
 51
180.0
  0
LINE
  5
34F
330
1F
100
AcDbEntity
  8
0
  6
Continuous
 62
     7
370
    15
100
AcDbLine
 10
432.6125570583
 20
275.9199522875
 30
0.0
 11
482.612554078
 21
275.9199522875
 31
0.0
  0
ARC
  5
350
330
1F
100
AcDbEntity
  8
0
  6
Continuous
 62
     7
370
    15
100
AcDbCircle
 10
482.6125546741
 20
270.9199520849
 30
0.0
 40
5.0
100
AcDbArc
 50
0.0
 51
90.0
  0
LINE
  5
351
330
1F
100
AcDbEntity
  8
0
  6
Continuous
 62
     7
370
    15
100
AcDbLine
 10
487.6125493097
 20
270.9199533306
 30
0.0
 11
487.6125493097
 21
225.9199520081
 31
0.0
  0
LINE
  5
352
330
1F
100
AcDbEntity
  8
0
  6
Continuous
 62
     7
370
    15
100
AcDbLine
 10
435.9925576496
 20
237.2199528359
 30
0.0
 11
429.5925536203
 21
237.2199528359
 31
0.0
  0
LINE
  5
353
330
1F
100
AcDbEntity
  8
0
  6
Continuous
 62
     7
370
    15
100
AcDbLine
 10
435.9925576496
 20
243.419951617
 30
0.0
 11
435.9925576496
 21
237.2199528359
 31
0.0
  0
LINE
  5
354
330
1F
100
AcDbEntity
  8
0
  6
Continuous
 62
     7
370
    15
100
AcDbLine
 10
429.5925536203
 20
243.419951617
 30
0.0
 11
435.9925576496
 21
243.419951617
 31
0.0
  0
LINE
  5
355
330
1F
100
AcDbEntity
  8
0
  6
Continuous
 62
     7
370
    15
100
AcDbLine
 10
429.5925536203
 20
237.2199528359
 30
0.0
 11
429.5925536203
 21
243.419951617
 31
0.0
  0
LINE
  5
356
330
1F
100
AcDbEntity
  8
0
  6
Continuous
 62
     7
370
    15
100
AcDbLine
 10
435.9925576496
 20
258.4199503504
 30
0.0
 11
429.5925536203
 21
258.4199503504
 31
0.0
  0
LINE
  5
357
330
1F
100
AcDbEntity
  8
0
  6
Continuous
 62
     7
370
    15
100
AcDbLine
 10
435.9925576496
 20
264.6199509941
 30
0.0
 11
435.9925576496
 21
258.4199503504
 31
0.0
  0
LINE
  5
358
330
1F
100
AcDbEntity
  8
0
  6
Continuous
 62
     7
370
    15
100
AcDbLine
 10
429.5925536203
 20
264.6199509941
 30
0.0
 11
435.9925576496
 21
264.6199509941
 31
0.0
  0
LINE
  5
359
330
1F
100
AcDbEntity
  8
0
  6
Continuous
 62
     7
370
    15
100
AcDbLine
 10
429.5925536203
 20
258.4199503504
 30
0.0
 11
429.5925536203
 21
264.6199509941
 31
0.0
  0
LINE
  5
35A
330
1F
100
AcDbEntity
  8
0
  6
Continuous
 62
     7
370
    15
100
AcDbLine
 10
485.0325473594
 20
264.6199509941
 30
0.0
 11
485.0325473594
 21
258.4199503504
 31
0.0
  0
LINE
  5
35B
330
1F
100
AcDbEntity
  8
0
  6
Continuous
 62
     7
370
    15
100
AcDbLine
 10
478.6325582313
 20
264.6199509941
 30
0.0
 11
485.0325473594
 21
264.6199509941
 31
0.0
  0
LINE
  5
35C
330
1F
100
AcDbEntity
  8
0
  6
Continuous
 62
     7
370
    15
100
AcDbLine
 10
478.6325582313
 20
258.4199503504
 30
0.0
 11
478.6325582313
 21
264.6199509941
 31
0.0
  0
LINE
  5
35D
330
1F
100
AcDbEntity
  8
0
  6
Continuous
 62
     7
370
    15
100
AcDbLine
 10
485.0325473594
 20
258.4199503504
 30
0.0
 11
478.6325582313
 21
258.4199503504
 31
0.0
  0
LINE
  5
35E
330
1F
100
AcDbEntity
  8
0
  6
Continuous
 62
     7
370
    15
100
AcDbLine
 10
478.6325582313
 20
243.419951617
 30
0.0
 11
485.0325473594
 21
243.419951617
 31
0.0
  0
LINE
  5
35F
330
1F
100
AcDbEntity
  8
0
  6
Continuous
 62
     7
370
    15
100
AcDbLine
 10
478.6325582313
 20
237.2199528359
 30
0.0
 11
478.6325582313
 21
243.419951617
 31
0.0
  0
LINE
  5
360
330
1F
100
AcDbEntity
  8
0
  6
Continuous
 62
     7
370
    15
100
AcDbLine
 10
485.0325473594
 20
237.2199528359
 30
0.0
 11
478.6325582313
 21
237.2199528359
 31
0.0
  0
LINE
  5
361
330
1F
100
AcDbEntity
  8
0
  6
Continuous
 62
     7
370
    15
100
AcDbLine
 10
485.0325473594
 20
243.419951617
 30
0.0
 11
485.0325473594
 21
237.2199528359
 31
0.0
  0
CIRCLE
  5
362
330
1F
100
AcDbEntity
  8
0
  6
Continuous
 62
     7
370
    15
100
AcDbCircle
 10
481.8325546741
 20
250.9199520849
 30
0.0
 40
1.599999999999994
  0
CIRCLE
  5
363
330
1F
100
AcDbEntity
  8
0
  6
Continuous
 62
     7
370
    15
100
AcDbCircle
 10
432.7925546741
 20
250.9199520849
 30
0.0
 40
1.599999999999994
  0
CIRCLE
  5
364
330
1F
100
AcDbEntity
  8
0
  6
Continuous
 62
     7
370
    15
100
AcDbCircle
 10
441.8125546741
 20
270.7199520849
 30
0.0
 40
1.599999999999966
  0
CIRCLE
  5
365
330
1F
100
AcDbEntity
  8
0
  6
Continuous
 62
     7
370
    15
100
AcDbCircle
 10
472.8125546741
 20
270.7199520849
 30
0.0
 40
1.599999999999966
  0
CIRCLE
  5
366
330
1F
100
AcDbEntity
  8
0
  6
Continuous
 62
     7
370
    15
100
AcDbCircle
 10
472.8125546741
 20
239.7199520849
 30
0.0
 40
1.599999999999994
  0
CIRCLE
  5
367
330
1F
100
AcDbEntity
  8
0
  6
Continuous
 62
     7
370
    15
100
AcDbCircle
 10
441.8125546741
 20
239.7199520849
 30
0.0
 40
1.599999999999994
  0
LINE
  5
368
330
1F
100
AcDbEntity
  8
0
  6
Continuous
 62
     7
370
    15
100
AcDbLine
 10
449.7125484991
 20
225.9199520081
 30
0.0
 11
449.7125484991
 21
219.5699520849
 31
0.0
  0
LINE
  5
369
330
1F
100
AcDbEntity
  8
0
  6
Continuous
 62
     7
370
    15
100
AcDbLine
 10
443.7125512409
 20
219.5699520849
 30
0.0
 11
443.7125512409
 21
225.9199520081
 31
0.0
  0
LINE
  5
36A
330
1F
100
AcDbEntity
  8
0
  6
Continuous
 62
     7
370
    15
100
AcDbLine
 10
458.8006168676
 20
384.4191787926
 30
0.0
 11
452.6966051721
 21
382.6688816044
 31
0.0
  0
LINE
  5
36B
330
1F
100
AcDbEntity
  8
0
  6
Continuous
 62
     7
370
    15
100
AcDbLine
 10
452.6966051721
 20
382.6688816044
 30
0.0
 11
455.4460881316
 21
373.0802950185
 31
0.0
  0
LINE
  5
36C
330
1F
100
AcDbEntity
  8
0
  6
Continuous
 62
     7
370
    15
100
AcDbLine
 10
455.4460881316
 20
373.0802950185
 30
0.0
 11
445.2155414745
 21
370.1207289201
 31
0.0
  0
LINE
  5
36D
330
1F
100
AcDbEntity
  8
0
  6
Continuous
 62
     7
370
    15
100
AcDbLine
 10
445.2155414745
 20
370.1207289201
 30
0.0
 11
446.9658395613
 21
364.0167140913
 31
0.0
  0
LINE
  5
36E
330
1F
100
AcDbEntity
  8
0
  6
Continuous
 62
     7
370
    15
100
AcDbLine
 10
446.9658395613
 20
364.0167140913
 30
0.0
 11
457.203276242
 21
366.9522518215
 31
0.0
  0
LINE
  5
36F
330
1F
100
AcDbEntity
  8
0
  6
Continuous
 62
     7
370
    15
100
AcDbLine
 10
457.203276242
 20
366.9522518215
 30
0.0
 11
459.9596492252
 21
357.3396368675
 31
0.0
  0
LINE
  5
370
330
1F
100
AcDbEntity
  8
0
  6
Continuous
 62
     7
370
    15
100
AcDbLine
 10
459.9596492252
 20
357.3396368675
 30
0.0
 11
452.2832131458
 21
355.1384542427
 31
0.0
  0
ARC
  5
371
330
1F
100
AcDbEntity
  8
0
  6
Continuous
 62
     7
370
    15
100
AcDbCircle
 10
448.9755648135
 20
366.6735937699
 30
0.0
 40
12.00000000000002
100
AcDbArc
 50
260.9647629484
 51
286.0
  0
LINE
  5
372
330
1F
100
AcDbEntity
  8
0
  6
Continuous
 62
     7
370
    15
100
AcDbLine
 10
447.0910616519
 20
354.8224928312
 30
0.0
 11
426.3845699461
 21
358.1151299961
 31
0.0
  0
LINE
  5
373
330
1F
100
AcDbEntity
  8
0
  6
Continuous
 62
     7
370
    15
100
AcDbLine
 10
426.3845699461
 20
358.1151299961
 30
0.0
 11
424.6342718594
 21
364.2191448249
 31
0.0
  0
LINE
  5
374
330
1F
100
AcDbEntity
  8
0
  6
Continuous
 62
     7
370
    15
100
AcDbLine
 10
424.6342718594
 20
364.2191448249
 30
0.0
 11
425.3666946786
 21
430.0572413106
 31
0.0
  0
ARC
  5
375
330
1F
100
AcDbEntity
  8
0
  6
Continuous
 62
     7
370
    15
100
AcDbCircle
 10
437.3659524075
 20
429.9237548772
 30
0.0
 40
12.00000000000005
100
AcDbArc
 50
106.0
 51
179.3626350552
  0
LINE
  5
376
330
1F
100
AcDbEntity
  8
0
  6
Continuous
 62
     7
370
    15
100
AcDbLine
 10
434.0583060733
 20
441.4588883427
 30
0.0
 11
435.7035640984
 21
441.9306584897
 31
0.0
  0
LINE
  5
377
330
1F
100
AcDbEntity
  8
0
  6
Continuous
 62
     7
370
    15
100
AcDbLine
 10
435.7035640984
 20
441.9306584897
 30
0.0
 11
438.4599350279
 21
432.3180506977
 31
0.0
  0
LINE
  5
378
330
1F
100
AcDbEntity
  8
0
  6
Continuous
 62
     7
370
    15
100
AcDbLine
 10
438.4599350279
 20
432.3180506977
 30
0.0
 11
444.5639467233
 21
434.068347886
 31
0.0
  0
LINE
  5
379
330
1F
100
AcDbEntity
  8
0
  6
Continuous
 62
     7
370
    15
100
AcDbLine
 10
444.5639467233
 20
434.068347886
 30
0.0
 11
441.8075757938
 21
443.680955678
 31
0.0
  0
LINE
  5
37A
330
1F
100
AcDbEntity
  8
0
  6
Continuous
 62
     7
370
    15
100
AcDbLine
 10
441.8075757938
 20
443.680955678
 30
0.0
 11
469.6841637263
 21
451.6744386384
 31
0.0
  0
ARC
  5
37B
330
1F
100
AcDbEntity
  8
0
  6
Continuous
 62
     7
370
    15
100
AcDbCircle
 10
472.9918113481
 20
440.1393055421
 30
0.0
 40
11.99999999999999
100
AcDbArc
 50
16.0
 51
106.0
  0
LINE
  5
37C
330
1F
100
AcDbEntity
  8
0
  6
Continuous
 62
     7
370
    15
100
AcDbLine
 10
484.5269527266
 20
443.4469523703
 30
0.0
 11
490.4828699469
 21
422.6762006297
 31
0.0
  0
ARC
  5
37D
330
1F
100
AcDbEntity
  8
0
  6
Continuous
 62
     7
370
    15
100
AcDbCircle
 10
478.9477291494
 20
419.3685517755
 30
0.0
 40
11.99999999999999
100
AcDbArc
 50
312.7325006161
 51
16.0
  0
LINE
  5
37E
330
1F
100
AcDbEntity
  8
0
  6
Continuous
 62
     7
370
    15
100
AcDbLine
 10
487.0906438613
 20
410.5541986342
 30
0.0
 11
458.8006168676
 21
384.4191787926
 31
0.0
  0
CIRCLE
  5
37F
330
1F
100
AcDbEntity
  8
0
  6
Continuous
 62
     7
370
    15
100
AcDbCircle
 10
436.4780732547
 20
364.312347569
 30
0.0
 40
1.599999999999968
  0
CIRCLE
  5
380
330
1F
100
AcDbEntity
  8
0
  6
Continuous
 62
     7
370
    15
100
AcDbCircle
 10
448.6302762836
 20
408.368613713
 30
0.0
 40
1.599999999999968
  0
CIRCLE
  5
381
330
1F
100
AcDbEntity
  8
0
  6
Continuous
 62
     7
370
    15
100
AcDbCircle
 10
473.4731360059
 20
439.5491135617
 30
0.0
 40
4.000000000000036
  0
CIRCLE
  5
382
330
1F
100
AcDbEntity
  8
0
  6
Continuous
 62
     7
370
    15
100
AcDbCircle
 10
478.1589710548
 20
423.2076647307
 30
0.0
 40
4.999999999999948
  0
ENDSEC
  0
SECTION
  2
OBJECTS
  0
DICTIONARY
  5
C
330
0
100
AcDbDictionary
281
     1
  3
ACAD_GROUP
350
D
  3
ACAD_LAYOUT
350
1A
  3
ACAD_MLINESTYLE
350
17
  3
ACAD_PLOTSETTINGS
350
19
  3
ACAD_PLOTSTYLENAME
350
E
  0
DICTIONARY
  5
D
102
{ACAD_REACTORS
330
C
102
}
330
C
100
AcDbDictionary
281
     1
  0
DICTIONARY
  5
1A
102
{ACAD_REACTORS
330
C
102
}
330
C
100
AcDbDictionary
281
     1
  3
Layout1
350
1E
  3
Layout2
350
26
  3
Model
350
22
  0
DICTIONARY
  5
17
102
{ACAD_REACTORS
330
C
102
}
330
C
100
AcDbDictionary
281
     1
  3
Standard
350
18
  0
DICTIONARY
  5
19
102
{ACAD_REACTORS
330
C
102
}
330
C
100
AcDbDictionary
281
     1
  0
ACDBDICTIONARYWDFLT
  5
E
102
{ACAD_REACTORS
330
C
102
}
330
C
100
AcDbDictionary
281
     1
  3
Normal
350
F
100
AcDbDictionaryWithDefault
340
F
  0
LAYOUT
  5
1E
102
{ACAD_REACTORS
330
1A
102
}
330
1A
100
AcDbPlotSettings
  1

  2
none_device
  4

  6

 40
0.0
 41
0.0
 42
0.0
 43
0.0
 44
0.0
 45
0.0
 46
0.0
 47
0.0
 48
0.0
 49
0.0
140
0.0
141
0.0
142
1.0
143
1.0
 70
   688
 72
     0
 73
     0
 74
     5
  7

 75
    16
147
1.0
148
0.0
149
0.0
100
AcDbLayout
  1
Layout1
 70
     1
 71
     1
 10
0.0
 20
0.0
 11
420.0
 21
297.0
 12
0.0
 22
0.0
 32
0.0
 14
1.0000000000E+20
 24
1.0000000000E+20
 34
1.0000000000E+20
 15
-1.0000000000E+20
 25
-1.0000000000E+20
 35
-1.0000000000E+20
146
0.0
 13
0.0
 23
0.0
 33
0.0
 16
1.0
 26
0.0
 36
0.0
 17
0.0
 27
1.0
 37
0.0
 76
     0
330
1B
  0
LAYOUT
  5
26
102
{ACAD_REACTORS
330
1A
102
}
330
1A
100
AcDbPlotSettings
  1

  2
none_device
  4

  6

 40
0.0
 41
0.0
 42
0.0
 43
0.0
 44
0.0
 45
0.0
 46
0.0
 47
0.0
 48
0.0
 49
0.0
140
0.0
141
0.0
142
1.0
143
1.0
 70
   688
 72
     0
 73
     0
 74
     5
  7

 75
    16
147
1.0
148
0.0
149
0.0
100
AcDbLayout
  1
Layout2
 70
     1
 71
     2
 10
0.0
 20
0.0
 11
0.0
 21
0.0
 12
0.0
 22
0.0
 32
0.0
 14
0.0
 24
0.0
 34
0.0
 15
0.0
 25
0.0
 35
0.0
146
0.0
 13
0.0
 23
0.0
 33
0.0
 16
1.0
 26
0.0
 36
0.0
 17
0.0
 27
1.0
 37
0.0
 76
     0
330
23
  0
LAYOUT
  5
22
102
{ACAD_REACTORS
330
1A
102
}
330
1A
100
AcDbPlotSettings
  1

  2
none_device
  4

  6

 40
0.0
 41
0.0
 42
0.0
 43
0.0
 44
0.0
 45
0.0
 46
0.0
 47
0.0
 48
0.0
 49
0.0
140
0.0
141
0.0
142
1.0
143
1.0
 70
  1712
 72
     0
 73
     0
 74
     0
  7

 75
     0
147
1.0
148
0.0
149
0.0
100
AcDbLayout
  1
Model
 70
     1
 71
     0
 10
0.0
 20
0.0
 11
1220.0
 21
610.0
 12
0.0
 22
0.0
 32
0.0
 14
0.0
 24
0.0
 34
0.0
 15
1220.0
 25
610.0
 35
0.0
146
0.0
 13
0.0
 23
0.0
 33
0.0
 16
1.0
 26
0.0
 36
0.0
 17
0.0
 27
1.0
 37
0.0
 76
     0
330
1F
331
29
  0
MLINESTYLE
  5
18
102
{ACAD_REACTORS
330
17
102
}
330
17
100
AcDbMlineStyle
  2
Standard
 70
     0
  3

 62
   256
 51
90.0
 52
90.0
 71
     2
 49
0.5
 62
   256
  6
BYLAYER
 49
-0.5
 62
   256
  6
BYLAYER
  0
ACDBPLACEHOLDER
  5
F
102
{ACAD_REACTORS
330
E
102
}
330
E
  0
ENDSEC
  0
EOF
